<svg xmlns="http://www.w3.org/2000/svg" width="20" height="20" viewBox="0 0 20 20">
  <defs>
    <style>
      .cls-1 {
        fill: #b9b9b9;
      }
    </style>
  </defs>
  <g id="그룹_3967" data-name="그룹 3967" transform="translate(-1596.975 -676.885)">
    <path id="패스_83589" data-name="패스 83589" class="cls-1" d="M1610.25,686.885a.875.875,0,0,1,.875-.875h2.031a6.253,6.253,0,0,0-5.306-5.306v2.031a.875.875,0,0,1-1.75,0V680.7a6.252,6.252,0,0,0-5.306,5.306h2.031a.875.875,0,0,1,0,1.75h-2.031a6.254,6.254,0,0,0,5.306,5.307v-2.032a.875.875,0,0,1,1.75,0v2.032a6.254,6.254,0,0,0,5.306-5.307h-2.031A.875.875,0,0,1,1610.25,686.885Z"/>
    <path id="패스_83590" data-name="패스 83590" class="cls-1" d="M1606.975,676.885a10,10,0,1,0,10,10A10,10,0,0,0,1606.975,676.885Zm0,18a8,8,0,1,1,8-8A8,8,0,0,1,1606.975,694.885Z"/>
  </g>
</svg>
