<svg xmlns="http://www.w3.org/2000/svg" width="20" height="20" viewBox="0 0 20 20">
    <g>
        <g>
            <path fill="#b9b9b9" d="M20.179 9.448v-.132L18.11 4.527A.829.829 0 0 0 17.365 4H4.948a.829.829 0 0 0-.745.527L2.175 9.316v.132a2.767 2.767 0 0 0 .414 2.285 2.866 2.866 0 0 0 1.159.879v7.645a1.282 1.282 0 0 0 1.242 1.318h7.41c.113.014 3.612.014 3.725 0h1.242a1.282 1.282 0 0 0 1.242-1.318v-7.645a2.866 2.866 0 0 0 1.159-.879 2.767 2.767 0 0 0 .414-2.285zM11.156 18.5H6.6v-4.394h4.553zm7.284-7.865a.854.854 0 0 1-.745.4h-.414a.841.841 0 0 1-.642-.254.951.951 0 0 1-.269-.668.829.829 0 1 0-1.656 0 .951.951 0 0 1-.269.668.841.841 0 0 1-.642.254h-.911a.841.841 0 0 1-.642-.254.951.951 0 0 1-.269-.668.829.829 0 1 0-1.656 0 .951.951 0 0 1-.269.668.841.841 0 0 1-.642.254h-.906a.841.841 0 0 1-.642-.254.951.951 0 0 1-.269-.668.829.829 0 1 0-1.656 0 .951.951 0 0 1-.269.668.841.841 0 0 1-.642.254h-.413a.854.854 0 0 1-.745-.4.965.965 0 0 1-.166-.659l1.78-4.218h11.34l1.78 4.218a.965.965 0 0 1-.166.659z" transform="translate(-830 -4813) translate(830.91 4814.207) translate(-2.087 -4)"/>
        </g>
    </g>
</svg>
