<svg xmlns="http://www.w3.org/2000/svg" width="34" height="34" viewBox="0 0 34 34">
    <defs>
        <style>
            .cls-5{stroke:#1b1b1b;fill:#1b1b1b;stroke-width:.2px}
        </style>
    </defs>
    <g id="그룹_161785" transform="translate(14649 14956)">
        <path id="사각형_147828" fill="rgba(255,255,255,0)" d="M0 0H34V34H0z" transform="translate(-14649 -14956)"/>
        <g id="그룹_161758" transform="translate(-15427.055 -15283.646)">
            <g id="그룹_444" fill="none" transform="translate(778.055 332.646)">
                <path id="패스_100" stroke="#1b1b1b" stroke-miterlimit="10" d="M794.617 346.926a66.941 66.941 0 0 1-9.949 4.78 12.708 12.708 0 0 0 6.8 2.02 12.383 12.383 0 0 0 12.4-12.365v-.034a4.3 4.3 0 0 0-.039-.7 63.934 63.934 0 0 1-9.212 6.299z" transform="translate(-775.007 -328.967)"/>
                <g id="패스_101" stroke="none" stroke-miterlimit="5.5">
                    <path d="M810.841 335.68c-.622-1.088-3.226-.894-6.882.311 2.41-.077 5.17.234 1.559 3.42a12.348 12.348 0 0 0-23.36 5.636 12.708 12.708 0 0 0 2.176 6.953c-4.7 1.905-4.082 0-2.527-3.109-2.915 2.6-4.2 4.508-3.614 5.6 1.169 2.06 9.48-.466 18.463-5.674 9.094-5.21 15.43-11.078 14.185-13.137z" transform="translate(-778.055 -332.646)"/>
                    <path fill="#1b1b1b" d="M794.496 333.646c-1.79 0-3.514.414-5.124 1.23-1.878.952-3.45 2.405-4.55 4.201-1.097 1.796-1.673 3.858-1.665 5.963.03 2.29.723 4.505 2.006 6.405l.691 1.023-1.144.463c-1.406.57-2.406.835-3.146.835-.945 0-1.412-.435-1.637-.8-.089-.143-.153-.295-.195-.456-.074.102-.143.202-.207.299-.456.698-.5 1.077-.458 1.196.05.052.331.205 1.063.205 2.605 0 8.57-1.935 16.024-6.257l.004-.002c3.696-2.118 7.129-4.47 9.666-6.625 2.32-1.97 3.868-3.77 4.139-4.818.051-.199.033-.293.022-.31l-.012-.021c-.026-.042-.295-.212-1.06-.212-.29 0-.614.024-.97.07.081.116.15.245.204.387.503 1.331-.787 2.698-1.968 3.74l-.969.854-.584-1.152c-.967-1.906-2.44-3.492-4.262-4.588-1.773-1.066-3.802-1.63-5.868-1.63m0-1c4.504 0 8.845 2.474 11.022 6.765 3.61-3.186.85-3.497-1.56-3.42 3.657-1.205 6.26-1.4 6.883-.31 1.245 2.058-5.091 7.926-14.185 13.137-8.984 5.208-17.295 7.734-18.464 5.674-.583-1.088.7-2.993 3.615-5.596-1.555 3.108-2.177 5.014 2.527 3.108-1.39-2.056-2.146-4.474-2.177-6.956-.019-4.671 2.598-8.953 6.763-11.064 1.79-.908 3.697-1.338 5.576-1.338z" transform="translate(-778.055 -332.646)"/>
                </g>
            </g>
            <g id="그룹_161757" transform="translate(785.775 341.373)" style="isolation:isolate">
                <path id="패스_83594" d="M786.639 341.434l-.006.1c0 .019-.01.142-.029.365-.016.171-.023.3-.023.394 0 .117 0 .213.006.291a.878.878 0 0 1 .006.1c0 .042-.01.064-.029.064s-.041-.019-.064-.058a.65.65 0 0 0-.272-.272 1.419 1.419 0 0 1-.933.371 1.863 1.863 0 0 1-1.341-.568 2.043 2.043 0 0 1-.614-1.519 2.09 2.09 0 0 1 .554-1.483 1.811 1.811 0 0 1 1.383-.595 1.352 1.352 0 0 1 .684.174.626.626 0 0 0 .256.1.309.309 0 0 0 .227-.111c.05-.054.08-.08.092-.08s.023.013.023.041a.283.283 0 0 1-.006.051 2.841 2.841 0 0 0-.035.488c0 .019 0 .1.006.238v.4c0 .069-.019.1-.057.1s-.063-.076-.094-.226q-.208-1.043-.957-1.043c-.394 0-.681.254-.859.766a3.777 3.777 0 0 0-.186 1.252 2.38 2.38 0 0 0 .441 1.59.768.768 0 0 0 .609.267q.817 0 1.072-1.091c.028-.12.058-.18.094-.18s.055.023.052.074z" class="cls-5" transform="translate(-783.339 -338.62)"/>
                <path id="패스_83595" d="M789.463 342.455c0 .218-.14.326-.424.326a1.116 1.116 0 0 1-.852-.337.975.975 0 0 1-.285-.558l-.057-.478a1.259 1.259 0 0 0-.212-.634.607.607 0 0 0-.5-.174v1.321c0 .305 0 .47.006.494a.139.139 0 0 0 .082.137.835.835 0 0 0 .307.038c.094 0 .139.018.139.051s-.022.047-.069.047h-1.748c-.054 0-.082-.013-.082-.041s.08-.051.238-.057c.131-.009.209-.039.232-.093a.927.927 0 0 0 .017-.244v-3a2.963 2.963 0 0 0-.012-.358.127.127 0 0 0-.076-.085.708.708 0 0 0-.26-.034c-.086 0-.129-.018-.129-.053s.018-.044.053-.05a2.459 2.459 0 0 1 .279-.009h1.166a3.216 3.216 0 0 1 1.107.127.83.83 0 0 1 .371.3.763.763 0 0 1 .139.446.87.87 0 0 1-.58.824 2.609 2.609 0 0 1-.754.174l-.006.035a1.37 1.37 0 0 1 .916.333 1.534 1.534 0 0 1 .343.948 1.534 1.534 0 0 0 .145.653.266.266 0 0 0 .2.13c.058 0 .086-.015.086-.045s-.022-.038-.066-.064a.129.129 0 0 1-.067-.115c0-.105.058-.158.174-.158s.179.071.179.203zM788 339.526q0-.747-.592-.748c-.127 0-.208.042-.238.129a3.461 3.461 0 0 0-.029.631v.963a.817.817 0 0 0 .656-.225 1.133 1.133 0 0 0 .203-.75z" class="cls-5" transform="translate(-782.219 -338.598)"/>
                <path id="패스_83596" d="M791.571 341.677c0 .009 0 .188-.007.541 0 .186-.006.319-.007.4v.115q-1.532-.07-2.681-.041h-.486q-.105 0-.105-.044c0-.022.009-.035.026-.038s.076-.009.178-.016c.181-.012.279-.064.3-.156a1.18 1.18 0 0 0 .012-.168v-2.936c0-.232 0-.359-.006-.383a.156.156 0 0 0-.058-.127.435.435 0 0 0-.215-.035q-.18 0-.18-.053c0-.038.054-.057.159-.057s.256 0 .444-.006q1.067-.024 1.746-.012h.394c.085 0 .19-.006.314-.018l.051.633c.019.2.029.324.029.371a.051.051 0 0 1-.058.057c-.038 0-.064-.05-.076-.15a.784.784 0 0 0-.323-.583 1.436 1.436 0 0 0-.8-.183c-.109 0-.3.006-.56.018v1.711a2.016 2.016 0 0 0 .808-.089c.111-.064.185-.229.224-.5.021-.143.05-.213.089-.213s.051.034.051.1 0 .212-.018.429v.3c0 .333 0 .584.01.754a.478.478 0 0 1 .007.088c0 .047-.018.069-.054.069a.055.055 0 0 1-.053-.025 1.234 1.234 0 0 1-.034-.188 1.042 1.042 0 0 0-.161-.514.724.724 0 0 0-.469-.1h-.4v1.949h.373c.427-.009.687-.018.78-.029a.839.839 0 0 0 .338-.127.642.642 0 0 0 .2-.25 2.909 2.909 0 0 0 .12-.494c.012-.057.031-.086.058-.086s.04.029.04.086z" class="cls-5" transform="translate(-781.061 -338.609)"/>
                <path id="패스_83597" d="M796.1 338.719c0 .031-.029.048-.088.051a.764.764 0 0 0-.33.061.675.675 0 0 0-.156.292c-.035.089-.088.225-.156.406l-.238.7c-.054.148-.137.37-.245.668l-.286.793q-.3.844-.333.97c-.016.051-.032.076-.053.076s-.042-.019-.057-.056-.06-.169-.134-.4q-.145-.451-.424-1.125l-.2-.475q-.579 1.24-.834 1.971c-.019.054-.041.082-.064.082a1.078 1.078 0 0 1-.145-.308l-.707-1.847q-.256-.7-.656-1.661a.194.194 0 0 0-.133-.129.76.76 0 0 0-.2-.018c-.1 0-.151-.016-.151-.051s.026-.047.08-.047h1.525c.051 0 .076.019.076.057s-.061.05-.186.047c-.066 0-.1.018-.1.051a.152.152 0 0 0 .012.053q.127.351.389 1.049l.594 1.532.406-.929c-.056-.168-.167-.472-.33-.91-.031-.069-.073-.174-.127-.314l-.058-.161a.905.905 0 0 0-.164-.317.443.443 0 0 0-.269-.056c-.038 0-.058-.02-.058-.051s.036-.051.111-.051h2.343c.073 0 .11.013.11.051s-.029.047-.086.047c-.275 0-.434.042-.476.139a9.051 9.051 0 0 0-.412.882q.2.522.643 1.651c.063-.159.13-.335.2-.527.061-.162.164-.438.3-.828.091-.259.167-.47.229-.633a2.076 2.076 0 0 0 .156-.533.137.137 0 0 0-.115-.145 1.1 1.1 0 0 0-.209-.012c-.063 0-.093-.015-.093-.045s.029-.047.088-.047H796.041c.039 0 .059.015.059.047zm-1.99.207c0-.1-.092-.156-.278-.156s-.285.035-.285.1a2.725 2.725 0 0 0 .278.738 3.142 3.142 0 0 0 .285-.682z" class="cls-5" transform="translate(-780.034 -338.596)"/>
            </g>
        </g>
    </g>
</svg>
