<svg xmlns="http://www.w3.org/2000/svg" width="34" height="34" viewBox="0 0 34 34">
    <defs>
        <style>
            .cls-2{fill:none;stroke:#1b1b1b;stroke-miterlimit:10}
        </style>
    </defs>
    <g id="그룹_3857" transform="translate(-.4)">
        <path id="사각형_147851" fill="none" d="M0 0H34V34H0z" transform="translate(.4)"/>
        <g id="그룹_3856" transform="translate(1.859 5.382)">
            <g id="그룹_3854" transform="translate(3.42)">
                <rect id="사각형_147852" width="7.143" height="3.261" class="cls-2" rx="1.453" transform="rotate(-45 17.689 7.327)"/>
                <rect id="사각형_147853" width="7.143" height="3.261" class="cls-2" rx="1.453" transform="rotate(-45 21.624 5.696)"/>
                <rect id="사각형_147854" width="7.143" height="3.261" class="cls-2" rx="1.453" transform="rotate(-45 25.56 4.067)"/>
                <rect id="사각형_147855" width="7.143" height="3.261" class="cls-2" rx="1.453" transform="rotate(-45 29.497 2.436)"/>
                <path id="패스_83573" d="M450.669 503.549l-3.247 3.247a3.26 3.26 0 0 1-4.61 0l4.948-4.949a2.477 2.477 0 0 1 3.3-.316 2.619 2.619 0 0 0 2.9.09l2.792-2.792 6.237 6.237-5.918 5.918" class="cls-2" transform="translate(-436.124 -498.829)"/>
            </g>
            <g id="그룹_3855">
                <path id="패스_83574" d="M452.87 511.521l2.868 2.868a1.543 1.543 0 0 0 2.183 0l.122-.122a1.545 1.545 0 0 0 0-2.183l-8.325-8.324" class="cls-2" transform="translate(-432.273 -498.521)"/>
                <path id="패스_83575" d="M451.03 513.918l2.32 2.319a1.543 1.543 0 0 0 2.183 0l.122-.122a1.545 1.545 0 0 0 0-2.183l-2.868-2.868" class="cls-2" transform="translate(-432.191 -498.064)"/>
                <path id="패스_83576" d="M449.321 516.545l1.831 1.83a1.543 1.543 0 0 0 2.183 0l.122-.122a1.545 1.545 0 0 0 0-2.183l-2.32-2.319" class="cls-2" transform="translate(-432.298 -497.896)"/>
                <path id="패스_83577" d="M447.549 519.109l1.408 1.407a1.543 1.543 0 0 0 2.183 0l.122-.122a1.545 1.545 0 0 0 0-2.183l-1.831-1.83" class="cls-2" transform="translate(-432.408 -497.732)"/>
                <path id="패스_83579" d="M448.439 501.764a2.461 2.461 0 0 0-3.214-.233 2.619 2.619 0 0 1-2.9.09l-2.793-2.792-6.237 6.237 5.919 5.918" class="cls-2" transform="translate(-433.299 -498.829)"/>
            </g>
        </g>
    </g>
</svg>
