<svg xmlns="http://www.w3.org/2000/svg" width="34" height="34" viewBox="0 0 34 34">
    <defs>
        <style>
            .cls-2{fill:none;stroke:#1b1b1b;stroke-miterlimit:10}
        </style>
    </defs>
    <g id="그룹_3859">
        <path id="사각형_147827" fill="rgba(255,255,255,0)" d="M0 0H34V34H0z"/>
        <g id="그룹_3858" transform="translate(3.984 3.984)">
            <circle id="타원_9673" cx="13.016" cy="13.016" r="13.016" class="cls-2"/>
            <path id="패스_83580" d="M279.853 499.481a11.08 11.08 0 0 1 .342 2.46c-.051.891-.995 1.477-1.883 1.782a6.267 6.267 0 0 0-1.807 1.552 1.179 1.179 0 0 1-1.613.174" class="cls-2" transform="translate(-273.914 -497.391)"/>
            <path id="패스_83581" d="M274.2 507.371s2.272.056 2.367 1.063-.168 2.516.551 3.067 1.79 1.382 1.925 2.081-.52 1.654-.572 2.339c-.1 1.261.331 2.414-1.127 2.757" class="cls-2" transform="translate(-273.957 -496.898)"/>
            <path id="패스_83582" d="M290.01 497.955a1.364 1.364 0 0 0-.607 1.31c.163.813.732 2.032-.921 1.951s-1.993.542-1.944 1.192-.928 1.138-1.144 1.381-.731 1.166.434 1.22 3.983-.244 4.389.434.732 1.734-.271 1.869a9.79 9.79 0 0 1-4.253-.434 3.632 3.632 0 0 0-4.5 3.143c-.3 2.844 2.9 3.115 3.468 3.089a2.155 2.155 0 0 1 1.553.344 2.182 2.182 0 0 1 .322 1.444c-.015.471.568.676.538 1.248a5.992 5.992 0 0 0 .358 2.734c.41.634.83.962 1.2.962s.983-.245 1.925-1.116a2.81 2.81 0 0 0 1.187-2.2 3.649 3.649 0 0 1 .42-2.16c.43-.563 1.25-1.659 1.372-1.822s.5-.543.092-.819-1.515-.7-1.833-1.279-.471-.881-.235-1.188a.773.773 0 0 1 .972-.235c.327.174.921.512 1.331.225s.071-1.024 0-1.28a.945.945 0 0 1 .2-1.064 1.111 1.111 0 0 1 1.315.01c.328.267.748.778 1.311.492s1.977-.954 2.636.653" class="cls-2" transform="translate(-273.521 -497.486)"/>
            <path id="패스_83583" d="M280.669 520.749a6.95 6.95 0 0 1 4.083-1.058 5.261 5.261 0 0 1 3.784 2.322" class="cls-2" transform="translate(-273.553 -496.128)"/>
        </g>
    </g>
</svg>
