<svg xmlns="http://www.w3.org/2000/svg" width="24" height="24" viewBox="0 0 24 24">
    <g data-name="그룹 162135">
        <g style="fill:none" data-name="그룹 161890">
            <path d="M1410.307 502.976a5.789 5.789 0 0 0-8.186 0l-1.121 1.117-1.115-1.117a5.791 5.791 0 1 0-8.192 8.187l1.115 1.117 8.187 8.187 8.194-8.186 1.115-1.116a5.793 5.793 0 0 0 0-8.189z" style="stroke:none" transform="translate(-1389.001 -497.873)"/>
            <path d="M1395.791 502.779a4.263 4.263 0 0 0-3.033 1.256 4.264 4.264 0 0 0-1.258 3.034 4.26 4.26 0 0 0 1.256 3.034l1.115 1.116 7.127 7.127 8.248-8.241a4.296 4.296 0 0 0 0-6.068 4.26 4.26 0 0 0-3.033-1.256 4.261 4.261 0 0 0-3.033 1.256l-2.177 2.178-2.176-2.178a4.264 4.264 0 0 0-3.036-1.258m0-1.5c1.483 0 2.966.566 4.097 1.697l1.115 1.117 1.118-1.118a5.789 5.789 0 0 1 8.186.001 5.793 5.793 0 0 1 0 8.19l-1.116 1.115-8.193 8.186-9.303-9.304a5.79 5.79 0 0 1 4.096-9.884z" style="fill:#fff;stroke:none" transform="translate(-1389.001 -497.873)"/>
        </g>
        <path data-name="사각형 148327" style="fill:none" d="M0 0h24v24H0z"/>
    </g>
</svg>
