<svg xmlns="http://www.w3.org/2000/svg" width="34" height="34" viewBox="0 0 34 34">
    <defs>
        <style>
            .cls-2{fill:none;stroke:#1b1b1b}.cls-3{fill:#1b1b1b}
        </style>
    </defs>
    <g id="그룹_3853" transform="translate(.2)">
        <path id="사각형_147850" fill="none" d="M0 0H34V34H0z" transform="translate(-.2)"/>
        <g id="그룹_3852" transform="translate(2.391 3.067)">
            <path id="패스_83568" d="M505.634 521.371a9.044 9.044 0 1 0-6.313 2.57h9.769z" class="cls-2" transform="translate(-479.87 -496.075)"/>
            <g id="그룹_3850" transform="translate(18.966 14.447)">
                <path id="패스_83569" d="M498.332 513.088v-2.841h1.69v2.841l-.233 3.467h-1.225zm1.69 5.9h-1.69v-1.617h1.69z" class="cls-3" transform="translate(-498.332 -510.247)"/>
            </g>
            <path id="패스_83570" d="M490.917 514.718c-.22.016-.442.024-.666.024h-9.769l3.454-2.571A9.045 9.045 0 1 1 499.3 505.7c0 .245-.011.488-.03.729" class="cls-2" transform="translate(-480.482 -496.65)"/>
            <g id="그룹_3851" transform="translate(6.902 4.574)">
                <path id="패스_83571" d="M486.978 503.477a3.236 3.236 0 0 1 .153-1.016 2.178 2.178 0 0 1 .454-.8 2.088 2.088 0 0 1 .76-.521 2.755 2.755 0 0 1 1.059-.189 2.636 2.636 0 0 1 1.941.643 2.322 2.322 0 0 1 .643 1.721 2.7 2.7 0 0 1-.165.955 3.319 3.319 0 0 1-.607.955l-.49.551a2.839 2.839 0 0 0-.459.649 1.753 1.753 0 0 0-.141.76v.183h-1.519v-.468a2.749 2.749 0 0 1 .172-1.035 3.137 3.137 0 0 1 .588-.888l.465-.527a1.62 1.62 0 0 0 .361-.607 2.224 2.224 0 0 0 .1-.692 1.255 1.255 0 0 0-.208-.753.721.721 0 0 0-.625-.288.7.7 0 0 0-.667.374 2.037 2.037 0 0 0-.2.973v.307h-1.617zm3.234 6.321h-1.69v-1.616h1.69z" class="cls-3" transform="translate(-486.978 -500.955)"/>
            </g>
        </g>
    </g>
</svg>
