<svg xmlns="http://www.w3.org/2000/svg" width="107.15" height="17.743" viewBox="0 0 107.15 17.743">
    <defs>
        <style>
            .cls-1{fill:#1b1b1b}
        </style>
    </defs>
    <g id="그룹_161916" data-name="그룹 161916" transform="translate(-19.946 -19.128)">
        <g id="HATCH" transform="translate(101.28 19.128)">
            <path id="패스_83569" data-name="패스 83569" class="cls-1" d="M399.762 552.05c0-6.125 8.409-7 8.409-11.034a2.839 2.839 0 0 0-3.087-2.844 4.382 4.382 0 0 0-3.476 2.188l-1.775-1.191a6.162 6.162 0 0 1 5.42-3.257c3.16 0 5.42 1.969 5.42 4.934 0 5.639-8.191 6.514-8.24 10.427h8.507v2.09h-11.057a8.533 8.533 0 0 1-.121-1.313z" transform="translate(-399.762 -535.911)"/>
        </g>
        <g id="HATCH-2" data-name="HATCH" transform="translate(19.984 20.844)">
            <path id="패스_83571" data-name="패스 83571" class="cls-1" d="M22.433 547.156h-5.042v13.484h-2.94v-13.484H9.388l.038-2.516h13.007v2.516z" transform="translate(-9.425 -544.64)"/>
        </g>
        <g id="HATCH-3" data-name="HATCH" transform="translate(59.063 20.953)">
            <path id="패스_83573" data-name="패스 83573" class="cls-1" d="M204.714 558.153a4.091 4.091 0 0 0 2.087-.484 3.908 3.908 0 0 0 1.336-1.265 5.269 5.269 0 0 0 .719-1.783 9.9 9.9 0 0 0 .213-2.058v-7.923h2.531v7.923a11.645 11.645 0 0 1-.382 3.026 6.928 6.928 0 0 1-1.213 2.487 5.769 5.769 0 0 1-2.143 1.684 7.374 7.374 0 0 1-3.154.617 7.219 7.219 0 0 1-3.222-.649 5.771 5.771 0 0 1-2.121-1.738 7.085 7.085 0 0 1-1.167-2.5 11.818 11.818 0 0 1-.359-2.927v-7.923h2.514v7.923a9.943 9.943 0 0 0 .213 2.08 5.271 5.271 0 0 0 .718 1.782 3.777 3.777 0 0 0 1.347 1.255 4.181 4.181 0 0 0 2.083.473z" transform="translate(-197.845 -544.64)"/>
        </g>
        <g id="HATCH-4" data-name="HATCH" transform="translate(80.235 20.953)">
            <path id="패스_83575" data-name="패스 83575" class="cls-1" d="M301.575 549.262v11h-2.465V544.64h1.937l8.936 11.269v-11.246h2.486v15.6h-2.046l-8.847-11z" transform="translate(-299.11 -544.64)"/>
        </g>
        <path id="HATCH-5" data-name="HATCH" class="cls-1" d="M104.616 559.605a7.884 7.884 0 0 0 2.433-1.772 8.053 8.053 0 0 0 1.6-2.569 8.316 8.316 0 0 0 .023-6 8.515 8.515 0 0 0-1.548-2.591 7.84 7.84 0 0 0-2.4-1.85 6.8 6.8 0 0 0-3.107-.707 7.082 7.082 0 0 0-3.062.662 7.659 7.659 0 0 0-2.423 1.784 8.439 8.439 0 0 0-1.6 2.58 8.136 8.136 0 0 0-.584 3.051 8.384 8.384 0 0 0 .55 2.983 8.185 8.185 0 0 0 1.56 2.592 7.729 7.729 0 0 0 2.411 1.817 7.352 7.352 0 0 0 6.147.023zm-7.763-9.534a5.875 5.875 0 0 1 1-1.851 5.126 5.126 0 0 1 1.592-1.312 4.776 4.776 0 0 1 4.229-.022 5.117 5.117 0 0 1 1.592 1.279 5.791 5.791 0 0 1 1.02 1.84 6.677 6.677 0 0 1 .359 2.187 6.781 6.781 0 0 1-.336 2.109 6.025 6.025 0 0 1-.987 1.862 5.042 5.042 0 0 1-1.582 1.334 4.418 4.418 0 0 1-2.142.5 4.557 4.557 0 0 1-2.11-.482 5 5 0 0 1-1.6-1.29 5.914 5.914 0 0 1-1.02-1.862 6.708 6.708 0 0 1-.012-4.3z" transform="translate(-56.455 -523.424)"/>
        <g id="HATCH-6" data-name="HATCH" transform="translate(115.234 19.128)">
            <path id="패스_83576" data-name="패스 83576" class="cls-1" d="M469.249 543.835a4.049 4.049 0 0 1-1.92-3.428c0-2.285 1.725-4.5 5.347-4.5 3.184 0 5.4 1.774 5.4 4.594a7.365 7.365 0 0 1-2.041 4.472 4.138 4.138 0 0 1 2.333 3.646c0 2.673-2.309 5.031-5.882 5.031-3.428 0-5.979-2.139-5.979-5.25-.007-2.621 2.281-4.249 2.742-4.565zm1.774 1.02a4.387 4.387 0 0 0-2.065 3.4 3.344 3.344 0 0 0 3.524 3.233 3.147 3.147 0 0 0 3.4-2.941c.003-1.847-2.549-2.574-4.859-3.692zm3.184-.826a5.079 5.079 0 0 0 1.507-3.378c0-1.58-1.264-2.577-3.063-2.577-1.9 0-2.941 1.069-2.941 2.382.001 1.896 2.29 2.625 4.498 3.573z" transform="translate(-466.503 -535.911)"/>
        </g>
    </g>
</svg>
