<?xml version="1.0" encoding="utf-8"?>
<!-- Generator: Adobe Illustrator 27.1.0, SVG Export Plug-In . SVG Version: 6.00 Build 0)  -->
<svg version="1.1" id="Layer_1" xmlns="http://www.w3.org/2000/svg" xmlns:xlink="http://www.w3.org/1999/xlink" x="0px" y="0px"
	 viewBox="0 0 20 19" style="enable-background:new 0 0 20 19;" xml:space="preserve">
<style type="text/css">
	.st0{fill:#FFFFFF;}
</style>
<path class="st0" d="M18.8,13.1H6l0.6-1.3l10.7,0c0.4,0,0.7-0.3,0.7-0.6l1.5-8.3c0-0.2,0-0.4-0.2-0.6c-0.1-0.1-0.2-0.2-0.3-0.2
	C19,2,18.9,2,18.8,2l-13.6,0L5.1,1.4C5.1,1,4.7,0.8,4.4,0.8H1.1C0.9,0.8,0.7,0.9,0.5,1C0.4,1.2,0.3,1.4,0.3,1.6s0.1,0.4,0.2,0.5
	c0.1,0.1,0.3,0.2,0.5,0.2h2.7l0.5,2.4l1.2,6l-1.6,2.6c-0.1,0.1-0.1,0.2-0.1,0.4s0,0.3,0.1,0.4c0.1,0.3,0.4,0.4,0.7,0.4h1.3
	c-0.3,0.4-0.4,0.8-0.4,1.3c0,1.2,1,2.2,2.2,2.2c1.2,0,2.2-1,2.2-2.2c0-0.5-0.2-0.9-0.4-1.3h3.5c-0.3,0.4-0.4,0.8-0.4,1.3
	c0,1.2,1,2.2,2.2,2.2c1.2,0,2.2-1,2.2-2.2c0-0.5-0.2-0.9-0.4-1.3h2.4c0.4,0,0.8-0.3,0.8-0.8c0-0.2-0.1-0.4-0.2-0.5
	C19.2,13.2,19,13.1,18.8,13.1L18.8,13.1z M5.6,3.4l12.4,0l-1.2,6.8l-9.7,0L5.6,3.4z M7.6,16.6c-0.4,0-0.7-0.3-0.7-0.7
	c0-0.4,0.3-0.7,0.7-0.7c0.4,0,0.7,0.3,0.7,0.7c0,0.2-0.1,0.4-0.2,0.5C8,16.5,7.8,16.6,7.6,16.6L7.6,16.6z M14.6,16.6
	c-0.4,0-0.7-0.3-0.7-0.7c0-0.4,0.3-0.7,0.7-0.7c0.4,0,0.7,0.3,0.7,0.7c0,0.2-0.1,0.4-0.2,0.5C15,16.5,14.8,16.6,14.6,16.6L14.6,16.6
	z"/>
</svg>
