<?xml version="1.0" encoding="utf-8"?>
<!-- Generator: Adobe Illustrator 25.3.1, SVG Export Plug-In . SVG Version: 6.00 Build 0)  -->
<svg version="1.1" id="레이어_1" xmlns="http://www.w3.org/2000/svg" xmlns:xlink="http://www.w3.org/1999/xlink" x="0px"
	 y="0px" viewBox="0 0 414.94 103.12" style="enable-background:new 0 0 414.94 103.12;" xml:space="preserve">
<style type="text/css">
	.st0{fill:#413227;}
</style>
<g>
	<g>
		<path class="st0" d="M1.56,84.55c-1.01,0-1.56-0.2-1.56-0.71v-0.89c0-0.97,1.28-2.05,3.73-3.1c2.49-1.16,4.14-2.16,5.03-3.07
			c0.87-0.91,1.9-3.12,3.06-6.61c1.21-3.52,3.43-13.2,6.67-29.07c3.22-15.9,4.85-25.02,4.85-27.31c0-2.37-1.03-3.92-3.11-4.7
			c-2.95-1.11-4.41-2.09-4.41-2.85c0-1.57,1.37-2.33,4.23-2.33h2.42l1.21,0.07l18.08-0.07h2.31c0.94,0,1.39,0.29,1.39,0.83v0.88
			c0,0.81-1.14,1.78-3.57,2.93c-2.4,1.07-4.11,2.19-5.12,3.25c-0.96,1.04-2.1,3.62-3.38,7.63c-1.23,4.01-3.43,13.58-6.52,28.7
			c-3.13,15.14-4.64,23.75-4.64,25.84c0,2.07,0.43,3.52,1.44,4.41c0.34,0.3,1.42,0.86,3.25,1.68c1.83,0.82,2.77,1.6,2.77,2.3
			c0,1.44-1.32,2.17-4.07,2.17l-1.26-0.06l-4.96-0.09H16.8l-1.3-0.04h-2.58l-1.35,0.04H9.03l-5.14,0.15H1.56z"/>
		<path class="st0" d="M68.28,0.62c3.04,0,4.57,1.9,4.57,5.7v0.35l-0.05,0.43c0,4.21-1.92,8.85-5.69,13.91
			c-3.82,5.06-7.13,7.57-9.97,7.57h-0.59c-0.92,0-1.35-0.46-1.35-1.41v-0.21c0-0.18,0.78-1.02,2.24-2.5
			c4.05-4.02,6.04-7.59,6.04-10.66c0-1.26-0.34-2.43-1.19-3.51c-0.82-1.11-1.26-2.45-1.26-3.99c0-1.54,0.62-2.88,1.85-4.01
			c1.26-1.11,2.83-1.68,4.64-1.68H68.28z"/>
		<path class="st0" d="M142.16,47.1c0-5.37-1.55-8.09-4.66-8.09c-3.09,0-6.56,2.72-10.45,8.13c-3.84,5.36-6.61,10.75-8.21,16.08
			c-0.21,0.72-0.71,2.94-1.44,6.57c-0.71,3.69-1.78,6.82-3.31,9.51c-1.55,2.61-4.07,3.94-7.5,3.94c-2.13,0-3.2-1.05-3.2-3.11
			c0-1.3,0.71-4.07,2.1-8.14c1.4-4.13,2.31-6.96,2.74-8.58c2.65-10.18,3.95-16.91,3.95-20.21c0-1.31-0.46-2.4-1.33-3.33
			c-0.91-0.89-2.31-1.35-4.16-1.35c-1.83,0-4.23,1.07-7.06,3.24c-2.83,2.1-5.33,4.77-7.61,7.96c-2.26,3.12-4.73,9.18-7.45,18.09
			c-2.72,8.9-4.96,13.32-6.77,13.32c-1.12,0-1.69-1.9-1.69-5.74c0-8.98,0.69-16.04,1.97-21.1c0.39-1.52,0.57-3.71,0.57-6.55
			l0.18-1.71c0.25-1.68,0.34-2.71,0.34-3.17l-0.09-1.23c-0.07-0.51-0.07-1.25-0.07-2.23c0-0.89,0.43-1.91,1.21-2.98
			c0.87-1.1,2.26-1.66,4.3-1.66c2.01,0,3.22,1.05,3.59,3.07c0.43,2.61,1.53,3.9,3.15,3.9c0.39,0,3.06-1.77,8.05-5.29
			c4.96-3.5,9.14-5.27,12.53-5.27c3.43,0,5.97,1.11,7.73,3.22c0.73,0.98,1.46,2.62,2.17,4.94c0.69,2.35,1.35,3.53,2.01,3.53
			l4.85-3.85c5.35-4.11,10.26-6.19,14.68-6.19c6.45,0,9.65,4.02,9.65,12.01c0,2.37-0.64,6.46-1.99,12.26
			c-1.32,5.82-2.01,9.88-2.01,12.21c0,5.21,1.03,7.85,3.02,7.85c0.55,0,0.8,0.18,0.8,0.54c0,0.42-0.3,0.86-0.89,1.33
			c-2.35,1.67-4.71,2.56-6.95,2.56c-2.31,0-3.95-0.89-4.96-2.69c-1.01-1.74-1.51-3.66-1.51-5.66c0-2,0.57-5.9,1.87-11.72
			C141.54,55.64,142.16,50.85,142.16,47.1z"/>
		<path class="st0" d="M244.48,5.46c0,1.44-0.41,2.53-1.3,3.25c-0.87,0.73-1.71,1.12-2.49,1.12c-0.85,0-2.17-0.53-3.91-1.53
			c-1.76-1.01-3.29-1.54-4.57-1.54c-3.29,0-6.1,2.06-8.41,6.15c-2.22,4.1-3.41,8.53-3.41,13.26c0,1.66,0.53,2.87,1.42,3.6
			c0.94,0.78,2.47,1.33,4.69,1.7c2.22,0.41,3.36,1.01,3.36,1.84c0,1.3-2.13,2.69-6.42,4.13c-1.28,0.41-2.33,1.05-3.2,1.75
			c-2.4,2.05-4.23,4.73-5.53,8.09c-0.3,0.65-1.1,4.09-2.45,10.27c-4.48,20.76-8.34,33.58-11.57,38.54
			c-1.35,2.03-3.11,3.71-5.28,5.04c-2.26,1.3-4.37,1.99-6.42,1.99c-2.03,0-3.56-0.42-4.5-1.26c-0.91-0.9-1.4-1.56-1.4-1.99
			c0-1.93,1.05-2.9,3.11-2.9c2.08,0,4.05-1.19,5.97-3.53c1.81-2.39,3.45-5.61,4.89-9.69c1.39-4.07,3.09-10.9,5.05-20.57
			c1.94-9.67,2.95-15.69,2.95-18.04c0-2.38-0.41-4.57-1.14-6.61c-0.82-2.01-1.46-3.21-2.03-3.7c-0.59-0.43-0.89-0.83-0.89-1.11
			c0-0.5,1.12-1.42,3.34-2.74c2.19-1.35,3.77-2.78,4.73-4.22c0.32-0.47,0.96-1.89,1.97-4.21c1.03-2.38,2.24-5.01,3.68-7.82
			c1.46-2.82,3.52-5.5,6.22-7.98c2.63-2.47,5.33-4.23,8.07-5.2C231.7,0.51,234.42,0,237.12,0c2.67,0,4.6,0.48,5.69,1.42
			c1.12,0.93,1.67,1.77,1.67,2.59V5.46z"/>
		<path class="st0" d="M247.63,31.24c2.54,0,4.43,0.9,5.65,2.63c0.66,0.96,0.98,2.94,0.98,5.98c0,3.02,0.11,4.5,0.3,4.5
			c0.18,0,0.64-0.43,1.39-1.38c5.53-7.09,10.7-10.6,15.43-10.6c2.42,0,3.61,0.92,3.61,2.76v0.54c0,1.57-0.92,2.95-2.9,4.12
			c-0.8,0.53-2.42,0.79-4.94,0.79c-2.45,0-4.46,0.62-6.01,1.9c-1.56,1.3-3.38,3.66-5.46,7.16c-2.1,3.46-3.61,6.49-4.46,9.04
			c-0.89,2.57-1.69,6.42-2.45,11.51c-0.73,5.06-1.28,7.89-1.53,8.42c-1.6,3.89-3.95,5.81-7.18,5.81h-1.05c-2.45,0-3.7-1.17-3.7-3.62
			v-0.82c0-1.3,1.46-6.67,4.32-16.08c2.9-9.45,4.34-16.16,4.34-20.07c0-1.62-0.87-2.83-2.63-3.62c-1.74-0.82-2.61-1.79-2.61-2.99
			c0-1.19,0.55-2.28,1.6-3.07C242.67,32.19,245.12,31.24,247.63,31.24z"/>
		<path class="st0" d="M306.62,30.33h2.42c4.58,0,8.37,1.7,11.42,5.15c3.1,3.41,4.62,7.8,4.62,13.11v1.67
			c0,4.13-0.9,8.35-2.72,12.61c-3.79,8.92-9.47,15.37-17.06,19.37c-3.7,1.92-7.36,2.88-10.91,2.88h-1.75
			c-4.78,0-8.73-1.64-12.01-4.84c-3.19-3.27-4.83-7.46-4.83-12.61v-2.54c0-8.45,3.34-16.6,10.1-24.44c2.6-2.98,5.79-5.45,9.58-7.39
			C299.3,31.32,303,30.33,306.62,30.33z M285.25,65.74v1.3c0,4.11,0.9,7.27,2.63,9.49c1.77,2.28,4.13,3.41,7.07,3.41h0.67
			c4.56,0,8.87-2.85,12.91-8.5c2.36-3.23,4.11-6.89,5.32-11.09c1.14-4.21,1.75-7.59,1.75-10.13v-1.88c0-3.53-0.76-6.53-2.36-9.01
			c-1.57-2.54-3.77-3.75-6.71-3.75h-1.21c-2.29,0-4.67,0.86-7.16,2.6c-2.47,1.66-4.65,3.95-6.49,6.81
			C287.38,51.64,285.25,58.56,285.25,65.74z"/>
		<path class="st0" d="M404.18,47.1c0-5.37-1.53-8.09-4.64-8.09c-3.09,0-6.58,2.72-10.45,8.13c-3.91,5.36-6.61,10.75-8.21,16.08
			c-0.25,0.72-0.75,2.94-1.44,6.57c-0.71,3.69-1.81,6.82-3.36,9.51c-1.53,2.61-4.02,3.94-7.48,3.94c-2.13,0-3.15-1.05-3.15-3.11
			c0-1.3,0.69-4.07,2.08-8.14c1.35-4.13,2.31-6.96,2.74-8.58c2.61-10.18,3.95-16.91,3.95-20.21c0-1.31-0.48-2.4-1.39-3.33
			c-0.89-0.89-2.29-1.35-4.07-1.35c-1.87,0-4.21,1.07-7.09,3.24c-2.83,2.1-5.39,4.77-7.61,7.96c-2.29,3.12-4.76,9.18-7.48,18.09
			c-2.72,8.9-4.98,13.32-6.74,13.32c-1.12,0-1.69-1.9-1.69-5.74c0-8.98,0.66-16.04,1.94-21.1c0.41-1.52,0.59-3.71,0.59-6.55
			l0.21-1.71c0.2-1.68,0.32-2.71,0.32-3.17l-0.11-1.23c0-0.51-0.07-1.25-0.07-2.23c0-0.89,0.41-1.91,1.28-2.98
			c0.75-1.1,2.19-1.66,4.21-1.66c2.03,0,3.27,1.05,3.61,3.07c0.43,2.61,1.51,3.9,3.18,3.9c0.37,0,3.06-1.77,8.05-5.29
			c4.94-3.5,9.12-5.27,12.53-5.27c3.38,0,5.92,1.11,7.68,3.22c0.75,0.98,1.51,2.62,2.17,4.94c0.69,2.35,1.35,3.53,1.99,3.53
			l4.92-3.85c5.33-4.11,10.24-6.19,14.68-6.19c6.42,0,9.62,4.02,9.62,12.01c0,2.37-0.62,6.46-1.99,12.26
			c-1.35,5.82-2.01,9.88-2.01,12.21c0,5.21,1.01,7.85,3.02,7.85c0.53,0,0.87,0.18,0.87,0.54c0,0.42-0.34,0.86-0.94,1.33
			c-2.38,1.67-4.71,2.56-7.02,2.56c-2.24,0-3.91-0.89-4.89-2.69c-1.03-1.74-1.55-3.66-1.55-5.66c0-2,0.62-5.9,1.85-11.72
			C403.58,55.64,404.18,50.85,404.18,47.1z"/>
	</g>
</g>
</svg>
