<?xml version="1.0" encoding="utf-8"?>
<!-- Generator: Adobe Illustrator 27.1.0, SVG Export Plug-In . SVG Version: 6.00 Build 0)  -->
<svg version="1.1" id="레이어_1" xmlns="http://www.w3.org/2000/svg" xmlns:xlink="http://www.w3.org/1999/xlink" x="0px"
	 y="0px" viewBox="0 0 414.9 103.1" style="enable-background:new 0 0 414.9 103.1;" xml:space="preserve">
<style type="text/css">
	.st0{fill:#FFFFFF;}
</style>
<g>
	<g>
		<path class="st0" d="M1.6,84.6c-1,0-1.6-0.2-1.6-0.7V83c0-1,1.3-2.1,3.7-3.1c2.5-1.2,4.1-2.2,5-3.1c0.9-0.9,1.9-3.1,3.1-6.6
			c1.2-3.5,3.4-13.2,6.7-29.1c3.2-15.9,4.9-25,4.9-27.3c0-2.4-1-3.9-3.1-4.7c-3-1.1-4.4-2.1-4.4-2.8c0-1.6,1.4-2.3,4.2-2.3h2.4
			L23.7,4l18.1-0.1h2.3c0.9,0,1.4,0.3,1.4,0.8v0.9c0,0.8-1.1,1.8-3.6,2.9c-2.4,1.1-4.1,2.2-5.1,3.2c-1,1-2.1,3.6-3.4,7.6
			c-1.2,4-3.4,13.6-6.5,28.7c-3.1,15.1-4.6,23.7-4.6,25.8c0,2.1,0.4,3.5,1.4,4.4c0.3,0.3,1.4,0.9,3.2,1.7s2.8,1.6,2.8,2.3
			c0,1.4-1.3,2.2-4.1,2.2l-1.3-0.1l-5-0.1h-2.6l-1.3,0h-2.6l-1.4,0H9l-5.1,0.2L1.6,84.6L1.6,84.6z"/>
		<path class="st0" d="M68.3,0.6c3,0,4.6,1.9,4.6,5.7v0.3l-0.1,0.4c0,4.2-1.9,8.9-5.7,13.9c-3.8,5.1-7.1,7.6-10,7.6h-0.6
			c-0.9,0-1.3-0.5-1.3-1.4V27c0-0.2,0.8-1,2.2-2.5c4-4,6-7.6,6-10.7c0-1.3-0.3-2.4-1.2-3.5c-0.8-1.1-1.3-2.4-1.3-4s0.6-2.9,1.8-4
			c1.3-1.1,2.8-1.7,4.6-1.7L68.3,0.6L68.3,0.6z"/>
		<path class="st0" d="M142.2,47.1c0-5.4-1.6-8.1-4.7-8.1c-3.1,0-6.6,2.7-10.4,8.1c-3.8,5.4-6.6,10.8-8.2,16.1
			c-0.2,0.7-0.7,2.9-1.4,6.6c-0.7,3.7-1.8,6.8-3.3,9.5c-1.6,2.6-4.1,3.9-7.5,3.9c-2.1,0-3.2-1.1-3.2-3.1c0-1.3,0.7-4.1,2.1-8.1
			c1.4-4.1,2.3-7,2.7-8.6c2.7-10.2,3.9-16.9,3.9-20.2c0-1.3-0.5-2.4-1.3-3.3c-0.9-0.9-2.3-1.3-4.2-1.3c-1.8,0-4.2,1.1-7.1,3.2
			c-2.8,2.1-5.3,4.8-7.6,8c-2.3,3.1-4.7,9.2-7.4,18.1c-2.7,8.9-5,13.3-6.8,13.3c-1.1,0-1.7-1.9-1.7-5.7c0-9,0.7-16,2-21.1
			c0.4-1.5,0.6-3.7,0.6-6.5l0.2-1.7c0.2-1.7,0.3-2.7,0.3-3.2l-0.1-1.2C79,41.1,79,40.4,79,39.4c0-0.9,0.4-1.9,1.2-3
			c0.9-1.1,2.3-1.7,4.3-1.7c2,0,3.2,1,3.6,3.1c0.4,2.6,1.5,3.9,3.2,3.9c0.4,0,3.1-1.8,8.1-5.3c5-3.5,9.1-5.3,12.5-5.3
			c3.4,0,6,1.1,7.7,3.2c0.7,1,1.5,2.6,2.2,4.9c0.7,2.3,1.3,3.5,2,3.5l4.9-3.8c5.4-4.1,10.3-6.2,14.7-6.2c6.4,0,9.6,4,9.6,12
			c0,2.4-0.6,6.5-2,12.3c-1.3,5.8-2,9.9-2,12.2c0,5.2,1,7.8,3,7.8c0.6,0,0.8,0.2,0.8,0.5c0,0.4-0.3,0.9-0.9,1.3
			c-2.4,1.7-4.7,2.6-6.9,2.6c-2.3,0-3.9-0.9-5-2.7c-1-1.7-1.5-3.7-1.5-5.7c0-2,0.6-5.9,1.9-11.7C141.5,55.6,142.2,50.8,142.2,47.1z"
			/>
		<path class="st0" d="M244.5,5.5c0,1.4-0.4,2.5-1.3,3.2c-0.9,0.7-1.7,1.1-2.5,1.1c-0.9,0-2.2-0.5-3.9-1.5c-1.8-1-3.3-1.5-4.6-1.5
			c-3.3,0-6.1,2.1-8.4,6.1c-2.2,4.1-3.4,8.5-3.4,13.3c0,1.7,0.5,2.9,1.4,3.6c0.9,0.8,2.5,1.3,4.7,1.7c2.2,0.4,3.4,1,3.4,1.8
			c0,1.3-2.1,2.7-6.4,4.1c-1.3,0.4-2.3,1-3.2,1.8c-2.4,2-4.2,4.7-5.5,8.1c-0.3,0.7-1.1,4.1-2.4,10.3c-4.5,20.8-8.3,33.6-11.6,38.5
			c-1.4,2-3.1,3.7-5.3,5c-2.3,1.3-4.4,2-6.4,2c-2,0-3.6-0.4-4.5-1.3c-0.9-0.9-1.4-1.6-1.4-2c0-1.9,1.1-2.9,3.1-2.9
			c2.1,0,4.1-1.2,6-3.5c1.8-2.4,3.4-5.6,4.9-9.7c1.4-4.1,3.1-10.9,5.1-20.6c1.9-9.7,2.9-15.7,2.9-18c0-2.4-0.4-4.6-1.1-6.6
			c-0.8-2-1.5-3.2-2-3.7c-0.6-0.4-0.9-0.8-0.9-1.1c0-0.5,1.1-1.4,3.3-2.7c2.2-1.4,3.8-2.8,4.7-4.2c0.3-0.5,1-1.9,2-4.2
			c1-2.4,2.2-5,3.7-7.8c1.5-2.8,3.5-5.5,6.2-8c2.6-2.5,5.3-4.2,8.1-5.2c2.7-1,5.4-1.5,8.1-1.5c2.7,0,4.6,0.5,5.7,1.4
			c1.1,0.9,1.7,1.8,1.7,2.6V5.5z"/>
		<path class="st0" d="M247.6,31.2c2.5,0,4.4,0.9,5.6,2.6c0.7,1,1,2.9,1,6c0,3,0.1,4.5,0.3,4.5c0.2,0,0.6-0.4,1.4-1.4
			c5.5-7.1,10.7-10.6,15.4-10.6c2.4,0,3.6,0.9,3.6,2.8v0.5c0,1.6-0.9,3-2.9,4.1c-0.8,0.5-2.4,0.8-4.9,0.8c-2.5,0-4.5,0.6-6,1.9
			c-1.6,1.3-3.4,3.7-5.5,7.2c-2.1,3.5-3.6,6.5-4.5,9c-0.9,2.6-1.7,6.4-2.4,11.5c-0.7,5.1-1.3,7.9-1.5,8.4c-1.6,3.9-3.9,5.8-7.2,5.8
			H239c-2.4,0-3.7-1.2-3.7-3.6V80c0-1.3,1.5-6.7,4.3-16.1c2.9-9.5,4.3-16.2,4.3-20.1c0-1.6-0.9-2.8-2.6-3.6c-1.7-0.8-2.6-1.8-2.6-3
			c0-1.2,0.6-2.3,1.6-3.1C242.7,32.2,245.1,31.2,247.6,31.2z"/>
		<path class="st0" d="M306.6,30.3h2.4c4.6,0,8.4,1.7,11.4,5.1c3.1,3.4,4.6,7.8,4.6,13.1v1.7c0,4.1-0.9,8.4-2.7,12.6
			c-3.8,8.9-9.5,15.4-17.1,19.4c-3.7,1.9-7.4,2.9-10.9,2.9h-1.8c-4.8,0-8.7-1.6-12-4.8c-3.2-3.3-4.8-7.5-4.8-12.6v-2.5
			c0-8.5,3.3-16.6,10.1-24.4c2.6-3,5.8-5.5,9.6-7.4C299.3,31.3,303,30.3,306.6,30.3z M285.2,65.7V67c0,4.1,0.9,7.3,2.6,9.5
			c1.8,2.3,4.1,3.4,7.1,3.4h0.7c4.6,0,8.9-2.8,12.9-8.5c2.4-3.2,4.1-6.9,5.3-11.1c1.1-4.2,1.8-7.6,1.8-10.1v-1.9
			c0-3.5-0.8-6.5-2.4-9c-1.6-2.5-3.8-3.8-6.7-3.8h-1.2c-2.3,0-4.7,0.9-7.2,2.6c-2.5,1.7-4.6,4-6.5,6.8
			C287.4,51.6,285.2,58.6,285.2,65.7z"/>
		<path class="st0" d="M404.2,47.1c0-5.4-1.5-8.1-4.6-8.1c-3.1,0-6.6,2.7-10.5,8.1c-3.9,5.4-6.6,10.8-8.2,16.1
			c-0.2,0.7-0.8,2.9-1.4,6.6c-0.7,3.7-1.8,6.8-3.4,9.5c-1.5,2.6-4,3.9-7.5,3.9c-2.1,0-3.1-1.1-3.1-3.1c0-1.3,0.7-4.1,2.1-8.1
			c1.4-4.1,2.3-7,2.7-8.6c2.6-10.2,4-16.9,4-20.2c0-1.3-0.5-2.4-1.4-3.3c-0.9-0.9-2.3-1.3-4.1-1.3c-1.9,0-4.2,1.1-7.1,3.2
			c-2.8,2.1-5.4,4.8-7.6,8c-2.3,3.1-4.8,9.2-7.5,18.1c-2.7,8.9-5,13.3-6.7,13.3c-1.1,0-1.7-1.9-1.7-5.7c0-9,0.7-16,1.9-21.1
			c0.4-1.5,0.6-3.7,0.6-6.5l0.2-1.7c0.2-1.7,0.3-2.7,0.3-3.2l-0.1-1.2c0-0.5-0.1-1.2-0.1-2.2c0-0.9,0.4-1.9,1.3-3
			c0.8-1.1,2.2-1.7,4.2-1.7c2,0,3.3,1,3.6,3.1c0.4,2.6,1.5,3.9,3.2,3.9c0.4,0,3.1-1.8,8-5.3c4.9-3.5,9.1-5.3,12.5-5.3
			c3.4,0,5.9,1.1,7.7,3.2c0.8,1,1.5,2.6,2.2,4.9c0.7,2.3,1.4,3.5,2,3.5l4.9-3.8c5.3-4.1,10.2-6.2,14.7-6.2c6.4,0,9.6,4,9.6,12
			c0,2.4-0.6,6.5-2,12.3c-1.4,5.8-2,9.9-2,12.2c0,5.2,1,7.8,3,7.8c0.5,0,0.9,0.2,0.9,0.5c0,0.4-0.3,0.9-0.9,1.3
			c-2.4,1.7-4.7,2.6-7,2.6c-2.2,0-3.9-0.9-4.9-2.7c-1-1.7-1.5-3.7-1.5-5.7c0-2,0.6-5.9,1.9-11.7C403.6,55.6,404.2,50.8,404.2,47.1z"
			/>
	</g>
</g>
</svg>
