<?xml version="1.0" encoding="utf-8"?>
<!-- Generator: Adobe Illustrator 26.0.1, SVG Export Plug-In . SVG Version: 6.00 Build 0)  -->
<svg version="1.1" id="Calque_1" xmlns="http://www.w3.org/2000/svg" xmlns:xlink="http://www.w3.org/1999/xlink" x="0px" y="0px"
	 viewBox="0 0 575.1 290.5" style="enable-background:new 0 0 575.1 290.5;" xml:space="preserve">
<path d="M141.7,42.5c-18.5,0-35.3,8.8-43.8,22.7C86.2,49.5,72.4,42.5,54,42.5C40,42.5,29.1,47,21.3,55.9V45.6H0v133.8h21.8v-79.1
	c0-24.2,12.1-38.7,32.4-38.7c19.4,0,33.4,16.2,33.4,38.7v79.1h21v-77.2c0-9.2,1.1-16.9,3-21.4c4.7-11,17.2-19.1,29.9-19.1
	c20,0,33.4,16.3,33.4,40.5v77.2h21v-79.1C195.9,67.3,172.6,42.5,141.7,42.5z"/>
<path d="M551.3,137.8c-8,14.9-25.9,25.3-43.6,25.3c-24.6,0-47.3-19.4-50-42.2h117.3l-0.1-2.3c-0.5-16.1-1.4-21.5-4.8-30.8
	c-9.7-26.7-36.4-45.3-65-45.3c-38.2,0-69.4,31.5-69.4,70.1s32.4,69.9,72.2,69.9c25.9,0,50.8-14.4,63.4-36.6l1.3-2.3l-20.5-7.6
	L551.3,137.8z M458.6,101.5c5.1-23.2,24.5-39.8,46.8-39.8c22.1,0,40.2,15.5,46.9,39.8H458.6z"/>
<path d="M336.9,64c-12-14.1-28.7-21.6-48.6-21.6c-40.2,0-71.7,30.7-71.7,69.9c0,18.7,7.5,36.7,21,49.7
	c13.6,13.2,31.8,20.5,50.8,20.4c19.7,0,36-7.2,48.6-21.6v18.4h21.3V45.6h-21.3V64z M288.3,61.7c26.8,0,48.6,22.9,48.6,51
	c0,27.8-21.9,50.5-48.9,50.5c-27.4,0-50.4-23.2-50.4-50.7S260.8,61.7,288.3,61.7z"/>
<rect x="391.3" width="21.3" height="25.6"/>
<path d="M391.3,162.9c0,25-6.3,34.3-24.1,35.2l-2.1,0.1v21.2l2.3-0.1c10.2-0.3,14.2-1.2,21.2-5c6.3-3.2,11.7-8,15.8-13.8
	c6.6-9.7,8.3-17.1,8.3-37.7V45.6h-21.3V162.9z"/>
<path d="M204.1,250c0-0.6,0.5-1.1,1.1-1.1l0,0h13.4c7.2-0.2,13.3,5.5,13.5,12.7c0.2,7.2-5.5,13.3-12.7,13.5c-0.2,0-0.5,0-0.7,0h-8.5
	v13.8c0,0.6-0.5,1.1-1.1,1.1h-3.8c-0.6,0-1.1-0.5-1.1-1.1V250z M218.2,269.3c4.1,0,7.5-3.4,7.5-7.5c0,0,0,0,0,0
	c-0.1-4-3.5-7.1-7.5-7h-8.1v14.5H218.2z"/>
<path d="M235.3,288.4l18-39.5c0.2-0.4,0.6-0.6,1-0.6h0.6c0.4,0.1,0.8,0.3,1,0.6l17.9,39.5c0.3,0.5,0.2,1.1-0.3,1.4
	c-0.2,0.1-0.5,0.2-0.7,0.1h-3.7c-0.6,0-1.1-0.3-1.4-0.9l-3.6-8h-19.2c-1.2,2.7-2.4,5.3-3.6,8c-0.2,0.5-0.8,0.9-1.4,0.9h-3.7
	c-0.5,0.1-1.1-0.3-1.1-0.8C235.1,288.9,235.1,288.6,235.3,288.4z M261.8,276l-7.2-16.1h-0.3l-7.2,16.1H261.8z"/>
<path d="M283.4,250c0-0.6,0.5-1.1,1.1-1.1h16c7-0.1,12.7,5.5,12.8,12.5c0,0,0,0,0,0c0,5.4-3.6,9.9-8.7,11.9l8,14.9
	c0.3,0.5,0.2,1.2-0.4,1.5c-0.2,0.1-0.4,0.2-0.6,0.2h-4.6c-0.4,0-0.7-0.2-0.9-0.5l-7.8-15.5h-8.9v15c0,0.6-0.5,1.1-1.1,1.1h-3.8
	c-0.6,0-1.1-0.5-1.1-1.1c0,0,0,0,0,0L283.4,250z M300.1,268.8c4-0.1,7.2-3.3,7.2-7.3c-0.1-3.9-3.3-7-7.2-7h-10.5v14.3L300.1,268.8z"
	/>
<path d="M326.3,250c0-0.6,0.5-1.1,1.1-1.1h3.9c0.6,0,1.1,0.5,1.1,1.1v38.8c0,0.6-0.5,1.1-1.1,1.1h-3.9c-0.6,0-1.1-0.5-1.1-1.1V250z"
	/>
<path d="M344.9,284c0.5-0.8,1-1.6,1.5-2.4c0.3-0.7,1.1-0.9,1.8-0.6c0.1,0,0.2,0.1,0.2,0.1c0.4,0.3,4.9,4,9.4,4c4,0,6.6-2.5,6.6-5.5
	c0-3.5-3-5.8-8.9-8.2c-6-2.5-10.7-5.6-10.7-12.4c0-4.6,3.5-10.9,12.9-10.9c3.9,0.1,7.7,1.3,10.9,3.5c0.6,0.4,0.8,1.3,0.4,1.9
	c0,0,0,0,0,0.1c-0.5,0.7-1,1.5-1.5,2.2c-0.3,0.7-1.1,1-1.8,0.7c-0.1,0-0.1-0.1-0.2-0.1c-0.4-0.2-4.5-2.9-7.9-2.9
	c-4.9,0-6.6,3.1-6.6,5.3c0,3.4,2.6,5.4,7.5,7.4c6.8,2.8,12.6,6,12.6,13.1c0,6.1-5.5,11.1-13.1,11.1c-4.6,0-9.1-1.6-12.6-4.6
	C344.8,285.4,344.4,285,344.9,284z"/>
</svg>
