<svg id="Calque_1" data-name="Calque 1" xmlns="http://www.w3.org/2000/svg" viewBox="0 0 575.1 290.54"><defs><style>.cls-1{fill:#fff;}</style></defs><path class="cls-1" d="M153.64,46.88c-18.54,0-35.3,8.79-43.78,22.69-11.79-15.67-25.5-22.69-44-22.69-13.94,0-24.88,4.51-32.61,13.42V50H11.91V183.78H33.72V104.71c0-24.2,12.1-38.65,32.36-38.65,19.35,0,33.4,16.25,33.4,38.65v79.07h21V106.54c0-9.25,1.06-16.86,3-21.41,4.67-11,17.25-19.07,29.91-19.07,20,0,33.41,16.27,33.41,40.48v77.24h21V104.71C207.81,71.74,184.52,46.88,153.64,46.88Z" transform="translate(-11.91 -4.4)"/><path class="cls-1" d="M563.21,142.18c-8,14.9-25.92,25.3-43.59,25.3-24.62,0-47.34-19.45-49.95-42.17H587l-.08-2.32c-.53-16.06-1.4-21.54-4.85-30.85-9.69-26.65-36.44-45.26-65-45.26-38.25,0-69.37,31.47-69.37,70.15s32.4,69.89,72.23,69.89c25.93,0,50.82-14.37,63.4-36.6l1.3-2.31-20.47-7.55Zm-92.72-36.31c5.14-23.22,24.45-39.81,46.81-39.81,22.08,0,40.24,15.53,46.92,39.81Z" transform="translate(-11.91 -4.4)"/><path class="cls-1" d="M348.81,68.45c-12-14.14-28.7-21.57-48.61-21.57-40.22,0-71.73,30.7-71.73,69.89a69,69,0,0,0,21,49.72,72.17,72.17,0,0,0,50.77,20.43c19.71,0,36-7.24,48.61-21.55v18.41h21.28V50H348.81ZM300.2,66.06c26.8,0,48.61,22.87,48.61,51,0,27.82-21.92,50.45-48.87,50.45-27.35,0-50.45-23.23-50.45-50.71S272.71,66.06,300.2,66.06Z" transform="translate(-11.91 -4.4)"/><rect class="cls-1" x="391.27" width="21.28" height="25.61"/><path class="cls-1" d="M403.18,167.34c0,25-6.3,34.27-24.08,35.24l-2.13.12v21.23l2.31-.07c10.21-.27,14.18-1.2,21.17-5a42.5,42.5,0,0,0,15.76-13.83c6.64-9.68,8.26-17.08,8.26-37.72V50H403.18Z" transform="translate(-11.91 -4.4)"/><path class="cls-1" d="M216,254.39a1.11,1.11,0,0,1,1.11-1.11h13.38a13.09,13.09,0,1,1,.06,26.17h-8.51v13.79a1.15,1.15,0,0,1-1.11,1.12h-3.82a1.12,1.12,0,0,1-1.11-1.12Zm14.14,19.31a7.48,7.48,0,0,0,7.46-7.51,7.24,7.24,0,0,0-7.46-7h-8.1V273.7Z" transform="translate(-11.91 -4.4)"/><path class="cls-1" d="M247.18,292.83l18-39.49a1.4,1.4,0,0,1,1-.65h.59a1.4,1.4,0,0,1,1,.65l17.89,39.49a1,1,0,0,1-1,1.53H281a1.38,1.38,0,0,1-1.35-.88l-3.64-8H256.8c-1.17,2.7-2.4,5.34-3.58,8a1.46,1.46,0,0,1-1.35.88h-3.69A1,1,0,0,1,247.18,292.83Zm26.58-12.44-7.22-16.08h-.29l-7.16,16.08Z" transform="translate(-11.91 -4.4)"/><path class="cls-1" d="M295.36,254.39a1.11,1.11,0,0,1,1.11-1.11h16a12.66,12.66,0,0,1,12.79,12.56c0,5.4-3.58,9.85-8.68,11.91l8,14.9a1.12,1.12,0,0,1-1,1.71H319a1.06,1.06,0,0,1-.93-.53l-7.81-15.55H301.4v15a1.16,1.16,0,0,1-1.12,1.12h-3.81a1.11,1.11,0,0,1-1.11-1.12ZM312,273.23a7.29,7.29,0,0,0,7.16-7.28,7.19,7.19,0,0,0-7.16-7H301.52v14.26Z" transform="translate(-11.91 -4.4)"/><path class="cls-1" d="M338.19,254.39a1.16,1.16,0,0,1,1.12-1.11h3.87a1.16,1.16,0,0,1,1.12,1.11v38.85a1.16,1.16,0,0,1-1.12,1.12h-3.87a1.16,1.16,0,0,1-1.12-1.12Z" transform="translate(-11.91 -4.4)"/><path class="cls-1" d="M356.85,288.43c.53-.76,1-1.64,1.53-2.41a1.33,1.33,0,0,1,2-.47c.35.3,4.87,4.05,9.39,4.05,4.05,0,6.63-2.46,6.63-5.45,0-3.53-3.05-5.76-8.86-8.16-6-2.52-10.68-5.63-10.68-12.44,0-4.58,3.52-10.86,12.85-10.86a19.92,19.92,0,0,1,10.86,3.46,1.4,1.4,0,0,1,.35,2c-.47.7-1,1.53-1.47,2.23a1.39,1.39,0,0,1-2.05.59c-.41-.24-4.52-2.94-7.92-2.94-4.93,0-6.63,3.11-6.63,5.28,0,3.35,2.58,5.4,7.45,7.4,6.81,2.76,12.62,6,12.62,13.14,0,6.11-5.46,11.09-13.09,11.09a19,19,0,0,1-12.62-4.63C356.68,289.84,356.26,289.43,356.85,288.43Z" transform="translate(-11.91 -4.4)"/></svg>