<?xml version="1.0" encoding="utf-8"?>
<!-- Generator: Adobe Illustrator 26.0.1, SVG Export Plug-In . SVG Version: 6.00 Build 0)  -->
<svg version="1.1" id="Calque_1" xmlns="http://www.w3.org/2000/svg" xmlns:xlink="http://www.w3.org/1999/xlink" x="0px" y="0px"
	 viewBox="0 0 279 279" style="enable-background:new 0 0 279 279;" xml:space="preserve">
<path d="M111.9,17c52.4,0,94.9,42.5,94.9,94.9s-42.5,94.9-94.9,94.9S17,164.4,17,111.9l0,0C17,59.5,59.5,17,111.9,17 M111.9,0
	C50.1,0,0,50.1,0,111.9s50.1,111.9,111.9,111.9s111.9-50.1,111.9-111.9l0,0C223.9,50.1,173.8,0,111.9,0z"/>
<rect x="233.2" y="193.4" transform="matrix(0.7072 -0.7071 0.7071 0.7072 -100.1591 241.7239)" width="17" height="96.7"/>
</svg>
