<?xml version="1.0" encoding="utf-8"?>
<!-- Generator: Adobe Illustrator 24.2.3, SVG Export Plug-In . SVG Version: 6.00 Build 0)  -->
<svg version="1.1" id="Calque_1" xmlns="http://www.w3.org/2000/svg" xmlns:xlink="http://www.w3.org/1999/xlink" x="0px" y="0px"
	 viewBox="0 0 30 30" style="enable-background:new 0 0 30 30;" xml:space="preserve">
<style type="text/css">
	.st0{fill:#FFFFFF;}
</style>
<path class="st0" d="M15.1,1.9c2.7-0.1,5,2,5.1,4.7s-2,5-4.7,5.1c-0.1,0-0.3,0-0.4,0c-2.7,0-4.9-2.2-4.9-4.9
	C10.1,4.1,12.3,1.9,15.1,1.9L15.1,1.9 M15.1,0C11.3-0.1,8.1,2.8,8,6.6c-0.1,3.8,2.8,6.9,6.6,7.1c0.2,0,0.3,0,0.5,0l0,0
	c3.8,0.1,6.9-2.8,7.1-6.6c0.1-3.8-2.8-6.9-6.6-7.1C15.4,0,15.2,0,15.1,0z"/>
<path class="st0" d="M15,16.9c3,0,5.9,1.4,7.8,3.7c1.8,2.1,3,4.8,3.2,7.5H4c0.3-2.8,1.4-5.4,3.2-7.5C9.2,18.2,12,16.9,15,16.9
	 M15,14.9c-3.6,0-6.9,1.6-9.2,4.3C3.3,22.2,2,25.9,2,29.7V30h26.1v-0.3l0,0c0-3.8-1.3-7.5-3.8-10.4C21.9,16.6,18.6,15,15,14.9z"/>
</svg>
