<?xml version="1.0" encoding="utf-8"?>
<!-- Generator: Adobe Illustrator 27.1.0, SVG Export Plug-In . SVG Version: 6.00 Build 0)  -->
<svg version="1.1" id="Layer_1" xmlns="http://www.w3.org/2000/svg" xmlns:xlink="http://www.w3.org/1999/xlink" x="0px" y="0px"
	 viewBox="0 0 18 18" style="enable-background:new 0 0 18 18;" xml:space="preserve">
<style type="text/css">
	.st0{fill-rule:evenodd;clip-rule:evenodd;fill:#FFFFFF;}
</style>
<path class="st0" d="M12.6,11.4l4.5,4.5c0.2,0.2,0.2,0.4,0.2,0.6c0,0.2-0.1,0.4-0.2,0.6c-0.2,0.2-0.4,0.2-0.6,0.2
	c-0.2,0-0.4-0.1-0.6-0.2l-4.5-4.5c-1.3,1-3,1.5-4.7,1.4c-1.7-0.2-3.3-1-4.4-2.2c-1.1-1.3-1.7-2.9-1.7-4.6c0.1-1.7,0.8-3.3,1.9-4.5
	c1.2-1.2,2.8-1.9,4.5-1.9c1.7-0.1,3.3,0.5,4.6,1.7C13,3.5,13.8,5,14,6.7C14.1,8.4,13.6,10.1,12.6,11.4L12.6,11.4z M7.3,12.3
	c1.3,0,2.6-0.5,3.5-1.5c0.9-0.9,1.5-2.2,1.5-3.5c0-1.3-0.5-2.6-1.5-3.5C9.9,2.9,8.7,2.3,7.3,2.3S4.7,2.9,3.8,3.8S2.3,6,2.3,7.3
	c0,1.3,0.5,2.6,1.5,3.5C4.7,11.8,6,12.3,7.3,12.3L7.3,12.3z"/>
</svg>
