<svg width="18" height="18" viewBox="0 0 18 18" fill="none" xmlns="http://www.w3.org/2000/svg">
<path fill-rule="evenodd" clip-rule="evenodd" d="M12.6042 11.4158L17.0875 15.8992C17.2451 16.0569 17.3336 16.2707 17.3335 16.4936C17.3334 16.7166 17.2448 16.9303 17.0871 17.0879C16.9294 17.2455 16.7156 17.334 16.4926 17.3339C16.2697 17.3338 16.0559 17.2452 15.8983 17.0875L11.415 12.6042C10.0748 13.6422 8.3894 14.1307 6.70177 13.9703C5.01415 13.8098 3.45103 13.0125 2.3304 11.7405C1.20978 10.4685 0.615825 8.81734 0.669376 7.12295C0.722928 5.42856 1.41996 3.81821 2.61867 2.61949C3.81738 1.42078 5.42773 0.723752 7.12212 0.6702C8.81651 0.616649 10.4677 1.2106 11.7397 2.33123C13.0117 3.45185 13.809 5.01497 13.9695 6.7026C14.1299 8.39022 13.6414 10.0756 12.6033 11.4158H12.6042ZM7.33333 12.3333C8.65941 12.3333 9.93118 11.8065 10.8689 10.8689C11.8065 9.93118 12.3333 8.65941 12.3333 7.33332C12.3333 6.00724 11.8065 4.73547 10.8689 3.79779C9.93118 2.86011 8.65941 2.33332 7.33333 2.33332C6.00725 2.33332 4.73548 2.86011 3.7978 3.79779C2.86012 4.73547 2.33333 6.00724 2.33333 7.33332C2.33333 8.65941 2.86012 9.93118 3.7978 10.8689C4.73548 11.8065 6.00725 12.3333 7.33333 12.3333V12.3333Z" fill="#423328"/>
</svg>
