<?xml version="1.0" encoding="utf-8"?>
<!-- Generator: Adobe Illustrator 26.0.1, SVG Export Plug-In . SVG Version: 6.00 Build 0)  -->
<svg version="1.1" id="Calque_1" xmlns="http://www.w3.org/2000/svg" xmlns:xlink="http://www.w3.org/1999/xlink" x="0px" y="0px"
	 viewBox="0 0 16 14" style="enable-background:new 0 0 16 14;" xml:space="preserve">
<style type="text/css">
	.st0{fill:#FFFFFF;}
</style>
<path class="st0" d="M8,13.5c-0.1,0-0.3,0-0.3-0.1L1.8,7.8C0.7,6.4,0.5,4.7,1.1,3.1c0.7-1.6,2.1-2.5,3.8-2.6c0.1,0,0.2,0,0.3,0
	c1.2,0,2.1,0.3,2.9,0.9c0.9-0.6,2-0.9,3.2-0.8c1.7,0.1,3.1,1.1,3.8,2.6c0.7,1.5,0.4,3.3-0.7,4.6l-6,5.6C8.2,13.5,8.1,13.5,8,13.5z
	 M5.2,1.5c-0.1,0-0.2,0-0.2,0C3.7,1.6,2.6,2.3,2,3.5C1.5,4.7,1.7,6.1,2.6,7.1L8,12.3L13.6,7c0.8-0.9,1-2.3,0.5-3.5
	c-0.5-1.2-1.6-2-2.9-2c-1-0.1-2,0.2-2.8,0.9c-0.2,0.2-0.5,0.1-0.6,0C7.1,1.7,6.3,1.5,5.2,1.5z"/>
</svg>
