<svg xmlns="http://www.w3.org/2000/svg" width="34" height="34" viewBox="0 0 34 34">
    <defs>
        <style>
            .cls-2{fill:none;stroke:#1b1b1b}
        </style>
    </defs>
    <g id="그룹_3869" transform="translate(.2)">
        <path id="사각형_147828" fill="rgba(255,255,255,0)" d="M0 0H34V34H0z" transform="translate(-.2)"/>
        <g id="그룹_3847" transform="translate(4.442 5.07)">
            <path id="패스_83567" d="M381.8 506.253v15.662h-22.6v-15.7" class="cls-2" transform="translate(-357.942 -498.055)"/>
            <g id="그룹_3846">
                <path id="사각형_147809" d="M365.551 498.535l-1.256 5.651a3.14 3.14 0 0 1-3.14 3.14 3.14 3.14 0 0 1-3.14-3.14l1.947-5.651z" class="cls-2" transform="translate(-358.016 -498.535)"/>
                <path id="사각형_147810" d="M365.182 498.535h5.023v5.651a3.14 3.14 0 0 1-3.14 3.14 3.14 3.14 0 0 1-3.14-3.14l1.256-5.651z" class="cls-2" transform="translate(-357.647 -498.535)"/>
                <path id="사각형_147809-2" d="M380.152 498.535l1.947 5.651a3.14 3.14 0 0 1-3.14 3.14 3.14 3.14 0 0 1-3.14-3.14l-1.256-5.651h5.589z" class="cls-2" transform="translate(-356.982 -498.535)"/>
                <path id="사각형_147810-2" d="M374.858 498.535l1.256 5.651a3.14 3.14 0 0 1-3.14 3.14 3.139 3.139 0 0 1-3.139-3.14v-5.651h5.022z" class="cls-2" transform="translate(-357.277 -498.535)"/>
            </g>
            <path id="사각형_147831" d="M370.08 511.773a4.144 4.144 0 0 1 4.144 4.144v5.111a.414.414 0 0 1-.414.414h-7.46a.414.414 0 0 1-.414-.414v-5.111a4.144 4.144 0 0 1 4.144-4.144z" class="cls-2" transform="translate(-357.521 -497.708)"/>
        </g>
    </g>
</svg>
