<?xml version="1.0" encoding="utf-8"?>
<!-- Generator: Adobe Illustrator 23.0.0, SVG Export Plug-In . SVG Version: 6.00 Build 0)  -->
<svg version="1.1" id="레이어_1" xmlns="http://www.w3.org/2000/svg" xmlns:xlink="http://www.w3.org/1999/xlink" x="0px"
	 y="0px" width="992px" height="696px" viewBox="0 0 992 696" style="enable-background:new 0 0 992 696;" xml:space="preserve">
<style type="text/css">
	.st0{fill:#E2D7DA;}
	.st1{fill:url(#square_3_2_);}
	.st2{fill:url(#square_2_2_);}
	.st3{fill:url(#square_1_2_);}
	.st4{fill:url(#R_shoe_1_);}
	.st5{fill:#28306D;}
	.st6{fill:url(#R_trousers_1_);}
	.st7{fill:url(#L_trousers_1_);}
	.st8{fill:#FFFFFF;}
	.st9{fill:url(#R_hand_1_);}
	.st10{fill:url(#star_2_);}
	.st11{fill:#FFCFCA;}
	.st12{fill:url(#sweater-2_1_);}
	.st13{fill:url(#R_sleeve_1_);}
	.st14{fill:url(#neck_1_);}
	.st15{fill:#23286B;}
	.st16{fill:#1C2868;}
	.st17{fill:url(#R_shoe-2_1_);}
	.st18{fill:#F1B505;}
	.st19{fill:url(#R_trousers-2_2_);}
	.st20{fill:url(#R_hand-2_2_);}
	.st21{opacity:0.51;fill:#FFFFFF;enable-background:new    ;}
	.st22{fill:url(#square_1_);}
	.st23{fill:url(#hair-2_1_);}
	.st24{fill:url(#R_sleeve-2_1_);}
	.st25{fill:url(#sweater-4_2_);}
	.st26{fill:#3E8AF8;}
	.st27{fill:url(#neck-2_1_);}
</style>
<g>
	<ellipse class="st0" cx="499.4" cy="673.5" rx="144.9" ry="22.5"/>
	<ellipse class="st0" cx="144.9" cy="669.5" rx="144.9" ry="22.5"/>
	<g id="illustration_1_">
		<g id="geometry_3_">
			
				<linearGradient id="square_3_2_" gradientUnits="userSpaceOnUse" x1="-1211.8138" y1="518.8249" x2="-1197.8187" y2="727.4816" gradientTransform="matrix(-1 0 0 1 -435 -20)">
				<stop  offset="0" style="stop-color:#A1C3FC"/>
				<stop  offset="0.6955" style="stop-color:#81AEF2"/>
				<stop  offset="1" style="stop-color:#78A9EF"/>
			</linearGradient>
			<rect id="square_3_1_" x="723.5" y="468.7" class="st1" width="103.7" height="103.9"/>
			
				<linearGradient id="square_2_2_" gradientUnits="userSpaceOnUse" x1="-1118.2178" y1="646.451" x2="-1273.1328" y2="641.3719" gradientTransform="matrix(-1 0 0 1 -435 -20)">
				<stop  offset="0" style="stop-color:#A1C3FC"/>
				<stop  offset="0.6955" style="stop-color:#81AEF2"/>
				<stop  offset="1" style="stop-color:#78A9EF"/>
			</linearGradient>
			<rect id="square_2_1_" x="692.4" y="572.5" class="st2" width="103.7" height="103.9"/>
			
				<linearGradient id="square_1_2_" gradientUnits="userSpaceOnUse" x1="-1290.1381" y1="555.3991" x2="-1338.4897" y2="792.0687" gradientTransform="matrix(-1 0 0 1 -435 -20)">
				<stop  offset="0" style="stop-color:#A1C3FC"/>
				<stop  offset="0.6955" style="stop-color:#81AEF2"/>
				<stop  offset="1" style="stop-color:#78A9EF"/>
			</linearGradient>
			<polygon id="square_1_1_" class="st3" points="942,596.5 862.3,530.1 796,610 875.8,676.4 			"/>
		</g>
		<g id="R_woman_1_">
			<g id="shoes_1_">
				
					<linearGradient id="R_shoe_1_" gradientUnits="userSpaceOnUse" x1="-695.2" y1="670.7" x2="-586.2" y2="670.7" gradientTransform="matrix(-1 0 0 1 -435 -20)">
					<stop  offset="0" style="stop-color:#28306D"/>
					<stop  offset="0.51" style="stop-color:#1F275F"/>
					<stop  offset="1" style="stop-color:#171F51"/>
				</linearGradient>
				<path id="R_shoe_4_" class="st4" d="M166.7,629.1H200c0,0,17.4,16.4,36,24.4s24.2,18.8,24.2,18.8h-109L166.7,629.1"/>
				<path id="L_shoe_4_" class="st5" d="M96.2,629.1h35.4c0,0,15.3,16.3,33.9,24.3s24.2,18.8,24.2,18.8h-109L96.2,629.1"/>
			</g>
			<g id="trousers_1_">
				
					<linearGradient id="R_trousers_1_" gradientUnits="userSpaceOnUse" x1="-689.4933" y1="550.0236" x2="-515.8961" y2="477.4284" gradientTransform="matrix(-1 0 0 1 -435 -20)">
					<stop  offset="0" style="stop-color:#A1C3FC"/>
					<stop  offset="0.6955" style="stop-color:#81AEF2"/>
					<stop  offset="1" style="stop-color:#78A9EF"/>
				</linearGradient>
				<path id="R_trousers_4_" class="st6" d="M125,376.6c11.9,52.1,9.9,44.2,16,90c4.9,36.3,2.1,21,4,59.4
					c1.8,38.4-2.9,78.8,21.7,103H200c0,0-1-99.3-1.6-132.3c-0.5-28.7-3.4-62.3-5.6-83.4c-0.1-1.2-0.3-2.4-0.5-3.6
					c-2.6-15-3.4-20.1-4.6-28.8c-0.1-0.9-0.3-1.7-0.4-2.5c-9.6-1.1-22.1-4.4-30.5-13.5c-13.8-15-19.9-19.8-28.8-23.4
					c-0.9-0.3-1.7-0.7-2.7-1c-1.7-0.6-3.3-1.3-4.8-2.2C120.3,348.2,121.4,360.8,125,376.6z"/>
				
					<linearGradient id="L_trousers_1_" gradientUnits="userSpaceOnUse" x1="-583.7254" y1="467.1658" x2="-608.7317" y2="255.6544" gradientTransform="matrix(-1 0 0 1 -435 -20)">
					<stop  offset="0" style="stop-color:#A1C3FC"/>
					<stop  offset="0.6955" style="stop-color:#81AEF2"/>
					<stop  offset="1" style="stop-color:#78A9EF"/>
				</linearGradient>
				<path id="L_trousers_4_" class="st7" d="M96.2,629.1h35.4c0,0,60-130.5,62.8-157c2.7-26.5,0.5-58.2-3.3-84.2
					c-0.5-3.2-1-6.3-1.5-9.3c-9.8-0.9-23.7-3.9-32.7-13.8c-13.8-15-19.9-19.8-28.8-23.4c-5.5,0-10.7-0.3-15.4-0.8
					c0.1,13.2,2.7,30.7,10.8,53.3c21.6,60.7,5.4,69.4-1.6,87.8c-7.1,18.3-10.8,29.6-9.2,46.9c1.6,17.3-6.5,12.8-10.9,35.2
					C97.4,586.3,96.2,629.1,96.2,629.1z"/>
				<path id="texture_4_" class="st8" d="M131.9,354.5L131.9,354.5c0,0.1,0.1,0.2,0.2,0.1l0,0c0.1,0,0.1-0.1,0.1-0.2l0,0
					c0-0.1-0.1-0.1-0.2-0.1C131.9,354.3,131.8,354.4,131.9,354.5z M136.1,352.7c-0.1,0-0.1,0.1-0.1,0.2s0.1,0.2,0.2,0.1
					c0.1,0,0.1-0.1,0.1-0.2S136.2,352.7,136.1,352.7L136.1,352.7z M140.3,351.2L140.3,351.2c-0.1,0-0.1,0.2-0.1,0.2l0,0
					c0,0.1,0.1,0.1,0.2,0.1l0,0c0.1,0,0.1-0.1,0.1-0.2S140.4,351.1,140.3,351.2L140.3,351.2z M144.4,349.6c-0.1,0-0.1,0.1-0.1,0.2
					s0.1,0.1,0.2,0.1s0.1-0.1,0.1-0.2C144.6,349.6,144.5,349.6,144.4,349.6L144.4,349.6z M148.6,348L148.6,348
					c-0.1,0-0.1,0.1-0.1,0.2s0.1,0.1,0.2,0.1c0.1,0,0.1-0.1,0.1-0.2S148.7,348,148.6,348L148.6,348z M144.6,368L144.6,368
					c0,0.1,0,0.2,0.1,0.2l0,0c0.1,0,0.2,0,0.2-0.1s0-0.2-0.1-0.2C144.8,367.9,144.7,367.9,144.6,368L144.6,368z M146.5,364
					L146.5,364c0,0.1,0,0.2,0.1,0.2s0.2,0,0.3-0.1c0-0.1,0-0.2-0.1-0.2l0,0C146.6,363.8,146.5,363.9,146.5,364L146.5,364z
					 M148.3,359.9c0,0.1,0,0.2,0.1,0.2l0,0c0.1,0,0.2,0,0.2-0.1s0-0.2-0.1-0.3C148.4,359.8,148.3,359.8,148.3,359.9L148.3,359.9z
					 M150,355.9c0,0.1,0,0.2,0.1,0.3l0,0c0.1,0,0.2,0,0.2-0.1s0-0.2-0.1-0.3l0,0C150.2,355.7,150.1,355.8,150,355.9L150,355.9z
					 M163.2,368.8c0,0.1,0.1,0.1,0.2,0.1l0,0c0.1,0,0.1-0.1,0.1-0.2s-0.1-0.1-0.2-0.1C163.2,368.5,163.2,368.7,163.2,368.8z
					 M132.8,344.6c-0.1,0-0.2,0.1-0.2,0.2s0.1,0.2,0.2,0.2l0,0c0.1,0,0.2-0.1,0.2-0.2S132.9,344.7,132.8,344.6L132.8,344.6z
					 M137.1,344.9L137.1,344.9c0,0.1,0,0.1,0,0.2s0.1,0.1,0.2,0.1l0,0c0.1,0,0.2-0.1,0.2-0.2l0,0c0-0.1-0.1-0.2-0.2-0.2
					C137.2,344.8,137.1,344.8,137.1,344.9L137.1,344.9z M141.7,344.9c-0.1,0-0.2,0.1-0.2,0.2l0,0c0,0.1,0.1,0.2,0.2,0.2l0,0
					c0.1,0,0.2-0.1,0.2-0.2S141.8,344.9,141.7,344.9L141.7,344.9z M138.6,360.6C138.5,360.6,138.5,360.6,138.6,360.6
					c-0.1,0.1-0.1,0.2,0,0.3c0.1,0.1,0.2,0.1,0.3,0s0.1-0.2,0-0.3C138.8,360.6,138.6,360.6,138.6,360.6L138.6,360.6z M141.8,357.6
					L141.8,357.6c-0.1,0.1-0.1,0.2,0,0.3c0.1,0.1,0.1,0.1,0.2,0l0,0l0,0c0,0,0.1-0.1,0.1-0.2c0,0,0-0.1-0.1-0.1
					C142,357.5,141.9,357.5,141.8,357.6L141.8,357.6z M145,354.6c-0.1,0.1-0.1,0.2,0,0.3c0.1,0.1,0.2,0.1,0.3,0l0,0
					c0.1-0.1,0.1-0.2,0-0.3S145.1,354.5,145,354.6L145,354.6z M148.3,351.5c-0.1,0.1-0.1,0.2,0,0.3l0,0c0.1,0.1,0.2,0.1,0.2,0l0,0
					c0.1-0.1,0.1-0.2,0-0.3H148.3L148.3,351.5z M153.8,367.9c0,0.1,0.1,0.2,0.2,0.2l0,0c0.1,0,0.2-0.1,0.2-0.2s-0.1-0.2-0.2-0.2
					S153.8,367.8,153.8,367.9z M154.1,363.3c-0.1,0-0.2,0.1-0.2,0.2l0,0c0,0.1,0.1,0.2,0.2,0.2l0,0c0.1,0,0.2-0.1,0.2-0.2
					S154.2,363.3,154.1,363.3L154.1,363.3z M112.3,341C112.3,341,112.4,341,112.3,341C112.4,341,112.4,341,112.3,341
					c0.3,0,0.4-0.1,0.4-0.3c0-0.2-0.1-0.4-0.3-0.4h-0.1C112.3,340.6,112.3,340.8,112.3,341z M120.8,341.2c-0.2,0-0.4,0.1-0.4,0.3
					c0,0,0,0.1,0,0.2s0.2,0.2,0.3,0.2l0,0c0.2,0,0.4-0.1,0.4-0.3l0,0C121.2,341.4,121,341.2,120.8,341.2L120.8,341.2z M129.2,342
					L129.2,342c-0.2,0-0.4,0.1-0.4,0.3c0,0.2,0.1,0.4,0.3,0.4l0,0c0.2,0,0.4-0.1,0.4-0.3S129.4,342,129.2,342L129.2,342z
					 M120.6,368.2L120.6,368.2c-0.1,0.1-0.2,0.3,0,0.5l0,0c0.1,0.1,0.3,0.2,0.5,0l0,0c0.1-0.1,0.2-0.3,0-0.5l0,0
					C120.9,368.1,120.7,368,120.6,368.2L120.6,368.2z M127.1,362.8c-0.2,0.1-0.2,0.3-0.1,0.5l0,0c0.1,0.1,0.3,0.2,0.5,0
					c0.1-0.1,0.2-0.4,0-0.5l0,0C127.4,362.7,127.2,362.7,127.1,362.8L127.1,362.8z M133.6,357.5L133.6,357.5
					c-0.1,0.1-0.2,0.3-0.1,0.5s0.3,0.2,0.5,0c0.1-0.1,0.2-0.3,0-0.5S133.7,357.4,133.6,357.5L133.6,357.5z M140.1,352.2
					c-0.1,0.1-0.2,0.3-0.1,0.4c0.1,0.2,0.3,0.3,0.4,0.2h0.1c0,0,0.1-0.1,0.1-0.2l0,0c0-0.1,0-0.2-0.1-0.3l0,0
					C140.5,352.1,140.2,352.1,140.1,352.2L140.1,352.2z M146.6,346.9c-0.1,0.1-0.1,0.3,0,0.5l0,0c0.1,0.2,0.3,0.2,0.5,0.1
					s0.2-0.3,0.1-0.5l0,0C147,346.7,146.8,346.7,146.6,346.9L146.6,346.9z M145.5,390.1L145.5,390.1c-0.2,0-0.4,0.1-0.4,0.3
					c0,0.2,0.1,0.4,0.3,0.4l0,0c0.2,0,0.4-0.1,0.4-0.3S145.7,390.2,145.5,390.1L145.5,390.1z M146,382.1c0,0.2,0.1,0.4,0.3,0.4
					s0.4-0.1,0.4-0.3l0,0c0-0.2-0.1-0.4-0.3-0.4C146.2,381.8,146,381.9,146,382.1z M147.2,373.4c-0.2,0-0.4,0.1-0.4,0.3l0,0
					c0,0.2,0.1,0.4,0.3,0.4l0,0c0.2,0,0.4-0.1,0.4-0.3S147.4,373.4,147.2,373.4L147.2,373.4z M148,365c-0.2,0-0.4,0.1-0.4,0.3
					c0,0.2,0.1,0.4,0.3,0.4s0.4-0.1,0.4-0.3l0,0C148.4,365.2,148.2,365,148,365L148,365z M148.9,356.7c-0.2,0-0.4,0.1-0.4,0.3l0,0
					c0,0.2,0.1,0.4,0.3,0.4s0.4-0.1,0.4-0.3C149.2,356.9,149.1,356.7,148.9,356.7L148.9,356.7z M117.3,353.6
					c-0.2,0.1-0.3,0.3-0.2,0.4c0.1,0.2,0.3,0.3,0.4,0.2c0.2-0.1,0.3-0.3,0.2-0.4C117.7,353.7,117.5,353.6,117.3,353.6L117.3,353.6z
					 M125.4,351.2L125.4,351.2c-0.2,0.1-0.3,0.3-0.2,0.4l0,0c0.1,0.2,0.3,0.3,0.4,0.2c0.2-0.1,0.3-0.3,0.2-0.4l0,0
					C125.8,351.2,125.6,351.1,125.4,351.2L125.4,351.2z M133.2,349.2L133.2,349.2c0.1,0.2,0.3,0.3,0.4,0.2l0,0
					c0.2,0,0.3-0.3,0.2-0.4l0,0c-0.1-0.2-0.3-0.3-0.4-0.2C133.3,348.8,133.2,349,133.2,349.2z M141.3,346.8c0.1,0.2,0.2,0.3,0.4,0.2
					c0.2,0,0.3-0.2,0.2-0.4s-0.2-0.3-0.4-0.2C141.3,346.4,141.2,346.6,141.3,346.8z M129.4,381.8L129.4,381.8c0.2,0.1,0.4,0,0.5-0.2
					s0-0.4-0.2-0.5s-0.4,0-0.5,0.2C129.2,381.5,129.2,381.7,129.4,381.8z M133.2,373.9c-0.1,0.2,0,0.4,0.1,0.5l0,0
					c0.2,0.1,0.4,0,0.5-0.2s0-0.4-0.2-0.5C133.5,373.6,133.3,373.7,133.2,373.9L133.2,373.9z M137.2,366.5c-0.1,0.2,0,0.4,0.1,0.5
					c0.2,0.1,0.4,0,0.5-0.1c0.1-0.2,0-0.4-0.1-0.5C137.5,366.2,137.3,366.3,137.2,366.5L137.2,366.5z M141.2,359.1L141.2,359.1
					c-0.1,0.2,0,0.4,0.1,0.5l0,0c0.2,0.1,0.4,0,0.5-0.1l0,0c0.1-0.2,0-0.4-0.2-0.5C141.5,358.8,141.3,358.9,141.2,359.1L141.2,359.1
					z M145.2,351.6L145.2,351.6c-0.1,0.2,0,0.4,0.1,0.5c0.2,0.1,0.4,0,0.5-0.1c0.1-0.2,0-0.4-0.1-0.5
					C145.5,351.4,145.3,351.5,145.2,351.6L145.2,351.6z M161.1,385c0.1,0.2,0.3,0.3,0.4,0.2l0,0c0.2,0,0.3-0.3,0.2-0.4l0,0
					c-0.1-0.2-0.2-0.3-0.4-0.2C161.2,384.6,161.1,384.8,161.1,385z M158.9,376.5c-0.2,0-0.3,0.3-0.2,0.4c0.1,0.2,0.3,0.3,0.4,0.2
					c0.2-0.1,0.3-0.3,0.2-0.4l0,0C159.3,376.6,159.1,376.5,158.9,376.5L158.9,376.5z M156.5,368.5c-0.2,0.1-0.3,0.3-0.2,0.4l0,0
					c0.1,0.2,0.3,0.3,0.4,0.2l0,0c0.2-0.1,0.3-0.3,0.2-0.4C156.9,368.5,156.7,368.4,156.5,368.5L156.5,368.5z M153.8,360.9
					c0.1,0.2,0.3,0.3,0.4,0.2l0,0c0.2-0.1,0.3-0.3,0.2-0.4c0-0.2-0.2-0.3-0.4-0.2C153.9,360.5,153.8,360.7,153.8,360.9z
					 M112.4,349.9c0.1-0.1,0.1-0.1,0.1-0.2c0,0,0-0.1-0.1-0.1C112.4,349.6,112.4,349.7,112.4,349.9z M119.5,347.9
					c-0.2,0-0.3,0.2-0.2,0.4c0,0.2,0.2,0.3,0.4,0.2c0.2,0,0.3-0.2,0.2-0.4C119.8,348,119.6,347.9,119.5,347.9L119.5,347.9z
					 M126.8,346.4L126.8,346.4c-0.2,0-0.3,0.2-0.2,0.4l0,0c0,0.2,0.2,0.3,0.4,0.2c0.2,0,0.3-0.2,0.2-0.4
					C127.2,346.5,127,346.4,126.8,346.4L126.8,346.4z M134.2,345c-0.2,0-0.3,0.2-0.2,0.4c0,0.2,0.2,0.3,0.4,0.2
					c0.2,0,0.3-0.2,0.3-0.4l-0.1-0.1C134.4,345,134.3,344.9,134.2,345L134.2,345z M122.2,377.7c0.1,0.1,0.3,0.1,0.4-0.1l0,0
					c0.1-0.1,0.1-0.3-0.1-0.4c-0.1-0.1-0.3-0.1-0.4,0.1C122.1,377.4,122.1,377.6,122.2,377.7z M126.3,371L126.3,371
					c-0.1,0.2-0.1,0.3,0.1,0.4l0,0c0.1,0.1,0.3,0.1,0.4-0.1c0.1-0.1,0.1-0.3-0.1-0.4C126.6,370.8,126.4,370.8,126.3,371L126.3,371z
					 M130.5,364.7c-0.1,0.1-0.1,0.2,0,0.3c0,0.1,0.1,0.1,0.1,0.2c0.1,0.1,0.3,0,0.4-0.1l0,0c0.1-0.1,0.1-0.3-0.1-0.4
					C130.8,364.6,130.7,364.6,130.5,364.7L130.5,364.7C130.6,364.6,130.5,364.7,130.5,364.7L130.5,364.7z M134.6,358.5
					c-0.1,0.2-0.1,0.3,0.1,0.4c0.1,0.1,0.3,0,0.4-0.1c0.1-0.1,0-0.3-0.1-0.4S134.8,358.3,134.6,358.5L134.6,358.5z M138.8,352.2
					c-0.1,0.1,0,0.3,0.1,0.4s0.3,0,0.4-0.1c0.1-0.1,0.1-0.3-0.1-0.4C139.1,352.1,138.9,352.1,138.8,352.2L138.8,352.2z M143,346
					c-0.1,0.1,0,0.3,0.1,0.4s0.3,0,0.4-0.1c0.1-0.1,0.1-0.3-0.1-0.4C143.3,345.8,143.1,345.9,143,346L143,346z M153.3,383.2
					c-0.2,0-0.3,0.2-0.3,0.4c0,0.2,0.2,0.3,0.4,0.3l0,0c0.2,0,0.3-0.2,0.2-0.4l0,0C153.6,383.3,153.4,383.2,153.3,383.2L153.3,383.2
					z M151.8,375.9c-0.2,0-0.3,0.2-0.2,0.4c0,0.2,0.2,0.3,0.4,0.2l0,0c0.2,0,0.3-0.2,0.2-0.4l0,0
					C152.1,375.9,151.9,375.8,151.8,375.9L151.8,375.9z M150.3,368.5c-0.2,0-0.3,0.2-0.2,0.4l0,0c0,0.2,0.2,0.3,0.4,0.2l0,0
					c0.2,0,0.3-0.2,0.2-0.4l0,0C150.6,368.6,150.5,368.5,150.3,368.5L150.3,368.5z M148.9,361.1c-0.2,0-0.3,0.2-0.3,0.4
					s0.2,0.3,0.4,0.2c0.2,0,0.3-0.2,0.3-0.4C149.3,361.2,149.1,361.1,148.9,361.1L148.9,361.1z M147.4,353.8c-0.2,0-0.3,0.2-0.2,0.4
					l0,0c0,0.2,0.2,0.3,0.4,0.3s0.3-0.2,0.3-0.4C147.8,353.9,147.6,353.7,147.4,353.8L147.4,353.8z M146,346.4
					c-0.2,0-0.3,0.2-0.3,0.4s0.2,0.3,0.4,0.3s0.3-0.2,0.3-0.4S146.2,346.4,146,346.4L146,346.4z M119.7,359.2
					c-0.1,0.1-0.2,0.3-0.1,0.4l0,0c0.1,0.1,0.3,0.2,0.4,0.1l0,0c0.1-0.1,0.2-0.3,0.1-0.4l0,0C120,359.1,119.8,359.1,119.7,359.2
					L119.7,359.2z M125.9,355.4c0.1,0.1,0.3,0.2,0.4,0.1c0.2-0.1,0.2-0.3,0.1-0.4c-0.1-0.1-0.3-0.2-0.4-0.1
					C125.8,355.1,125.8,355.3,125.9,355.4z M132.2,350.8L132.2,350.8c-0.1,0.1-0.2,0.3-0.1,0.4c0.1,0.1,0.3,0.2,0.4,0.1
					c0.1-0.1,0.2-0.3,0.1-0.4l0,0C132.5,350.8,132.3,350.7,132.2,350.8L132.2,350.8z M138.4,346.7L138.4,346.7
					c-0.1,0.1-0.2,0.3-0.1,0.4c0.1,0.1,0.3,0.2,0.4,0.1c0.1-0.1,0.2-0.3,0.1-0.4C138.8,346.6,138.6,346.6,138.4,346.7L138.4,346.7z
					 M137.5,379.4c-0.2,0-0.3,0.1-0.4,0.3c0,0.2,0.1,0.3,0.3,0.4c0.2,0,0.3-0.1,0.4-0.2C137.8,379.6,137.7,379.5,137.5,379.4
					L137.5,379.4z M138.9,372.1c-0.2,0-0.3,0.1-0.4,0.3l0,0c0,0.2,0.1,0.3,0.2,0.3c0.2,0,0.3-0.1,0.4-0.2
					C139.2,372.4,139.1,372.1,138.9,372.1L138.9,372.1z M140.4,364.7L140.4,364.7c-0.2,0-0.3,0.1-0.4,0.2c0,0.2,0.1,0.3,0.2,0.4
					c0.2,0,0.3-0.1,0.4-0.2l0,0C140.7,364.9,140.6,364.7,140.4,364.7L140.4,364.7z M141.8,357.4L141.8,357.4c-0.2,0-0.3,0.1-0.4,0.2
					c0,0.2,0.1,0.3,0.2,0.4c0.1,0,0.2,0,0.3-0.1l0,0c0.1-0.1,0.1-0.1,0.1-0.2C142.1,357.5,142,357.4,141.8,357.4L141.8,357.4z
					 M143.3,350c-0.2,0-0.3,0.1-0.4,0.2c0,0.2,0.1,0.3,0.3,0.4c0.2,0,0.3-0.1,0.4-0.3v-0.1c-0.1,0-0.1-0.1-0.1-0.2
					C143.4,350,143.4,350,143.3,350L143.3,350z M165.4,374.1L165.4,374.1c-0.1,0.1-0.2,0.3-0.1,0.4l0,0c0.1,0.1,0.3,0.2,0.4,0.1l0,0
					c0.1-0.1,0.2-0.3,0.1-0.4C165.7,374,165.5,374,165.4,374.1L165.4,374.1z M161.2,367.8C161.2,367.8,161.2,367.9,161.2,367.8
					c-0.2,0.1-0.2,0.3-0.1,0.4c0.1,0.1,0.3,0.2,0.4,0.1c0.1-0.1,0.2-0.3,0.1-0.4S161.3,367.8,161.2,367.8L161.2,367.8z M148.7,349.6
					c0.1,0.1,0.3,0.2,0.4,0.1c0.1-0.1,0.2-0.3,0.1-0.4c-0.1-0.1-0.3-0.2-0.4-0.1C148.6,349.2,148.6,349.4,148.7,349.6z M116.2,341.6
					L116.2,341.6c-0.1,0-0.2,0.1-0.2,0.2l0,0c0,0.1,0.1,0.2,0.2,0.2s0.2-0.1,0.2-0.2l0,0C116.4,341.7,116.3,341.6,116.2,341.6
					L116.2,341.6z M120.5,341.7C120.4,341.7,120.4,341.7,120.5,341.7L120.5,341.7c0,0.2,0,0.3,0.1,0.3s0.1,0,0.1-0.1v-0.1l0,0
					c0-0.1-0.1-0.2-0.2-0.2C120.5,341.6,120.5,341.6,120.5,341.7L120.5,341.7z M125,341.5c-0.1,0-0.2,0.1-0.2,0.2l0,0
					c0,0.1,0.1,0.2,0.2,0.2s0.2-0.1,0.2-0.2S125.1,341.5,125,341.5L125,341.5z M123.3,358.8c-0.1,0.1-0.1,0.2,0,0.3l0,0
					c0.1,0.1,0.2,0.1,0.3,0s0.1-0.2,0-0.3S123.3,358.7,123.3,358.8L123.3,358.8z M126.4,355.7c-0.1,0.1-0.1,0.2,0,0.3l0,0
					c0.1,0.1,0.2,0.1,0.3,0s0.1-0.2,0-0.3C126.6,355.6,126.5,355.6,126.4,355.7L126.4,355.7z M129.5,352.5L129.5,352.5
					c-0.1,0.1-0.1,0.2,0,0.3c0.1,0.1,0.2,0.1,0.3,0l0,0c0.1-0.1,0-0.2,0-0.2C129.7,352.5,129.6,352.5,129.5,352.5L129.5,352.5z
					 M132.6,349.4c-0.1,0.1-0.1,0.2,0,0.3c0.1,0.1,0.2,0.1,0.3,0l0,0c0.1-0.1,0.1-0.2,0-0.3S132.7,349.3,132.6,349.4L132.6,349.4z
					 M135.7,346.2c-0.1,0.1-0.1,0.2,0,0.3s0.2,0.1,0.3,0s0.1-0.2,0-0.3l0,0C135.9,346.2,135.8,346.2,135.7,346.2L135.7,346.2z
					 M140.7,365.8c-0.1,0-0.2,0.1-0.2,0.2s0.1,0.2,0.2,0.2c0.1,0,0.2-0.1,0.2-0.2C140.8,365.9,140.8,365.8,140.7,365.8L140.7,365.8z
					 M140.6,361.4L140.6,361.4c-0.1,0-0.2,0.1-0.2,0.2s0.1,0.2,0.2,0.2l0,0c0.1,0,0.2-0.1,0.2-0.2l0,0
					C140.8,361.5,140.7,361.4,140.6,361.4L140.6,361.4z M140.4,357.1c0,0.1,0.1,0.2,0.2,0.2c0.1,0,0.2-0.1,0.2-0.2l0,0
					c0-0.1-0.1-0.2-0.2-0.2C140.5,357,140.4,357,140.4,357.1z M140.6,352.5L140.6,352.5c-0.1,0-0.2,0.1-0.2,0.2l0,0
					c0,0.1,0.1,0.1,0.2,0.1l0,0c0.1,0,0.2-0.1,0.2-0.2C140.8,352.6,140.7,352.6,140.6,352.5L140.6,352.5L140.6,352.5L140.6,352.5z
					 M140.6,348.1c-0.1,0-0.2,0.1-0.2,0.2s0.1,0.2,0.2,0.2c0.1,0,0.2-0.1,0.2-0.2S140.7,348.1,140.6,348.1L140.6,348.1z
					 M148.3,349.3L148.3,349.3c-0.1,0.1-0.1,0.2,0,0.3s0.2,0.1,0.3,0s0.1-0.2,0-0.3S148.3,349.2,148.3,349.3L148.3,349.3z
					 M145.1,346.2c-0.1,0.1-0.1,0.2,0,0.3s0.2,0.1,0.3,0s0.1-0.2,0-0.3C145.3,346.1,145.2,346.1,145.1,346.2L145.1,346.2z
					 M120.1,349.7c-0.1,0-0.1,0.2-0.1,0.3s0.1,0.1,0.2,0.1s0.1-0.2,0.1-0.3l0,0C120.2,349.7,120.1,349.7,120.1,349.7L120.1,349.7z
					 M124.1,348L124.1,348c-0.1,0-0.1,0.1-0.1,0.2s0.1,0.1,0.2,0.1l0,0c0.1,0,0.1-0.1,0.1-0.2l0,0C124.3,348,124.2,348,124.1,348
					L124.1,348z M128.2,346.3c-0.1,0-0.1,0.1-0.1,0.2l0,0c0,0.1,0.1,0.1,0.2,0.1l0,0c0.1,0,0.1-0.1,0.1-0.2l0,0
					C128.4,346.3,128.3,346.2,128.2,346.3L128.2,346.3z M132.3,344.6c-0.1,0-0.1,0.1-0.1,0.3c0,0.1,0.1,0.1,0.3,0.1
					c0.1,0,0.1-0.1,0.1-0.3C132.5,344.6,132.4,344.5,132.3,344.6L132.3,344.6z M131.9,361.8c0,0.1,0,0.2,0.1,0.2s0.2,0,0.2-0.1l0,0
					c0-0.1,0-0.2-0.1-0.2l0,0C132,361.7,131.9,361.7,131.9,361.8L131.9,361.8z M133.6,357.7L133.6,357.7c0,0.1,0,0.2,0.1,0.3
					c0.1,0,0.2,0,0.2-0.1s0-0.2-0.1-0.2l0,0C133.7,357.6,133.6,357.6,133.6,357.7L133.6,357.7z M135.3,353.6L135.3,353.6
					c0,0.1,0,0.2,0.1,0.2l0,0c0.1,0,0.2,0,0.2-0.1s0-0.2-0.1-0.2S135.3,353.5,135.3,353.6L135.3,353.6z M136.9,349.5
					c0,0.1,0,0.2,0.1,0.2l0,0c0.1,0,0.2,0,0.2-0.1s0-0.2-0.1-0.2C137.1,349.4,137,349.4,136.9,349.5L136.9,349.5z M138.6,345.4
					c0,0.1,0,0.2,0.1,0.2l0,0c0.1,0,0.2,0,0.2-0.1l0,0c0-0.1,0-0.2-0.1-0.2S138.6,345.3,138.6,345.4L138.6,345.4z M148.8,362
					c0,0.1,0.1,0.1,0.2,0.1c0.1,0,0.1-0.1,0.1-0.2l0,0c0-0.1-0.1-0.1-0.2-0.1C148.9,361.8,148.8,361.9,148.8,362z M147.2,357.7
					L147.2,357.7c-0.1,0-0.1,0.1-0.1,0.2s0.1,0.1,0.3,0.1l0,0c0.1,0,0.1-0.1,0.1-0.2l0,0C147.4,357.7,147.3,357.7,147.2,357.7
					L147.2,357.7z M145.5,353.6c-0.1,0-0.1,0.1-0.1,0.2s0.1,0.1,0.3,0.1c0.1,0,0.1-0.2,0.1-0.3C145.7,353.6,145.6,353.6,145.5,353.6
					L145.5,353.6z M143.7,349.6L143.7,349.6L143.7,349.6c0,0.2,0.1,0.2,0.2,0.2c0.1,0,0.1-0.1,0.1-0.1v-0.1
					C144,349.5,143.9,349.5,143.7,349.6C143.8,349.6,143.7,349.6,143.7,349.6L143.7,349.6L143.7,349.6z M142.1,345.5
					c-0.1,0-0.1,0.1-0.1,0.3c0,0.1,0.1,0.1,0.2,0.1l0,0c0.1,0,0.1-0.1,0.1-0.3l0,0C142.3,345.5,142.2,345.4,142.1,345.5L142.1,345.5
					z M146,347.2c-0.1,0.1,0,0.2,0.1,0.3l0,0c0.1,0.1,0.2,0,0.3-0.1s0-0.2-0.1-0.3C146.2,347.1,146.1,347.1,146,347.2L146,347.2z
					 M113.4,344.3L113.4,344.3c-0.1,0-0.2,0.1-0.2,0.2s0.1,0.2,0.2,0.2c0.1,0,0.2-0.1,0.2-0.2l0,0
					C113.6,344.3,113.5,344.2,113.4,344.3L113.4,344.3z M118.3,343.3L118.3,343.3c-0.1,0-0.2,0.1-0.2,0.2s0.1,0.2,0.2,0.2
					s0.2-0.1,0.2-0.2l0,0C118.6,343.4,118.4,343.3,118.3,343.3L118.3,343.3z M123.3,342.4L123.3,342.4c-0.1,0-0.2,0.1-0.2,0.2
					s0.1,0.2,0.2,0.2s0.2-0.1,0.2-0.2l0,0C123.5,342.4,123.4,342.4,123.3,342.4L123.3,342.4z M119.9,363.1c-0.1,0.1,0,0.2,0.1,0.3
					l0,0c0.1,0.1,0.2,0,0.3-0.1l0,0c0.1-0.1,0-0.2-0.1-0.3l0,0C120.1,363,120,363,119.9,363.1L119.9,363.1z M122.8,358.9
					L122.8,358.9c-0.1,0.1-0.1,0.2,0,0.3l0,0c0.1,0.1,0.2,0,0.3-0.1s0-0.2-0.1-0.3l0,0C123,358.8,122.8,358.8,122.8,358.9
					L122.8,358.9z M125.6,354.7c-0.1,0.1,0,0.2,0.1,0.3s0.2,0,0.3,0l0,0l0,0c0.1-0.1,0-0.2-0.1-0.3
					C125.8,354.6,125.7,354.6,125.6,354.7L125.6,354.7z M128.5,350.6c-0.1,0.1,0,0.2,0.1,0.3c0.1,0.1,0.2,0,0.3-0.1s0-0.2-0.1-0.3
					C128.7,350.5,128.6,350.5,128.5,350.6C128.5,350.5,128.5,350.5,128.5,350.6L128.5,350.6L128.5,350.6z M131.3,346.4
					c-0.1,0.1,0,0.2,0.1,0.3l0,0c0.1,0.1,0.2,0,0.3-0.1l0,0c0.1-0.1,0-0.2-0.1-0.3C131.5,346.3,131.4,346.3,131.3,346.4L131.3,346.4
					z M140.9,367.3L140.9,367.3c-0.1,0-0.2,0.1-0.2,0.3l0,0c0,0.1,0.1,0.2,0.2,0.1c0.1,0,0.2-0.1,0.2-0.2
					C141.1,367.4,141,367.3,140.9,367.3L140.9,367.3z M139.9,362.4c-0.1,0-0.2,0.1-0.2,0.3l0,0c0,0.1,0.1,0.2,0.3,0.2
					c0.1,0,0.2-0.1,0.2-0.2C140.2,362.4,140.1,362.4,139.9,362.4L139.9,362.4z M139,357.4c-0.1,0-0.2,0.1-0.2,0.2l0,0
					c0,0.1,0.1,0.2,0.2,0.1c0.1,0,0.2-0.1,0.2-0.2C139.2,357.5,139.1,357.4,139,357.4L139,357.4z M138.1,352.4
					c-0.1,0-0.2,0.1-0.2,0.2l0,0c0,0.1,0.1,0.2,0.2,0.1c0.1,0,0.2-0.1,0.2-0.2S138.2,352.4,138.1,352.4L138.1,352.4z M137.1,347.5
					c-0.1,0-0.2,0.1-0.2,0.2l0,0c0,0.1,0.1,0.2,0.2,0.1c0.1,0,0.2-0.1,0.2-0.2C137.4,347.5,137.3,347.5,137.1,347.5L137.1,347.5z
					 M114.6,353.6c-0.1,0.1-0.1,0.2-0.1,0.3l0,0c0.1,0.1,0.2,0.1,0.3,0.1c0.1-0.1,0.1-0.2,0.1-0.3l0,0
					C114.8,353.6,114.7,353.6,114.6,353.6L114.6,353.6z M118.8,350.8c-0.1,0.1-0.1,0.2-0.1,0.3c0.1,0.1,0.2,0.1,0.3,0.1l0,0
					c0.1-0.1,0.1-0.2,0.1-0.3C119,350.8,118.9,350.8,118.8,350.8L118.8,350.8z M123,348.1c-0.1,0.1-0.1,0.2-0.1,0.3l0,0
					c0.1,0.1,0.2,0.1,0.3,0l0,0c0.1-0.1,0.1-0.2,0.1-0.3C123.2,348,123.1,348,123,348.1L123,348.1z M127.2,345.3
					c-0.1,0.1-0.1,0.2-0.1,0.3c0.1,0.1,0.2,0.1,0.3,0.1l0,0c0.1-0.1,0.1-0.2,0.1-0.3C127.5,345.3,127.3,345.3,127.2,345.3
					L127.2,345.3z M131.5,342.5c-0.1,0.1-0.1,0.2-0.1,0.3l0,0c0.1,0.1,0.2,0.1,0.3,0l0,0c0.1-0.1,0.1-0.2,0.1-0.3
					C131.7,342.5,131.6,342.5,131.5,342.5L131.5,342.5z M130.4,364.8c0,0.1,0,0.2,0.1,0.2h0.1l0,0c0.1,0,0.2,0,0.2-0.2
					c0-0.1,0-0.2-0.1-0.3l0,0l0,0C130.5,364.6,130.4,364.7,130.4,364.8L130.4,364.8z M131.4,359.8L131.4,359.8c0,0.1,0,0.2,0.1,0.3
					c0.1,0,0.2,0,0.3-0.2c0-0.1,0-0.2-0.2-0.3C131.5,359.6,131.4,359.7,131.4,359.8z M132.7,354.7L132.7,354.7c-0.1,0-0.2,0-0.3,0.2
					l0,0c0,0.1,0,0.2,0.2,0.3c0.1,0,0.2-0.1,0.3-0.2C132.9,354.9,132.8,354.7,132.7,354.7L132.7,354.7z M133.7,349.8L133.7,349.8
					c-0.1,0-0.2,0-0.3,0.2c0,0.1,0,0.2,0.2,0.3l0,0c0.1,0,0.2,0,0.2-0.2l0,0C133.9,349.9,133.8,349.8,133.7,349.8L133.7,349.8z
					 M134.5,345L134.5,345c0,0.1,0.1,0.2,0.1,0.2h0.1c0.1,0,0.2,0,0.3-0.2c0-0.1-0.1-0.2-0.2-0.3C134.6,344.8,134.5,344.9,134.5,345
					L134.5,345z M149.5,361.2c-0.1,0.1-0.1,0.2-0.1,0.3l0,0c0.1,0.1,0.2,0.1,0.3,0s0.1-0.2,0.1-0.3l0,0
					C149.7,361.2,149.6,361.1,149.5,361.2L149.5,361.2z M146.7,357c-0.1,0.1-0.1,0.2-0.1,0.3l0,0c0.1,0.1,0.2,0.1,0.3,0l0,0
					c0.1-0.1,0.1-0.2,0.1-0.3S146.8,356.9,146.7,357L146.7,357z M143.9,352.7c-0.1,0.1-0.1,0.2,0,0.3s0.2,0.1,0.3,0.1
					c0.1-0.1,0.1-0.2,0.1-0.3l0,0C144.2,352.7,144,352.7,143.9,352.7L143.9,352.7z M141.2,348.5c-0.1,0.1-0.1,0.2-0.1,0.3l0,0
					c0.1,0.1,0.2,0.1,0.3,0l0,0c0.1-0.1,0.1-0.2,0-0.3l0,0C141.4,348.5,141.3,348.5,141.2,348.5L141.2,348.5z M138.4,344.3
					c-0.1,0.1-0.1,0.2-0.1,0.3c0.1,0.1,0.2,0.1,0.3,0.1c0.1-0.1,0.1-0.2,0.1-0.3C138.6,344.3,138.5,344.2,138.4,344.3L138.4,344.3z
					 M112.9,350.8c-0.2,0.1-0.2,0.3-0.1,0.5c0.1,0.2,0.3,0.2,0.5,0.1s0.2-0.3,0.1-0.5C113.3,350.7,113.1,350.7,112.9,350.8
					L112.9,350.8z M120,345.9c-0.2,0.1-0.2,0.3-0.1,0.5c0.1,0.2,0.3,0.2,0.5,0.1s0.2-0.3,0.1-0.5S120.2,345.8,120,345.9L120,345.9z
					 M127.2,341c-0.1,0.1-0.2,0.2-0.1,0.4c0,0,0,0.1,0.1,0.1c0,0.1,0.1,0.1,0.2,0.1c0.1,0.1,0.2,0,0.4,0c0.2-0.1,0.2-0.3,0.1-0.5
					C127.6,340.9,127.4,340.9,127.2,341L127.2,341z M122.3,385.3c-0.2,0-0.4,0.1-0.4,0.3s0.1,0.4,0.3,0.4s0.4-0.1,0.4-0.3
					C122.6,385.6,122.5,385.4,122.3,385.3L122.3,385.3z M123.9,376.8c-0.2,0-0.4,0.1-0.4,0.3c0,0.2,0.1,0.4,0.3,0.4s0.4-0.1,0.4-0.3
					S124.1,376.9,123.9,376.8L123.9,376.8z M125.5,368.3c-0.2,0-0.4,0.1-0.4,0.3s0.1,0.4,0.3,0.4l0,0c0.2,0,0.4-0.1,0.4-0.3
					S125.7,368.3,125.5,368.3L125.5,368.3z M127.1,359.8L127.1,359.8c-0.2,0-0.4,0.1-0.4,0.3l0,0c0,0.2,0.1,0.4,0.3,0.4
					s0.4-0.1,0.4-0.3l0,0C127.4,360,127.3,359.8,127.1,359.8L127.1,359.8z M128.7,351.3c-0.2,0-0.4,0.1-0.4,0.3s0.1,0.4,0.3,0.4
					s0.4-0.1,0.4-0.3S128.8,351.3,128.7,351.3L128.7,351.3z M130.3,342.7L130.3,342.7c-0.2,0-0.4,0.1-0.4,0.3s0.1,0.4,0.3,0.4
					s0.4-0.1,0.4-0.3l0,0C130.6,343,130.4,342.8,130.3,342.7L130.3,342.7z M157.6,377.9c-0.2,0.1-0.2,0.3-0.1,0.5
					c0.1,0.2,0.3,0.2,0.5,0.1s0.2-0.3,0.1-0.5C158,377.8,157.8,377.8,157.6,377.9L157.6,377.9z M152.7,370.7
					c-0.2,0.1-0.2,0.3-0.1,0.5c0.1,0.2,0.3,0.2,0.5,0.1l0,0c0.2-0.1,0.2-0.3,0.1-0.5C153.1,370.7,152.9,370.6,152.7,370.7
					L152.7,370.7z M147.9,363.6L147.9,363.6c-0.2,0.1-0.2,0.3-0.1,0.5s0.3,0.2,0.5,0.1s0.2-0.3,0.1-0.5l0,0
					C148.3,363.5,148.1,363.5,147.9,363.6L147.9,363.6z M143,356.4L143,356.4c-0.2,0.1-0.2,0.3-0.1,0.5c0.1,0.2,0.3,0.2,0.5,0.1
					s0.2-0.3,0.1-0.5l0,0C143.4,356.3,143.2,356.3,143,356.4L143,356.4z M138.1,349.3c-0.2,0.1-0.2,0.3-0.1,0.5
					c0.1,0.2,0.3,0.2,0.5,0.1s0.2-0.3,0.1-0.5C138.5,349.2,138.3,349.2,138.1,349.3L138.1,349.3z M113.7,342L113.7,342
					c-0.2,0-0.3,0.2-0.3,0.4l0,0c0,0.2,0.2,0.3,0.4,0.3l0,0c0.2,0,0.3-0.2,0.3-0.4C114.1,342.1,113.9,342,113.7,342L113.7,342z
					 M122.2,340.2L122.2,340.2c-0.2,0-0.3,0.2-0.3,0.4l0,0c0.1,0.2,0.2,0.3,0.4,0.3l0,0c0.2,0,0.3-0.2,0.3-0.4l0,0
					C122.5,340.3,122.4,340.2,122.2,340.2L122.2,340.2z M116,360.5c-0.1,0.2-0.1,0.4,0.1,0.5c0.2,0.1,0.4,0.1,0.5-0.1
					s0.1-0.4-0.1-0.5S116.1,360.4,116,360.5L116,360.5z M120.7,353.3c-0.1,0.2-0.1,0.4,0.1,0.5c0.2,0.1,0.4,0.1,0.5-0.1
					s0.1-0.4-0.1-0.5l0,0C121,353.1,120.8,353.1,120.7,353.3L120.7,353.3z M125.5,346C125.5,346,125.4,346,125.5,346
					c-0.1,0.2-0.1,0.4,0.1,0.5l0,0c0.2,0.1,0.4,0.1,0.5-0.1s0.1-0.4-0.1-0.5l0,0C125.8,345.8,125.6,345.8,125.5,346L125.5,346
					L125.5,346z M139.3,381.3L139.3,381.3c-0.2,0-0.3,0.2-0.3,0.4s0.2,0.3,0.4,0.3s0.3-0.2,0.3-0.4l0,0
					C139.7,381.4,139.5,381.2,139.3,381.3L139.3,381.3z M137.5,372.8L137.5,372.8c-0.2,0-0.3,0.2-0.3,0.4l0,0c0,0.2,0.2,0.3,0.4,0.3
					l0,0c0.2,0,0.3-0.2,0.3-0.4l0,0C137.9,372.9,137.7,372.7,137.5,372.8L137.5,372.8z M135.7,364.3L135.7,364.3
					c-0.2,0-0.3,0.2-0.3,0.4l0,0c0,0.2,0.2,0.3,0.4,0.3s0.3-0.2,0.3-0.4C136.1,364.4,135.9,364.3,135.7,364.3L135.7,364.3z
					 M133.9,355.8L133.9,355.8c-0.2,0-0.3,0.2-0.3,0.4c0,0.2,0.2,0.3,0.4,0.3s0.3-0.2,0.3-0.4C134.3,355.9,134.1,355.8,133.9,355.8
					L133.9,355.8z M132.1,347.3L132.1,347.3c-0.2,0.1-0.3,0.2-0.3,0.4c0,0.2,0.2,0.3,0.4,0.3s0.3-0.2,0.3-0.4l0,0
					C132.5,347.4,132.3,347.3,132.1,347.3L132.1,347.3z M144.8,348.7L144.8,348.7c-0.1,0.2-0.1,0.4,0.1,0.5c0.2,0.1,0.4,0.1,0.5-0.1
					l0,0c0.1-0.2,0.1-0.4-0.1-0.5C145.1,348.5,144.9,348.5,144.8,348.7L144.8,348.7z M137.5,344c-0.1,0.2-0.1,0.4,0.1,0.5l0,0
					c0.2,0.1,0.4,0.1,0.5-0.1s0.1-0.4-0.1-0.5l0,0C137.9,343.8,137.7,343.8,137.5,344L137.5,344z M113.4,339.2
					c-0.2,0-0.3,0.2-0.3,0.4l0,0c0,0.2,0.2,0.3,0.4,0.3l0,0c0.2,0,0.3-0.2,0.3-0.4l0,0C113.8,339.3,113.6,339.2,113.4,339.2
					L113.4,339.2z M113.4,354.8L113.4,354.8c-0.1,0.2-0.1,0.4,0.1,0.5c0.2,0.1,0.4,0.1,0.5-0.1s0.1-0.4-0.1-0.5l0,0
					C113.7,354.6,113.5,354.6,113.4,354.8L113.4,354.8z M118.4,347.8L118.4,347.8c-0.1,0.2-0.1,0.4,0.1,0.5c0.2,0.1,0.4,0.1,0.5-0.1
					s0.1-0.4-0.1-0.5l0,0C118.7,347.6,118.5,347.6,118.4,347.8L118.4,347.8z M123.4,340.7c-0.1,0.2-0.1,0.4,0.1,0.5
					c0.2,0.1,0.4,0.1,0.5-0.1l0,0c0.1-0.2,0.1-0.4-0.1-0.5l0,0C123.7,340.5,123.5,340.6,123.4,340.7L123.4,340.7z M134,383.9
					c-0.2,0-0.3,0.2-0.3,0.4s0.2,0.3,0.4,0.3s0.3-0.2,0.3-0.4S134.2,383.9,134,383.9L134,383.9z M132.6,375.4
					c-0.2,0-0.3,0.2-0.3,0.4s0.2,0.3,0.4,0.3s0.3-0.2,0.3-0.4C132.9,375.5,132.8,375.4,132.6,375.4L132.6,375.4z M131.1,366.9
					c-0.2,0-0.3,0.2-0.3,0.4s0.2,0.3,0.4,0.3l0,0c0.2,0,0.3-0.2,0.3-0.4S131.3,366.9,131.1,366.9L131.1,366.9z M129.7,358.4
					L129.7,358.4c-0.2,0-0.3,0.2-0.3,0.4l0,0c0,0.2,0.2,0.3,0.4,0.3s0.3-0.2,0.3-0.4l0,0C130.1,358.5,129.9,358.3,129.7,358.4
					L129.7,358.4z M128.3,349.9c-0.2,0-0.3,0.2-0.3,0.4s0.2,0.3,0.4,0.3h0.1c0,0,0,0,0.1,0c0.1-0.1,0.2-0.2,0.1-0.3l0,0
					C128.7,349.9,128.5,349.8,128.3,349.9L128.3,349.9z M126.9,341.3L126.9,341.3c-0.2,0-0.3,0.2-0.3,0.4c0,0.1,0.1,0.1,0.1,0.2
					c0,0,0,0,0.1,0s0.2,0.1,0.2,0.1l0,0c0.2,0,0.3-0.2,0.3-0.4l0,0c0-0.1-0.1-0.2-0.2-0.2C127,341.3,126.9,341.3,126.9,341.3
					L126.9,341.3z M150.4,354.8L150.4,354.8c-0.1,0.2-0.1,0.4,0.1,0.5c0.2,0.1,0.4,0.1,0.5-0.1s0.1-0.4-0.1-0.5l0,0
					C150.7,354.6,150.5,354.6,150.4,354.8L150.4,354.8z M143.5,349.8c-0.1,0.1-0.1,0.2-0.1,0.3s0.1,0.1,0.1,0.2l0,0
					c0.1,0.1,0.3,0.1,0.5,0c0.1-0.1,0.1-0.4,0-0.5c0,0,0,0-0.1-0.1s-0.2-0.1-0.3-0.1l0,0C143.6,349.6,143.5,349.7,143.5,349.8
					L143.5,349.8z M136.5,344.7c-0.1,0.2-0.1,0.4,0.1,0.5l0,0c0.2,0.1,0.4,0.1,0.5-0.1V345c0-0.1,0-0.1,0-0.2s-0.1-0.2-0.1-0.2
					C136.8,344.5,136.6,344.6,136.5,344.7L136.5,344.7z M118.6,341c-0.2,0.1-0.2,0.3-0.1,0.5s0.3,0.2,0.5,0.1l0,0
					c0.2-0.1,0.2-0.3,0.1-0.5l0,0C119,341,118.8,340.9,118.6,341L118.6,341z M118.2,370.3c-0.2,0-0.4,0.1-0.4,0.3l0,0
					c0,0.2,0.1,0.4,0.3,0.4s0.4-0.1,0.4-0.3C118.6,370.5,118.4,370.3,118.2,370.3L118.2,370.3z M120.2,361.9L120.2,361.9
					c-0.2,0-0.4,0.1-0.4,0.3l0,0c0,0.2,0.1,0.4,0.3,0.4s0.4-0.1,0.4-0.3S120.4,361.9,120.2,361.9L120.2,361.9z M122.1,353.5
					c-0.2,0-0.4,0.1-0.4,0.3c0,0.2,0.1,0.4,0.3,0.4s0.4-0.1,0.4-0.3C122.5,353.7,122.3,353.5,122.1,353.5L122.1,353.5z M124.1,345.1
					c-0.2,0-0.4,0.1-0.4,0.3c0,0.2,0.1,0.4,0.3,0.4s0.4-0.1,0.4-0.3l0,0C124.4,345.3,124.3,345.1,124.1,345.1L124.1,345.1z
					 M148.7,373.6c-0.2,0.1-0.2,0.3-0.1,0.5c0.1,0.2,0.3,0.2,0.5,0.1s0.2-0.3,0.1-0.5l0,0C149.1,373.5,148.8,373.5,148.7,373.6
					L148.7,373.6z M144.1,366.3L144.1,366.3c-0.2,0.1-0.2,0.3-0.1,0.5c0.1,0.2,0.3,0.2,0.5,0.1s0.2-0.3,0.1-0.5l0,0
					C144.5,366.2,144.3,366.2,144.1,366.3L144.1,366.3z M139.5,358.9L139.5,358.9c-0.2,0.1-0.2,0.3-0.1,0.5c0.1,0.2,0.3,0.2,0.5,0.1
					s0.2-0.3,0.1-0.5C139.9,358.8,139.7,358.8,139.5,358.9L139.5,358.9z M134.9,351.6L134.9,351.6c-0.2,0.1-0.2,0.3-0.1,0.5
					c0.1,0.2,0.3,0.2,0.5,0.1s0.2-0.3,0.1-0.5C135.3,351.6,135.1,351.5,134.9,351.6L134.9,351.6z M130.4,344.3
					c-0.2,0.1-0.2,0.3-0.1,0.5c0.1,0.2,0.3,0.2,0.5,0.1l0,0c0.2-0.1,0.2-0.3,0.1-0.5C130.8,344.2,130.5,344.2,130.4,344.3
					L130.4,344.3z M148.1,347.6c-0.1,0.1,0,0.3,0.1,0.4l0,0c0.1,0.1,0.3,0,0.4-0.1c0.1-0.1,0-0.3-0.1-0.4
					C148.3,347.4,148.1,347.5,148.1,347.6L148.1,347.6z M142.1,345L142.1,345c-0.1,0.1,0,0.3,0.1,0.4c0.1,0,0.3,0,0.4-0.1l0,0
					c0.1-0.1,0-0.3-0.1-0.3l0,0C142.3,344.8,142.1,344.9,142.1,345L142.1,345z M112.4,339.9L112.4,339.9L112.4,339.9
					c0.2-0.1,0.3-0.2,0.2-0.4c0-0.1-0.1-0.2-0.2-0.2V339.9z M114.7,350.9c0,0.1,0,0.3,0.2,0.4c0.1,0,0.3,0,0.3-0.2
					c0.1-0.1,0-0.3-0.1-0.3l0,0C114.9,350.6,114.8,350.7,114.7,350.9C114.7,350.8,114.7,350.9,114.7,350.9z M117.3,344.9
					L117.3,344.9c-0.1,0.2,0,0.3,0.1,0.3l0,0c0.1,0.1,0.3,0,0.3-0.1l0,0c0.1-0.1,0-0.3-0.1-0.4l0,0
					C117.5,344.7,117.3,344.7,117.3,344.9L117.3,344.9z M134.3,369.4c0.1,0.1,0.2,0.2,0.4,0.1c0.1,0,0.2-0.2,0.1-0.3l0,0
					c-0.1-0.1-0.2-0.2-0.3-0.1C134.3,369.2,134.3,369.3,134.3,369.4z M132.1,363c-0.1,0.1-0.2,0.2-0.1,0.4c0.1,0.1,0.2,0.2,0.4,0.1
					c0.1-0.1,0.2-0.2,0.1-0.3l0,0C132.4,363,132.2,363,132.1,363L132.1,363z M129.7,357c-0.1,0.1-0.2,0.2-0.1,0.4l0,0
					c0.1,0.1,0.2,0.2,0.4,0.1c0.1-0.1,0.2-0.2,0.1-0.3C130,357,129.8,356.9,129.7,357L129.7,357z M127.3,350.9L127.3,350.9
					c-0.1,0.1-0.2,0.2-0.2,0.4l0,0c0.1,0.1,0.2,0.2,0.3,0.1l0,0c0.1,0,0.2-0.2,0.2-0.3C127.6,350.9,127.4,350.9,127.3,350.9
					L127.3,350.9z M124.9,344.9L124.9,344.9c-0.1,0.1-0.2,0.2-0.1,0.3c0,0.1,0.2,0.2,0.3,0.2s0.2-0.2,0.1-0.3
					C125.2,344.9,125.1,344.8,124.9,344.9L124.9,344.9z M112.3,344.6c0,0.1,0,0.2,0,0.3C112.4,344.7,112.4,344.6,112.3,344.6
					L112.3,344.6z M116.6,340L116.6,340c-0.1,0.1-0.1,0.3,0,0.4l0,0c0.1,0.1,0.3,0.1,0.4,0s0.1-0.3,0-0.4l0,0
					C116.8,339.9,116.7,339.9,116.6,340L116.6,340z M120.8,368.1L120.8,368.1c-0.2,0-0.3,0.1-0.3,0.3c0,0.1,0.1,0.3,0.3,0.3
					c0.1,0,0.3-0.1,0.3-0.3l0,0C121.1,368.2,120.9,368.1,120.8,368.1L120.8,368.1z M120.9,361.6L120.9,361.6c-0.1,0-0.3,0.1-0.3,0.3
					c0,0.1,0.1,0.3,0.3,0.3l0,0c0.2,0,0.3-0.1,0.3-0.3l0,0C121.2,361.7,121.1,361.6,120.9,361.6L120.9,361.6z M121,355.1L121,355.1
					c-0.2,0-0.3,0.1-0.3,0.3l0,0c0,0.1,0.1,0.3,0.3,0.3l0,0c0.1,0,0.3-0.1,0.3-0.3S121.2,355.1,121,355.1L121,355.1z M121.1,348.6
					c-0.2,0-0.3,0.1-0.3,0.3l0,0c0,0.2,0.1,0.3,0.3,0.3l0,0c0.1,0,0.3-0.1,0.3-0.3l0,0C121.4,348.7,121.3,348.6,121.1,348.6
					L121.1,348.6z M121,342.2c0,0-0.1,0.1-0.1,0.2s0.1,0.2,0.2,0.3l0,0h0.1l0,0c0.1,0,0.3-0.1,0.3-0.3l0,0c0-0.1-0.1-0.3-0.3-0.3
					C121.2,342.1,121.1,342.1,121,342.2L121,342.2z M143.9,359.2C143.9,359.3,143.9,359.3,143.9,359.2c-0.1,0.1-0.1,0.3,0,0.4
					s0.3,0.1,0.4,0l0,0c0.1-0.1,0.1-0.3,0-0.4l0,0C144.1,359.1,144,359.1,143.9,359.2L143.9,359.2z M139.3,354.6
					c-0.1,0.1-0.1,0.3,0,0.4s0.3,0.1,0.4,0s0.1-0.3,0-0.4S139.4,354.5,139.3,354.6L139.3,354.6z M134.8,350.3c0.1,0.1,0.3,0.1,0.4,0
					c0.1-0.1,0.1-0.3,0-0.4l0,0c-0.1-0.1-0.3-0.1-0.4,0C134.7,350,134.7,350.1,134.8,350.3z M130.3,345.2c-0.1,0.1-0.1,0.3,0,0.4
					s0.3,0.1,0.4,0c0.1-0.1,0.1-0.3,0-0.4C130.6,345.1,130.4,345.1,130.3,345.2L130.3,345.2z M113.3,338.8L113.3,338.8
					c0,0.1,0,0.2,0,0.2c0.1,0.1,0.2,0,0.2,0l0,0c0-0.1,0-0.1,0-0.2l0,0C113.5,338.7,113.4,338.7,113.3,338.8L113.3,338.8z
					 M119.4,353.8c-0.1,0-0.1,0.1-0.1,0.2s0.1,0.1,0.2,0.1l0,0c0.1,0,0.1-0.1,0.1-0.2C119.6,353.9,119.5,353.8,119.4,353.8
					L119.4,353.8z M118.9,350.3c-0.1,0-0.1,0.1-0.1,0.2l0,0c0,0.1,0.1,0.1,0.2,0.1l0,0c0.1,0,0.1-0.1,0.1-0.2l0,0
					C119.1,350.3,119,350.3,118.9,350.3L118.9,350.3z M118.4,346.8L118.4,346.8c-0.1,0-0.1,0.1-0.1,0.2l0,0c0,0.1,0.1,0.1,0.2,0.1
					s0.1-0.1,0.1-0.2l0,0C118.6,346.8,118.5,346.8,118.4,346.8L118.4,346.8z M117.9,343.3c-0.1,0-0.1,0.1-0.1,0.2l0,0
					c0,0.1,0.1,0.1,0.2,0.1s0.1-0.1,0.1-0.2l0,0C118,343.3,118,343.3,117.9,343.3L117.9,343.3z M117.4,339.7c-0.1,0-0.1,0.1-0.1,0.2
					s0.1,0.1,0.2,0.1s0.1-0.1,0.1-0.2C117.6,339.8,117.5,339.7,117.4,339.7L117.4,339.7z M132.2,346.4c0.1,0,0.1,0,0.2,0l0,0
					c0-0.1,0-0.2,0-0.2c-0.1,0-0.2,0-0.2,0C132.2,346.3,132.2,346.4,132.2,346.4z M129.4,344.1L129.4,344.1c0,0.1,0,0.2,0,0.2l0,0
					c0.1,0,0.1,0,0.2,0l0,0c0-0.1,0-0.2,0-0.2C129.5,344,129.4,344,129.4,344.1L129.4,344.1z M126.5,342L126.5,342
					c0,0.1,0,0.2,0,0.2l0,0c0.1,0,0.2,0,0.2,0s0-0.1,0-0.2l0,0l0,0C126.6,341.9,126.5,341.9,126.5,342L126.5,342z M113.1,348.1
					c-0.1,0-0.2,0-0.2,0.1s0,0.2,0.1,0.2s0.2,0,0.2-0.1C113.2,348.2,113.2,348.1,113.1,348.1L113.1,348.1z M114,344.6
					c-0.1,0-0.2,0-0.2,0.1s0,0.2,0.1,0.2l0,0c0.1,0,0.2,0,0.2-0.1S114,344.6,114,344.6L114,344.6z M114.8,341.2L114.8,341.2
					c-0.1,0-0.2,0-0.2,0.1s0,0.2,0.1,0.2s0.2,0,0.2-0.1C115,341.3,114.9,341.2,114.8,341.2L114.8,341.2z M125.6,349.7L125.6,349.7
					c-0.1,0-0.1,0.1-0.1,0.2s0.1,0.1,0.2,0.1l0,0c0.1,0,0.1-0.1,0.1-0.2l0,0C125.7,349.7,125.6,349.7,125.6,349.7L125.6,349.7z
					 M123.7,346.8c0,0.1,0.1,0.1,0.2,0.1s0.1-0.1,0.1-0.2S123.9,346.6,123.7,346.8C123.7,346.7,123.7,346.8,123.7,346.8z
					 M121.9,343.6c-0.1,0.1-0.1,0.1-0.1,0.2s0.1,0.1,0.2,0c0.1,0,0.1-0.1,0.1-0.2C122.1,343.6,122,343.6,121.9,343.6L121.9,343.6z
					 M120.1,340.5L120.1,340.5c-0.1,0-0.1,0.1-0.1,0.2l0,0c0,0.1,0.1,0.1,0.2,0l0,0C120.3,340.7,120.3,340.6,120.1,340.5
					L120.1,340.5C120.3,340.5,120.2,340.5,120.1,340.5L120.1,340.5z M123.4,359.5L123.4,359.5c-0.1,0.1-0.2,0.2-0.1,0.3l0,0
					c0.1,0.1,0.2,0.2,0.3,0.1l0,0c0.1-0.1,0.1-0.2,0.1-0.3l0,0C123.6,359.5,123.5,359.4,123.4,359.5L123.4,359.5z M120.4,354.4
					L120.4,354.4c-0.1,0.1-0.2,0.2-0.1,0.3l0,0c0.1,0.1,0.2,0.1,0.3,0.1l0,0c0.1-0.1,0.1-0.2,0.1-0.3S120.5,354.4,120.4,354.4
					L120.4,354.4z M117.3,349.7c0.1,0.1,0.2,0.2,0.3,0.1l0,0c0.1-0.1,0.1-0.2,0.1-0.3c-0.1-0.1-0.2-0.2-0.3-0.1
					C117.3,349.4,117.3,349.6,117.3,349.7z M114.4,344.3c-0.1,0.1-0.2,0.2-0.1,0.3s0.2,0.1,0.3,0.1c0.1-0.1,0.1-0.2,0.1-0.3l0,0
					C114.7,344.3,114.6,344.2,114.4,344.3L114.4,344.3z M130.2,349.3c-0.1,0.1-0.1,0.3,0,0.4l0,0c0.1,0.1,0.3,0,0.3-0.1
					c0.1-0.1,0.1-0.3,0-0.3C130.5,349.2,130.3,349.2,130.2,349.3L130.2,349.3z M125.5,345.8c0,0-0.1,0.1,0,0.2c0,0.1,0,0.1,0.1,0.2
					s0.3,0.1,0.3,0c0,0,0-0.1,0-0.2l0,0c0-0.1,0-0.1-0.1-0.1C125.8,345.7,125.6,345.7,125.5,345.8L125.5,345.8z M120.8,342.3
					c-0.1,0.1-0.1,0.3,0,0.3c0.1,0.1,0.2,0.1,0.3,0l0,0h0.1l0,0c0.1-0.1,0.1-0.3-0.1-0.3C121.1,342.1,120.9,342.2,120.8,342.3
					L120.8,342.3z M116.1,338.7c-0.1,0.1-0.1,0.3,0.1,0.3l0,0c0.1,0.1,0.3,0.1,0.3-0.1c0.1-0.1,0.1-0.3-0.1-0.3
					C116.4,338.6,116.2,338.6,116.1,338.7L116.1,338.7z"/>
			</g>
			<g id="L_hand_4_">
				
					<linearGradient id="R_hand_1_" gradientUnits="userSpaceOnUse" x1="-684.7245" y1="288.1295" x2="-687.1936" y2="366.522" gradientTransform="matrix(-1 0 0 1 -435 -20)">
					<stop  offset="0" style="stop-color:#FFCFCA"/>
					<stop  offset="1" style="stop-color:#F1ACA7"/>
				</linearGradient>
				<path id="R_hand_4_" class="st9" d="M203.1,288c0,0,34.8,10.4,51.5,8s24.4-11.2,27.3-12.6c2.9-1.5,7.5-2.4,2.9,4.9
					s-7.5,6.1-2.4,8.5s21.5-3.6,23.9-3.1s6.5,7.3-9,13.3s-23.9,3.4-37,3.1c-13.1-0.2-59.6,11.4-67,8.3L203.1,288"/>
				
					<linearGradient id="star_2_" gradientUnits="userSpaceOnUse" x1="-711.1" y1="231.199" x2="-711.1" y2="377.8668" gradientTransform="matrix(-1 0 0 1 -435 -20)">
					<stop  offset="0" style="stop-color:#F1B505"/>
					<stop  offset="1" style="stop-color:#D89C05"/>
				</linearGradient>
				<polygon id="star_1_" class="st10" points="276.1,203.7 255.2,246.1 208.5,252.9 242.2,285.9 234.3,332.4 276.1,310.5 
					317.9,332.4 309.9,285.9 343.7,252.9 297,246.1 				"/>
				<path id="L_hand-2_2_" class="st11" d="M212.2,304.8l-4.2,27.4c17-2.5,40.2-7.6,48.9-7.4c13.1,0.2,21.5,2.9,37-3.2
					s11.4-12.9,9-13.3c-2.4-0.5-18.9,5.6-23.9,3.2c-5.1-2.4-2.2-1.2,2.4-8.5s0-6.3-2.9-4.9s-10.7,10.2-27.3,12.6
					C239.7,312.4,222.3,307.9,212.2,304.8z"/>
			</g>
			<g id="sweater_4_">
				
					<linearGradient id="sweater-2_1_" gradientUnits="userSpaceOnUse" x1="-548.9005" y1="259.3795" x2="-594.5917" y2="345.4218" gradientTransform="matrix(-1 0 0 1 -435 -20)">
					<stop  offset="0" style="stop-color:#28306D"/>
					<stop  offset="0.51" style="stop-color:#1F275F"/>
					<stop  offset="1" style="stop-color:#171F51"/>
				</linearGradient>
				<path id="sweater-2_2_" class="st12" d="M79.7,333.7c0,0,19.4,7.6,48.4,7.8c26.3,0.2,52.3-5.9,75.7-17.8c0,0-3.9-9.5-8.9-24.6
					c-8-24.5-18.5-63.9-19.1-102c0,0-4.5,2.6-12.1-0.6c-3-1.3-5.8-3.1-8.3-5.3c-0.4-0.3-0.8-0.7-1.2-1.1c0,0-28.7,23.7-43.7,53.8
					c-16.1,32.1-24.2,27.3-32.3,51.6C70.1,319.7,79.7,333.7,79.7,333.7z"/>
				<path id="L_sleeve_4_" class="st5" d="M125.4,340.4c0.9,0.3,1.8,0.7,2.7,1c8.9,3.6,15,8.4,28.8,23.4c15.1,16.4,44,14,44,14
					l11.4-74.1c0,0-6.8-2-17.3-5.6c-2.7-1-5.7-2-8.8-3.1c-19.2-6.9-21.5-11.1-22.1-34.7c-0.7-23.7,11.9-64.2,11.9-64.2
					s-9.8,4.8-20.5-5.8c-35.3,34.7-48,60.2-54.8,95.5C93.8,322.2,114.9,336.7,125.4,340.4z"/>
				
					<linearGradient id="R_sleeve_1_" gradientUnits="userSpaceOnUse" x1="-631.3911" y1="293.7" x2="-632.4739" y2="336.6417" gradientTransform="matrix(-1 0 0 1 -435 -20)">
					<stop  offset="0" style="stop-color:#28306D"/>
					<stop  offset="0.51" style="stop-color:#1F275F"/>
					<stop  offset="1" style="stop-color:#171F51"/>
				</linearGradient>
				<path id="R_sleeve_4_" class="st13" d="M190.2,283.9c1.6,5.6,3.2,10.7,4.7,15.3c2.3,0.8,4.4,1.5,6.3,2.1l2-13.3
					C203.2,288.1,198.2,286.6,190.2,283.9z"/>
			</g>
			<g id="head_1_">
				
					<linearGradient id="neck_1_" gradientUnits="userSpaceOnUse" x1="-601.1429" y1="209.4862" x2="-605.5374" y2="194.1467" gradientTransform="matrix(-1 0 0 1 -435 -20)">
					<stop  offset="0" style="stop-color:#FFCFCA"/>
					<stop  offset="1" style="stop-color:#F1ACA7"/>
				</linearGradient>
				<path id="neck_4_" class="st14" d="M154.2,190.2c11.1,12.1,21.5,6.9,21.5,6.9c0.1-7,1.1-14,3-20.8c-0.6-0.1-1.2-0.3-1.8-0.4
					c-2.3-0.6-4.2-1.2-5.8-1.8c-0.4,2.5-0.9,5.4-1.6,8.6c-4.1-0.1-8.2-0.3-12.3-0.9L154.2,190.2z"/>
				<path id="hair_4_" class="st15" d="M112.9,165.7c20.6,17.1,56.7,17,56.7,17c0.7-3.3,1.2-6.1,1.6-8.6l0,0
					c0.3-2.2-0.6-4.4-2.4-5.7c-4.9-3.2-3.2-1.7-6-3.5c-0.1,0-0.2-0.1-0.3-0.2c-0.4-0.4-0.9-0.8-1.2-1.3c-0.1-0.1-0.2-0.2-0.3-0.4
					c-1.8-2.6-2.3-6.8,0.9-9c4.2-2.8,6.6-0.8,9.7-0.9c8.7-0.2,17-3.8,23-10c0-0.1,0.4-0.4,0.6-0.6c0.1-0.1,0.1-0.1,0.1-0.1l0.1-0.1
					c1-1,1.8-2,2.5-2.8c0.2-0.3,0.4-0.5,0.6-0.8c0.7-0.8,1.1-1.4,1.4-1.8c0.1-0.1,0.2-0.3,0.3-0.4c7.8-14.4-12-21-28.6-23.2
					c-16.7-2.3-27.4,10.4-29,14.7c-1.6,4.3-8.6,13.9-17.2,17.1C112.5,150,112.9,165.7,112.9,165.7z"/>
				<path id="face_4_" class="st11" d="M209.4,158.7c-2.9,1.5-4.3,0.8-5.1,2.6c-0.5,1.3-1.5,8.6-7.4,12.9l-0.2,0.1c0,0,0,0-0.1,0.1
					c0,0,0,0.1-0.1,0.1c-2.2,1.6-4.8,2.6-7.6,2.8l0,0c-4.1,0.4-8.2,0-12.2-1.2c-2.3-0.6-4.2-1.2-5.8-1.8c0.3-2.2-0.6-4.4-2.4-5.7
					c-4.9-3.2-3.2-1.7-6-3.5c-0.1-0.1-0.2-0.1-0.3-0.2c-0.4-0.4-0.9-0.8-1.2-1.3c-0.1-0.1-0.2-0.2-0.3-0.3c-1.7-2.6-2.3-6.8,0.9-9
					c4.2-2.8,6.6-0.8,9.7-0.9c8.7-0.2,17-3.8,23-10c0.1-0.1,0.6-0.6,0.7-0.7c1.8-1.8,3.5-3.8,5-5.9c0,0,4.6,12.2,7.9,15.5
					C211.5,155.4,212.3,157.2,209.4,158.7z"/>
				<path id="eye_2_" class="st16" d="M201.3,148.2c-1.8,4.1-7.2,4.3-9.7,0.3c-0.3-0.5,0.4-0.9,0.7-0.4c1.2,2.2,4,3,6.2,1.9
					c0.9-0.5,1.6-1.3,2.1-2.3C200.8,147.3,201.5,147.8,201.3,148.2L201.3,148.2z"/>
			</g>
		</g>
		<g id="L_woman_1_">
			<g id="shoes-2_1_">
				
					<linearGradient id="R_shoe-2_1_" gradientUnits="userSpaceOnUse" x1="-1032.6517" y1="643.283" x2="-896.2727" y2="769.1714" gradientTransform="matrix(-1 0 0 1 -435 -20)">
					<stop  offset="0" style="stop-color:#F1B505"/>
					<stop  offset="1" style="stop-color:#D89C05"/>
				</linearGradient>
				<path id="R_shoe-2_2_" class="st17" d="M516.7,633.3l-15.5,43.2h108.9c0,0-5.6-10.8-24.2-18.8s-36-24.4-36-24.4H516.7"/>
				<path id="L_shoe-2_2_" class="st18" d="M438.8,633.3l-15.5,43.2h108.9c0,0-5.6-10.8-24.2-18.8c-18.7-8-36-24.4-36-24.4H438.8"/>
			</g>
			<g id="trousers-2_1_">
				
					<linearGradient id="R_trousers-2_2_" gradientUnits="userSpaceOnUse" x1="-1002.9534" y1="643.4116" x2="-930.6946" y2="463.4219" gradientTransform="matrix(-1 0 0 1 -435 -20)">
					<stop  offset="0" style="stop-color:#28306D"/>
					<stop  offset="0.51" style="stop-color:#1F275F"/>
					<stop  offset="1" style="stop-color:#171F51"/>
				</linearGradient>
				<path id="R_trousers-2_1_" class="st19" d="M471.3,383.2c13.2,57.8,14.2,49.7,12.2,90.2s4.6,26.8,6.6,69.4
					c2,42.6-0.6,63.6,26.7,90.4h33.3c0,0,2.7-129.8,2.1-166.5c-0.4-25.7-8.5-51.7-13.1-72.9l-20,23.2c0,0-25.6-13.5-29.4-35.5
					c-3.9-22-6.6-28.7-13.4-37.6c-2.6-3.5-4.7-7.5-6-11.6C466.9,349.2,467.3,366.6,471.3,383.2z"/>
				<path id="L_trousers-2_2_" class="st15" d="M438.8,633.3h33.3c0,0,52.5-126.8,55.2-154.4c2.1-21.9,1.2-47.1-1.1-70.1l-7.2,8.3
					c0,0-25.6-13.5-29.4-35.5c-3.9-22-6.6-28.7-13.4-37.6c-2.1-2.8-3.8-5.9-5.1-9.2c-6.4-0.8-11.8-1.8-16.3-2.8
					c-6.9,25.6-6,52.7,2.5,77.8c21,63,6.6,60-0.2,79.1c-6.8,19.1-10.5,30.7-8.9,48.7s-6.3,13.3-10.5,36.5
					C433.5,597.5,438.8,633.3,438.8,633.3z"/>
			</g>
			
				<linearGradient id="R_hand-2_2_" gradientUnits="userSpaceOnUse" x1="-1041.5997" y1="395.497" x2="-970.9121" y2="402.3623" gradientTransform="matrix(-1 0 0 1 -435 -20)">
				<stop  offset="0" style="stop-color:#FFCFCA"/>
				<stop  offset="1" style="stop-color:#F1ACA7"/>
			</linearGradient>
			<path id="R_hand-2_1_" class="st20" d="M580.2,341.4c0,0,14.6,18.1,25,25.9c10.5,7.8,11.7,7.2,17.8,3.7s15-6.6,17.1-8.6
				c2.2-2,5.6-1,2.6,5.1s-11.3,7.4-8.8,11.9s12.5,6.4,21.9,9.1c9.6,2.7,14.7,4.5,2.5,13.3S634,414,611.4,394
				c-15.6-14-34.3-23.9-54.6-28.9L580.2,341.4z"/>
			<path id="texture-2_2_" class="st21" d="M471.2,348.5L471.2,348.5c0,0.1,0.1,0.2,0.2,0.2l0,0c0.1,0,0.2-0.1,0.2-0.2l0,0
				c0-0.1-0.1-0.2-0.2-0.2C471.3,348.3,471.2,348.4,471.2,348.5z M475.7,348c0,0.1,0.1,0.2,0.2,0.2s0.2-0.1,0.2-0.2
				s-0.1-0.2-0.2-0.2C475.7,347.8,475.7,347.9,475.7,348z M480.2,347.3L480.2,347.3c-0.1,0-0.2,0.1-0.1,0.2l0,0
				c0,0.1,0.1,0.2,0.2,0.2l0,0c0.1,0,0.2-0.1,0.2-0.2C480.4,347.4,480.3,347.3,480.2,347.3L480.2,347.3z M484.5,347.1
				c0,0.1,0.1,0.2,0.2,0.2s0.2-0.1,0.2-0.2s-0.1-0.2-0.2-0.2C484.5,346.9,484.5,347,484.5,347.1z M489,346.4L489,346.4
				c-0.1,0-0.2,0.1-0.2,0.2s0.1,0.2,0.2,0.2s0.2-0.1,0.2-0.2C489.2,346.4,489.2,346.4,489,346.4L489,346.4z M480.3,364.8
				L480.3,364.8c-0.1,0.1,0,0.2,0,0.3l0,0c0.1,0.1,0.2,0.1,0.3,0c0.1-0.1,0-0.2,0-0.3C480.5,364.7,480.4,364.7,480.3,364.8
				L480.3,364.8z M483.1,361.3L483.1,361.3c-0.1,0.1,0,0.2,0,0.3c0.1,0.1,0.2,0,0.3,0c0.1-0.1,0-0.2,0-0.3l0,0
				C483.2,361.2,483.1,361.2,483.1,361.3L483.1,361.3z M485.8,357.8c-0.1,0.1,0,0.2,0,0.3l0,0c0.1,0.1,0.2,0.1,0.3,0
				c0.1-0.1,0-0.2,0-0.3C486,357.7,485.9,357.7,485.8,357.8L485.8,357.8z M488.6,354.4c-0.1,0.1,0,0.2,0,0.3l0,0
				c0.1,0.1,0.2,0,0.3,0c0.1-0.1,0-0.2,0-0.3l0,0C488.8,354.3,488.7,354.3,488.6,354.4L488.6,354.4z M498.3,369.9L498.3,369.9
				c-0.1,0-0.2,0.1-0.2,0.2s0.1,0.2,0.2,0.2l0,0c0.1,0,0.2-0.1,0.1-0.2C498.4,369.9,498.4,369.9,498.3,369.9L498.3,369.9z
				 M474.4,339.3c0,0.1,0,0.2,0.1,0.2l0,0c0.1,0,0.2,0,0.2-0.1s0-0.2-0.1-0.2S474.4,339.2,474.4,339.3z M478.7,340.5L478.7,340.5
				c-0.1,0.1-0.1,0.1,0,0.2c0,0.1,0.1,0.1,0.1,0.1l0,0c0.1,0,0.2,0,0.2-0.1l0,0c0-0.1,0-0.2-0.1-0.2
				C478.8,340.4,478.8,340.4,478.7,340.5L478.7,340.5z M483.2,341.7c-0.1,0-0.2,0-0.2,0.1l0,0c0,0.1,0,0.2,0.1,0.2l0,0
				c0.1,0,0.2,0,0.2-0.1C483.3,341.8,483.3,341.7,483.2,341.7L483.2,341.7z M476.2,356.1L476.2,356.1c-0.1,0.1-0.1,0.2-0.1,0.2
				c0,0.1,0.1,0.1,0.2,0.1s0.1-0.2,0.1-0.2C476.4,356.1,476.3,356.1,476.2,356.1L476.2,356.1z M480.1,354L480.1,354
				c-0.1,0.1-0.1,0.2-0.1,0.3c0,0.1,0.1,0.1,0.2,0.1l0,0l0,0l0.1-0.1v-0.1C480.3,353.9,480.2,353.9,480.1,354L480.1,354z M484,351.8
				L484,351.8c-0.1,0-0.1,0.2-0.1,0.3s0.2,0.1,0.2,0.1l0,0c0.1-0.1,0.1-0.2,0.1-0.2C484.2,351.8,484.1,351.8,484,351.8L484,351.8z
				 M487.9,349.7L487.9,349.7c-0.1,0-0.1,0.2-0.1,0.3l0,0c0,0.1,0.1,0.1,0.2,0.1l0,0c0.1-0.1,0.1-0.2,0.1-0.3
				C488.1,349.7,488,349.6,487.9,349.7L487.9,349.7z M489.3,366.9c0,0.1,0,0.2,0.1,0.2s0.2,0,0.2-0.1s0-0.2-0.1-0.2
				S489.3,366.8,489.3,366.9z M490.8,362.5c-0.1,0-0.2,0-0.2,0.1l0,0c0,0.1,0,0.2,0.1,0.2l0,0c0.1,0,0.2,0,0.2-0.1
				C490.9,362.7,490.9,362.6,490.8,362.5L490.8,362.5z M455.9,330c-0.1,0.2-0.1,0.4-0.2,0.6l0,0l0,0c0.2,0.1,0.4,0,0.4-0.2
				C456.2,330.2,456.1,330,455.9,330L455.9,330L455.9,330z M463.9,332.9c-0.2-0.1-0.4,0-0.5,0.2c0,0.1,0,0.1,0,0.2s0.1,0.2,0.2,0.3
				l0,0c0.2,0.1,0.4,0,0.5-0.2l0,0C464.1,333.1,464,332.9,463.9,332.9L463.9,332.9z M471.8,335.8
				C471.7,335.8,471.7,335.7,471.8,335.8c-0.2-0.1-0.4,0-0.5,0.2s0,0.4,0.2,0.5l0,0c0.2,0.1,0.4,0,0.4-0.2
				C472,336,471.9,335.8,471.8,335.8L471.8,335.8z M457,359C457,359,456.9,359,457,359c-0.2,0.1-0.3,0.3-0.2,0.4l0,0
				c0.1,0.2,0.3,0.2,0.5,0.2l0,0c0.2-0.1,0.2-0.3,0.2-0.5l0,0C457.3,358.9,457.1,358.9,457,359L457,359z M464.6,355.4
				c-0.2,0.1-0.3,0.3-0.2,0.5l0,0c0.1,0.2,0.3,0.3,0.5,0.2c0.2-0.1,0.3-0.3,0.2-0.5l0,0C465,355.4,464.7,355.3,464.6,355.4
				L464.6,355.4z M472.2,351.8L472.2,351.8c-0.2,0.1-0.3,0.3-0.2,0.5l0,0c0.1,0.2,0.3,0.3,0.5,0.2s0.3-0.3,0.2-0.5
				C472.6,351.8,472.4,351.8,472.2,351.8L472.2,351.8z M479.8,348.3c-0.1,0.1-0.2,0.2-0.2,0.4c0,0.2,0.2,0.3,0.4,0.3h0.1
				c0.1,0,0.1-0.1,0.2-0.1l0,0c0.1-0.1,0.1-0.2,0-0.3l0,0C480.2,348.3,480,348.2,479.8,348.3L479.8,348.3z M487.5,344.7
				C487.4,344.7,487.4,344.7,487.5,344.7c-0.2,0.1-0.3,0.3-0.2,0.5l0,0c0.1,0.2,0.3,0.3,0.5,0.2s0.3-0.3,0.2-0.5l0,0
				C487.8,344.7,487.6,344.7,487.5,344.7L487.5,344.7z M475.7,386.4L475.7,386.4c-0.2-0.1-0.4,0-0.4,0.2s0,0.4,0.2,0.5l0,0
				c0.2,0.1,0.4,0,0.4-0.2C476,386.7,475.9,386.5,475.7,386.4L475.7,386.4z M478.6,378.5c-0.2-0.1-0.4,0-0.5,0.2s0,0.4,0.2,0.4
				s0.4,0,0.5-0.2l0,0C478.8,378.8,478.7,378.6,478.6,378.5L478.6,378.5z M481.5,370.6c-0.2-0.1-0.4,0-0.4,0.2l0,0
				c-0.1,0.2,0,0.4,0.2,0.4l0,0c0.2,0.1,0.4,0,0.4-0.2C481.7,370.9,481.6,370.7,481.5,370.6L481.5,370.6z M484.3,362.7
				c-0.2-0.1-0.4,0-0.5,0.2s0,0.4,0.2,0.5s0.4,0,0.5-0.2l0,0C484.6,363,484.5,362.8,484.3,362.7L484.3,362.7z M487.2,354.8
				c-0.2-0.1-0.4,0-0.5,0.2l0,0c-0.1,0.2,0,0.4,0.2,0.4s0.4,0,0.4-0.2C487.5,355.1,487.4,354.9,487.2,354.8L487.2,354.8z
				 M457.4,344.1c-0.2,0-0.3,0.2-0.3,0.4s0.2,0.3,0.4,0.3s0.3-0.2,0.3-0.4S457.6,344,457.4,344.1L457.4,344.1z M465.8,343.7
				L465.8,343.7c-0.2,0-0.3,0.2-0.3,0.3l0,0c0,0.2,0.2,0.3,0.4,0.3c0.2,0,0.3-0.2,0.3-0.4l0,0C466.2,343.8,466,343.7,465.8,343.7
				L465.8,343.7z M474.2,343.3c-0.2,0-0.3,0.2-0.3,0.4l0,0c0,0.2,0.2,0.3,0.4,0.3l0,0c0.2,0,0.3-0.2,0.3-0.4l0,0
				C474.6,343.5,474.4,343.3,474.2,343.3L474.2,343.3z M482.6,343c-0.2,0-0.3,0.2-0.3,0.4s0.2,0.3,0.3,0.3c0.2,0,0.4-0.2,0.3-0.3
				C483,343.1,482.8,343,482.6,343L482.6,343z M462.1,373.8c-0.1,0.1-0.1,0.4,0,0.5l0,0c0.1,0.1,0.4,0.1,0.5,0s0.1-0.4,0-0.5
				C462.5,373.7,462.2,373.7,462.1,373.8L462.1,373.8z M467.8,368.1L467.8,368.1c0.1,0.1,0.4,0.1,0.5,0c0.1-0.2,0.1-0.4,0-0.5
				s-0.4-0.1-0.5,0C467.7,367.8,467.7,368,467.8,368.1z M473.5,361.4c-0.1,0.2-0.1,0.4,0,0.5s0.4,0.1,0.5,0s0.1-0.4,0-0.5
				C473.8,361.3,473.6,361.3,473.5,361.4L473.5,361.4z M479.2,355.2L479.2,355.2c-0.1,0.2-0.1,0.4,0,0.5l0,0c0.1,0.1,0.4,0.1,0.5,0
				l0,0c0.1-0.1,0.1-0.4,0-0.5C479.5,355.1,479.3,355.1,479.2,355.2L479.2,355.2z M484.9,349c-0.1,0.1-0.1,0.4,0,0.5s0.4,0.1,0.5,0
				s0.1-0.3,0-0.5C485.2,348.9,485,348.9,484.9,349L484.9,349z M492.4,385c-0.2,0-0.3,0.2-0.3,0.4s0.2,0.3,0.4,0.3l0,0
				c0.2,0,0.3-0.2,0.3-0.4l0,0C492.8,385.1,492.6,385,492.4,385L492.4,385z M492.2,376.6C492.2,376.6,492.1,376.6,492.2,376.6
				c-0.2,0-0.3,0.2-0.3,0.4s0.2,0.3,0.4,0.3s0.3-0.2,0.3-0.4l0,0C492.4,376.7,492.3,376.6,492.2,376.6L492.2,376.6z M491.8,368.2
				c-0.2,0-0.3,0.2-0.3,0.4l0,0c0,0.2,0.2,0.3,0.3,0.3l0,0c0.2,0,0.3-0.2,0.3-0.4S492,368.2,491.8,368.2L491.8,368.2z M491.4,359.8
				c-0.2,0-0.3,0.2-0.3,0.4c0,0.2,0.2,0.3,0.4,0.3l0,0c0.2,0,0.3-0.2,0.3-0.3C491.8,359.9,491.6,359.8,491.4,359.8L491.4,359.8z
				 M453.7,338.8c0,0.1,0,0.2-0.1,0.4c0.1-0.1,0.1-0.1,0.1-0.2C453.7,338.9,453.7,338.9,453.7,338.8L453.7,338.8z M460.9,339.1
				c-0.2,0-0.3,0.1-0.3,0.3c0,0.2,0.1,0.3,0.3,0.3c0.2,0,0.3-0.1,0.3-0.3C461.2,339.2,461.1,339.1,460.9,339.1L460.9,339.1z
				 M468.4,339.4L468.4,339.4c-0.2,0-0.3,0.1-0.3,0.3l0,0c0,0.2,0.1,0.3,0.3,0.3c0.2,0,0.3-0.1,0.3-0.3
				C468.7,339.6,468.6,339.5,468.4,339.4L468.4,339.4z M475.6,340.1c0,0.2,0.1,0.3,0.3,0.3s0.3-0.1,0.3-0.3c0-0.1,0-0.1,0-0.2
				s-0.2-0.2-0.3-0.2C475.7,339.8,475.6,340,475.6,340.1z M456.2,368.6c0.1,0.1,0.3,0.1,0.4,0l0,0c0.1-0.1,0.1-0.3,0-0.4
				s-0.3-0.1-0.4,0C456.1,368.3,456.1,368.4,456.2,368.6z M461.8,363.1L461.8,363.1c-0.1,0.1-0.1,0.3,0,0.4l0,0
				c0.1,0.1,0.3,0.1,0.4,0s0.1-0.3,0-0.4C462.1,363,462,363,461.8,363.1L461.8,363.1z M467.4,358.1c-0.1,0.1-0.1,0.2-0.1,0.2
				c0,0.1,0,0.2,0.1,0.2c0.1,0.1,0.3,0.1,0.4,0l0,0c0.1-0.1,0.1-0.3,0-0.5c-0.1-0.1-0.2-0.1-0.3-0.1l0,0
				C467.5,358,467.4,358,467.4,358.1L467.4,358.1z M473,353.1L473,353.1c-0.1,0.1-0.1,0.3,0,0.5l0,0c0.1,0.1,0.3,0.1,0.4,0
				s0.1-0.3,0-0.4C473.3,353,473.1,352.9,473,353.1L473,353.1z M478.5,348c-0.1,0.1-0.1,0.3,0,0.5c0.1,0.1,0.3,0.1,0.4,0
				s0.1-0.3,0-0.4C478.9,347.9,478.7,347.9,478.5,348L478.5,348z M484.1,343c-0.1,0.1-0.1,0.3,0,0.4s0.3,0.1,0.4,0s0.1-0.3,0-0.4
				C484.5,342.9,484.3,342.9,484.1,343L484.1,343z M485,381.6c-0.2,0-0.3,0.1-0.3,0.3s0.1,0.3,0.3,0.3l0,0c0.2,0,0.3-0.1,0.3-0.3
				l0,0C485.3,381.8,485.2,381.7,485,381.6L485,381.6z M485.4,374.2c-0.2,0-0.3,0.1-0.3,0.3c0,0.2,0.1,0.3,0.3,0.3l0,0
				c0.2,0,0.3-0.1,0.3-0.3l0,0C485.7,374.3,485.5,374.2,485.4,374.2L485.4,374.2z M485.8,366.7c-0.2,0-0.3,0.1-0.3,0.3l0,0
				c0,0.2,0.1,0.3,0.3,0.3l0,0c0.2,0,0.3-0.1,0.3-0.3l0,0C486.1,366.8,485.9,366.7,485.8,366.7L485.8,366.7z M486.2,359.2
				c-0.2,0-0.3,0.1-0.3,0.3s0.1,0.3,0.3,0.3c0.2,0,0.3-0.1,0.3-0.3S486.3,359.2,486.2,359.2L486.2,359.2z M486.5,351.7
				c-0.2,0-0.3,0.1-0.3,0.3l0,0c0,0.2,0.1,0.3,0.3,0.3s0.3-0.1,0.3-0.3C486.9,351.8,486.7,351.7,486.5,351.7L486.5,351.7z
				 M487,344.2c-0.2,0-0.3,0.1-0.3,0.3l0,0c0,0.2,0.1,0.3,0.3,0.3c0.2,0,0.3-0.1,0.3-0.3C487.2,344.3,487.1,344.2,487,344.2
				L487,344.2z M458.3,350c-0.2,0.1-0.2,0.2-0.2,0.4l0,0c0.1,0.2,0.2,0.2,0.4,0.2l0,0c0.1-0.1,0.2-0.2,0.2-0.4l0,0
				C458.7,350.1,458.5,350,458.3,350L458.3,350z M465.4,347.5c-0.2,0.1-0.2,0.2-0.2,0.4s0.2,0.3,0.4,0.2c0.2-0.1,0.3-0.2,0.2-0.4
				C465.7,347.6,465.6,347.5,465.4,347.5L465.4,347.5z M472.5,345L472.5,345c-0.2,0.1-0.3,0.2-0.2,0.4s0.2,0.3,0.4,0.2
				c0.2-0.1,0.3-0.2,0.2-0.4l0,0C472.8,345.1,472.7,345,472.5,345L472.5,345z M479.6,342.5C479.6,342.5,479.5,342.5,479.6,342.5
				c-0.2,0.1-0.2,0.3-0.2,0.4c0.1,0.2,0.2,0.2,0.4,0.2c0.2-0.1,0.2-0.2,0.2-0.4C479.9,342.5,479.7,342.5,479.6,342.5L479.6,342.5z
				 M470.5,374.1c-0.2-0.1-0.3,0-0.4,0.1c-0.1,0.2,0,0.3,0.2,0.4s0.3,0,0.4-0.1C470.8,374.3,470.7,374.1,470.5,374.1L470.5,374.1z
				 M473.8,367.3c-0.2-0.1-0.3,0-0.4,0.2l0,0c-0.1,0.2,0,0.3,0.2,0.4c0.1,0.1,0.3,0,0.4-0.1C474,367.5,473.9,367.4,473.8,367.3
				L473.8,367.3z M477,360.5L477,360.5c-0.2-0.1-0.3,0-0.4,0.1l0,0c-0.1,0.2,0,0.3,0.1,0.4c0.2,0.1,0.3,0,0.4-0.2l0,0
				C477.2,360.8,477.2,360.6,477,360.5L477,360.5z M480.2,353.7c-0.1-0.1-0.3,0-0.4,0.1s0,0.3,0.1,0.4c0.1,0,0.2,0.1,0.3,0l0,0
				c0.1,0,0.1-0.1,0.1-0.1C480.5,354,480.4,353.8,480.2,353.7L480.2,353.7z M483.5,347c-0.2-0.1-0.3,0-0.4,0.1
				c-0.1,0.2,0,0.4,0.2,0.4c0.2,0.1,0.3,0,0.4-0.2v-0.1C483.7,347.2,483.6,347.1,483.5,347L483.5,347L483.5,347z M498.9,375.8
				L498.9,375.8c-0.2,0.1-0.2,0.3-0.2,0.4l0,0c0.1,0.2,0.2,0.2,0.4,0.2l0,0c0.2-0.1,0.2-0.2,0.2-0.4
				C499.2,375.8,499,375.7,498.9,375.8L498.9,375.8z M496.4,368.7L496.4,368.7c-0.2,0.1-0.3,0.3-0.2,0.4c0.1,0.2,0.2,0.3,0.4,0.2
				c0.2-0.1,0.2-0.2,0.2-0.4C496.7,368.8,496.6,368.7,496.4,368.7L496.4,368.7z M489,347.5c-0.2,0.1-0.2,0.2-0.2,0.4
				s0.2,0.3,0.4,0.2c0.2-0.1,0.3-0.2,0.2-0.4C489.3,347.5,489.1,347.4,489,347.5L489,347.5z M459.3,332.1L459.3,332.1
				c-0.1,0-0.2,0-0.2,0.1l0,0c0,0.1,0,0.2,0.1,0.2s0.2,0,0.2-0.1l0,0C459.4,332.2,459.4,332.1,459.3,332.1L459.3,332.1z
				 M463.4,333.2C463.4,333.3,463.3,333.3,463.4,333.2L463.4,333.2c-0.1,0.2,0,0.3,0.1,0.3h0.1l0.1-0.1l0,0c0-0.1,0-0.2-0.1-0.2
				S463.4,333.2,463.4,333.2L463.4,333.2z M467.8,334.3c-0.1,0-0.2,0.1-0.2,0.1c0,0.1,0,0.2,0.1,0.2s0.2,0,0.2-0.1
				C468,334.4,468,334.3,467.8,334.3L467.8,334.3z M461.9,350.6c-0.1,0-0.1,0.2-0.1,0.3l0,0c0,0.1,0.2,0.1,0.3,0.1
				c0.1,0,0.1-0.2,0.1-0.3C462.1,350.5,462,350.5,461.9,350.6L461.9,350.6z M465.7,348.3c-0.1,0.1-0.1,0.2-0.1,0.3l0,0
				c0,0.1,0.2,0.1,0.3,0.1c0.1,0,0.1-0.2,0.1-0.3C465.9,348.3,465.7,348.2,465.7,348.3L465.7,348.3z M469.5,346L469.5,346
				c-0.1,0.1-0.1,0.2-0.1,0.3c0,0.1,0.2,0.1,0.2,0.1l0,0c0.1-0.1,0.1-0.2,0-0.2C469.7,346,469.5,346,469.5,346L469.5,346z
				 M473.3,343.7c-0.1,0.1-0.1,0.2-0.1,0.3s0.2,0.1,0.2,0.1l0,0c0.1,0,0.1-0.2,0.1-0.3C473.5,343.7,473.3,343.7,473.3,343.7
				L473.3,343.7z M477.1,341.4c-0.1,0.1-0.1,0.2-0.1,0.3c0,0.1,0.2,0.1,0.3,0.1c0.1,0,0.1-0.2,0.1-0.2l0,0
				C477.3,341.4,477.2,341.4,477.1,341.4L477.1,341.4z M477,361.6L477,361.6c-0.1,0-0.2,0-0.2,0.1l0,0c0,0.1,0,0.2,0.1,0.2
				s0.2,0,0.2-0.1C477.2,361.8,477.1,361.7,477,361.6L477,361.6z M478.1,357.4L478.1,357.4c-0.1,0-0.2,0-0.2,0.1s0,0.2,0.1,0.2l0,0
				c0.1,0,0.2,0,0.2-0.1l0,0C478.2,357.5,478.2,357.4,478.1,357.4L478.1,357.4z M479.1,353.1c-0.1,0-0.2,0-0.2,0.1s0,0.2,0.1,0.2
				s0.2,0,0.2-0.1l0,0C479.3,353.2,479.2,353.1,479.1,353.1L479.1,353.1z M480.2,348.8L480.2,348.8c-0.1,0-0.2,0-0.2,0.1v0.1
				c0,0.1,0.1,0.1,0.1,0.2l0,0c0.1,0,0.2,0,0.2-0.1C480.4,348.9,480.3,348.8,480.2,348.8L480.2,348.8L480.2,348.8L480.2,348.8z
				 M481.3,344.5c-0.1,0-0.2,0-0.2,0.1s0,0.2,0.1,0.2s0.2,0,0.2-0.1S481.4,344.5,481.3,344.5L481.3,344.5z M488.5,347.5L488.5,347.5
				c-0.1,0.1-0.1,0.2-0.1,0.3c0.1,0.1,0.2,0.1,0.3,0.1c0.1-0.1,0.1-0.2,0.1-0.3C488.7,347.5,488.5,347.5,488.5,347.5L488.5,347.5z
				 M486.2,343.7c-0.1,0.1-0.1,0.2-0.1,0.3s0.2,0.1,0.3,0.1c0.1,0,0.1-0.2,0.1-0.3C486.4,343.7,486.3,343.7,486.2,343.7L486.2,343.7
				z M461,340.9c-0.1,0-0.2,0.1-0.2,0.2s0.1,0.2,0.2,0.1c0.1,0,0.2-0.1,0.2-0.2l0,0C461.2,341,461.1,340.9,461,340.9L461,340.9z
				 M465.4,340.3L465.4,340.3c-0.1,0-0.2,0.1-0.2,0.2s0.1,0.2,0.2,0.1l0,0C465.5,340.6,465.6,340.5,465.4,340.3L465.4,340.3
				C465.6,340.3,465.5,340.3,465.4,340.3L465.4,340.3z M469.8,339.6c-0.1,0-0.2,0.1-0.2,0.2l0,0c0,0.1,0.1,0.2,0.2,0.1l0,0
				C469.9,339.9,469.9,339.8,469.8,339.6L469.8,339.6C470,339.7,469.9,339.6,469.8,339.6L469.8,339.6z M474.1,339
				c-0.1,0-0.2,0.1-0.2,0.2s0.1,0.2,0.2,0.2s0.2-0.1,0.2-0.2C474.3,339,474.2,339,474.1,339L474.1,339z M469.5,355.6
				c-0.1,0.1,0,0.2,0,0.3c0.1,0,0.2,0,0.3,0l0,0c0.1-0.1,0-0.2,0-0.3l0,0C469.6,355.5,469.5,355.5,469.5,355.6L469.5,355.6z
				 M472.1,352.1L472.1,352.1c-0.1,0.1,0,0.2,0,0.3c0.1,0,0.2,0,0.3,0c0.1-0.1,0-0.2,0-0.3l0,0C472.3,352,472.2,352,472.1,352.1
				L472.1,352.1z M474.7,348.5c-0.1,0.1,0,0.2,0,0.3l0,0c0.1,0.1,0.2,0,0.2,0c0.1-0.1,0-0.2,0-0.3
				C474.9,348.4,474.8,348.4,474.7,348.5C474.8,348.5,474.8,348.5,474.7,348.5z M477.4,344.9c-0.1,0.1,0,0.2,0,0.3l0,0
				c0.1,0.1,0.2,0,0.2,0c0.1-0.1,0-0.2,0-0.3S477.5,344.9,477.4,344.9L477.4,344.9z M480,341.4c0,0.1,0,0.2,0,0.3l0,0
				c0.1,0.1,0.2,0,0.3,0l0,0c0-0.1,0-0.2,0-0.2C480.2,341.3,480.1,341.3,480,341.4L480,341.4z M485.9,360c0,0.1,0.1,0.2,0.2,0.1
				c0.1,0,0.2-0.1,0.2-0.2l0,0c0-0.1-0.1-0.2-0.2-0.1C485.9,359.8,485.8,359.9,485.9,360z M485.3,355.4c-0.1,0-0.2,0.1-0.1,0.2
				c0,0.1,0.1,0.2,0.2,0.2l0,0c0.1,0,0.2-0.1,0.1-0.2l0,0C485.5,355.5,485.5,355.4,485.3,355.4C485.4,355.4,485.4,355.4,485.3,355.4
				z M484.5,351.2L484.5,351.2c0,0.1,0.1,0.2,0.2,0.2s0.2-0.1,0.1-0.2C484.8,351.1,484.7,351,484.5,351.2
				C484.6,351.1,484.5,351.1,484.5,351.2z M484,346.7C484,346.7,483.9,346.8,484,346.7L484,346.7c0,0.2,0.1,0.3,0.2,0.2
				c0.1,0,0.1-0.1,0.1-0.1v-0.1c0-0.1-0.1-0.2-0.2-0.2C484,346.7,484,346.7,484,346.7L484,346.7L484,346.7z M483.4,342.3
				c-0.1,0-0.2,0.1-0.2,0.2s0.1,0.2,0.2,0.2l0,0c0.1,0,0.2-0.1,0.2-0.2l0,0C483.6,342.3,483.5,342.3,483.4,342.3L483.4,342.3z
				 M486.8,345c-0.1,0.1-0.1,0.2,0,0.3l0,0c0.1,0.1,0.2,0.1,0.3,0s0.1-0.2,0-0.3C487,344.9,486.9,344.9,486.8,345L486.8,345z
				 M455.9,334L455.9,334c-0.1,0-0.2,0.1-0.2,0.2s0.1,0.2,0.2,0.2s0.2-0.1,0.2-0.2l0,0C456.1,334.1,456,334,455.9,334L455.9,334z
				 M460.9,334.3L460.9,334.3c-0.1,0-0.2,0.1-0.2,0.2s0.1,0.2,0.2,0.2s0.2-0.1,0.2-0.2l0,0C461.1,334.4,461,334.3,460.9,334.3
				L460.9,334.3z M466,334.7C466,334.7,465.9,334.7,466,334.7c-0.1,0-0.2,0.1-0.2,0.2s0.1,0.2,0.2,0.2s0.2-0.1,0.2-0.2l0,0
				C466.2,334.8,466.1,334.7,466,334.7L466,334.7z M457.6,353.9c-0.1,0.1-0.1,0.2,0,0.3l0,0c0.1,0.1,0.2,0.1,0.3,0l0,0
				c0.1-0.1,0.1-0.2,0-0.3l0,0C457.8,353.8,457.7,353.8,457.6,353.9L457.6,353.9z M461.4,350.5L461.4,350.5c-0.1,0.1-0.1,0.2,0,0.3
				c0.1,0.1,0.2,0.1,0.3,0c0.1-0.1,0.1-0.2,0-0.3l0,0C461.6,350.5,461.5,350.5,461.4,350.5L461.4,350.5z M465.2,347.2
				c-0.1,0.1-0.1,0.2,0,0.3s0.2,0.1,0.3,0l0,0l0,0c0.1-0.1,0.1-0.2,0-0.3C465.4,347.1,465.2,347.1,465.2,347.2L465.2,347.2z
				 M468.9,344.1c0.1,0.1,0.2,0.1,0.3,0c0.1-0.1,0.1-0.2,0-0.3c0-0.1-0.1-0.1-0.2-0.1l0,0h-0.1C468.9,343.9,468.8,344.1,468.9,344.1
				z M472.7,340.5c-0.1,0.1-0.1,0.2,0,0.3l0,0c0.1,0.1,0.2,0.1,0.3,0l0,0c0.1-0.1,0.1-0.2,0-0.3C473,340.4,472.8,340.4,472.7,340.5
				L472.7,340.5z M476.8,363.2L476.8,363.2c-0.1,0-0.2,0.1-0.2,0.2l0,0c0,0.1,0.1,0.2,0.2,0.2s0.2-0.1,0.2-0.2
				S477,363.2,476.8,363.2L476.8,363.2z M477.2,358.1c-0.1,0-0.2,0.1-0.2,0.2l0,0c0,0.1,0.1,0.2,0.2,0.2s0.2-0.1,0.2-0.2
				C477.3,358.3,477.3,358.2,477.2,358.1L477.2,358.1z M477.5,353.1c-0.1,0-0.2,0.1-0.2,0.2l0,0c0,0.1,0.1,0.2,0.2,0.2
				s0.2-0.1,0.2-0.2S477.6,353.1,477.5,353.1L477.5,353.1z M477.8,348.1c-0.1,0-0.2,0.1-0.2,0.2l0,0c0,0.1,0.1,0.2,0.2,0.2
				s0.2-0.1,0.2-0.2S477.9,348.1,477.8,348.1L477.8,348.1z M478.1,343c-0.1,0-0.2,0.1-0.2,0.2l0,0c0,0.1,0.1,0.2,0.2,0.2
				s0.2-0.1,0.2-0.2C478.3,343.1,478.2,343,478.1,343L478.1,343z M454.7,343.4c-0.1,0-0.2,0.1-0.1,0.3l0,0c0,0.1,0.2,0.2,0.3,0.1
				c0.1-0.1,0.2-0.2,0.1-0.3l0,0C454.9,343.4,454.8,343.3,454.7,343.4L454.7,343.4z M459.5,341.7c-0.1,0-0.2,0.2-0.1,0.3
				c0,0.1,0.2,0.2,0.3,0.1l0,0c0.1,0,0.2-0.2,0.1-0.3C459.7,341.8,459.6,341.7,459.5,341.7L459.5,341.7z M464.3,340.1
				c-0.1,0-0.2,0.2-0.1,0.3l0,0c0,0.1,0.1,0.1,0.3,0.1l0,0c0.1,0,0.2-0.1,0.1-0.3C464.5,340.1,464.4,340.1,464.3,340.1L464.3,340.1z
				 M469.1,338.5c-0.1,0-0.2,0.2-0.1,0.3c0,0.1,0.2,0.2,0.3,0.1l0,0c0.1,0,0.2-0.2,0.1-0.3S469.2,338.4,469.1,338.5L469.1,338.5z
				 M473.8,336.8c-0.1,0-0.2,0.2-0.1,0.3l0,0c0,0.1,0.2,0.1,0.3,0.1l0,0c0.1,0,0.2-0.1,0.1-0.3C474.1,336.8,474,336.8,473.8,336.8
				L473.8,336.8z M467.3,358.1c0,0.1,0,0.2,0,0.2s0,0,0.1,0.1l0,0c0.1,0,0.2,0,0.3-0.1c0-0.1,0-0.2-0.1-0.3l0,0l0,0
				C467.4,358,467.3,358,467.3,358.1L467.3,358.1z M469.8,353.5c-0.1-0.1-0.2,0-0.3,0.1l0,0c0,0.1,0,0.2,0.1,0.3
				c0.1,0,0.2,0,0.3-0.1C469.9,353.6,469.9,353.5,469.8,353.5L469.8,353.5z M472,348.9L472,348.9c-0.1,0-0.2,0-0.3,0.1l0,0
				c0,0.1,0,0.2,0.1,0.3c0.1,0,0.2,0,0.3-0.1C472.2,349.1,472.1,349,472,348.9L472,348.9z M474.2,344.4L474.2,344.4
				c-0.1-0.1-0.2,0-0.3,0.1c0,0.1,0,0.2,0.1,0.3l0,0c0.1,0,0.2,0,0.3-0.1l0,0C474.4,344.6,474.3,344.4,474.2,344.4L474.2,344.4z
				 M476.2,339.9C476.2,340,476.2,340,476.2,339.9c0,0.1,0,0.2,0,0.2s0,0,0.1,0.1s0.2,0,0.3-0.1c0-0.1,0-0.2-0.1-0.3
				C476.3,339.8,476.2,339.8,476.2,339.9L476.2,339.9z M486.7,359.4c-0.1,0-0.2,0.2-0.1,0.3l0,0c0,0.1,0.2,0.2,0.3,0.1
				c0.1,0,0.2-0.2,0.1-0.3l0,0C486.9,359.4,486.8,359.3,486.7,359.4L486.7,359.4z M485,354.6L485,354.6c-0.1,0-0.2,0.2-0.1,0.3l0,0
				c0,0.1,0.2,0.2,0.3,0.1l0,0c0.1,0,0.2-0.1,0.1-0.3C485.3,354.6,485.2,354.5,485,354.6L485,354.6z M483.4,349.8
				c-0.1,0-0.2,0.2-0.1,0.3c0,0.1,0.1,0.2,0.3,0.1c0.1,0,0.2-0.2,0.1-0.3l0,0C483.6,349.8,483.5,349.8,483.4,349.8L483.4,349.8z
				 M481.8,345c-0.1,0-0.2,0.2-0.1,0.3l0,0c0,0.1,0.2,0.2,0.3,0.1l0,0c0.1,0,0.1-0.2,0.1-0.3l0,0C482,345,481.9,345,481.8,345
				L481.8,345z M480.1,340.2c-0.1,0-0.2,0.2-0.1,0.3c0,0.1,0.2,0.2,0.3,0.1c0.1,0,0.2-0.1,0.1-0.3
				C480.4,340.3,480.2,340.2,480.1,340.2L480.1,340.2z M453.8,340.2c-0.2,0.1-0.3,0.3-0.2,0.5c0.1,0.2,0.3,0.3,0.5,0.2
				s0.3-0.3,0.2-0.5S454,340.1,453.8,340.2L453.8,340.2z M462,337.2c-0.2,0.1-0.3,0.3-0.2,0.5c0.1,0.2,0.3,0.3,0.5,0.2
				s0.3-0.3,0.2-0.5C462.3,337.3,462.1,337.2,462,337.2L462,337.2z M470.1,334.3c-0.1,0.1-0.2,0.2-0.2,0.3v0.1
				c0,0.1,0.1,0.1,0.1,0.1c0.1,0.1,0.2,0.1,0.3,0.1c0.2-0.1,0.3-0.3,0.2-0.5C470.5,334.3,470.3,334.2,470.1,334.3L470.1,334.3z
				 M454.3,376c-0.2-0.1-0.4,0-0.5,0.2s0,0.4,0.2,0.5s0.4,0,0.5-0.2S454.5,376.1,454.3,376L454.3,376z M458,368.2
				c-0.2-0.1-0.4,0-0.5,0.2s0,0.4,0.2,0.5s0.4,0,0.5-0.2C458.3,368.5,458.2,368.2,458,368.2L458,368.2z M461.7,360.3
				c-0.2-0.1-0.4,0-0.5,0.2s0,0.4,0.2,0.5l0,0c0.2,0.1,0.4,0,0.5-0.2C461.9,360.6,461.8,360.4,461.7,360.3L461.7,360.3z
				 M465.3,352.4L465.3,352.4c-0.2-0.1-0.4,0-0.5,0.2l0,0c-0.1,0.2,0,0.4,0.2,0.5s0.4,0,0.5-0.2l0,0
				C465.6,352.7,465.5,352.5,465.3,352.4L465.3,352.4z M469,344.6c-0.2-0.1-0.4,0-0.5,0.2s0,0.4,0.2,0.5s0.4,0,0.5-0.2
				C469.2,344.9,469.1,344.7,469,344.6L469,344.6z M472.6,336.7L472.6,336.7c-0.2-0.1-0.4,0-0.5,0.2s0,0.4,0.2,0.5s0.4,0,0.5-0.2
				l0,0C472.9,337,472.8,336.8,472.6,336.7L472.6,336.7z M490.5,377.5c-0.2,0.1-0.3,0.3-0.2,0.5s0.3,0.3,0.5,0.2
				c0.2-0.1,0.3-0.3,0.2-0.5C490.9,377.6,490.7,377.5,490.5,377.5L490.5,377.5z M487.3,369.9c0.1,0.2,0.3,0.3,0.5,0.2
				c0.2-0.1,0.3-0.3,0.2-0.5s-0.3-0.3-0.5-0.2C487.4,369.5,487.3,369.7,487.3,369.9z M484.6,361.3L484.6,361.3
				c-0.2,0.1-0.3,0.3-0.2,0.5c0.1,0.2,0.3,0.3,0.5,0.2s0.3-0.3,0.2-0.5l0,0C485,361.3,484.8,361.2,484.6,361.3L484.6,361.3z
				 M481.6,353.1L481.6,353.1c-0.2,0.1-0.3,0.3-0.2,0.5c0.1,0.2,0.3,0.3,0.5,0.2c0.2-0.1,0.3-0.3,0.2-0.5l0,0
				C482,353.1,481.8,353.1,481.6,353.1L481.6,353.1z M478.6,345c-0.2,0.1-0.3,0.3-0.2,0.5c0.1,0.2,0.3,0.3,0.5,0.2
				c0.2-0.1,0.3-0.3,0.2-0.5C479,345,478.8,344.9,478.6,345L478.6,345z M456.7,331.9L456.7,331.9c-0.2,0-0.4,0.2-0.4,0.4l0,0
				c0,0.2,0.2,0.3,0.3,0.4l0,0c0.2,0,0.4-0.1,0.4-0.3C457.1,332.1,456.9,331.9,456.7,331.9L456.7,331.9z M465.4,332.3L465.4,332.3
				c-0.2,0-0.4,0.1-0.4,0.3l0,0c0,0.2,0.1,0.4,0.3,0.4l0,0c0.2,0,0.4-0.1,0.4-0.3l0,0C465.7,332.4,465.6,332.3,465.4,332.3
				L465.4,332.3z M454.4,350.4c-0.1,0.1-0.2,0.4,0,0.5c0.1,0.1,0.4,0.2,0.5,0c0.2-0.1,0.2-0.4,0-0.5
				C454.8,350.3,454.5,350.3,454.4,350.4L454.4,350.4z M460.8,344.6c-0.1,0.1-0.2,0.3,0,0.5c0.1,0.1,0.4,0.2,0.5,0
				c0.1-0.1,0.2-0.4,0-0.5l0,0C461.1,344.4,460.9,344.4,460.8,344.6L460.8,344.6z M467.2,338.7L467.2,338.7c-0.2,0.1-0.2,0.4,0,0.5
				l0,0c0.1,0.1,0.4,0.1,0.5,0s0.1-0.3,0-0.5l0,0C467.5,338.6,467.3,338.6,467.2,338.7L467.2,338.7L467.2,338.7z M471.9,376.3
				L471.9,376.3c-0.2,0-0.4,0.2-0.4,0.4s0.2,0.4,0.4,0.4c0.2,0,0.4-0.2,0.4-0.4l0,0C472.2,376.5,472,376.3,471.9,376.3L471.9,376.3z
				 M472.2,367.6L472.2,367.6c-0.2,0-0.4,0.1-0.4,0.3l0,0c0,0.2,0.1,0.4,0.3,0.4l0,0c0.2,0,0.4-0.1,0.4-0.3l0,0
				C472.6,367.8,472.4,367.6,472.2,367.6L472.2,367.6z M472.6,359L472.6,359c-0.2,0-0.4,0.1-0.4,0.3l0,0c0,0.2,0.1,0.4,0.3,0.4
				c0.2,0,0.4-0.1,0.4-0.3C472.9,359.1,472.8,359,472.6,359L472.6,359z M473,350.3L473,350.3c-0.2,0-0.4,0.1-0.4,0.3
				s0.1,0.4,0.3,0.4s0.4-0.1,0.4-0.3S473.2,350.3,473,350.3L473,350.3z M473.3,341.6L473.3,341.6c-0.2,0-0.4,0.1-0.4,0.4
				s0.2,0.4,0.4,0.4c0.2,0,0.4-0.1,0.4-0.3l0,0C473.7,341.8,473.5,341.6,473.3,341.6L473.3,341.6z M485.2,346.1L485.2,346.1
				c-0.1,0.1-0.1,0.4,0,0.5s0.4,0.2,0.5,0c0.2-0.1,0.2-0.4,0-0.5C485.6,346,485.4,346,485.2,346.1L485.2,346.1z M479.4,339.7
				c-0.1,0.1-0.1,0.4,0,0.5l0,0c0.1,0.1,0.4,0.1,0.5,0s0.1-0.4,0-0.5l0,0C479.7,339.6,479.5,339.6,479.4,339.7L479.4,339.7z
				 M457.1,329.1c-0.2,0-0.4,0.1-0.4,0.3l0,0c0,0.2,0.1,0.4,0.3,0.4l0,0c0.2,0,0.4-0.1,0.4-0.3l0,0
				C457.5,329.3,457.3,329.1,457.1,329.1L457.1,329.1z M453.3,344.2L453.3,344.2c-0.2,0.1-0.2,0.4,0,0.5c0.1,0.1,0.4,0.2,0.5,0
				c0.2-0.1,0.2-0.4,0-0.5l0,0C453.7,344.1,453.4,344.1,453.3,344.2L453.3,344.2z M459.9,338.7L459.9,338.7c-0.2,0.1-0.2,0.4,0,0.5
				s0.4,0.2,0.5,0c0.1-0.1,0.2-0.4,0-0.5l0,0C460.2,338.5,460,338.5,459.9,338.7L459.9,338.7z M466.5,333.1c-0.1,0.1-0.2,0.4,0,0.5
				s0.3,0.2,0.5,0l0,0c0.1-0.1,0.2-0.3,0-0.5l0,0C466.8,333,466.6,333,466.5,333.1L466.5,333.1z M466,377.5L466,377.5
				c-0.2,0-0.4,0.1-0.4,0.3c0,0.2,0.1,0.4,0.3,0.4c0.2,0,0.4-0.1,0.4-0.3S466.2,377.5,466,377.5L466,377.5z M466.8,368.9
				c-0.2,0-0.4,0.1-0.4,0.3s0.1,0.4,0.3,0.4c0.2,0,0.4-0.1,0.4-0.3C467.1,369.1,467,368.9,466.8,368.9L466.8,368.9z M467.5,360.3
				c-0.2,0-0.4,0.1-0.4,0.3s0.1,0.4,0.3,0.4l0,0c0.2,0,0.4-0.1,0.4-0.3S467.7,360.3,467.5,360.3L467.5,360.3z M468.2,351.7
				L468.2,351.7c-0.2,0-0.4,0.1-0.4,0.3l0,0c0,0.2,0.1,0.3,0.3,0.4c0.2,0,0.4-0.1,0.4-0.3l0,0C468.6,351.9,468.4,351.7,468.2,351.7
				L468.2,351.7z M469,343.1L469,343.1c-0.2,0-0.4,0.1-0.4,0.3c0,0.2,0.1,0.4,0.3,0.4h0.1l0,0c0.1,0,0.2-0.2,0.2-0.3l0,0
				C469.3,343.3,469.2,343.1,469,343.1L469,343.1z M469.7,334.5L469.7,334.5c-0.2,0-0.4,0.1-0.4,0.3c0,0.1,0,0.1,0.1,0.2
				c0,0,0,0,0,0.1s0.1,0.1,0.2,0.1l0,0c0.2,0,0.4-0.1,0.4-0.3l0,0c0-0.1,0-0.2-0.1-0.3C469.8,334.6,469.7,334.5,469.7,334.5
				L469.7,334.5z M489.3,353.4c-0.2,0.1-0.2,0.3,0,0.5c0.1,0.1,0.4,0.2,0.5,0s0.2-0.3,0-0.5l0,0
				C489.6,353.3,489.4,353.3,489.3,353.4L489.3,353.4z M483.7,346.8c-0.1,0.1-0.1,0.2-0.1,0.3s0,0.1,0.1,0.2l0,0
				c0.1,0.1,0.3,0.2,0.5,0.1s0.2-0.3,0.1-0.5c0,0,0,0,0-0.1c-0.1-0.1-0.2-0.1-0.3-0.1l0,0C483.9,346.7,483.8,346.7,483.7,346.8
				L483.7,346.8z M478.1,340.2c-0.1,0.1-0.2,0.4,0,0.5l0,0c0.1,0.1,0.3,0.2,0.5,0l0.1-0.1c0-0.1,0-0.1,0-0.2s0-0.2-0.1-0.3
				C478.5,340.1,478.3,340.1,478.1,340.2L478.1,340.2z M461.7,332.2c-0.2,0.1-0.3,0.3-0.2,0.5c0.1,0.2,0.3,0.3,0.5,0.2l0,0
				c0.2-0.1,0.3-0.3,0.2-0.4l0,0C462.1,332.2,461.9,332.1,461.7,332.2L461.7,332.2z M454.2,360.5c-0.2-0.1-0.4,0-0.5,0.2l0,0
				c-0.1,0.2,0,0.4,0.2,0.5s0.4,0,0.5-0.1C454.4,360.8,454.3,360.5,454.2,360.5L454.2,360.5z M458.1,352.8c-0.2-0.1-0.4,0-0.5,0.2
				l0,0c-0.1,0.2,0,0.4,0.2,0.5s0.4,0,0.5-0.2C458.4,353.1,458.3,352.9,458.1,352.8L458.1,352.8z M462.1,345.1
				c-0.2-0.1-0.4,0-0.5,0.2s0,0.4,0.2,0.5s0.4,0,0.5-0.1C462.3,345.4,462.3,345.2,462.1,345.1L462.1,345.1z M466,337.4
				c-0.2-0.1-0.4,0-0.5,0.2s0,0.4,0.2,0.5s0.4,0,0.5-0.2l0,0C466.3,337.7,466.2,337.5,466,337.4L466,337.4z M482.8,371.2
				L482.8,371.2c-0.2,0.1-0.3,0.3-0.2,0.5c0.1,0.2,0.3,0.3,0.5,0.2c0.2-0.1,0.3-0.3,0.2-0.5l0,0C483.2,371.2,483,371.1,482.8,371.2
				L482.8,371.2z M480.2,362.9L480.2,362.9c-0.2,0.1-0.3,0.3-0.2,0.5s0.3,0.3,0.5,0.2c0.2-0.1,0.3-0.3,0.2-0.5l0,0
				C480.6,363,480.4,362.9,480.2,362.9L480.2,362.9z M477.6,354.7L477.6,354.7c-0.2,0.1-0.3,0.3-0.2,0.4c0.1,0.1,0.3,0.3,0.5,0.2
				s0.3-0.3,0.2-0.5C478,354.7,477.8,354.6,477.6,354.7L477.6,354.7z M475,346.5L475,346.5c-0.2,0.1-0.3,0.3-0.2,0.5
				c0.1,0.2,0.3,0.3,0.5,0.2c0.2-0.1,0.3-0.3,0.2-0.4C475.3,346.5,475.2,346.4,475,346.5L475,346.5z M472.3,338.3
				c-0.2,0.1-0.3,0.3-0.2,0.5c0.1,0.2,0.3,0.3,0.5,0.2s0.3-0.3,0.2-0.4C472.7,338.3,472.5,338.2,472.3,338.3L472.3,338.3z
				 M488.7,345.8c-0.1,0.1-0.1,0.3,0,0.4s0.3,0.1,0.4,0c0.1-0.1,0.1-0.3,0-0.4C488.9,345.7,488.8,345.7,488.7,345.8L488.7,345.8z
				 M483.5,341.8L483.5,341.8c-0.1,0.1-0.1,0.3,0,0.4s0.3,0.1,0.4,0l0,0c0.1-0.1,0.1-0.3,0-0.4l0,0
				C483.8,341.7,483.6,341.7,483.5,341.8L483.5,341.8z M456,329.5L456,329.5L456,329.5c0.2,0,0.3-0.1,0.3-0.3c0-0.1-0.1-0.2-0.2-0.2
				L456,329.5z M455.5,340.7c-0.1,0.1-0.1,0.3,0.1,0.4s0.3,0.1,0.4-0.1c0.1-0.1,0.1-0.3-0.1-0.4l0,0
				C455.8,340.6,455.6,340.6,455.5,340.7L455.5,340.7z M459.5,335.6L459.5,335.6c-0.1,0.1-0.1,0.3,0,0.4l0,0
				c0.1,0.1,0.3,0.1,0.4-0.1l0,0c0.1-0.1,0.1-0.3,0-0.4l0,0C459.8,335.4,459.6,335.5,459.5,335.6L459.5,335.6z M470,363.6
				c0,0.2,0.2,0.3,0.3,0.2c0.1,0,0.3-0.2,0.2-0.3l0,0c0-0.1-0.2-0.2-0.3-0.2C470,363.3,469.9,363.4,470,363.6z M469.4,356.8
				c-0.1,0-0.3,0.2-0.2,0.3c0,0.1,0.2,0.3,0.3,0.2c0.1,0,0.3-0.2,0.2-0.3l0,0C469.6,356.9,469.5,356.8,469.4,356.8L469.4,356.8z
				 M468.5,350.4c-0.1,0-0.3,0.2-0.2,0.3l0,0c0,0.1,0.2,0.3,0.3,0.2c0.1,0,0.3-0.2,0.2-0.3C468.8,350.4,468.7,350.3,468.5,350.4
				L468.5,350.4z M467.7,343.9L467.7,343.9c-0.1,0-0.3,0.2-0.2,0.3l0,0c0,0.1,0.1,0.2,0.3,0.2l0,0c0.2,0,0.3-0.2,0.2-0.3
				C468,344,467.9,343.9,467.7,343.9L467.7,343.9z M466.9,337.5L466.9,337.5c-0.1,0-0.3,0.1-0.2,0.3c0,0.1,0.1,0.3,0.3,0.2
				c0.1,0,0.3-0.1,0.2-0.3C467.2,337.5,467.1,337.4,466.9,337.5L466.9,337.5z M454.8,334c0,0.1-0.1,0.2-0.1,0.3
				C454.8,334.2,454.8,334.1,454.8,334L454.8,334z M460,330.7L460,330.7c-0.1,0.1-0.2,0.2-0.1,0.4c0.1,0.1,0.2,0.2,0.4,0.1
				c0.1-0.1,0.2-0.2,0.1-0.4l0,0C460.3,330.6,460.2,330.6,460,330.7L460,330.7z M457.2,359L457.2,359c-0.2,0-0.3,0.1-0.3,0.2
				s0,0.3,0.2,0.3c0.1,0,0.3,0,0.3-0.2l0,0C457.4,359.1,457.3,359,457.2,359L457.2,359z M458.9,352.7L458.9,352.7
				c-0.2,0-0.3,0-0.3,0.2c0,0.1,0,0.3,0.2,0.3l0,0c0.1,0,0.3,0,0.3-0.2l0,0C459.1,352.9,459,352.7,458.9,352.7L458.9,352.7z
				 M460.6,346.4L460.6,346.4c-0.1,0-0.3,0.1-0.3,0.2l0,0c0,0.1,0.1,0.3,0.2,0.3l0,0c0.1,0,0.3,0,0.3-0.2
				C460.8,346.6,460.8,346.4,460.6,346.4L460.6,346.4z M462.3,340.1c-0.2,0-0.3,0-0.3,0.2l0,0c0,0.1,0,0.3,0.2,0.3l0,0
				c0.1,0,0.3-0.1,0.3-0.2l0,0C462.6,340.3,462.5,340.2,462.3,340.1L462.3,340.1z M463.8,333.9L463.8,333.9c-0.1,0.2-0.1,0.3,0,0.4
				l0,0c0,0,0,0,0.1,0l0,0c0.1,0,0.3-0.1,0.3-0.2l0,0c0-0.1,0-0.3-0.2-0.3C464,333.8,463.9,333.8,463.8,333.9L463.8,333.9z
				 M481.7,356.1c-0.1,0.1-0.2,0.2-0.1,0.4s0.2,0.2,0.4,0.1l0,0c0.1-0.1,0.2-0.2,0.1-0.4l0,0C482,356,481.8,356,481.7,356.1
				L481.7,356.1z M478.5,350.4c-0.1,0.1-0.2,0.2-0.1,0.4c0.1,0.1,0.2,0.2,0.4,0.1c0.1-0.1,0.2-0.2,0.1-0.4
				C478.8,350.4,478.6,350.3,478.5,350.4L478.5,350.4z M475.3,344.8c-0.1,0.1-0.2,0.2-0.1,0.4c0.1,0.2,0.2,0.2,0.4,0.1
				c0.1-0.1,0.2-0.2,0.1-0.4l0,0C475.6,344.7,475.4,344.7,475.3,344.8L475.3,344.8z M472,339.1L472,339.1c-0.1,0.1-0.2,0.3-0.1,0.4
				s0.2,0.2,0.4,0.1c0.1-0.1,0.2-0.2,0.1-0.4C472.3,339.1,472.2,339,472,339.1L472,339.1z M457.2,328.7c-0.1,0-0.1,0.1,0,0.2
				s0.2,0.1,0.2,0l0,0c0.1-0.1,0.1-0.1,0-0.2l0,0C457.4,328.7,457.3,328.7,457.2,328.7L457.2,328.7z M459.4,344.8
				c-0.1,0-0.2,0.1-0.2,0.1c0,0.1,0,0.2,0.1,0.2l0,0c0.1,0,0.2-0.1,0.2-0.1S459.5,344.8,459.4,344.8L459.4,344.8z M459.8,341.2
				c-0.1,0-0.2,0.1-0.2,0.1l0,0c0,0.1,0,0.1,0.1,0.1l0,0C459.8,341.4,459.8,341.3,459.8,341.2L459.8,341.2
				C459.9,341.3,459.8,341.2,459.8,341.2L459.8,341.2z M460.2,337.7L460.2,337.7c-0.1,0-0.2,0.1-0.2,0.1l0,0c0,0.1,0,0.1,0.1,0.2
				c0.1,0,0.2-0.1,0.2-0.1l0,0C460.3,337.8,460.2,337.7,460.2,337.7L460.2,337.7z M460.5,334.2L460.5,334.2c-0.1,0-0.2,0.1-0.2,0.1
				l0,0c0,0.1,0,0.1,0.1,0.1C460.5,334.4,460.6,334.3,460.5,334.2L460.5,334.2C460.7,334.2,460.6,334.2,460.5,334.2L460.5,334.2z
				 M460.9,330.6c-0.1,0-0.2,0-0.2,0.1s0.1,0.2,0.1,0.2c0.1,0,0.2,0,0.2-0.1S461,330.7,460.9,330.6L460.9,330.6z M473.6,340.8
				c0,0.1,0.1,0.1,0.2,0l0,0c0.1-0.1,0.1-0.1,0-0.2c0-0.1-0.1-0.1-0.2,0C473.6,340.6,473.6,340.7,473.6,340.8z M471.4,337.8
				L471.4,337.8c-0.1,0.1-0.1,0.1,0,0.2l0,0c0,0.1,0.1,0.1,0.2,0l0,0c0.1-0.1,0.1-0.1,0-0.2C471.6,337.8,471.5,337.8,471.4,337.8
				L471.4,337.8z M469.2,335L469.2,335c-0.1,0.1-0.1,0.1,0,0.2l0,0c0,0.1,0.1,0.1,0.2,0c0,0,0.1-0.1,0-0.2l0,0l0,0
				C469.3,335,469.2,335,469.2,335L469.2,335z M454.7,337.6c-0.1,0-0.2,0-0.2,0.1s0,0.2,0.1,0.2s0.2,0,0.2-0.1
				C454.8,337.8,454.7,337.7,454.7,337.6L454.7,337.6z M456.4,334.5c-0.1,0-0.2,0-0.2,0.1s0,0.2,0.1,0.2l0,0c0.1,0,0.2,0,0.2-0.1
				S456.4,334.6,456.4,334.5L456.4,334.5z M458.1,331.4L458.1,331.4c-0.1,0-0.2,0-0.2,0.1s0,0.2,0.1,0.2s0.2,0,0.2-0.1
				S458.1,331.4,458.1,331.4L458.1,331.4z M466.4,342.3L466.4,342.3c-0.1,0-0.1,0.1-0.1,0.2s0.1,0.1,0.2,0.1l0,0
				c0.1,0,0.1-0.1,0.1-0.2l0,0C466.5,342.3,466.4,342.3,466.4,342.3L466.4,342.3z M465.4,338.9c-0.1,0-0.1,0.1-0.1,0.2
				s0.1,0.1,0.2,0.1l0,0c0.1,0,0.1-0.1,0.1-0.2C465.5,338.9,465.4,338.9,465.4,338.9L465.4,338.9z M464.3,335.5
				c-0.1,0-0.1,0.1-0.1,0.2s0.1,0.1,0.2,0.1s0.1-0.1,0.1-0.2S464.4,335.5,464.3,335.5L464.3,335.5z M463.3,332.1L463.3,332.1
				c-0.1,0-0.1,0.1-0.1,0.2l0,0c0,0.1,0.1,0.1,0.2,0.1l0,0c0.1,0,0.1-0.1,0.1-0.2l0,0C463.5,332.1,463.4,332.1,463.3,332.1
				L463.3,332.1z M461.8,351.3L461.8,351.3c-0.1,0-0.2,0.2-0.2,0.3s0.2,0.2,0.3,0.2l0,0c0.1,0,0.2-0.2,0.1-0.3l0,0
				C462.1,351.3,461.9,351.2,461.8,351.3L461.8,351.3z M460.2,345.6L460.2,345.6c-0.1,0-0.2,0.2-0.2,0.3l0,0c0,0.1,0.2,0.2,0.3,0.1
				l0,0c0.1,0,0.2-0.2,0.2-0.3C460.4,345.6,460.3,345.6,460.2,345.6L460.2,345.6z M458.5,340c-0.1,0-0.2,0.2-0.2,0.3
				c0,0.1,0.2,0.2,0.3,0.2l0,0c0.1,0,0.2-0.2,0.2-0.3C458.8,340,458.7,339.9,458.5,340L458.5,340z M456.9,334.3
				c-0.1,0-0.2,0.2-0.2,0.3s0.2,0.2,0.3,0.2c0.1,0,0.2-0.2,0.2-0.3l0,0C457.2,334.3,457,334.3,456.9,334.3L456.9,334.3z M471,343.1
				c-0.1,0.1-0.1,0.2,0,0.3l0,0c0.1,0.1,0.2,0.1,0.3,0c0.1-0.1,0.1-0.2,0-0.3C471.2,343.1,471.1,343,471,343.1L471,343.1z
				 M467.3,338.5c0,0-0.1,0.1-0.1,0.2s0,0.1,0,0.2c0.1,0.1,0.2,0.1,0.4,0l0.1-0.1l0,0c0-0.1,0-0.1,0-0.2
				C467.5,338.4,467.4,338.4,467.3,338.5L467.3,338.5z M463.6,333.9c-0.1,0.1-0.1,0.2,0,0.4c0.1,0.1,0.2,0.1,0.3,0.1l0,0
				c0,0,0,0,0.1,0l0,0c0.1-0.1,0.1-0.2,0-0.3C463.8,333.9,463.7,333.8,463.6,333.9L463.6,333.9z M459.9,329.3
				c-0.1,0.1-0.1,0.2,0,0.4l0,0c0.1,0.1,0.2,0.1,0.3,0c0.1-0.1,0.1-0.2,0-0.4C460.2,329.3,460,329.2,459.9,329.3L459.9,329.3z"/>
			
				<linearGradient id="square_1_" gradientUnits="userSpaceOnUse" x1="-1090.703" y1="481.9297" x2="-1008.9373" y2="385.9437" gradientTransform="matrix(-1 0 0 1 -435 -20)">
				<stop  offset="0" style="stop-color:#A1C3FC"/>
				<stop  offset="0.6955" style="stop-color:#81AEF2"/>
				<stop  offset="1" style="stop-color:#78A9EF"/>
			</linearGradient>
			<polygon id="square_3_" class="st22" points="702.3,427.3 625.6,357.3 555.9,434.1 632.5,504.1 			"/>
			<path id="L_hand-3_2_" class="st11" d="M547.5,384.1c10.4,2.7,27.6,8.3,47.4,25.8c22.5,20,34.8,16.5,46.9,7.8
				c12.1-8.8,7-10.5-2.5-13.3s-19.5-4.6-21.9-9.1c-2.5-4.5,5.8-5.8,8.8-11.9s-0.4-7.1-2.6-5.1c-2.2,2-11,5.2-17.1,8.6
				s-7.3,4-17.8-3.7c-9.5-7.1-19.6-19.9-21.3-22.2L547.5,384.1z"/>
			
				<linearGradient id="hair-2_1_" gradientUnits="userSpaceOnUse" x1="-1118.163" y1="228.6331" x2="-1072.4769" y2="214.0666" gradientTransform="matrix(-1 0 0 1 -435 -20)">
				<stop  offset="0" style="stop-color:#28306D"/>
				<stop  offset="0.51" style="stop-color:#1F275F"/>
				<stop  offset="1" style="stop-color:#171F51"/>
			</linearGradient>
			<ellipse id="hair-2_4_" class="st23" cx="649.5" cy="197.9" rx="15.5" ry="15.5"/>
			<path id="hair-3_2_" class="st16" d="M607.1,169.3c0,0,24.5,13,31.2,21.7c6.8,8.8,8.4,17.8,5.6,25.1c-2.8,7.3-9.1,15.4-5.4,28.5
				c3.7,13.1-0.5,24.8-6.5,30.6c0,0-8.7-12.2-22.5-17.1c-20.3-7.1-38.1-14.2-45-28.9c0,0,7.5-12,18.8-13.6s15.5-3.8,15.7-10.3
				c0.2-6.4-2.8-7.6-5.2-12.2s-5.8-9.8-1.4-17.9C596.6,167,599.9,165.6,607.1,169.3z"/>
			<g id="sweater-3_1_">
				
					<linearGradient id="R_sleeve-2_1_" gradientUnits="userSpaceOnUse" x1="-1007.3696" y1="304.2769" x2="-931.5623" y2="394.7564" gradientTransform="matrix(-1 0 0 1 -435 -20)">
					<stop  offset="0" style="stop-color:#3E8AF8"/>
					<stop  offset="1" style="stop-color:#1479F2"/>
				</linearGradient>
				<path id="R_sleeve-2_2_" class="st24" d="M593.7,251.4c0,0-10.6,19.8-20.7,41.7c-9,19.6-6.5,30.5,4.8,45.3l2.4,3.2L531.1,391
					c-10.8-5.6-18.4-15.8-20.5-27.8c-3.5-20.1-4.7-23.1-10.9-31.2s-7.7-20,15.1-43.8c22.7-23.9,23-44.4,67.7-53.6l0,0"/>
				
					<linearGradient id="sweater-4_2_" gradientUnits="userSpaceOnUse" x1="-970.6181" y1="230.116" x2="-918.0547" y2="374.3604" gradientTransform="matrix(-1 0 0 1 -435 -20)">
					<stop  offset="0" style="stop-color:#3E8AF8"/>
					<stop  offset="1" style="stop-color:#1479F2"/>
				</linearGradient>
				<path id="sweater-4_1_" class="st25" d="M471,334.8c-4.5-11.6-5.5-29.8,13.2-49.4c24.8-26.2,49.4-40.8,98.5-50.9
					c-21.7,0.1-43.3,4-63.7,11.6c-25.6,9.6-27.9,10.8-48.8,27c-16.8,13.5-28,32.7-31.6,53.9C438.6,327.1,448.6,331.9,471,334.8z"/>
				<path id="L_sleeve-2_1_" class="st26" d="M588.3,253.6c0,0-24.9,24.4-37.1,44.7c-12.2,20.3-10.6,26.1,2,42s16.2,18.6,16.2,18.6
					l-50.5,58.3c0,0-25.6-13.5-29.5-35.5c-3.9-22-6.6-28.7-13.4-37.6c-6.8-8.8-16.8-32.4,8.1-58.6c24.9-26.2,49.4-40.8,98.5-50.9
					l1.2-0.5"/>
			</g>
			<g id="head-2_1_">
				
					<linearGradient id="neck-2_1_" gradientUnits="userSpaceOnUse" x1="-1020.3839" y1="269.0858" x2="-1032.8837" y2="246.8983" gradientTransform="matrix(-1 0 0 1 -435 -20)">
					<stop  offset="0" style="stop-color:#FFCFCA"/>
					<stop  offset="1" style="stop-color:#F1ACA7"/>
				</linearGradient>
				<path id="neck-2_2_" class="st27" d="M593.7,251.4c0,0,4-6.7,9.1-13.9c-1.8-0.5-3.6-1.1-5.3-2c-3.4-1.4-6.7-3.1-9.7-5.2
					c-1.6,1.6-3.3,3.1-5.2,4.4C582.6,234.6,581.4,244,593.7,251.4z"/>
				<path id="face-2_2_" class="st11" d="M574.8,199.1c1.7,3.3,3,2.5,2.9,4.6c-0.1,1.5-3.1,9.2,0.3,16.6l0.1,0.2v0.1v0.1
					c1.3,2.8,3.3,5.1,5.9,6.8l0,0c4.1,3.3,8.6,6,13.5,7.9c1.7,0.8,3.5,1.5,5.3,2c3.7-5.1,4.7-7.1,7.8-7.4c6.5-0.5,2.1-0.2,5.9-0.4
					c0.1,0,0.3,0,0.4,0c0.6-0.1,1.3-0.3,1.9-0.6c0.2,0,0.3-0.1,0.5-0.2c3.1-1.6,5.9-5.4,3.9-9.3c-2.6-5-6-4.3-9.1-6.1
					c-8.5-5.1-14.8-13.2-17.6-22.7c0-0.1-0.1-0.2-0.1-0.4c-0.8-2.8-1.3-5.8-1.6-8.7c0,0-11.5,10.7-16.7,11.6c-2.3,0.3-4,2.4-3.7,4.7
					C574.5,198.3,574.6,198.7,574.8,199.1z"/>
				<path id="eyeglasses_1_" class="st26" d="M578.3,193.2c0.1,0,0.2,0,0.2,0c0.2-0.1,0.4-0.1,0.6-0.2c0.2,0,0.3-0.1,0.4-0.1
					c0.6-0.2,1.3-0.4,1.9-0.6c1.3-0.6,2.6-1.5,3.5-2.6l0,0l0,0c0-0.1,0.1-0.2,0.2-0.2c0-0.1,0.1-0.2,0.2-0.3c1.9,0.8,3,2.9,3.8,4.7
					c-1,1.3-1.7,2.8-2.1,4.5c-0.5,2.3-0.3,4.7,0.7,6.8c0.9,1.9,2.6,3.3,4.6,3.8c0.4,0.1,0.8,0.1,1.3,0.1c1.7,0,3.3-0.6,4.5-1.7
					c1.8-1.5,3-3.6,3.5-5.9c1.1-5-1.3-9.8-5.3-10.6c-2.1-0.4-4.2,0.2-5.8,1.6c-0.2,0.2-0.3,0.4-0.5,0.5c-0.7-2.1-2.2-3.8-4.1-4.8
					c0.2-0.5,0.3-1,0.4-1.5c0.9-4.3-1.2-8.4-4.6-9.2l0,0c-3.5-0.7-7.1,2.2-8,6.5C572.9,188.3,574.9,192.4,578.3,193.2z M591.3,193.4
					c1-0.9,2.4-1.4,3.8-1.5c0.3,0,0.7,0,1,0.1c3.4,0.7,5.4,4.9,4.4,9.3c-0.4,2-1.5,3.9-3.1,5.3c-0.5,0.5-1,0.8-1.7,1.1
					c-2.7,1.1-5.8-0.2-6.9-2.9c-0.9-1.9-1.1-4-0.6-6.1C588.6,196.6,589.7,194.7,591.3,193.4z M574.9,184.2c0.8-3.7,3.7-6.2,6.6-5.6
					c2.8,0.6,4.5,4.1,3.7,7.8s-3.7,6.2-6.6,5.6C575.8,191.4,574.2,187.9,574.9,184.2z"/>
			</g>
		</g>
	</g>
</g>
</svg>
