<?xml version="1.0" encoding="utf-8"?>
<!-- Generator: Adobe Illustrator 23.0.0, SVG Export Plug-In . SVG Version: 6.00 Build 0)  -->
<svg version="1.1" id="레이어_1" xmlns="http://www.w3.org/2000/svg" xmlns:xlink="http://www.w3.org/1999/xlink" x="0px"
	 y="0px" width="992px" height="696px" viewBox="0 0 992 696" style="enable-background:new 0 0 992 696;" xml:space="preserve">
<style type="text/css">
	.st0{fill:#E2D7DA;}
	.st1{fill:#F5DCE6;}
	.st2{fill:url(#L_hand_1_);}
	.st3{fill:url(#L_hand-2_1_);}
	.st4{fill:url(#tick_2_);}
	.st5{fill:url(#R_shoe_1_);}
	.st6{fill:#F1B505;}
	.st7{fill:url(#R_trousers_1_);}
	.st8{fill:#23286B;}
	.st9{fill:url(#R_sleeve_1_);}
	.st10{fill:url(#L_hand-3_1_);}
	.st11{opacity:0.86;fill:#FFFFFF;enable-background:new    ;}
	.st12{fill:url(#sweater_1_);}
	.st13{fill:#A1C3FC;}
	.st14{fill:url(#neck_1_);}
	.st15{fill:#FFBEB6;}
	.st16{fill:#1C2868;}
	.st17{fill:url(#L_sleeve_1_);}
	.st18{fill:url(#R_hand_1_);}
	.st19{fill:url(#neck-2_1_);}
	.st20{fill:url(#hair-2_1_);}
	.st21{fill:url(#L_shoe-2_1_);}
	.st22{fill:#28306D;}
	.st23{fill:url(#L_trousers-2_1_);}
	.st24{fill:url(#SVGID_1_);}
	.st25{fill:url(#sweater-2_1_);}
	.st26{fill:url(#R_sleeve-3_2_);}
</style>
<g>
	<ellipse class="st0" cx="320.8" cy="675.8" rx="119.5" ry="20.2"/>
	<ellipse class="st0" cx="656.7" cy="675.8" rx="132.1" ry="20.2"/>
	<g>
		<g id="man_1_">
			<rect id="bg-3_1_" x="203.1" y="38" class="st1" width="587.6" height="347.9"/>
			
				<linearGradient id="L_hand_1_" gradientUnits="userSpaceOnUse" x1="453.5241" y1="237.0215" x2="417.8382" y2="163.0256" gradientTransform="matrix(1 0 0 -1 0 469)">
				<stop  offset="0" style="stop-color:#FFBEB6"/>
				<stop  offset="0.5925" style="stop-color:#F7ADA7"/>
				<stop  offset="1" style="stop-color:#F2A19C"/>
			</linearGradient>
			<path id="L_hand_5_" class="st2" d="M407.9,295.6c0,0,17.3-9.5,18.6-22.8s1.2-11.3-0.1-17s1.3-6.7,4.8-2.6
				c3.4,4.1,0.3,10.9,2.8,10.5s5.5-0.4,8.8-9.6s5.4-12.2,8.1-10s9.9,13.9,2.2,24.9c-7.7,10.9-11.1,6-17.7,15
				c-6.5,9-10.9,25.1-17,32.4l0,0L407.9,295.6"/>
			
				<linearGradient id="L_hand-2_1_" gradientUnits="userSpaceOnUse" x1="512.5685" y1="209.36" x2="576.87" y2="209.36" gradientTransform="matrix(1 0 0 -1 0 469)">
				<stop  offset="0" style="stop-color:#FFBEB6"/>
				<stop  offset="1" style="stop-color:#F2A19C"/>
			</linearGradient>
			<path id="L_hand-2_3_" class="st3" d="M576.9,268.8c0,0-21.4-5-26.8-19c-5.3-13.9-4.6-11.8-5-18.3c-0.4-6.5-3.4-6.9-5.9-1.4
				s2.9,11.9,0.1,12.1c-2.8,0.3-6,1.2-12.3-7.7c-6.3-8.9-9.4-11.5-11.7-8.4c-2.3,3.1-6.5,17.9,5,27.4c11.5,9.5,13.7,3.1,23.5,10.9
				s19.3,23.7,28,29.7l0,0L576.9,268.8"/>
			
				<linearGradient id="tick_2_" gradientUnits="userSpaceOnUse" x1="498.755" y1="313.2317" x2="498.755" y2="119.2496" gradientTransform="matrix(1 0 0 -1 0 469)">
				<stop  offset="0.1291" style="stop-color:#428DFC"/>
				<stop  offset="0.9987" style="stop-color:#1D72D8"/>
			</linearGradient>
			<polygon id="tick_1_" class="st4" points="368.8,169.5 448.8,299.7 514.9,299.7 628.8,120.2 551.8,120.2 475.9,243.8 
				429.3,169.5 			"/>
			
				<linearGradient id="R_shoe_1_" gradientUnits="userSpaceOnUse" x1="573.7451" y1="-153.9586" x2="709.4115" y2="-279.1889" gradientTransform="matrix(1 0 0 -1 0 469)">
				<stop  offset="0" style="stop-color:#F1B505"/>
				<stop  offset="1" style="stop-color:#D89C05"/>
			</linearGradient>
			<path id="R_shoe_5_" class="st5" d="M654.3,633l15.4,42.8H561.3c0,0,5.6-10.7,24.1-18.7c18.5-7.9,35.8-24.2,35.8-24.2L654.3,633"
				/>
			<path id="L_shoe_5_" class="st6" d="M731.8,632.9l15.3,42.8H638.7c0,0,5.6-10.7,24.1-18.7s35.8-24.2,35.8-24.2L731.8,632.9"/>
			
				<linearGradient id="R_trousers_1_" gradientUnits="userSpaceOnUse" x1="505.3139" y1="-32.82" x2="706.9885" y2="-32.82" gradientTransform="matrix(1 0 0 -1 0 469)">
				<stop  offset="0" style="stop-color:#23286B"/>
				<stop  offset="0.3535" style="stop-color:#1E2361"/>
				<stop  offset="1" style="stop-color:#151A4F"/>
			</linearGradient>
			<path id="R_trousers_5_" class="st7" d="M699.5,384.8c-13.1,57.4-14.1,49.3-12.1,89.5c2,40.2-4.5,26.7-6.5,68.9
				s0.6,63.1-26.6,89.8h-33.1c0,0-2.7-128.8-2.1-165.2c0.4-25.5,8.4-51.3,13-72.4l5.1-21.1c4.9-0.3,9.6-1.5,14.1-3.6
				c11.5,3.9,31.8,4.7,50.1,4.5C700.9,378.2,700.3,381.5,699.5,384.8z"/>
			<path id="L_trousers_5_" class="st8" d="M731.8,632.9h-33.1c0,0-52.2-125.9-54.8-153.2c-2.1-21.7-1.2-46.8,1.1-69.6l4.6-40.1
				c15,5.9,48.9,5.5,70.8,4.5c-0.6,12.5-2.9,24.8-6.9,36.6c-20.8,62.6-6.5,59.6,0.2,78.5c6.8,18.9,10.4,30.5,8.9,48.4
				c-1.6,17.9,6.2,13.2,10.4,36.3C737.1,597.5,731.8,632.9,731.8,632.9z"/>
			
				<linearGradient id="R_sleeve_1_" gradientUnits="userSpaceOnUse" x1="603.0631" y1="222.7488" x2="640.7132" y2="147.4485" gradientTransform="matrix(1 0 0 -1 0 469)">
				<stop  offset="0" style="stop-color:#A1C3FC"/>
				<stop  offset="0.6955" style="stop-color:#81AEF2"/>
				<stop  offset="1" style="stop-color:#78A9EF"/>
			</linearGradient>
			<path id="R_sleeve_5_" class="st9" d="M662.9,245.9c0,0-3.9,21.2-33.4,28.4c-29.5,7.3-56.1-6.9-56.1-6.9l-18.8,47.7
				c0,0,8.8,9.3,26.8,8.3c18-1,27-3.6,34.9-1.5c8,2.1,44.3,3.5,52-20.8s14.6-60.8,14.6-60.8S674.4,248.7,662.9,245.9"/>
			
				<linearGradient id="L_hand-3_1_" gradientUnits="userSpaceOnUse" x1="463.3367" y1="160.4481" x2="579.53" y2="160.4481" gradientTransform="matrix(1 0 0 -1 0 469)">
				<stop  offset="0" style="stop-color:#FFBEB6"/>
				<stop  offset="1" style="stop-color:#F2A19C"/>
			</linearGradient>
			<path id="L_hand-3_3_" class="st10" d="M579.5,310.5c0,0-45.7-7.4-52.4-13.4c-6.6-5.9-5.7-9.4-13.9-13.7
				c-8.3-4.3-14.2-7.6-17.3-10.2c-3.1-2.6-5.4,3.8,0.7,9.9s16.1,12,9.5,16.5c0,0-16.2-0.1-42.8,0.1c-1.3,0,13.7,10.9,31.6,11.1
				c18,0.2,18.2-4.7,28.8,3.5c10.6,8.3,38.2,29.9,38.2,29.9l15.9-28.5"/>
			<path id="texture_5_" class="st11" d="M682.9,378.8c-0.1-0.1-0.2-0.2-0.3-0.1c-0.1,0.1-0.2,0.2-0.1,0.3c0,0.1,0.2,0.2,0.3,0.1
				l0,0C682.9,379.1,682.9,378.9,682.9,378.8L682.9,378.8z M656.5,378.7c-0.1,0-0.3,0-0.3,0.1c-0.1,0.1,0,0.3,0.1,0.3c0,0,0,0,0,0
				c0.1,0,0.3,0,0.3-0.1C656.7,378.9,656.7,378.8,656.5,378.7C656.5,378.7,656.5,378.7,656.5,378.7L656.5,378.7z M669.6,378
				c-0.2,0-0.3,0.1-0.3,0.3c0,0.1,0.1,0.3,0.3,0.3l0,0c0.2,0,0.3-0.1,0.3-0.3C669.9,378.1,669.8,378,669.6,378z M716.6,380
				c-0.2-0.2-0.5-0.2-0.7,0l0,0c-0.2,0.2-0.2,0.5,0,0.7l0,0c0.2,0.2,0.5,0.2,0.7,0l0,0C716.8,380.5,716.8,380.2,716.6,380
				C716.6,380,716.6,380,716.6,380L716.6,380z M680.7,409.8c-0.3,0-0.5,0.3-0.5,0.5c0,0.3,0.2,0.5,0.5,0.4c0,0,0,0,0,0
				c0.3,0,0.5-0.3,0.5-0.5C681.2,410,681,409.8,680.7,409.8L680.7,409.8L680.7,409.8z M679.9,398c-0.3,0-0.5,0.3-0.4,0.5l0,0
				c0,0.3,0.3,0.5,0.5,0.5c0.3,0,0.5-0.3,0.5-0.5C680.4,398.2,680.2,398,679.9,398L679.9,398z M679.1,386.2c-0.3,0-0.5,0.3-0.5,0.5
				c0,0.3,0.2,0.5,0.5,0.4c0,0,0,0,0,0c0.3,0,0.5-0.2,0.5-0.5c0,0,0,0,0,0C679.6,386.4,679.3,386.2,679.1,386.2L679.1,386.2z
				 M703.9,398c-0.1-0.3-0.4-0.4-0.7-0.2s-0.4,0.4-0.2,0.7s0.4,0.4,0.7,0.2h0C703.9,398.6,704,398.3,703.9,398L703.9,398z
				 M698.6,387.5c-0.1-0.3-0.4-0.4-0.7-0.2s-0.4,0.4-0.2,0.7s0.4,0.4,0.7,0.2h0C698.6,388,698.7,387.7,698.6,387.5L698.6,387.5z
				 M693.3,376.9c-0.1-0.2-0.4-0.3-0.7-0.2c-0.2,0.1-0.3,0.4-0.2,0.7c0.1,0.2,0.4,0.3,0.6,0.2C693.4,377.4,693.5,377.2,693.3,376.9
				L693.3,376.9z M658.6,401.3c-0.2-0.1-0.5,0-0.6,0.3c0,0,0,0,0,0c-0.1,0.3,0.1,0.5,0.3,0.6l0,0c0.3,0.1,0.5,0,0.6-0.3
				C659,401.7,658.8,401.4,658.6,401.3L658.6,401.3z M662.3,390.1c-0.3-0.1-0.5,0-0.6,0.3v0c-0.1,0.3,0,0.5,0.3,0.6
				c0.3,0.1,0.5-0.1,0.6-0.3C662.7,390.5,662.6,390.2,662.3,390.1L662.3,390.1L662.3,390.1z M666,378.9c-0.3-0.1-0.5,0-0.6,0.3
				s0,0.5,0.3,0.6c0,0,0,0,0,0c0.2,0.1,0.5,0,0.6-0.3c0,0,0,0,0,0C666.4,379.3,666.3,379,666,378.9L666,378.9z M714,392.6
				c-0.1-0.2-0.4-0.3-0.6-0.1c-0.2,0.1-0.3,0.4-0.1,0.6c0.1,0.2,0.4,0.3,0.6,0.1S714.1,392.9,714,392.6L714,392.6z M708.4,383.7
				c-0.1-0.2-0.4-0.3-0.6-0.1c-0.2,0.1-0.3,0.4-0.1,0.6c0.1,0.2,0.4,0.3,0.6,0.1l0,0C708.5,384.2,708.6,383.9,708.4,383.7
				C708.4,383.7,708.4,383.7,708.4,383.7L708.4,383.7z M670,399.8c-0.2,0-0.5,0.1-0.5,0.3c0,0,0,0,0,0c-0.1,0.2,0.1,0.5,0.3,0.5
				c0,0,0,0,0,0c0.2,0,0.5-0.1,0.5-0.3C670.4,400,670.2,399.8,670,399.8L670,399.8z M672.4,389.5c-0.2,0-0.5,0.1-0.5,0.3
				c0,0,0,0,0,0c-0.1,0.2,0.1,0.5,0.3,0.5c0,0,0,0,0,0c0.2,0,0.5-0.1,0.5-0.3C672.8,389.8,672.6,389.6,672.4,389.5L672.4,389.5z
				 M674.8,379.2c-0.2,0-0.5,0.1-0.5,0.3c0,0,0,0,0,0c-0.1,0.2,0.1,0.5,0.3,0.5c0,0,0,0,0,0c0.2,0,0.5-0.1,0.5-0.3c0,0,0,0,0,0
				C675.1,379.5,675,379.3,674.8,379.2L674.8,379.2z M692.4,395.1c-0.2,0-0.4,0.3-0.4,0.5s0.3,0.4,0.5,0.4s0.4-0.3,0.4-0.5
				C692.9,395.2,692.7,395.1,692.4,395.1L692.4,395.1z M690.7,384.7c-0.2,0-0.4,0.3-0.4,0.5c0,0.2,0.3,0.4,0.5,0.4
				c0.2,0,0.4-0.2,0.4-0.5c0,0,0,0,0,0C691.1,384.8,690.9,384.7,690.7,384.7L690.7,384.7z M653.4,386.4c-0.2-0.1-0.5-0.1-0.6,0.1
				c-0.1,0.2-0.1,0.5,0.1,0.6l0,0c0.2,0.1,0.4,0.1,0.6-0.1c0,0,0,0,0,0C653.6,386.9,653.6,386.6,653.4,386.4
				C653.4,386.5,653.4,386.4,653.4,386.4L653.4,386.4z M659.5,377.9c-0.2-0.1-0.5-0.1-0.6,0.1c-0.1,0.2-0.1,0.5,0.1,0.6
				c0.2,0.1,0.5,0.1,0.6-0.1C659.8,378.3,659.7,378,659.5,377.9C659.5,377.9,659.5,377.9,659.5,377.9L659.5,377.9z M688.5,375.9
				c-0.1,0-0.3,0.1-0.3,0.3s0.1,0.3,0.3,0.3c0.1,0,0.3-0.1,0.3-0.3C688.8,376,688.7,375.9,688.5,375.9L688.5,375.9L688.5,375.9z
				 M688.1,378c-0.2,0-0.3,0.1-0.3,0.2c0,0.2,0.1,0.3,0.2,0.4c0.1,0,0.3,0,0.3-0.2c0,0,0,0,0,0C688.4,378.2,688.3,378,688.1,378
				C688.2,378,688.1,378,688.1,378L688.1,378z M713.5,404c-0.3,0-0.5,0.3-0.4,0.6c0,0.3,0.3,0.5,0.6,0.4c0.3,0,0.5-0.3,0.4-0.6
				C714,404.2,713.8,404,713.5,404L713.5,404z M711.6,392c-0.3,0-0.5,0.3-0.4,0.6c0,0.3,0.3,0.5,0.6,0.4c0.3,0,0.5-0.3,0.4-0.6l0,0
				C712.2,392.1,711.9,392,711.6,392L711.6,392z M709.7,380c-0.3,0-0.5,0.3-0.4,0.6c0,0.3,0.3,0.5,0.6,0.4c0,0,0,0,0,0
				c0.3,0,0.5-0.3,0.4-0.6C710.3,380.1,710,379.9,709.7,380L709.7,380z M664.1,392.1c-0.2-0.2-0.5-0.1-0.7,0.1
				c-0.2,0.2-0.1,0.5,0.1,0.7c0.2,0.2,0.5,0.1,0.7-0.1C664.4,392.6,664.3,392.3,664.1,392.1L664.1,392.1z M671.3,382.3
				c-0.2-0.2-0.5-0.1-0.7,0.1c-0.2,0.2-0.1,0.5,0.1,0.7l0,0c0.2,0.2,0.5,0.1,0.7-0.1C671.5,382.7,671.5,382.4,671.3,382.3
				L671.3,382.3z M689.8,397.6c-0.3-0.1-0.5,0.1-0.6,0.4v0c-0.1,0.3,0.1,0.5,0.4,0.6c0.3,0,0.5-0.1,0.6-0.4
				C690.2,397.9,690.1,397.7,689.8,397.6L689.8,397.6L689.8,397.6z M692.7,385.8c-0.3-0.1-0.5,0.1-0.6,0.3c0,0,0,0,0,0
				c-0.1,0.3,0.1,0.5,0.4,0.6l0,0c0.3,0.1,0.5-0.1,0.6-0.4l0,0C693.1,386.1,692.9,385.9,692.7,385.8
				C692.7,385.8,692.7,385.8,692.7,385.8L692.7,385.8z M697.2,401.5c-0.3-0.1-0.5,0.1-0.6,0.4s0.1,0.5,0.4,0.6s0.5-0.1,0.6-0.4
				C697.6,401.9,697.4,401.6,697.2,401.5L697.2,401.5L697.2,401.5z M699.5,389.6c-0.3,0-0.5,0.1-0.6,0.4c0,0.3,0.1,0.5,0.4,0.6
				s0.5-0.1,0.6-0.4C700,390,699.8,389.7,699.5,389.6L699.5,389.6z M701.8,377.8c-0.3,0-0.5,0.1-0.6,0.4s0.1,0.5,0.4,0.6
				c0.3,0.1,0.5-0.1,0.6-0.4C702.3,378.1,702.1,377.8,701.8,377.8L701.8,377.8z M719.8,383.1c-0.3,0.1-0.5,0.3-0.4,0.6
				c0.1,0.3,0.3,0.4,0.6,0.4c0.3,0,0.5-0.3,0.4-0.6l0,0C720.3,383.2,720,383,719.8,383.1L719.8,383.1z M677,386.4
				c-0.2-0.1-0.5-0.1-0.7,0.1c0,0,0,0,0,0c-0.2,0.2-0.1,0.5,0.1,0.7c0.2,0.2,0.5,0.1,0.7-0.1S677.2,386.6,677,386.4
				C677,386.4,677,386.4,677,386.4L677,386.4z M683.7,376.3c-0.2-0.1-0.5-0.1-0.7,0.1c0,0,0,0,0,0c-0.2,0.2-0.1,0.5,0.1,0.7
				c0.2,0.2,0.5,0.1,0.7-0.1C684,376.8,683.9,376.5,683.7,376.3C683.7,376.3,683.7,376.3,683.7,376.3L683.7,376.3z M697.1,380.7
				c-0.2-0.1-0.4,0-0.5,0.2c0,0,0,0,0,0c-0.1,0.2,0,0.4,0.2,0.5c0.2,0.1,0.4,0,0.5-0.2C697.4,381,697.3,380.8,697.1,380.7z
				 M716.3,379.9c-0.2,0-0.4,0.2-0.4,0.4l0,0c0,0.2,0.2,0.4,0.4,0.4c0.2,0,0.4-0.2,0.4-0.4C716.7,380.1,716.5,379.9,716.3,379.9
				C716.3,379.9,716.3,379.9,716.3,379.9L716.3,379.9z"/>
			
				<linearGradient id="sweater_1_" gradientUnits="userSpaceOnUse" x1="711.4208" y1="176.2212" x2="634.3257" y2="39.0634" gradientTransform="matrix(1 0 0 -1 0 469)">
				<stop  offset="0" style="stop-color:#A1C3FC"/>
				<stop  offset="0.6955" style="stop-color:#81AEF2"/>
				<stop  offset="1" style="stop-color:#78A9EF"/>
			</linearGradient>
			<path id="sweater_5_" class="st12" d="M682.8,239.2c13.8,9.6,25.5,22,34.3,36.3c14.9,24.2,10.9,33,19,47.3s19.3,31.8,4.3,50.5
				c0,0-73.8,6.4-93.6-4.5l16.1-122.8C662.9,245.9,672.3,247,682.8,239.2z"/>
			<path id="R_sleeve-2_3_" class="st13" d="M662.9,245.9c0,0-10.3,27.3-23.7,45.1s-19.1,18.5-37.5,13.1c-18.4-5.4-22-7.6-22-7.6
				l-26.3,68.3c0,0,14.1,14.3,34.7,9.9c20.6-4.4,27.4-4.4,37.6-1.6s34.3,3.3,48.4-27.8c14.1-31,18.2-59,9.7-105.5l0,0"/>
			
				<linearGradient id="neck_1_" gradientUnits="userSpaceOnUse" x1="662.89" y1="231.4743" x2="682.94" y2="231.4743" gradientTransform="matrix(1 0 0 -1 0 469)">
				<stop  offset="0" style="stop-color:#FFBEB6"/>
				<stop  offset="1" style="stop-color:#F2A19C"/>
			</linearGradient>
			<path id="neck_5_" class="st14" d="M663.2,230c1.1,5.3,1,10.7-0.3,15.9c0,0,9,4.8,20-5.7c0,0-2.3-6-4-12.3l0,0L663.2,230"/>
			<path id="face_5_" class="st15" d="M649.8,193c0,0-1.7,6.3-5.2,9.9c-3.5,3.7-6.3,5.9,1.3,9.9c0,0,4.4,24.8,31.8,16
				c0,0,21-8.8,17.9-17.5c-3.1-8.6-16.7-20.8-16.7-20.8l-16.7-4.8L649.8,193z"/>
			<path id="lips_1_" class="st16" d="M646.2,218.6c1,2.3,3.7,3.3,6,2.3c0.8-0.4,1.5-1,2-1.8c0.4-0.6-0.5-1.3-0.9-0.7
				c-0.9,1.7-3.1,2.2-4.7,1.3c-0.6-0.4-1.1-0.9-1.4-1.6C646.9,217.6,645.9,218,646.2,218.6L646.2,218.6z"/>
			<path id="hair_5_" class="st8" d="M639.7,164c-2.6,17.7,4.5,25.9,12.7,29.7c-11.2-3.7-17.8-15.3-15.3-26.9
				c0.1-0.6-0.8-0.8-0.9-0.3c-2.9,12.9,5.3,25.7,18.2,28.6c1.3,0.3,2.7,0.5,4,0.5c4.2,0.9,8.6,1.2,12.9,0.9c0,0,1.8,8.2,5.8,11.4
				c3.9,3.2,7.6-1.5,9.9,3.6s-2.5,7.8-7.6,8.7c-5.1,0.9-4.4,7.5-4.4,7.5c3.9,1.7,16.6-0.5,26-9.3c9.3-8.8,11.5-21.4,11.5-21.4
				L639.7,164z"/>
		</g>
		<g id="woman_3_">
			
				<linearGradient id="L_sleeve_1_" gradientUnits="userSpaceOnUse" x1="302.6" y1="165.6255" x2="420.28" y2="165.6255" gradientTransform="matrix(1 0 0 -1 0 469)">
				<stop  offset="0" style="stop-color:#23286B"/>
				<stop  offset="0.3535" style="stop-color:#1E2361"/>
				<stop  offset="1" style="stop-color:#151A4F"/>
			</linearGradient>
			<path id="L_sleeve_5_" class="st17" d="M420.3,329.1c0,0-2.9,7.7-16.8,7.5c-13.9-0.2-17.9,2.7-30,8.4c-5.4,2.6-11.4,4-17.4,4.2
				c-9.8,0.2-20.1-3.5-26-15.8c-9.1-18.9-25.3-55.5-27.5-60.4c5-5.6,10.5-10.8,16.4-15.5l0,0c5.8,5.2,10.4,6.1,13.4,5.7
				c1.4,1.7,2.7,3.5,3.8,5.4c0.2,0.4,0.4,0.8,0.6,1.1c0,0,13.1,38.6,35.6,35.8c13.7-1.7,26.9-5.9,39.1-12.5L420.3,329.1z"/>
			
				<linearGradient id="R_hand_1_" gradientUnits="userSpaceOnUse" x1="448.6427" y1="180.6878" x2="409.2839" y2="140.017" gradientTransform="matrix(1 0 0 -1 0 469)">
				<stop  offset="0" style="stop-color:#FFBEB6"/>
				<stop  offset="1" style="stop-color:#F2A19C"/>
			</linearGradient>
			<path id="R_hand_5_" class="st18" d="M415.6,308.1c0,0,19.1-5,23.6-17.6c4.5-12.6,3.9-10.7,4.1-16.5c0.2-5.8,2.9-6.2,5.3-1.4
				c2.3,4.9-2.3,10.7,0.2,10.9c2.5,0.2,5.1-3.2,11.1-9.2c6.9-6.9,8-8.4,10.1-5.7s6.2,15.9-3.9,24.7c-10.1,8.7-11,4.2-19.6,11.4
				s-13.4,24.4-21.1,30s-4.5-3.8-4.5-3.8L415.6,308.1"/>
			
				<linearGradient id="neck-2_1_" gradientUnits="userSpaceOnUse" x1="323.9427" y1="185.4796" x2="330.0088" y2="224.4759" gradientTransform="matrix(1 0 0 -1 0 469)">
				<stop  offset="0" style="stop-color:#FFBEB6"/>
				<stop  offset="1" style="stop-color:#F2A19C"/>
			</linearGradient>
			<path id="neck-2_3_" class="st19" d="M336.8,246.9c-0.9,4.9-1,10-0.5,15c0,0-6.7,5.4-17.3-4.3l5.4-18.1L336.8,246.9"/>
			<path id="face-2_3_" class="st15" d="M351.7,211.3c0.1,0.1,0.1,0.2,0.1,0.3c0,0,0,0,0,0.1c0.2,0.5,0.4,1,0.6,1.5
				c2.1,5.6,7.3,9.1,7.6,10.7c0.4,1.6-2.5,3.4-3.9,3.9c-1.4,0.5-1.5,8.3-6.6,14c-4.7,5.3-13.4,6.8-19.7,5c-5.1-11.8-6.7-20.6,4-28.9
				c11.6-9.1,11.2-14.9,11.2-14.9C347.9,205,350.2,208,351.7,211.3z"/>
			
				<linearGradient id="hair-2_1_" gradientUnits="userSpaceOnUse" x1="285.91" y1="278.14" x2="311.21" y2="278.14" gradientTransform="matrix(1 0 0 -1 0 469)">
				<stop  offset="0" style="stop-color:#23286B"/>
				<stop  offset="0.3535" style="stop-color:#1E2361"/>
				<stop  offset="1" style="stop-color:#151A4F"/>
			</linearGradient>
			<circle id="hair-2_5_" class="st20" cx="298.6" cy="190.9" r="12.6"/>
			<path id="eye_3_" class="st16" d="M348.3,216.8c2,1.5,4.9,1.1,6.4-1c0.5-0.7,0.9-1.6,0.9-2.5c0-0.7-1-0.9-1.1-0.2
				c0,1.9-1.6,3.5-3.5,3.5c-0.7,0-1.4-0.2-2-0.6C348.4,215.5,347.8,216.4,348.3,216.8L348.3,216.8z"/>
			
				<linearGradient id="L_shoe-2_1_" gradientUnits="userSpaceOnUse" x1="-1872.9656" y1="-187.955" x2="-1777.5856" y2="-187.955" gradientTransform="matrix(-1 0 0 -1 -1461.0356 469)">
				<stop  offset="0" style="stop-color:#28306D"/>
				<stop  offset="0.51" style="stop-color:#1F275F"/>
				<stop  offset="1" style="stop-color:#171F51"/>
			</linearGradient>
			<path id="L_shoe-2_3_" class="st21" d="M330.1,638.1h29.1c0,0,15.2,14.3,31.5,21.3c16.3,7,21.2,16.4,21.2,16.4h-95.4L330.1,638.1
				"/>
			<path id="R_shoe-2_3_" class="st22" d="M268.4,638.1h31c0,0,13.4,14.3,29.7,21.3c16.3,7,21.2,16.4,21.2,16.4h-95.4L268.4,638.1"
				/>
			
				<linearGradient id="L_trousers-2_1_" gradientUnits="userSpaceOnUse" x1="414.7315" y1="-149.2823" x2="337.1497" y2="-38.6869" gradientTransform="matrix(1 0 0 -1 0 469)">
				<stop  offset="0" style="stop-color:#A1C3FC"/>
				<stop  offset="0.6955" style="stop-color:#81AEF2"/>
				<stop  offset="1" style="stop-color:#78A9EF"/>
			</linearGradient>
			<path id="L_trousers-2_3_" class="st23" d="M359.2,638.1l-29.2,0c-21.5-21.1-17.4-56.5-19-90c-1.6-33.5,0.8-20.2-3.5-51.9
				c-5.3-40-3.6-33.1-14-78.6c-2.7-11-4-22.2-3.9-33.5c0.1-1,0.2-2,0.3-2.9c2.8,0.2,5.8,0.3,8.9,0.3c15.1,0.1,30.1-2.3,44.4-7
				c1.8,16.1,5.1,46.1,5.2,46.7c1.1,7.6,1.8,12.1,4,25.2c0.2,1,0.3,2.1,0.4,3.2c1.9,18.5,4.5,47.8,4.9,72.9
				C358.4,551.4,359.2,638.1,359.2,638.1z"/>
			
				<linearGradient id="SVGID_1_" gradientUnits="userSpaceOnUse" x1="302.8314" y1="-1.1883" x2="280.5649" y2="187.1488" gradientTransform="matrix(1 0 0 -1 0 469)">
				<stop  offset="0" style="stop-color:#A1C3FC"/>
				<stop  offset="0.6955" style="stop-color:#81AEF2"/>
				<stop  offset="1" style="stop-color:#78A9EF"/>
			</linearGradient>
			<path class="st24" d="M354.2,501c-2.4,23.2-54.9,137.1-54.9,137.1h-31c0,0,1.1-37.3,4.9-56.9c3.8-19.6,10.9-15.6,9.5-30.8
				c-1.4-15.1,1.9-25,8.1-41c6.2-16,20.4-23.6,1.4-76.6c-6.2-17.3-10.3-39.3-9.1-52.2c5.3,0.6,10.6,1,15.9,1
				c16,0.1,31.8-2.5,46.9-7.8l4.6,45.6c0.3,2.8,0.6,5.3,1,8.1C354.7,450.2,356.6,477.8,354.2,501z"/>
			<path id="texture-2_3_" class="st11" d="M287.3,393.3c0-0.1-0.2-0.2-0.3-0.1c-0.1,0-0.2,0.2-0.1,0.3s0.2,0.2,0.3,0.1l0,0
				C287.3,393.6,287.4,393.4,287.3,393.3L287.3,393.3z M285.3,388.5c0-0.1-0.1-0.2-0.3-0.1c0,0,0,0,0,0c-0.1,0-0.2,0.2-0.1,0.3
				c0.1,0.1,0.2,0.2,0.3,0.1C285.3,388.7,285.3,388.6,285.3,388.5L285.3,388.5z M283.3,383.6c-0.1-0.1-0.2-0.2-0.3-0.1
				c-0.1,0-0.2,0.2-0.1,0.3c0.1,0.1,0.2,0.2,0.3,0.1l0,0C283.2,383.9,283.3,383.8,283.3,383.6L283.3,383.6z M294.7,384.8
				c-0.1-0.1-0.2-0.1-0.3,0c-0.1,0.1-0.1,0.2,0,0.3c0.1,0.1,0.2,0.1,0.3,0l0,0C294.8,385,294.8,384.9,294.7,384.8
				C294.8,384.8,294.7,384.8,294.7,384.8z M315.8,394.3c-0.2-0.1-0.4-0.1-0.6,0l0,0c-0.1,0.2-0.1,0.4,0,0.6l0,0
				c0.2,0.1,0.4,0.1,0.6,0l0,0C316,394.8,315.9,394.5,315.8,394.3L315.8,394.3L315.8,394.3z M308.2,387.8c-0.2-0.1-0.4-0.1-0.6,0
				l0,0c-0.1,0.2-0.1,0.4,0,0.6c0.2,0.1,0.4,0.1,0.6,0l0,0C308.4,388.2,308.4,388,308.2,387.8L308.2,387.8z M285.5,419.5
				c-0.2,0-0.4,0.2-0.4,0.4c0,0.2,0.2,0.4,0.4,0.4c0,0,0,0,0,0c0.2,0,0.4-0.2,0.4-0.4C285.9,419.6,285.7,419.5,285.5,419.5
				L285.5,419.5z M284.8,409.6c-0.2,0-0.4,0.2-0.4,0.4l0,0c0,0.2,0.2,0.4,0.4,0.4c0.2,0,0.4-0.2,0.4-0.4l0,0
				C285.2,409.7,285,409.5,284.8,409.6L284.8,409.6z M284.1,399.6c-0.2,0-0.4,0.2-0.4,0.5c0,0.2,0.2,0.4,0.4,0.4c0,0,0,0,0,0
				c0.2,0,0.4-0.2,0.4-0.4v0C284.5,399.8,284.3,399.6,284.1,399.6L284.1,399.6z M305,409.6c-0.1-0.2-0.4-0.3-0.6-0.2
				c-0.2,0.1-0.3,0.4-0.2,0.6s0.4,0.3,0.6,0.2c0,0,0,0,0,0C305,410,305.1,409.8,305,409.6L305,409.6z M300.6,400.7
				c-0.1-0.2-0.4-0.3-0.6-0.2s-0.3,0.4-0.2,0.6c0.1,0.2,0.3,0.3,0.6,0.2c0,0,0,0,0,0C300.6,401.1,300.7,400.9,300.6,400.7
				L300.6,400.7z M296.1,391.8c-0.1-0.2-0.4-0.3-0.6-0.2c-0.2,0.1-0.3,0.4-0.2,0.6c0.1,0.2,0.3,0.3,0.5,0.2
				C296.1,392.2,296.2,392,296.1,391.8L296.1,391.8z M291.7,382.8c-0.1-0.2-0.3-0.3-0.5-0.2c-0.2,0.1-0.3,0.3-0.2,0.5c0,0,0,0,0,0
				c0.1,0.2,0.3,0.3,0.5,0.2c0,0,0,0,0,0C291.7,383.3,291.8,383.1,291.7,382.8C291.7,382.9,291.7,382.9,291.7,382.8L291.7,382.8z
				 M313.6,405c-0.1-0.2-0.3-0.2-0.5-0.1c-0.2,0.1-0.2,0.3-0.1,0.5l0,0c0.1,0.2,0.3,0.2,0.5,0.1C313.6,405.4,313.7,405.2,313.6,405
				L313.6,405z M308.9,397.5c-0.1-0.2-0.3-0.2-0.5-0.1c-0.2,0.1-0.2,0.3-0.1,0.5c0.1,0.2,0.3,0.2,0.5,0.1l0,0
				C308.9,397.9,309,397.7,308.9,397.5C308.9,397.5,308.9,397.5,308.9,397.5L308.9,397.5z M304.2,389.9c0-0.1-0.1-0.1-0.1-0.1h0
				c-0.1,0-0.2,0-0.4,0c-0.2,0.1-0.2,0.3-0.1,0.5l0,0c0.1,0.2,0.3,0.2,0.5,0.1c0.1,0,0.1-0.1,0.2-0.2
				C304.2,390.1,304.2,390,304.2,389.9L304.2,389.9z M299.5,382.4c-0.1-0.2-0.3-0.2-0.5-0.1c-0.2,0.1-0.2,0.3-0.1,0.5
				c0.1,0.2,0.3,0.2,0.5,0.1C299.5,382.8,299.6,382.6,299.5,382.4L299.5,382.4L299.5,382.4z M282.4,385c-0.2,0-0.4,0.1-0.4,0.3
				c0,0.2,0.1,0.4,0.3,0.4c0.2,0,0.4-0.1,0.4-0.3C282.8,385.3,282.6,385.1,282.4,385L282.4,385z M317.1,383.8
				c-0.2-0.1-0.4-0.1-0.5,0.1c0,0,0,0,0,0c-0.1,0.1-0.1,0.4,0.1,0.5c0,0,0,0,0,0c0.2,0.1,0.4,0.1,0.5-0.1l0,0
				C317.3,384.1,317.3,383.9,317.1,383.8L317.1,383.8z M295.4,407.1c-0.2,0-0.3,0.2-0.3,0.4c0,0.2,0.2,0.3,0.4,0.3
				c0.2,0,0.3-0.2,0.3-0.4C295.8,407.2,295.6,407.1,295.4,407.1L295.4,407.1z M293.9,398.3c-0.2,0-0.3,0.2-0.3,0.4
				c0,0.2,0.2,0.3,0.4,0.3c0.2,0,0.3-0.2,0.3-0.4c0,0,0,0,0,0C294.3,398.5,294.1,398.3,293.9,398.3L293.9,398.3z M292.4,389.6
				c-0.2,0-0.3,0.2-0.3,0.4c0,0,0,0,0,0c0,0.2,0.2,0.3,0.4,0.3c0.2,0,0.3-0.2,0.3-0.4C292.8,389.7,292.6,389.6,292.4,389.6
				C292.4,389.6,292.4,389.6,292.4,389.6L292.4,389.6z M312.9,383.2c-0.1-0.1-0.2-0.1-0.3,0c-0.1,0.1-0.1,0.2,0,0.3
				c0.1,0.1,0.2,0.1,0.3,0l0,0C313,383.4,313,383.3,312.9,383.2L312.9,383.2z M292.1,390.9c-0.1,0-0.2,0.1-0.2,0.2s0.1,0.2,0.2,0.2
				s0.2-0.1,0.2-0.2l0,0C292.3,391,292.2,390.9,292.1,390.9L292.1,390.9L292.1,390.9z M292.3,385.6c-0.1,0-0.2,0.1-0.2,0.2
				c0,0,0,0,0,0c0,0.1,0.1,0.2,0.2,0.2l0,0c0.1,0,0.2-0.1,0.2-0.2C292.5,385.7,292.4,385.6,292.3,385.6L292.3,385.6L292.3,385.6z
				 M302.6,386.5c0-0.1-0.1-0.2-0.3-0.1c0,0,0,0,0,0c-0.1,0-0.2,0.2-0.1,0.3v0c0.1,0.1,0.2,0.2,0.3,0.1
				C302.6,386.7,302.6,386.6,302.6,386.5L302.6,386.5z M282.4,385.8c-0.1,0-0.2,0-0.3,0.1c0,0,0,0,0,0c0,0.1,0,0.2,0.1,0.3
				c0.1,0,0.2,0,0.3-0.1C282.6,386,282.5,385.9,282.4,385.8z M284.6,381c-0.1,0-0.2,0-0.3,0.1c0,0,0,0,0,0c0,0.1,0,0.2,0.1,0.3l0,0
				c0.1,0,0.2,0,0.3-0.1C284.7,381.2,284.7,381.1,284.6,381C284.6,381.1,284.6,381,284.6,381L284.6,381z M316.7,388.4
				c-0.1-0.1-0.2-0.1-0.3-0.1c0,0,0,0,0,0c-0.1,0.1-0.1,0.2-0.1,0.3c0,0,0,0,0,0c0.1,0.1,0.2,0.1,0.3,0.1c0,0,0,0,0,0
				C316.7,388.6,316.8,388.5,316.7,388.4L316.7,388.4z M313.5,383.3c-0.1-0.1-0.2-0.1-0.3-0.1c0,0,0,0,0,0c-0.1,0.1-0.2,0.2-0.1,0.4
				s0.2,0.1,0.4,0.1l0,0C313.5,383.6,313.6,383.5,313.5,383.3C313.5,383.3,313.5,383.3,313.5,383.3L313.5,383.3z M291.8,392.7
				c-0.1,0-0.3,0.1-0.3,0.2c0,0.1,0,0.3,0.2,0.3c0.1,0,0.3,0,0.3-0.1c0,0,0,0,0,0C292,392.8,291.9,392.7,291.8,392.7L291.8,392.7z
				 M293,386.8c-0.1,0-0.3,0.1-0.3,0.2c0,0.1,0.1,0.3,0.2,0.3c0.1,0,0.3,0,0.3-0.2l0,0C293.3,387,293.2,386.9,293,386.8L293,386.8z
				 M304.3,390c0-0.1-0.1-0.2-0.3-0.2h0h0c-0.1,0-0.2,0.2-0.2,0.3s0.1,0.2,0.3,0.2h0c0,0,0.1,0,0.1,0
				C304.3,390.2,304.3,390.1,304.3,390L304.3,390z M303,383.9c-0.1,0-0.2,0.2-0.2,0.3c0,0.1,0.2,0.2,0.3,0.2c0.1,0,0.2-0.1,0.2-0.3
				l0,0C303.2,384,303.1,383.9,303,383.9L303,383.9z M313.2,414.6c-0.2,0-0.4,0.3-0.4,0.5c0,0.2,0.3,0.4,0.5,0.4s0.4-0.3,0.4-0.5
				C313.6,414.7,313.4,414.6,313.2,414.6L313.2,414.6z M311.6,404.5c-0.2,0-0.4,0.3-0.4,0.5c0,0.2,0.3,0.4,0.5,0.4
				c0.2,0,0.4-0.3,0.3-0.5C312,404.6,311.8,404.4,311.6,404.5L311.6,404.5z M310,394.3c-0.2,0-0.4,0.2-0.4,0.5s0.2,0.4,0.5,0.4
				c0,0,0,0,0,0c0.2,0,0.4-0.3,0.4-0.5C310.4,394.5,310.2,394.3,310,394.3z M308.4,384.2c-0.2,0-0.4,0.3-0.3,0.5v0
				c0,0.2,0.3,0.4,0.5,0.4c0.2,0,0.4-0.3,0.3-0.5C308.8,384.3,308.6,384.2,308.4,384.2C308.4,384.2,308.4,384.2,308.4,384.2
				L308.4,384.2z M321.5,385.5c-0.1-0.2-0.4-0.3-0.6-0.1c-0.2,0.1-0.3,0.4-0.1,0.6c0.1,0.2,0.4,0.3,0.6,0.1
				C321.5,385.9,321.6,385.7,321.5,385.5L321.5,385.5z M293.1,409.2c-0.2,0-0.4,0.1-0.5,0.3c0,0,0,0,0,0c-0.1,0.2,0.1,0.5,0.3,0.5
				c0.2,0,0.4-0.1,0.5-0.3C293.5,409.5,293.4,409.3,293.1,409.2L293.1,409.2L293.1,409.2z M295.5,399.2c-0.2-0.1-0.4,0.1-0.5,0.3
				c0,0,0,0,0,0c-0.1,0.2,0.1,0.5,0.3,0.5l0,0c0.2,0.1,0.5-0.1,0.5-0.3l0,0C295.9,399.5,295.8,399.3,295.5,399.2
				C295.6,399.2,295.6,399.2,295.5,399.2L295.5,399.2z M298,389.3c-0.2,0-0.5,0.1-0.5,0.3c-0.1,0.2,0.1,0.5,0.3,0.5
				c0.2,0,0.5-0.1,0.5-0.3v0C298.3,389.5,298.2,389.3,298,389.3L298,389.3z M299.4,412.5c-0.2,0-0.5,0.1-0.5,0.3
				c-0.1,0.2,0.1,0.5,0.3,0.5c0.2,0,0.5-0.1,0.5-0.3C299.7,412.8,299.6,412.6,299.4,412.5L299.4,412.5L299.4,412.5z M301.3,402.5
				c-0.2,0-0.5,0.1-0.5,0.4c0,0.2,0.1,0.4,0.3,0.5c0.2,0,0.5-0.1,0.5-0.3C301.7,402.8,301.6,402.5,301.3,402.5L301.3,402.5z
				 M303.3,392.5c-0.2,0-0.4,0.1-0.5,0.3c0,0.2,0.1,0.5,0.3,0.5c0.2,0,0.5-0.1,0.5-0.3C303.7,392.7,303.5,392.5,303.3,392.5
				L303.3,392.5z M305.3,382.4c-0.2,0-0.4,0.1-0.5,0.3v0c0,0.2,0.1,0.5,0.3,0.5c0.2,0,0.4-0.1,0.5-0.3c0,0,0,0,0,0
				C305.7,382.7,305.5,382.5,305.3,382.4C305.3,382.4,305.3,382.4,305.3,382.4L305.3,382.4z M318.4,397c-0.2,0-0.4,0.3-0.3,0.5
				c0.1,0.2,0.3,0.4,0.5,0.3c0.2,0,0.4-0.3,0.3-0.5l0,0C318.9,397.1,318.7,396.9,318.4,397L318.4,397z M316.4,386.9
				c-0.2,0-0.4,0.3-0.3,0.5s0.3,0.4,0.5,0.3c0.2,0,0.4-0.3,0.3-0.5v0C316.9,387,316.7,386.9,316.4,386.9L316.4,386.9L316.4,386.9z
				 M288,391.3c-0.2-0.1-0.4-0.1-0.6,0.1c0,0,0,0,0,0c-0.1,0.2-0.1,0.5,0.1,0.6c0.2,0.1,0.5,0.1,0.6-0.1
				C288.3,391.7,288.2,391.4,288,391.3C288,391.3,288,391.3,288,391.3L288,391.3z M293.7,382.8c-0.2-0.1-0.5-0.1-0.6,0.1
				c-0.1,0.2-0.1,0.5,0.1,0.6c0.2,0.1,0.5,0.1,0.6-0.1C293.9,383.2,293.9,382.9,293.7,382.8C293.7,382.8,293.7,382.8,293.7,382.8
				L293.7,382.8z M299.3,395c-0.1-0.1-0.3,0-0.4,0.1c0,0,0,0,0,0c-0.1,0.2,0,0.4,0.2,0.4c0.2,0.1,0.4,0,0.4-0.2
				C299.5,395.2,299.5,395,299.3,395z M302.3,387.9c-0.2-0.1-0.4,0-0.4,0.1v0c-0.1,0.2,0,0.4,0.2,0.4s0.4,0,0.4-0.2
				C302.6,388.1,302.5,387.9,302.3,387.9L302.3,387.9z M315.5,394.3c-0.2,0-0.3,0.1-0.3,0.3l0,0c0,0.2,0.1,0.3,0.3,0.3
				c0.2,0,0.3-0.1,0.3-0.3C315.8,394.4,315.7,394.3,315.5,394.3C315.5,394.3,315.5,394.3,315.5,394.3z M315.6,386.6
				c-0.2,0-0.3,0.1-0.3,0.3v0c0,0.2,0.1,0.3,0.3,0.3l0,0c0.2,0,0.3-0.1,0.3-0.3C315.9,386.7,315.8,386.6,315.6,386.6
				C315.6,386.6,315.6,386.6,315.6,386.6L315.6,386.6z M288.5,383c-0.1-0.1-0.3-0.1-0.4,0c0,0,0,0,0,0c-0.1,0.1-0.1,0.3,0,0.4
				c0,0,0,0,0,0c0.1,0.1,0.3,0.1,0.4,0C288.6,383.3,288.6,383.1,288.5,383L288.5,383z M312.7,384c-0.1-0.1-0.3,0-0.4,0.1
				c0,0,0,0,0,0c-0.1,0.1-0.1,0.3,0.1,0.4c0,0,0,0,0,0c0.1,0.1,0.3,0,0.4-0.1l0,0C312.9,384.3,312.9,384.1,312.7,384
				C312.7,384,312.7,384,312.7,384L312.7,384z"/>
			
				<linearGradient id="sweater-2_1_" gradientUnits="userSpaceOnUse" x1="273.894" y1="173.8946" x2="426.0701" y2="19.2641" gradientTransform="matrix(1 0 0 -1 0 469)">
				<stop  offset="0" style="stop-color:#23286B"/>
				<stop  offset="0.3535" style="stop-color:#1E2361"/>
				<stop  offset="1" style="stop-color:#151A4F"/>
			</linearGradient>
			<path id="sweater-2_3_" class="st25" d="M362.5,366.7c-19.7,9.9-41.5,15-63.6,14.9c-24.4-0.1-40.6-6.5-40.6-6.5
				s-4.7-15.7,6.1-34.3c17.9-31.1,6.4-14.1,19.8-41c5-9.6,11.2-18.6,18.4-26.8c5-5.6,10.5-10.8,16.4-15.5l0,0
				c8.9,8.1,15.1,5.6,16.8,4.6c0.1,2.2,0.2,4.3,0.4,6.5c2.3,29.2,12.8,58.8,18.9,77.4c0.4,1,0.7,2.1,1,3.1
				C359.8,360,362.5,366.7,362.5,366.7z"/>
			
				<linearGradient id="R_sleeve-3_2_" gradientUnits="userSpaceOnUse" x1="358.8181" y1="142.9997" x2="516.7164" y2="59.551" gradientTransform="matrix(1 0 0 -1 0 469)">
				<stop  offset="0" style="stop-color:#23286B"/>
				<stop  offset="0.3535" style="stop-color:#1E2361"/>
				<stop  offset="1" style="stop-color:#151A4F"/>
			</linearGradient>
			<path id="R_sleeve-3_1_" class="st26" d="M440.4,356.8c0,0-19.5,20.8-38.5,16.5c-17.4-3.9-18.9,0.8-27.1,2.6
				c-0.8,0.2-1.6,0.4-2.4,0.6c-9.4,2.5-31.8,2.7-44.5-26.2c-12.4-28-16-52.1-8.7-92.7c10.6,9.5,17.2,4.2,17.2,4.2
				c0-0.4-0.1-0.9-0.1-1.3c2.4,4.4,13.5,25.2,24.4,40c12.3,16.6,16.1,18.5,33.2,13.9c2.8-0.8,5.5-1.5,7.9-2.2
				c9.3-2.7,15.2-4.6,15.2-4.6L440.4,356.8z"/>
			<path id="hair-3_3_" class="st8" d="M351.9,211.6c-2.3-19.9-21.3-20.7-35.7-17.7c-7.6,1.6-12.5,5.1-15.6,9.1
				c-5.8,2.1-12.3-0.5-14.9-6.1c-0.3-0.5-1.1-0.1-0.8,0.5c2.7,5.5,8.9,8.4,14.8,6.8c-2,3.1-3.2,6.6-3.4,10.3
				c-0.2,4.1-0.9,11.9-5.5,18.6s-4.6,18.4-4.6,18.4c22,8.1,50.5-3.2,50.5-3.2c0.4-13.2-6.8-17.3-3.3-24.4c-0.5,1.8-0.6,3.7-0.2,5.5
				c1.4,6.5,8.2,11.6,5.2,18.8c-0.2,0.6,0.7,0.8,0.9,0.3c1.4-3.4,0.9-6.4-0.6-9.7c-1.1-2.4-2.7-4.6-3.7-7.1
				c-1.5-3.8-1.1-8.2,1.2-11.6c9.7-10.9,8.9-17.3,8.9-17.3C348,205.1,350.3,208.1,351.9,211.6z"/>
		</g>
	</g>
</g>
</svg>
