<?xml version="1.0" encoding="utf-8"?>
<!-- Generator: Adobe Illustrator 23.0.0, SVG Export Plug-In . SVG Version: 6.00 Build 0)  -->
<svg version="1.1" id="레이어_1" xmlns="http://www.w3.org/2000/svg" xmlns:xlink="http://www.w3.org/1999/xlink" x="0px"
	 y="0px" width="992px" height="696px" viewBox="0 0 992 696" style="enable-background:new 0 0 992 696;" xml:space="preserve">
<style type="text/css">
	.st0{fill:#E2D7DA;}
	.st1{fill:url(#SVGID_1_);}
	.st2{fill:url(#man_s_hand_1_);}
	.st3{fill:url(#neck_1_);}
	.st4{fill:#FFBEB6;}
	.st5{fill:url(#R_shoe_2_);}
	.st6{fill:#28306D;}
	.st7{fill:url(#R_trousers_1_);}
	.st8{fill:#A1C3FC;}
	.st9{opacity:0.86;fill:#FFFFFF;enable-background:new    ;}
	.st10{fill:url(#R_sleeve_1_);}
	.st11{fill:url(#sweater_1_);}
	.st12{fill:#23286B;}
	.st13{fill:url(#handle_1_);}
	.st14{fill:url(#L_hand_2_);}
	.st15{fill:url(#case_1_);}
	.st16{fill:url(#R_hand_1_);}
	.st17{fill:url(#R_hand-2_1_);}
	.st18{fill:#E94A47;}
	.st19{fill:#1C2868;}
	.st20{fill:url(#L_shoe-2_1_);}
	.st21{fill:#428DFC;}
	.st22{fill:url(#L_trousers-2_1_);}
	.st23{fill:url(#neck-2_1_);}
	.st24{fill:url(#sweater-2_1_);}
</style>
<g>
	<ellipse class="st0" cx="649.2" cy="673.4" rx="145.3" ry="22.6"/>
	<ellipse class="st0" cx="342.8" cy="673.4" rx="145.3" ry="22.6"/>
	
		<linearGradient id="SVGID_1_" gradientUnits="userSpaceOnUse" x1="545.0707" y1="640.5697" x2="505.7029" y2="669.4097" gradientTransform="matrix(1 0 0 1 0 -358)">
		<stop  offset="2.870000e-02" style="stop-color:#FFBEB6"/>
		<stop  offset="0.434" style="stop-color:#FBB5AE"/>
		<stop  offset="1" style="stop-color:#F2A19C"/>
	</linearGradient>
	<path class="st1" d="M541.9,301c0,0-18.4,14.6-25.3,17c-6.9,2.3-23.5-13.7-23.5-13.7l31.4-18.2L541.9,301z"/>
	
		<linearGradient id="man_s_hand_1_" gradientUnits="userSpaceOnUse" x1="443.9" y1="167.1584" x2="545.0419" y2="167.1584" gradientTransform="matrix(1 0 0 -1 0 470)">
		<stop  offset="0" style="stop-color:#FFBEB6"/>
		<stop  offset="1" style="stop-color:#F2A19C"/>
	</linearGradient>
	<path id="man_s_hand" class="st2" d="M446.3,285.9c0,0,33.1,6.5,41.1,3.4s19.1-7.7,26.8-5.2c7.7,2.5,29.6,15.7,30.8,21
		c1.2,5.2-23.7,13.3-28.4,11.7c-4.6-1.5-21.9-13.3-34.5-10.2c-12.6,3.1-38.2,15.7-38.2,15.7L446.3,285.9"/>
	<g id="woman">
		
			<linearGradient id="neck_1_" gradientUnits="userSpaceOnUse" x1="638.2656" y1="275.1237" x2="629.8762" y2="306.3934" gradientTransform="matrix(1 0 0 -1 0 470)">
			<stop  offset="0" style="stop-color:#FFBEB6"/>
			<stop  offset="1" style="stop-color:#F2A19C"/>
		</linearGradient>
		<path id="neck" class="st3" d="M620.2,169.1c0,0,7.8,12.4,7.3,22.4c0,0,11.1,4.8,18.3-10.1l-6.9-14.5L620.2,169.1"/>
		<path id="face" class="st4" d="M611.2,128.3c0,0-7.2,12.6-12.3,16.2s-1.4,5.8,2.1,6.3c0,0,7.6,27.8,38,16l0,0l9.3-18.1l-5-16.9
			l-20.1,5L611.2,128.3z"/>
		
			<linearGradient id="R_shoe_2_" gradientUnits="userSpaceOnUse" x1="540.8" y1="-180.1" x2="658.8" y2="-180.1" gradientTransform="matrix(1 0 0 -1 0 470)">
			<stop  offset="0" style="stop-color:#23286B"/>
			<stop  offset="1" style="stop-color:#151A4F"/>
		</linearGradient>
		<path id="R_shoe_1_" class="st5" d="M642.1,626.8H606c0,0-18.8,17.7-39,26.3s-26.2,20.3-26.2,20.3h118L642.1,626.8"/>
		<path id="L_shoe" class="st6" d="M719.7,626.8h-38.3c0,0-16.5,17.7-36.7,26.3s-26.2,20.3-26.2,20.3h118L719.7,626.8"/>
		
			<linearGradient id="R_trousers_1_" gradientUnits="userSpaceOnUse" x1="478.6714" y1="-103.2265" x2="632.7534" y2="2.3941" gradientTransform="matrix(1 0 0 -1 0 470)">
			<stop  offset="0" style="stop-color:#A1C3FC"/>
			<stop  offset="0.7473" style="stop-color:#81AEF2"/>
			<stop  offset="1" style="stop-color:#78A9EF"/>
		</linearGradient>
		<path id="R_trousers" class="st7" d="M687.2,353.9c-12.8,56.3-10.7,47.8-17.3,97.3c-5.2,39.2-2.3,22.8-4.3,64.2
			c-2,41.5,3.2,85.2-23.5,111.4H606c0,0,1.1-107.3,1.7-143.1c0.5-31,3.7-67.3,6-90.2c0.1-1.3,0.3-2.6,0.5-3.9
			c2.8-16.2,3.6-21.8,5-31.2c0.1-0.9,8.4-52.2,8.6-53c13.6,7,11.1,8.8,29.4,10.9c0,0,17,3.4,26.6-0.5c0.9-0.4,1.9-0.7,2.9-1.1
			c1.8-0.6,3.5-1.4,5.2-2.3C692.3,323.1,691.1,336.7,687.2,353.9z"/>
		<path id="L_trousers" class="st8" d="M714.6,551.5c-8.7-23.1-16.4-15.7-14.7-34.5s-2.4-30.9-10-50.7c-7.6-19.9-25.2-29.2-1.8-94.9
			c8.7-24.4,11.5-43.4,11.6-57.7c-5.1,0.5-10.7,0.8-16.7,0.8c-1.6,0.6,1.5-0.8,0,0l-59.7-6.7l-6.9,46.8c-0.6,3.3-1.1,6.6-1.6,10
			c-4.1,28.1-6.4,62.3-3.5,91c2.9,28.7,69.9,171,69.9,171h38.3C719.7,626.8,722.8,573.3,714.6,551.5z"/>
		<path id="texture" class="st9" d="M658.8,352.9c-0.1-0.1-0.2-0.2-0.3-0.1l0,0c-0.1,0.1-0.2,0.2-0.1,0.3c0.1,0.1,0.2,0.2,0.3,0.1
			l0,0C658.8,353.2,658.9,353.1,658.8,352.9z M656.6,347.5c0-0.1-0.2-0.2-0.3-0.1l0,0c-0.1,0-0.2,0.2-0.1,0.3
			c0.1,0.1,0.2,0.2,0.3,0.1C656.6,347.7,656.6,347.6,656.6,347.5L656.6,347.5z M654.3,342c0-0.1-0.2-0.2-0.3-0.2s-0.2,0.2-0.2,0.3
			l0,0c0.1,0.1,0.2,0.2,0.3,0.1l0,0C654.3,342.2,654.4,342.1,654.3,342L654.3,342z M652.1,336.5c-0.1-0.1-0.2-0.2-0.3-0.1l0,0
			c-0.1,0.1-0.2,0.2-0.1,0.3c0.1,0.1,0.2,0.2,0.3,0.1l0,0C652.1,336.8,652.1,336.6,652.1,336.5L652.1,336.5z M634,352.9
			c-0.1,0-0.3,0-0.3,0.1c-0.1,0.1,0,0.2,0.1,0.3l0,0c0.1,0,0.3,0,0.3-0.1l0,0C634.2,353.1,634.1,352.9,634,352.9L634,352.9z
			 M667.2,343.3c-0.1-0.1-0.2-0.1-0.3,0l0,0c-0.1,0.1-0.1,0.2,0,0.3l0,0c0.1,0.1,0.2,0.1,0.3,0l0,0
			C667.3,343.5,667.3,343.4,667.2,343.3L667.2,343.3L667.2,343.3z M663,339.1c-0.1-0.1-0.2-0.1-0.3,0l-0.1,0.1c0,0.1,0,0.2,0.1,0.2
			l0,0l0,0c0.1,0.1,0.2,0,0.3,0C663.1,339.4,663.1,339.2,663,339.1L663,339.1L663,339.1z M646.3,352.2c-0.1,0-0.3,0.1-0.3,0.3
			c0,0.1,0.1,0.2,0.2,0.3c0.1,0,0.3-0.1,0.3-0.3C646.6,352.3,646.5,352.2,646.3,352.2z M646.3,346.2c-0.1,0-0.2,0.1-0.3,0.3
			c0,0.1,0.1,0.2,0.2,0.2l0,0c0.1,0,0.2-0.1,0.2-0.2C646.5,346.4,646.4,346.2,646.3,346.2L646.3,346.2z M682.3,346.6
			c-0.2-0.2-0.5-0.1-0.6,0l0,0c-0.2,0.2-0.2,0.5,0,0.7l0,0c0.2,0.2,0.5,0.2,0.6,0l0,0C682.5,347.1,682.5,346.8,682.3,346.6
			L682.3,346.6z M673.9,339.3c-0.2-0.2-0.5-0.1-0.7,0c-0.2,0.2-0.1,0.5,0,0.7c0.2,0.2,0.5,0.1,0.7,0
			C674.1,339.7,674.1,339.4,673.9,339.3z M656.8,382.5c-0.3,0-0.4,0.2-0.4,0.5c0,0.2,0.2,0.4,0.5,0.4l0,0c0.3,0,0.4-0.2,0.4-0.5
			C657.2,382.7,657,382.5,656.8,382.5L656.8,382.5z M656,371.3c-0.3,0-0.4,0.2-0.4,0.5s0.2,0.5,0.5,0.4c0.3,0,0.4-0.2,0.4-0.5l0,0
			C656.5,371.4,656.2,371.3,656,371.3z M655.2,360c-0.3,0-0.4,0.3-0.4,0.5s0.2,0.4,0.5,0.4l0,0c0.3,0,0.4-0.2,0.4-0.5l0,0
			C655.7,360.2,655.5,360,655.2,360L655.2,360z M654.4,348.8c-0.3,0-0.4,0.2-0.4,0.5c0,0.3,0.2,0.4,0.5,0.4s0.4-0.2,0.4-0.5
			C654.9,349,654.7,348.8,654.4,348.8C654.5,348.8,654.4,348.8,654.4,348.8z M653.7,337.6c-0.3,0-0.4,0.2-0.4,0.5l0,0
			c0,0.3,0.2,0.4,0.5,0.4c0.3,0,0.4-0.2,0.4-0.5l0,0C654.2,337.8,653.9,337.6,653.7,337.6L653.7,337.6z M678.6,371.3
			c-0.1-0.2-0.4-0.3-0.6-0.2l0,0c-0.2,0.1-0.3,0.4-0.2,0.6l0,0c0.1,0.2,0.4,0.3,0.6,0.2l0,0C678.7,371.8,678.7,371.5,678.6,371.3
			L678.6,371.3z M673.7,361.2c-0.1-0.2-0.4-0.3-0.6-0.2l0,0c-0.2,0.1-0.3,0.4-0.2,0.6l0,0c0.1,0.2,0.4,0.3,0.6,0.2l0,0
			C673.7,361.7,673.8,361.4,673.7,361.2L673.7,361.2z M668.7,351.1c-0.1-0.2-0.4-0.3-0.6-0.2c-0.2,0.1-0.3,0.4-0.2,0.6
			s0.4,0.3,0.6,0.2S668.8,351.4,668.7,351.1L668.7,351.1z M663.7,341.1c-0.1-0.2-0.4-0.3-0.6-0.2c-0.2,0.1-0.3,0.4-0.2,0.6
			s0.4,0.3,0.6,0.2l0,0C663.8,341.6,663.9,341.3,663.7,341.1C663.8,341.1,663.8,341.1,663.7,341.1L663.7,341.1z M635.9,374.5
			c-0.2-0.1-0.5,0-0.6,0.3l0,0c-0.1,0.2,0,0.5,0.3,0.6l0,0c0.2,0.1,0.5,0,0.6-0.3C636.2,374.8,636.1,374.6,635.9,374.5L635.9,374.5z
			 M639.4,363.8c-0.2-0.1-0.5,0-0.6,0.3l0,0c-0.1,0.2,0,0.5,0.3,0.6c0.2,0.1,0.5-0.1,0.6-0.3C639.8,364.1,639.7,363.9,639.4,363.8
			L639.4,363.8L639.4,363.8z M643,353.1c-0.2-0.1-0.5,0-0.6,0.3c-0.1,0.2,0,0.5,0.3,0.6l0,0c0.2,0.1,0.5,0,0.6-0.3l0,0
			C643.3,353.5,643.2,353.2,643,353.1L643,353.1z M646.5,342.4c-0.2-0.1-0.5,0.1-0.6,0.3c-0.1,0.2,0,0.5,0.3,0.6l0,0
			c0.2,0.1,0.5,0,0.6-0.3C646.9,342.8,646.7,342.5,646.5,342.4L646.5,342.4z M682.9,357.6c-0.1-0.2-0.4-0.3-0.6-0.1
			c-0.2,0.1-0.3,0.4-0.1,0.6c0.1,0.2,0.4,0.2,0.6,0.1C683,358,683.1,357.8,682.9,357.6L682.9,357.6z M677.7,349.1
			c0-0.1-0.1-0.1-0.2-0.2l0,0c-0.1-0.1-0.3,0-0.4,0c-0.2,0.1-0.3,0.4-0.1,0.6c0.1,0.2,0.4,0.2,0.6,0.1c0.1-0.1,0.2-0.1,0.2-0.2
			C677.8,349.3,677.8,349.2,677.7,349.1L677.7,349.1z M672.4,340.6c-0.1-0.2-0.4-0.2-0.6-0.1c-0.2,0.1-0.2,0.4-0.1,0.6
			c0.1,0.2,0.4,0.2,0.6,0.1C672.5,341,672.6,340.7,672.4,340.6L672.4,340.6z M646.7,373c-0.2-0.1-0.4,0.1-0.5,0.3l0,0
			c-0.1,0.2,0.1,0.4,0.3,0.5l0,0c0.2,0.1,0.5-0.1,0.5-0.3C647,373.2,646.9,373,646.7,373L646.7,373L646.7,373z M648.9,363.2
			c-0.2-0.1-0.4,0.1-0.5,0.3l0,0c-0.1,0.2,0.1,0.4,0.3,0.5l0,0c0.2,0.1,0.4-0.1,0.5-0.3C649.3,363.4,649.1,363.2,648.9,363.2
			L648.9,363.2z M651.2,353.4c-0.2-0.1-0.4,0.1-0.5,0.3l0,0c-0.1,0.2,0.1,0.4,0.3,0.5l0,0c0.2,0.1,0.4-0.1,0.5-0.3l0,0
			C651.5,353.6,651.4,353.4,651.2,353.4L651.2,353.4z M653.4,343.6c-0.2,0-0.4,0.1-0.5,0.3c-0.1,0.2,0.1,0.4,0.3,0.5
			c0.2,0.1,0.4-0.1,0.5-0.3C653.8,343.9,653.6,343.6,653.4,343.6L653.4,343.6z M667.8,368.5c-0.2,0.1-0.4,0.3-0.3,0.5
			c0,0.2,0.2,0.4,0.5,0.3l0,0c0.2,0,0.4-0.2,0.3-0.5C668.3,368.6,668.1,368.4,667.8,368.5z M666.2,358.6c-0.2,0.1-0.4,0.3-0.3,0.5
			c0,0.2,0.2,0.4,0.5,0.3l0,0c0.2,0,0.4-0.2,0.3-0.5l0,0C666.6,358.7,666.4,358.5,666.2,358.6L666.2,358.6z M664.6,348.7
			c-0.2,0-0.4,0.2-0.3,0.5l0,0c0,0.2,0.2,0.4,0.5,0.3l0,0c0.2,0,0.4-0.3,0.3-0.5C665,348.8,664.8,348.6,664.6,348.7L664.6,348.7
			L664.6,348.7z M663,338.8c-0.2,0-0.4,0.2-0.3,0.5c0,0.1,0.1,0.2,0.1,0.2l0,0c0.1,0.1,0.2,0.1,0.4,0.1s0.4-0.3,0.3-0.5
			C663.4,338.9,663.2,338.7,663,338.8L663,338.8L663,338.8z M631,360.3c-0.2-0.1-0.4-0.1-0.6,0.1c-0.1,0.2-0.1,0.4,0.1,0.6l0,0
			c0.2,0.1,0.4,0.1,0.5-0.1l0,0C631.2,360.7,631.2,360.4,631,360.3L631,360.3L631,360.3z M636.8,352.1c-0.2-0.1-0.4-0.1-0.6,0.1
			c-0.1,0.2-0.1,0.4,0.1,0.6c0.2,0.1,0.4,0.1,0.6-0.1l0,0C637,352.5,637,352.2,636.8,352.1L636.8,352.1L636.8,352.1z M683.5,337.1
			c-0.1-0.1-0.2-0.1-0.3,0c-0.1,0.1-0.1,0.2,0,0.4c0.1,0.1,0.2,0.1,0.3,0S683.6,337.2,683.5,337.1L683.5,337.1z M664.2,350.1
			c-0.1,0-0.2,0.1-0.3,0.2c0,0.1,0.1,0.2,0.2,0.3c0.1,0,0.2-0.1,0.3-0.2l0,0C664.4,350.3,664.3,350.1,664.2,350.1L664.2,350.1z
			 M664.4,344.2c-0.1,0-0.2,0.1-0.2,0.2l0,0c0,0.1,0.1,0.2,0.2,0.3l0,0c0.1,0,0.3-0.1,0.3-0.2C664.6,344.3,664.5,344.2,664.4,344.2
			L664.4,344.2L664.4,344.2z M664.6,338.3c-0.1,0-0.2,0.1-0.2,0.2l0,0c0,0.1,0.1,0.2,0.2,0.2c0.1,0,0.2-0.1,0.2-0.2
			C664.8,338.4,664.7,338.3,664.6,338.3z M675.9,345.1c0-0.1-0.2-0.2-0.3-0.2l0,0c-0.1,0-0.2,0.2-0.1,0.3l0,0
			c0.1,0.1,0.2,0.2,0.3,0.1C675.9,345.4,676,345.3,675.9,345.1L675.9,345.1z M673.9,339.6c0-0.1-0.2-0.2-0.3-0.1l0,0
			c-0.1,0.1-0.2,0.2-0.1,0.3c0.1,0.1,0.2,0.2,0.3,0.1C673.9,339.9,673.9,339.7,673.9,339.6L673.9,339.6L673.9,339.6z M653.4,344.4
			c-0.1-0.1-0.2,0-0.3,0.1l0,0c-0.1,0.1,0,0.3,0.1,0.3l0,0c0.1,0.1,0.3,0,0.3-0.1l0,0C653.5,344.6,653.5,344.5,653.4,344.4
			L653.4,344.4z M655.8,339c-0.1-0.1-0.2,0-0.3,0.1l0,0c-0.1,0.1,0,0.3,0.1,0.3c0.1,0.1,0.3,0,0.3-0.1
			C656,339.2,655.9,339.1,655.8,339L655.8,339L655.8,339z M663.8,352.2c-0.2,0-0.3,0.1-0.3,0.2s0.1,0.3,0.2,0.3s0.3,0,0.3-0.2l0,0
			C664,352.4,664,352.2,663.8,352.2L663.8,352.2L663.8,352.2z M665.3,345.6c-0.2,0-0.3,0.1-0.3,0.2c0,0.1,0.1,0.3,0.2,0.3
			c0.2,0,0.3-0.1,0.3-0.2l0,0C665.5,345.8,665.4,345.6,665.3,345.6L665.3,345.6z M666.7,339c-0.2,0-0.3,0.1-0.3,0.2
			c0,0.1,0.1,0.3,0.2,0.3s0.3,0,0.3-0.2l0,0C666.9,339.1,666.8,339,666.7,339L666.7,339z M677.8,349.1c0-0.1-0.2-0.3-0.3-0.2l0,0
			l0,0c-0.1,0-0.2,0.2-0.2,0.3s0.2,0.3,0.3,0.2l0,0c0,0,0.1,0,0.1-0.1C677.8,349.4,677.9,349.2,677.8,349.1L677.8,349.1z
			 M676.4,342.2c-0.2,0-0.2,0.2-0.2,0.3s0.2,0.2,0.3,0.2s0.2-0.2,0.2-0.3l0,0C676.6,342.3,676.5,342.2,676.4,342.2L676.4,342.2z
			 M652.7,343.6c-0.1-0.1-0.3-0.1-0.4,0.1l0,0c-0.1,0.1-0.1,0.3,0.1,0.4c0.1,0.1,0.3,0.1,0.4-0.1
			C652.8,343.9,652.8,343.7,652.7,343.6L652.7,343.6z M656.5,338.1c-0.1-0.1-0.3-0.1-0.4,0.1c-0.1,0.1-0.1,0.3,0.1,0.4l0,0
			c0.1,0.1,0.3,0.1,0.4,0l0,0C656.7,338.3,656.6,338.2,656.5,338.1L656.5,338.1z M684.2,354c-0.3,0-0.4,0.3-0.4,0.5s0.3,0.4,0.5,0.4
			l0,0c0.3,0,0.4-0.3,0.4-0.5S684.4,354,684.2,354L684.2,354L684.2,354z M682.4,342.6c-0.3,0-0.4,0.3-0.4,0.6s0.3,0.4,0.5,0.4
			c0.3,0,0.4-0.3,0.4-0.6S682.7,342.5,682.4,342.6L682.4,342.6L682.4,342.6z M641.1,365.6c-0.2-0.2-0.5-0.1-0.7,0.1l0,0
			c-0.2,0.2-0.1,0.5,0.1,0.7l0,0c0.2,0.2,0.5,0.1,0.7-0.1S641.3,365.8,641.1,365.6L641.1,365.6L641.1,365.6z M647.9,356.3
			c-0.2-0.2-0.5-0.1-0.7,0.1l0,0c-0.2,0.2-0.1,0.5,0.1,0.7s0.5,0.1,0.7-0.1l0,0C648.1,356.7,648.1,356.4,647.9,356.3L647.9,356.3z
			 M654.6,346.9c-0.2-0.2-0.5-0.1-0.7,0.1l0,0c-0.2,0.2-0.1,0.5,0.1,0.7c0.2,0.2,0.5,0.1,0.7-0.1C654.9,347.3,654.9,347,654.6,346.9
			L654.6,346.9z M661.4,337.5c-0.2-0.2-0.5-0.1-0.7,0.1l0,0c-0.1,0.2-0.1,0.5,0.1,0.7c0.2,0.2,0.5,0.1,0.7-0.1
			S661.6,337.7,661.4,337.5L661.4,337.5L661.4,337.5z M665.3,370.9c-0.3-0.1-0.5,0.1-0.6,0.3l0,0c-0.1,0.3,0.1,0.5,0.3,0.6
			c0.3,0,0.5-0.1,0.6-0.4C665.8,371.2,665.6,370.9,665.3,370.9L665.3,370.9z M668.1,359.6c-0.2-0.1-0.5,0.1-0.6,0.3l0,0
			c-0.1,0.2,0.1,0.5,0.3,0.6c0.3,0.1,0.5-0.1,0.6-0.4l0,0C668.5,359.9,668.3,359.7,668.1,359.6L668.1,359.6L668.1,359.6z
			 M670.8,348.3c-0.3-0.1-0.5,0.1-0.6,0.4c-0.1,0.3,0.1,0.5,0.4,0.6c0.3,0.1,0.5-0.1,0.6-0.3l0,0C671.2,348.6,671,348.4,670.8,348.3
			L670.8,348.3z M672.3,374.6c-0.3-0.1-0.5,0.1-0.6,0.4c-0.1,0.3,0.1,0.5,0.4,0.6s0.5-0.1,0.6-0.4l0,0
			C672.7,374.9,672.5,374.7,672.3,374.6L672.3,374.6L672.3,374.6z M674.5,363.3c-0.3,0-0.5,0.1-0.6,0.4c0,0.3,0.1,0.5,0.4,0.6
			s0.5-0.1,0.6-0.4C674.9,363.6,674.8,363.3,674.5,363.3L674.5,363.3z M676.7,351.9c-0.3,0-0.5,0.1-0.6,0.4c0,0.3,0.1,0.5,0.4,0.5
			c0.3,0.1,0.5-0.1,0.6-0.4C677.2,352.2,677,352,676.7,351.9L676.7,351.9z M679,340.6c-0.3-0.1-0.5,0.1-0.5,0.4l0,0
			c0,0.3,0.1,0.5,0.4,0.6c0.2,0.1,0.5-0.1,0.5-0.3l0,0C679.4,340.9,679.2,340.6,679,340.6L679,340.6L679,340.6z M651.6,335
			c-0.1-0.2-0.4-0.3-0.6-0.1l0,0c-0.2,0.1-0.3,0.4-0.1,0.7c0.1,0.2,0.4,0.3,0.7,0.1C651.7,335.5,651.7,335.2,651.6,335L651.6,335z
			 M653.3,360.2c-0.2-0.1-0.5-0.1-0.6,0.1l0,0c-0.1,0.2-0.1,0.5,0.1,0.7c0.2,0.1,0.5,0.1,0.7-0.1
			C653.5,360.7,653.5,360.4,653.3,360.2L653.3,360.2z M659.6,350.6c-0.2-0.1-0.5-0.1-0.6,0.1l0,0c-0.1,0.2-0.1,0.5,0.1,0.7
			c0.2,0.1,0.5,0.1,0.7-0.1C659.9,351.1,659.8,350.8,659.6,350.6L659.6,350.6L659.6,350.6z M666,341c-0.2-0.1-0.5-0.1-0.7,0.2
			c-0.1,0.2-0.1,0.5,0.1,0.6c0.2,0.1,0.5,0.1,0.7-0.1C666.2,341.4,666.2,341.1,666,341L666,341z M672.2,354.8
			c-0.2-0.1-0.4,0-0.5,0.2l0,0c-0.1,0.2,0,0.4,0.2,0.5s0.4,0,0.5-0.2l0,0C672.5,355,672.4,354.8,672.2,354.8L672.2,354.8z
			 M675.6,346.7c-0.2-0.1-0.4,0-0.5,0.2l0,0c-0.1,0.2,0,0.4,0.2,0.5c0.2,0.1,0.4,0,0.5-0.2C675.9,347,675.8,346.8,675.6,346.7
			L675.6,346.7z M679.1,338.7c-0.2-0.1-0.4,0-0.5,0.2c-0.1,0.2,0,0.4,0.2,0.5c0.2,0.1,0.4,0,0.5-0.2
			C679.3,339,679.2,338.8,679.1,338.7L679.1,338.7z M660.2,341.2c-0.1-0.1-0.3-0.2-0.5,0l0,0c-0.1,0.1-0.2,0.4,0,0.5l0,0
			c0.1,0.1,0.3,0.1,0.5,0l0,0C660.3,341.6,660.3,341.4,660.2,341.2L660.2,341.2L660.2,341.2z"/>
		
			<linearGradient id="R_sleeve_1_" gradientUnits="userSpaceOnUse" x1="518.8512" y1="226.05" x2="590.4927" y2="226.05" gradientTransform="matrix(1 0 0 -1 0 470)">
			<stop  offset="0" style="stop-color:#23286B"/>
			<stop  offset="0.5597" style="stop-color:#1B205B"/>
			<stop  offset="1" style="stop-color:#151A4F"/>
		</linearGradient>
		<path id="R_sleeve" class="st10" d="M627.5,191.5c0,0,15.1,36.6-49.6,81.5c0,0,23.1,36.3,40.9,37c0,0,47.1-33.4,24.7-132.1l0,0
			L627.5,191.5z"/>
		
			<linearGradient id="sweater_1_" gradientUnits="userSpaceOnUse" x1="607.4178" y1="252.2556" x2="696.3728" y2="127.6016" gradientTransform="matrix(1 0 0 -1 0 470)">
			<stop  offset="0" style="stop-color:#23286B"/>
			<stop  offset="1" style="stop-color:#151A4F"/>
		</linearGradient>
		<path id="sweater" class="st11" d="M627.5,191.5c0,0,2.7,82.1-22.4,121.1c0,0,57.6,42.2,99.8,17.1c0,0-12.9-115-59.8-151.9l0,0
			C645.1,177.8,628.9,189.1,627.5,191.5z"/>
		<path id="L_sleeve_1_" class="st12" d="M649,175.2c0,0,85.1,48.9,85.1,164.2c0,0-34.1,4.9-64.1-13.8c0,0-16-109-42.5-134.1
			L649,175.2z"/>
		
			<linearGradient id="handle_1_" gradientUnits="userSpaceOnUse" x1="670.8331" y1="61.392" x2="675.9666" y2="27.4753" gradientTransform="matrix(1 0 0 -1 0 470)">
			<stop  offset="0.1291" style="stop-color:#428DFC"/>
			<stop  offset="0.9987" style="stop-color:#1D72D8"/>
		</linearGradient>
		<path id="handle" class="st13" d="M648.7,431.3c1.2-14.6,15.6-23.3,29.4-20c13.1,3.1,21,14.9,23,27.6c0.3,1.8,3.1,1.1,2.8-0.8
			c-2.4-15.2-13.1-28.6-29.1-30.3c-14.6-1.6-27.8,8.7-29.1,23.5C645.6,433.2,648.5,433.2,648.7,431.3L648.7,431.3z"/>
		
			<linearGradient id="L_hand_2_" gradientUnits="userSpaceOnUse" x1="688.4708" y1="58.0135" x2="688.4708" y2="148.9189" gradientTransform="matrix(1 0 0 -1 0 470)">
			<stop  offset="0" style="stop-color:#FFBEB6"/>
			<stop  offset="1" style="stop-color:#F2A19C"/>
		</linearGradient>
		<path id="L_hand_1_" class="st14" d="M699.7,376.5c-12.1,25.5-6.7,26.7-4.7,37.6s-1.9,12.9-20.3,11.8
			c-18.5-1.1-11.4-20.7-11.4-20.7s-1.8,2.9-3.6-0.8c-1.8-3.6-0.7-14.6,13.5-23.7c12.8-8.2,12.3-41.3,12.1-47.7
			c10.5,3.9,21.5,6.2,32.6,6.7C715.1,345,708.7,357.5,699.7,376.5z"/>
		
			<linearGradient id="case_1_" gradientUnits="userSpaceOnUse" x1="656.7175" y1="66.7149" x2="691.5142" y2="-163.1914" gradientTransform="matrix(1 0 0 -1 0 470)">
			<stop  offset="0.1291" style="stop-color:#428DFC"/>
			<stop  offset="0.9987" style="stop-color:#1D72D8"/>
		</linearGradient>
		<polygon id="case" class="st15" points="596.3,424.6 753.2,440.3 742.3,549 585.5,533.2 		"/>
		<path id="texture-2_1_" class="st9" d="M734,456.7c-0.1-0.1-0.2-0.2-0.3-0.1l0,0c-0.1,0.1-0.2,0.2-0.1,0.3
			c0.1,0.1,0.2,0.2,0.3,0.1l0,0C734,456.9,734.1,456.8,734,456.7z M731.6,450.9c0-0.1-0.2-0.2-0.3-0.1l0,0c-0.1,0.1-0.2,0.2-0.2,0.3
			c0.1,0.1,0.2,0.2,0.3,0.1C731.6,451.2,731.7,451,731.6,450.9L731.6,450.9z M729.3,445.2c0-0.1-0.2-0.2-0.3-0.2s-0.2,0.2-0.2,0.3
			l0,0c0.1,0.1,0.2,0.2,0.3,0.1l0,0C729.3,445.4,729.3,445.3,729.3,445.2L729.3,445.2z M726.9,439.4c-0.1-0.1-0.2-0.2-0.3-0.1l0,0
			c-0.1,0.1-0.2,0.2-0.1,0.4c0.1,0.1,0.2,0.2,0.3,0.1l0,0C726.9,439.7,727,439.5,726.9,439.4L726.9,439.4z M707.9,456.6
			c-0.1,0-0.3,0-0.3,0.2c-0.1,0.1,0,0.3,0.1,0.3l0,0c0.1,0.1,0.3,0,0.3-0.1l0,0C708.1,456.8,708,456.7,707.9,456.6L707.9,456.6z
			 M742.8,446.5c-0.1-0.1-0.2-0.1-0.3,0l0,0c-0.1,0.1-0.1,0.2,0,0.3l0,0c0.1,0.1,0.2,0.1,0.3,0l0,0
			C742.9,446.8,742.9,446.6,742.8,446.5L742.8,446.5L742.8,446.5z M738.4,442.1c-0.1-0.1-0.3-0.1-0.3,0l-0.1,0.1
			c0,0.1,0,0.2,0.1,0.2l0,0l0,0c0.1,0.1,0.2,0,0.3,0C738.5,442.4,738.5,442.2,738.4,442.1L738.4,442.1L738.4,442.1z M734,437.8
			c-0.1-0.1-0.2-0.1-0.3,0l0,0c-0.1,0.1-0.1,0.2,0,0.3l0,0c0.1,0.1,0.2,0.1,0.3,0l0,0C734.1,438,734.1,437.9,734,437.8L734,437.8
			L734,437.8z M720.9,455.9c-0.1,0-0.3,0.1-0.3,0.3c0,0.1,0.1,0.3,0.3,0.3c0.1,0,0.3-0.1,0.3-0.3C721.1,456,721,455.9,720.9,455.9z
			 M720.9,449.6c-0.1,0-0.3,0.1-0.3,0.3c0,0.1,0.1,0.2,0.2,0.2l0,0c0.1,0,0.3-0.1,0.3-0.2C721.1,449.7,721,449.6,720.9,449.6
			L720.9,449.6z M749.8,442.3c-0.2-0.2-0.5-0.2-0.7,0s-0.2,0.5,0,0.7s0.5,0.2,0.7,0S750,442.5,749.8,442.3z M731.8,487.7
			c-0.3,0-0.5,0.3-0.5,0.5c0,0.3,0.2,0.5,0.5,0.4l0,0c0.3,0,0.5-0.3,0.5-0.5S732.1,487.7,731.8,487.7L731.8,487.7L731.8,487.7z
			 M731,475.9c-0.3,0-0.5,0.3-0.4,0.5c0,0.3,0.2,0.5,0.5,0.5s0.5-0.2,0.5-0.5l0,0C731.5,476.1,731.3,475.9,731,475.9L731,475.9z
			 M730.2,464.1c-0.3,0-0.5,0.3-0.5,0.5c0,0.3,0.2,0.5,0.5,0.4l0,0c0.3,0,0.5-0.2,0.5-0.5l0,0C730.7,464.3,730.5,464.1,730.2,464.1
			L730.2,464.1z M729.4,452.3c-0.3,0-0.5,0.3-0.4,0.5c0,0.3,0.3,0.5,0.5,0.4c0.3,0,0.5-0.3,0.4-0.5
			C729.9,452.5,729.7,452.3,729.4,452.3L729.4,452.3z M728.6,440.5c-0.3,0-0.5,0.3-0.4,0.5l0,0c0,0.3,0.2,0.5,0.5,0.5
			s0.5-0.2,0.5-0.5l0,0C729.1,440.7,728.9,440.5,728.6,440.5L728.6,440.5z M749.6,465.3c-0.1-0.2-0.4-0.3-0.6-0.2l0,0
			c-0.2,0.1-0.3,0.4-0.2,0.7l0,0c0.1,0.2,0.4,0.3,0.6,0.2l0,0C749.6,465.9,749.7,465.6,749.6,465.3L749.6,465.3z M744.4,454.8
			c-0.1-0.2-0.4-0.3-0.7-0.2c-0.2,0.1-0.3,0.4-0.2,0.7c0.1,0.2,0.4,0.3,0.6,0.2C744.4,455.3,744.5,455,744.4,454.8L744.4,454.8z
			 M739.2,444.2c-0.1-0.2-0.4-0.3-0.6-0.2c-0.2,0.1-0.3,0.4-0.2,0.7c0.1,0.2,0.4,0.3,0.6,0.2l0,0
			C739.2,444.7,739.3,444.5,739.2,444.2L739.2,444.2L739.2,444.2z M709.9,479.3c-0.2-0.1-0.5,0-0.6,0.3l0,0c-0.1,0.2,0,0.5,0.3,0.6
			l0,0c0.3,0.1,0.5-0.1,0.6-0.3C710.3,479.6,710.1,479.4,709.9,479.3L709.9,479.3z M713.6,468.1c-0.3-0.1-0.5,0-0.6,0.3l0,0
			c-0.1,0.3,0,0.5,0.3,0.6s0.5-0.1,0.6-0.3C714,468.4,713.9,468.1,713.6,468.1L713.6,468.1L713.6,468.1z M717.3,456.8
			c-0.3-0.1-0.5,0.1-0.6,0.3c-0.1,0.3,0,0.5,0.3,0.6l0,0c0.2,0.1,0.5,0,0.6-0.3l0,0C717.7,457.2,717.6,456.9,717.3,456.8
			L717.3,456.8z M721.1,445.6c-0.3-0.1-0.5,0.1-0.6,0.3c-0.1,0.2,0,0.5,0.3,0.6l0,0c0.3,0.1,0.5-0.1,0.6-0.3
			C721.5,446,721.3,445.7,721.1,445.6L721.1,445.6z M748.3,443.7c-0.1-0.2-0.4-0.3-0.6-0.1c-0.2,0.1-0.3,0.4-0.1,0.6
			c0.1,0.2,0.4,0.3,0.6,0.1C748.4,444.1,748.4,443.9,748.3,443.7L748.3,443.7z M721.2,477.7c-0.2-0.1-0.5,0.1-0.5,0.3l0,0
			c-0.1,0.2,0.1,0.5,0.3,0.5l0,0c0.2,0.1,0.5-0.1,0.5-0.3C721.6,478,721.5,477.7,721.2,477.7L721.2,477.7z M723.6,467.4
			c-0.2-0.1-0.5,0.1-0.5,0.3l0,0c-0.1,0.2,0.1,0.5,0.3,0.5l0,0c0.2,0.1,0.5-0.1,0.5-0.3C724,467.7,723.8,467.5,723.6,467.4
			L723.6,467.4z M726,457.1c-0.2-0.1-0.5,0.1-0.5,0.3l0,0c-0.1,0.2,0.1,0.4,0.3,0.5l0,0c0.2,0.1,0.5-0.1,0.5-0.3l0,0
			C726.3,457.4,726.2,457.2,726,457.1L726,457.1z M728.3,446.8c-0.2,0-0.5,0.1-0.5,0.3c-0.1,0.2,0.1,0.5,0.3,0.5
			c0.2,0.1,0.5-0.1,0.5-0.3C728.7,447.1,728.5,446.9,728.3,446.8L728.3,446.8z M743.4,473c-0.2,0.1-0.4,0.3-0.4,0.5s0.3,0.4,0.5,0.4
			l0,0c0.2,0,0.4-0.3,0.4-0.5C743.9,473.1,743.7,472.9,743.4,473z M741.7,462.6c-0.2,0.1-0.4,0.3-0.4,0.5s0.3,0.4,0.5,0.4l0,0
			c0.2,0,0.4-0.2,0.4-0.5l0,0C742.2,462.7,742,462.5,741.7,462.6z M740,452.2c-0.2,0-0.4,0.2-0.4,0.5l0,0c0,0.2,0.3,0.4,0.5,0.4l0,0
			c0.2,0,0.4-0.3,0.3-0.5C740.5,452.3,740.3,452.2,740,452.2C740.1,452.2,740,452.2,740,452.2z M738.3,441.8c-0.2,0-0.4,0.3-0.4,0.5
			c0,0.1,0.1,0.2,0.1,0.2l0,0c0.1,0.1,0.2,0.1,0.4,0.1s0.4-0.3,0.3-0.5C738.8,441.9,738.6,441.8,738.3,441.8L738.3,441.8
			L738.3,441.8z M704.8,464.4c-0.2-0.1-0.5-0.1-0.6,0.1c-0.1,0.2-0.1,0.5,0.1,0.6l0,0c0.2,0.1,0.4,0.1,0.6-0.1l0,0
			C705,464.8,705,464.5,704.8,464.4L704.8,464.4L704.8,464.4z M710.9,455.8c-0.2-0.1-0.5-0.1-0.6,0.1s-0.1,0.5,0.1,0.6
			c0.2,0.1,0.5,0.1,0.6-0.1l0,0C711.1,456.2,711.1,455.9,710.9,455.8L710.9,455.8L710.9,455.8z M739.6,453.7c-0.1,0-0.3,0.1-0.3,0.2
			s0.1,0.3,0.2,0.3c0.1,0,0.3-0.1,0.3-0.2l0,0C739.9,453.8,739.8,453.7,739.6,453.7L739.6,453.7z M739.8,447.5
			c-0.1,0-0.3,0.1-0.3,0.2l0,0c0,0.1,0.1,0.3,0.2,0.3l0,0c0.1,0,0.3-0.1,0.3-0.2C740.1,447.6,740,447.5,739.8,447.5L739.8,447.5
			L739.8,447.5z M740.1,441.3c-0.1,0-0.3,0.1-0.3,0.2l0,0c0,0.1,0.1,0.3,0.2,0.3c0.1,0,0.3-0.1,0.3-0.2
			C740.3,441.4,740.2,441.3,740.1,441.3z M752,448.5c0-0.1-0.2-0.2-0.3-0.2l0,0c-0.1,0-0.2,0.2-0.2,0.3l0,0c0.1,0.1,0.2,0.2,0.3,0.2
			C751.9,448.8,752,448.6,752,448.5L752,448.5z M749.8,442.6c0-0.1-0.2-0.2-0.3-0.1l0,0c-0.1,0.1-0.2,0.2-0.2,0.3
			c0.1,0.1,0.2,0.2,0.3,0.2C749.8,442.9,749.9,442.8,749.8,442.6L749.8,442.6L749.8,442.6z M728.3,447.7c-0.1-0.1-0.3,0-0.3,0.1l0,0
			c-0.1,0.1,0,0.3,0.1,0.3l0,0c0.1,0.1,0.3,0,0.3-0.1l0,0C728.5,447.9,728.4,447.8,728.3,447.7L728.3,447.7L728.3,447.7z
			 M730.8,442.1c-0.1-0.1-0.3,0-0.3,0.1l0,0c-0.1,0.1,0,0.3,0.1,0.3c0.1,0.1,0.3,0,0.3-0.1C731,442.3,731,442.1,730.8,442.1
			L730.8,442.1L730.8,442.1z M739.2,455.9c-0.2,0-0.3,0.1-0.3,0.2c0,0.2,0.1,0.3,0.2,0.3c0.1,0,0.3,0,0.3-0.2l0,0
			C739.5,456.1,739.4,455.9,739.2,455.9L739.2,455.9L739.2,455.9z M740.7,448.9c-0.2,0-0.3,0.1-0.3,0.2c0,0.2,0.1,0.3,0.2,0.3
			c0.2,0,0.3-0.1,0.4-0.2l0,0C741,449.1,740.9,449,740.7,448.9L740.7,448.9z M742.3,442c-0.2,0-0.3,0.1-0.3,0.2
			c0,0.2,0.1,0.3,0.2,0.3c0.1,0,0.3,0,0.3-0.2l0,0C742.5,442.2,742.4,442,742.3,442L742.3,442z M752.4,445.4c-0.2,0-0.3,0.2-0.2,0.4
			c0,0.2,0.2,0.3,0.4,0.2c0.2,0,0.3-0.2,0.2-0.3l0,0C752.7,445.5,752.6,445.4,752.4,445.4L752.4,445.4z M727.5,446.9
			c-0.1-0.1-0.3-0.1-0.4,0.1l0,0c-0.1,0.1-0.1,0.3,0.1,0.4c0.1,0.1,0.3,0.1,0.4-0.1C727.7,447.2,727.7,447,727.5,446.9z
			 M731.6,441.1c-0.1-0.1-0.3-0.1-0.4,0.1c-0.1,0.1-0.1,0.3,0.1,0.4l0,0c0.1,0.1,0.3,0.1,0.4,0l0,0
			C731.7,441.3,731.7,441.2,731.6,441.1L731.6,441.1z M715.4,470c-0.2-0.2-0.5-0.1-0.7,0.1l0,0c-0.2,0.2-0.1,0.5,0.1,0.7l0,0
			c0.2,0.2,0.5,0.1,0.7-0.1S715.6,470.2,715.4,470L715.4,470L715.4,470z M722.5,460.1c-0.2-0.2-0.5-0.1-0.7,0.1l0,0
			c-0.2,0.2-0.1,0.5,0.1,0.7s0.5,0.1,0.7-0.1l0,0C722.8,460.6,722.7,460.3,722.5,460.1L722.5,460.1z M729.6,450.3
			c-0.2-0.2-0.5-0.1-0.7,0.1l0,0c-0.2,0.2-0.1,0.5,0.1,0.7c0.2,0.2,0.5,0.1,0.7-0.1C729.9,450.8,729.8,450.5,729.6,450.3
			L729.6,450.3z M736.7,440.4c-0.2-0.2-0.5-0.1-0.7,0.1l0,0c-0.2,0.2-0.1,0.5,0.1,0.7c0.2,0.2,0.5,0.1,0.7-0.1
			S737,440.6,736.7,440.4C736.7,440.5,736.7,440.4,736.7,440.4L736.7,440.4z M740.8,475.5c-0.3-0.1-0.5,0.1-0.6,0.4l0,0
			c-0.1,0.3,0.1,0.5,0.4,0.6c0.3,0.1,0.5-0.1,0.6-0.4C741.3,475.8,741.1,475.6,740.8,475.5L740.8,475.5z M743.7,463.6
			c-0.3-0.1-0.5,0.1-0.6,0.3l0,0c-0.1,0.3,0.1,0.5,0.4,0.6c0.3,0.1,0.5-0.1,0.6-0.4l0,0C744.1,464,744,463.7,743.7,463.6
			L743.7,463.6L743.7,463.6z M746.5,451.8c-0.3-0.1-0.5,0.1-0.6,0.4s0.1,0.5,0.4,0.6c0.3,0.1,0.5-0.1,0.6-0.4l0,0
			C747,452.1,746.8,451.9,746.5,451.8L746.5,451.8z M749.4,439.9c-0.3-0.1-0.5,0.1-0.6,0.4s0.1,0.5,0.4,0.6c0.3,0.1,0.5-0.1,0.6-0.4
			C749.8,440.3,749.6,440,749.4,439.9L749.4,439.9z M748.1,479.4c-0.3-0.1-0.5,0.1-0.6,0.4s0.1,0.5,0.4,0.6c0.3,0.1,0.5-0.1,0.6-0.4
			l0,0C748.6,479.7,748.4,479.5,748.1,479.4L748.1,479.4L748.1,479.4z M750.5,467.5c-0.3,0-0.5,0.1-0.6,0.4c0,0.3,0.1,0.5,0.4,0.6
			c0.3,0.1,0.5-0.1,0.6-0.4C750.9,467.8,750.7,467.6,750.5,467.5L750.5,467.5z M726.4,437.8c-0.1-0.2-0.4-0.3-0.7-0.1l0,0
			c-0.2,0.2-0.3,0.5-0.1,0.7c0.1,0.2,0.5,0.3,0.7,0.2C726.5,438.4,726.5,438.1,726.4,437.8L726.4,437.8z M728.1,464.3
			c-0.2-0.1-0.5-0.1-0.7,0.1l0,0c-0.2,0.2-0.1,0.5,0.1,0.7c0.2,0.2,0.5,0.1,0.7-0.1C728.4,464.8,728.4,464.5,728.1,464.3
			C728.2,464.3,728.2,464.3,728.1,464.3L728.1,464.3z M734.8,454.2c-0.2-0.1-0.5-0.1-0.7,0.1l0,0c-0.2,0.2-0.1,0.5,0.1,0.7
			c0.2,0.2,0.5,0.1,0.7-0.1S735.1,454.4,734.8,454.2L734.8,454.2L734.8,454.2z M741.5,444.1c-0.2-0.1-0.5-0.1-0.7,0.2
			c-0.1,0.2-0.1,0.5,0.1,0.7c0.2,0.2,0.5,0.1,0.7-0.1C741.8,444.6,741.7,444.3,741.5,444.1L741.5,444.1z M748.1,458.6
			c-0.2-0.1-0.4,0-0.5,0.2l0,0c-0.1,0.2,0,0.4,0.2,0.5s0.4,0,0.5-0.2l0,0C748.4,458.9,748.3,458.7,748.1,458.6L748.1,458.6z
			 M751.7,450.2c-0.2-0.1-0.4,0-0.5,0.2l0,0c-0.1,0.2,0,0.4,0.2,0.5s0.4,0,0.5-0.2C751.9,450.5,751.9,450.2,751.7,450.2L751.7,450.2
			z M735.4,444.4c-0.1-0.1-0.4-0.2-0.5,0l0,0c-0.2,0.1-0.2,0.4,0,0.5l0,0c0.1,0.1,0.4,0.2,0.5,0l0,0
			C735.6,444.8,735.6,444.5,735.4,444.4L735.4,444.4L735.4,444.4z"/>
		
			<linearGradient id="R_hand_1_" gradientUnits="userSpaceOnUse" x1="515.912" y1="173.0967" x2="471.387" y2="112.8165" gradientTransform="matrix(1 0 0 -1 0 470)">
			<stop  offset="0" style="stop-color:#FFBEB6"/>
			<stop  offset="1" style="stop-color:#F2A19C"/>
		</linearGradient>
		<path id="R_hand" class="st16" d="M490.7,305.9c0,0,18.8,14.2,25.9,12c7.1-2.2,6.2-7.4,0.3-9.6C511,306.1,501.5,297.3,490.7,305.9
			z"/>
		
			<linearGradient id="R_hand-2_1_" gradientUnits="userSpaceOnUse" x1="501.8597" y1="183" x2="591.8" y2="183" gradientTransform="matrix(1 0 0 -1 0 470)">
			<stop  offset="0" style="stop-color:#FFBEB6"/>
			<stop  offset="1" style="stop-color:#F2A19C"/>
		</linearGradient>
		<path id="R_hand-2" class="st17" d="M577.9,273c0,0-32,11.3-42.2,9.8c-10.2-1.5-13.6-1.5-17.9,0.6c-4.3,2.2-13.3,7.4-15.4,7.7
			c-2.2,0.3,2.5,5.9,10.8,2.8c8.3-3.1,19.4-1.5,28.7,7.1c0,0,36.1-9.9,49.9-8.9L577.9,273z"/>
		<path id="hair_1_" class="st18" d="M681.6,177.9c-0.2-3.2-9.5-2.5-19.5-7.2c6,2,12.3,3.1,18.6,3.1c0.2,0,0.4-0.2,0.4-0.5
			c0-0.2-0.2-0.4-0.4-0.4c-8.6-0.1-17.1-2-24.9-5.7c-3.7-2-7.7-3.2-11.8-3.6c5.7-1,14.9-4.8,21.6-18c10.4-20.5-21.7-44-56.6-27.5
			c-0.6,2.6-0.6,5.2,0.1,7.8c0.5,7.6,4.5,14.5,10.8,18.7c3.2,2.1,7.2,3.6,11,2.7c1.2-0.3,2.3-0.8,3.4-1.5c0.7-0.2,1.3-0.6,1.8-1
			c4.3-3.8,11.1-1.8,8.3,6.1c-1.5,4.5-3.4,8.9-5.6,13.1c1.1,21.2,21,32.1,21,32.1C678,193.9,681.8,181.5,681.6,177.9z M621.7,144.6
			c-5.7-3.2-9.8-8.6-11.2-15c1.2,2.2,2.8,4.2,4.8,5.8c6.3,5.4,11.7,9.6,15.9,10.4C628.7,146.8,625.8,146.9,621.7,144.6L621.7,144.6z
			"/>
		<path id="eye" class="st19" d="M610,139.2c-2.3,1.9-5.6,1.5-7.5-0.8c-0.7-0.8-1.1-1.8-1.2-2.9c-0.1-0.8,1.2-1.1,1.2-0.3
			c0.1,2.2,2,4,4.3,3.8c0.8,0,1.7-0.4,2.3-0.9C609.8,137.8,610.6,138.7,610,139.2z"/>
	</g>
	<g id="man">
		
			<linearGradient id="L_shoe-2_1_" gradientUnits="userSpaceOnUse" x1="512.7788" y1="-179.006" x2="335.193" y2="-188.9409" gradientTransform="matrix(1 0 0 -1 0 470)">
			<stop  offset="0.1291" style="stop-color:#428DFC"/>
			<stop  offset="0.9987" style="stop-color:#1D72D8"/>
		</linearGradient>
		<path id="L_shoe-2" class="st20" d="M355.5,632.8l-16,44.6h112.7c0,0-5.8-11.2-25-19.4c-19.3-8.3-37.2-25.2-37.2-25.2L355.5,632.8
			"/>
		<path id="R_shoe-2" class="st21" d="M266.7,632.8l-16,44.6h112.7c0,0-5.8-11.2-25-19.4c-19.3-8.3-37.2-25.2-37.2-25.2L266.7,632.8
			"/>
		
			<linearGradient id="L_trousers-2_1_" gradientUnits="userSpaceOnUse" x1="512.1787" y1="-84.1719" x2="330.8813" y2="9.7852" gradientTransform="matrix(1 0 0 -1 0 470)">
			<stop  offset="0" style="stop-color:#23286B"/>
			<stop  offset="1" style="stop-color:#151A4F"/>
		</linearGradient>
		<path id="L_trousers-2" class="st22" d="M392.1,460.9c-1.9-24.9-8.5-47.6-12.4-70.4c-0.6-3.1-1.3-6.2-1.7-9.4
			c-2-15.1-8.4-64-9.7-70.6l-29.4,3.4l-14.1,2.2l0,0c0,0-10,1.9-17.5,5.9l0,0c-2.9,14.2-3.6,31.9,1.2,52.6
			c13.6,59.7,14.6,51.3,12.6,93.2c-2.1,41.9,4.7,27.7,6.8,71.7s-12.5,36.4,9.5,93.2l52.6,0.2C389.9,632.8,395,498.7,392.1,460.9z"/>
		<path id="R_trousers-2" class="st12" d="M369.1,399.4c0,0,4.9-82.1,7.8-92.4l-88.7,5.2l-4.9,9.4c-0.9-0.2,0.9,0.2,0,0
			c-7.1,26.5-6.2,54.4,2.6,80.4c21.7,65.1,6.8,62-0.2,81.7c-7.1,19.7-10.8,31.7-9.2,50.3c1.6,18.6-21.9,33.2-26.3,57.2
			c-4.3,24.1-1.1,41.7-1.1,41.7l52.1-0.2c0,0,60.2-136.4,63.1-164.8C366.9,442.4,366.9,432.4,369.1,399.4z"/>
		<path id="texture-3_1_" class="st9" d="M295.4,322.3c0.1,0.1,0.2,0.2,0.3,0.1l0,0c0.1-0.1,0.2-0.2,0.1-0.3l0,0
			c-0.1-0.1-0.2-0.2-0.3-0.1l0,0C295.4,322.1,295.4,322.2,295.4,322.3z M301.1,320c0.1,0.1,0.2,0.2,0.3,0.1l0,0
			c0.1-0.1,0.2-0.2,0.1-0.3c-0.1-0.1-0.2-0.2-0.3-0.1l0,0C301.1,319.7,301.1,319.8,301.1,320L301.1,320z M306.8,317.6
			c0,0.1,0.2,0.2,0.3,0.2l0,0c0.1-0.1,0.2-0.2,0.1-0.3c-0.1-0.1-0.2-0.2-0.3-0.1l0,0C306.8,317.3,306.8,317.5,306.8,317.6
			L306.8,317.6z M312.5,315.3c0.1,0.1,0.2,0.2,0.3,0.1l0,0c0.1-0.1,0.2-0.2,0.1-0.3s-0.2-0.2-0.3-0.1
			C312.5,315,312.5,315.1,312.5,315.3z M318.2,312.9c0.1,0.1,0.2,0.2,0.3,0.1l0,0c0.1-0.1,0.2-0.2,0.1-0.3c-0.1-0.1-0.2-0.2-0.3-0.1
			l0,0C318.2,312.6,318.2,312.8,318.2,312.9L318.2,312.9z M313.9,341.1c0.1,0.1,0.3,0,0.3-0.1l0,0c0.1-0.1,0-0.3-0.1-0.3
			c-0.1-0.1-0.3,0-0.3,0.1l0,0C313.7,340.9,313.8,341.1,313.9,341.1L313.9,341.1z M316.2,335.4c0.1,0.1,0.3,0,0.3-0.1s0-0.3-0.2-0.3
			c-0.1-0.1-0.3,0-0.3,0.1l0,0C316.1,335.2,316.1,335.3,316.2,335.4L316.2,335.4z M318.6,329.6c0.1,0.1,0.3,0,0.3-0.1l0,0
			c0.1-0.1,0-0.3-0.1-0.3c-0.1-0.1-0.3,0-0.3,0.1l0,0C318.4,329.4,318.5,329.6,318.6,329.6L318.6,329.6z M321,323.9
			c0.1,0.1,0.3,0,0.3-0.1l0,0c0.1-0.1,0-0.3-0.1-0.4c-0.1-0.1-0.3,0-0.3,0.1l0,0C320.8,323.7,320.9,323.8,321,323.9L321,323.9z
			 M339.7,341.1c0.1,0.1,0.2,0.2,0.3,0.1l0,0c0.1,0,0.2-0.2,0.1-0.3l0,0c0-0.1-0.2-0.2-0.3-0.2C339.7,340.8,339.7,341,339.7,341.1
			L339.7,341.1z M296.1,308.7c0,0.1,0.1,0.3,0.3,0.3c0.1,0,0.2-0.1,0.2-0.3l0,0c0-0.1-0.1-0.3-0.2-0.3
			C296.2,308.4,296.1,308.5,296.1,308.7L296.1,308.7z M302.3,308.7L302.3,308.7c0.1,0.2,0.1,0.2,0.2,0.2s0.2-0.1,0.2-0.3l0,0
			c0-0.1-0.1-0.3-0.2-0.3l0,0c-0.1,0-0.2,0.1-0.2,0.1C302.3,308.6,302.3,308.7,302.3,308.7L302.3,308.7z M308.4,308.7
			c0,0.1,0.1,0.3,0.3,0.2c0.1,0,0.3-0.1,0.3-0.2l0,0c0-0.1-0.1-0.3-0.3-0.3C308.5,308.5,308.4,308.6,308.4,308.7L308.4,308.7z
			 M305,331c0.1,0.1,0.2,0.1,0.3,0l0,0c0.1-0.1,0.1-0.2,0-0.3l0,0c-0.1-0.1-0.2-0.1-0.3,0l0,0C304.9,330.8,304.9,330.9,305,331
			L305,331L305,331z M309.4,326.6c0.1,0.1,0.2,0.1,0.3,0l0,0l0,0c0.1-0.1,0.1-0.1,0.1-0.2c0-0.1,0-0.1-0.1-0.1
			c-0.1-0.1-0.3-0.1-0.3,0C309.3,326.4,309.3,326.5,309.4,326.6L309.4,326.6L309.4,326.6z M313.7,322.2c0.1,0.1,0.3,0.1,0.3,0l0,0
			c0.1-0.1,0.1-0.2,0-0.3l0,0c-0.1-0.1-0.2-0.1-0.3,0l0,0C313.6,322,313.6,322.1,313.7,322.2L313.7,322.2L313.7,322.2z M318.1,317.9
			c0.1,0.1,0.2,0.1,0.3,0l0,0c0.1-0.1,0.1-0.3,0-0.4l0,0c-0.1-0.1-0.3-0.1-0.3,0C318,317.6,318,317.7,318.1,317.9
			C318.1,317.8,318.1,317.8,318.1,317.9L318.1,317.9z M326.6,340.3c0,0.1,0.1,0.3,0.3,0.3c0.1,0,0.3-0.1,0.3-0.3
			c0-0.1-0.1-0.3-0.3-0.3C326.7,340,326.6,340.1,326.6,340.3L326.6,340.3z M326.6,334c0,0.1,0.1,0.3,0.3,0.2c0.1,0,0.3-0.1,0.3-0.2
			l0,0c0-0.1-0.1-0.3-0.3-0.3C326.8,333.8,326.6,333.9,326.6,334L326.6,334z M267.7,304.1C267.7,304.1,267.8,304.2,267.7,304.1
			c0.3,0,0.6-0.1,0.6-0.4l0,0c0-0.3-0.2-0.5-0.5-0.5h-0.1C267.7,303.5,267.7,303.8,267.7,304.1z M279,304.5c0,0.1,0,0.2,0,0.2
			c0.1,0.2,0.2,0.3,0.4,0.3l0,0c0.3,0,0.5-0.2,0.5-0.5s-0.2-0.5-0.4-0.5S279,304.2,279,304.5L279,304.5z M290.7,305.3
			c0,0.3,0.2,0.5,0.5,0.5c0.3,0,0.5-0.2,0.5-0.4l0,0c0-0.3-0.2-0.5-0.5-0.5C290.9,304.9,290.7,305,290.7,305.3L290.7,305.3
			L290.7,305.3z M280.3,342.6c0.2,0.2,0.5,0.2,0.7,0.1l0,0c0.2-0.2,0.2-0.5,0-0.7c-0.2-0.2-0.5-0.2-0.7-0.1l0,0
			C280.1,342.1,280.1,342.4,280.3,342.6L280.3,342.6z M289.1,334.9c0.2,0.2,0.5,0.2,0.7,0.1l0,0c0.2-0.2,0.2-0.5,0.1-0.7l0,0
			c-0.2-0.2-0.5-0.2-0.7-0.1l0,0C288.9,334.4,288.9,334.7,289.1,334.9L289.1,334.9z M297.9,327.1c0.2,0.2,0.5,0.2,0.7,0
			c0.2-0.2,0.2-0.5,0-0.7c-0.2-0.2-0.5-0.2-0.7,0C297.8,326.6,297.7,326.9,297.9,327.1L297.9,327.1L297.9,327.1z M306.7,319.4
			c0.1,0.1,0.3,0.2,0.5,0.1c0.1,0,0.1,0,0.2-0.1s0.1-0.2,0.1-0.2l0,0c0.1-0.3-0.1-0.5-0.4-0.6c-0.2,0-0.3,0-0.4,0.1
			C306.6,318.9,306.5,319.2,306.7,319.4L306.7,319.4z M315.5,311.7c0.2,0.2,0.5,0.2,0.7,0.1l0,0c0.2-0.2,0.2-0.5,0.1-0.7
			c-0.2-0.2-0.5-0.2-0.7-0.1l0,0C315.4,311.1,315.4,311.4,315.5,311.7C315.5,311.6,315.5,311.6,315.5,311.7L315.5,311.7z
			 M315.4,372.3c0,0.3,0.2,0.5,0.5,0.5c0.3,0,0.5-0.2,0.5-0.4l0,0c0-0.3-0.2-0.5-0.5-0.5C315.7,371.8,315.4,372,315.4,372.3
			L315.4,372.3L315.4,372.3z M316.2,360.5c0,0.3,0.2,0.5,0.4,0.5c0.3,0,0.5-0.2,0.5-0.5l0,0c0-0.3-0.2-0.5-0.4-0.5
			C316.5,360,316.2,360.2,316.2,360.5L316.2,360.5z M317,348.7c0,0.3,0.2,0.5,0.4,0.5l0,0c0.3,0,0.5-0.2,0.5-0.4l0,0
			c0-0.3-0.2-0.5-0.5-0.5C317.3,348.2,317,348.4,317,348.7L317,348.7z M317.8,336.9c0,0.3,0.2,0.5,0.4,0.5c0.3,0,0.5-0.2,0.5-0.5
			l0,0c0-0.3-0.2-0.5-0.4-0.5C318.1,336.4,317.8,336.6,317.8,336.9L317.8,336.9z M318.6,325.1c0,0.3,0.2,0.5,0.4,0.5
			c0.3,0,0.5-0.2,0.5-0.4l0,0c0-0.3-0.2-0.5-0.4-0.5l0,0C318.9,324.6,318.6,324.9,318.6,325.1L318.6,325.1z M274.9,322.2
			c0.1,0.3,0.4,0.4,0.6,0.3c0.3-0.1,0.4-0.4,0.3-0.6l0,0c-0.1-0.3-0.4-0.4-0.6-0.3C275,321.7,274.8,322,274.9,322.2L274.9,322.2z
			 M286,318.5c0.1,0.3,0.3,0.4,0.6,0.3c0.3-0.1,0.4-0.4,0.3-0.6s-0.3-0.4-0.6-0.3C286.1,318,285.9,318.2,286,318.5L286,318.5
			L286,318.5z M297.1,314.8c0.1,0.3,0.4,0.4,0.6,0.3c0.3-0.1,0.4-0.4,0.3-0.6s-0.4-0.4-0.6-0.3C297.1,314.2,297,314.5,297.1,314.8
			L297.1,314.8z M308.2,311.1c0.1,0.3,0.4,0.4,0.6,0.3c0.3-0.1,0.4-0.4,0.3-0.6c-0.1-0.3-0.4-0.4-0.6-0.3
			C308.2,310.5,308.1,310.8,308.2,311.1L308.2,311.1z M293.2,360.7c0.2,0.1,0.5,0,0.6-0.2l0,0c0.1-0.2,0-0.5-0.2-0.7l0,0
			c-0.2-0.1-0.5,0-0.6,0.2l0,0C292.8,360.3,292.9,360.6,293.2,360.7L293.2,360.7z M298.4,350.1c0.2,0.1,0.5,0,0.6-0.2l0,0
			c0.1-0.2,0-0.5-0.2-0.7l0,0c-0.2-0.1-0.5,0-0.6,0.2l0,0C298,349.7,298.1,350,298.4,350.1L298.4,350.1z M303.6,339.6
			c0.2,0.1,0.5,0,0.6-0.2c0.1-0.2,0-0.5-0.2-0.7c-0.2-0.1-0.5,0-0.7,0.2C303.3,339.1,303.4,339.4,303.6,339.6L303.6,339.6z
			 M308.8,329c0.2,0.1,0.5,0,0.6-0.2l0,0c0.1-0.2,0-0.5-0.2-0.7c-0.2-0.1-0.5,0-0.6,0.2C308.5,328.6,308.5,328.8,308.8,329
			L308.8,329L308.8,329z M314,318.4c0.2,0.1,0.5,0,0.6-0.2c0.1-0.2,0-0.5-0.2-0.6l0,0c-0.2-0.1-0.5,0-0.6,0.2l0,0
			C313.7,318,313.8,318.3,314,318.4L314,318.4L314,318.4z M337.5,364c0.1,0.3,0.4,0.4,0.6,0.3c0.2-0.1,0.4-0.4,0.3-0.6l0,0
			c-0.1-0.2-0.3-0.4-0.6-0.3l0,0C337.6,363.5,337.5,363.8,337.5,364L337.5,364z M333.8,352.8c0.1,0.3,0.4,0.4,0.6,0.3
			c0.3-0.1,0.4-0.4,0.3-0.6c-0.1-0.3-0.4-0.4-0.6-0.3C333.9,352.3,333.7,352.5,333.8,352.8L333.8,352.8z M330.1,341.6
			c0.1,0.2,0.3,0.4,0.6,0.3l0,0c0.3-0.1,0.4-0.3,0.3-0.6l0,0c-0.1-0.3-0.4-0.4-0.6-0.3C330.2,341,330,341.3,330.1,341.6L330.1,341.6
			z M326.4,330.4c0.1,0.3,0.4,0.4,0.6,0.3c0.2-0.1,0.4-0.3,0.3-0.6l0,0c-0.1-0.3-0.3-0.4-0.6-0.3
			C326.4,329.8,326.3,330.1,326.4,330.4L326.4,330.4z M268.2,316.5c0.1-0.1,0.1-0.2,0.1-0.3c0-0.1-0.1-0.1-0.1-0.2
			C268.2,316.2,268.2,316.4,268.2,316.5L268.2,316.5z M277.6,314c0,0.2,0.3,0.4,0.5,0.3l0,0c0.2-0.1,0.4-0.3,0.3-0.5
			c-0.1-0.2-0.3-0.4-0.5-0.3C277.7,313.6,277.6,313.8,277.6,314L277.6,314L277.6,314z M287.8,311.7c0,0.2,0.3,0.4,0.5,0.3l0,0
			c0.2-0.1,0.4-0.3,0.3-0.5s-0.3-0.4-0.5-0.3C287.9,311.3,287.7,311.4,287.8,311.7L287.8,311.7z M298,309.3c0,0.2,0.3,0.4,0.5,0.3
			l0,0c0.2-0.1,0.4-0.3,0.3-0.5c-0.1-0.2-0.3-0.3-0.5-0.3C298.1,308.8,297.9,309.1,298,309.3L298,309.3L298,309.3z M283,355.2
			c0.2,0.1,0.5,0.1,0.6-0.1c0.1-0.2,0.1-0.5-0.1-0.6l0,0c-0.2-0.1-0.5-0.1-0.6,0.1l0,0C282.8,354.8,282.8,355.1,283,355.2L283,355.2
			z M288.6,346.3c0.2,0.1,0.5,0.1,0.6-0.1c0.1-0.2,0.1-0.5-0.1-0.6c-0.2-0.1-0.5-0.1-0.6,0.2C288.3,345.9,288.4,346.1,288.6,346.3
			L288.6,346.3L288.6,346.3z M293.9,337.1c0,0.1,0.1,0.2,0.2,0.3c0.2,0.1,0.5,0.1,0.6-0.1c0.1-0.2,0.1-0.5-0.1-0.6
			c-0.1-0.1-0.3-0.1-0.4,0l0,0c-0.1,0-0.1,0.1-0.2,0.2C293.9,336.8,293.9,337,293.9,337.1L293.9,337.1z M299.6,328.4
			c0.2,0.1,0.5,0.1,0.6-0.1c0.1-0.2,0.1-0.5-0.1-0.6c-0.2-0.1-0.5-0.1-0.6,0.1C299.3,328,299.4,328.3,299.6,328.4L299.6,328.4z
			 M305.1,319.5c0.2,0.1,0.5,0.1,0.6-0.2c0.1-0.2,0.1-0.5-0.1-0.6c-0.2-0.1-0.5-0.1-0.6,0.1C304.9,319.1,304.9,319.3,305.1,319.5
			L305.1,319.5z M310.6,310.5c0.2,0.1,0.5,0.1,0.6-0.2c0.1-0.2,0.1-0.5-0.1-0.6c-0.2-0.1-0.5-0.1-0.6,0.1
			C310.4,310.1,310.4,310.4,310.6,310.5L310.6,310.5z M326.2,362.3c0.1,0.2,0.3,0.4,0.5,0.3c0.2-0.1,0.4-0.3,0.3-0.5l0,0
			c0-0.2-0.3-0.4-0.5-0.3l0,0C326.3,361.9,326.1,362.1,326.2,362.3L326.2,362.3z M323.8,352.1c0.1,0.2,0.3,0.4,0.5,0.3
			c0.2-0.1,0.4-0.3,0.3-0.5l0,0c0-0.2-0.3-0.4-0.5-0.3l0,0C323.9,351.6,323.8,351.8,323.8,352.1L323.8,352.1z M321.5,341.8
			c0,0.2,0.3,0.4,0.5,0.3l0,0c0.2,0,0.4-0.3,0.3-0.5l0,0c0-0.2-0.3-0.4-0.5-0.3l0,0C321.6,341.3,321.4,341.5,321.5,341.8
			L321.5,341.8z M319.1,331.5c0.1,0.2,0.3,0.4,0.5,0.3c0.2-0.1,0.4-0.3,0.3-0.5c-0.1-0.2-0.3-0.4-0.5-0.3
			C319.2,331,319.1,331.3,319.1,331.5L319.1,331.5z M316.7,321.2c0.1,0.2,0.3,0.4,0.5,0.3c0.2-0.1,0.4-0.3,0.3-0.5l0,0
			c0-0.2-0.3-0.4-0.5-0.3C316.8,320.8,316.7,321,316.7,321.2L316.7,321.2z M314.4,310.9c0,0.2,0.3,0.4,0.5,0.3
			c0.2,0,0.4-0.3,0.3-0.5l0,0c-0.1-0.2-0.3-0.4-0.5-0.3C314.5,310.5,314.3,310.7,314.4,310.9L314.4,310.9z M278.6,330
			c0.1,0.2,0.4,0.2,0.6,0.1l0,0c0.2-0.1,0.2-0.4,0.1-0.6l0,0c-0.1-0.2-0.4-0.3-0.6-0.1l0,0C278.6,329.5,278.5,329.8,278.6,330
			L278.6,330z M287.1,323.9c0.1,0.2,0.4,0.2,0.6,0.1c0.2-0.1,0.2-0.4,0.1-0.6c-0.1-0.2-0.4-0.2-0.6-0.1
			C287,323.4,287,323.7,287.1,323.9L287.1,323.9z M295.6,317.7c0.1,0.2,0.4,0.2,0.6,0.1l0,0c0.2-0.1,0.2-0.4,0.1-0.6
			c-0.1-0.2-0.4-0.2-0.6-0.1l0,0C295.5,317.3,295.5,317.5,295.6,317.7L295.6,317.7L295.6,317.7z M304.1,311.6
			c0.1,0.2,0.4,0.2,0.6,0.1c0.2-0.1,0.2-0.4,0.1-0.6l0,0c-0.1-0.2-0.4-0.2-0.6-0.1l0,0C304,311.2,304,311.4,304.1,311.6L304.1,311.6
			L304.1,311.6z M303.8,357.5c0,0.2,0.1,0.5,0.4,0.5c0.2,0,0.5-0.1,0.5-0.3l0,0c0-0.2-0.1-0.5-0.4-0.5
			C304.1,357.1,303.8,357.2,303.8,357.5L303.8,357.5z M305.5,347.1c0,0.2,0.1,0.4,0.3,0.5l0,0c0.2,0,0.5-0.1,0.5-0.3l0,0
			c0-0.2-0.1-0.5-0.4-0.5C305.8,346.7,305.6,346.8,305.5,347.1L305.5,347.1z M307.2,336.7c0,0.2,0.1,0.5,0.3,0.5s0.5-0.1,0.5-0.3
			l0,0c0-0.2-0.1-0.4-0.3-0.5l0,0C307.5,336.3,307.3,336.4,307.2,336.7L307.2,336.7L307.2,336.7z M308.9,326.3
			c0,0.2,0.1,0.5,0.3,0.5c0.1,0,0.3,0,0.4-0.1l0,0c0.1-0.1,0.1-0.2,0.1-0.2c0-0.2-0.1-0.5-0.4-0.5C309.2,325.9,309,326,308.9,326.3
			L308.9,326.3L308.9,326.3z M310.6,315.9c0,0.2,0.1,0.5,0.4,0.5c0.2,0,0.5-0.1,0.5-0.4c0-0.1,0-0.1,0-0.2c-0.1-0.1-0.1-0.1-0.2-0.2
			c-0.1-0.1-0.1-0.1-0.2-0.1C310.9,315.5,310.7,315.6,310.6,315.9L310.6,315.9L310.6,315.9z M342.9,349.1c0.1,0.2,0.4,0.2,0.6,0.1
			l0,0c0.2-0.1,0.2-0.4,0.1-0.6l0,0c-0.1-0.2-0.4-0.2-0.6-0.1C342.8,348.6,342.7,348.9,342.9,349.1L342.9,349.1L342.9,349.1z
			 M336.8,340.5c0.1,0.2,0.4,0.3,0.6,0.1c0.2-0.1,0.3-0.4,0.1-0.6l0,0c-0.1-0.2-0.4-0.2-0.6-0.1S336.6,340.3,336.8,340.5
			L336.8,340.5z M318.6,314.7c0.1,0.2,0.4,0.2,0.6,0.1c0.2-0.1,0.2-0.4,0.1-0.6c-0.1-0.2-0.4-0.2-0.6-0.1
			C318.5,314.2,318.4,314.5,318.6,314.7L318.6,314.7z M272.8,305c0,0.1,0.1,0.3,0.3,0.3l0,0c0.1,0,0.2-0.1,0.2-0.3
			c0-0.1-0.1-0.2-0.3-0.2C273,304.8,272.8,304.9,272.8,305L272.8,305L272.8,305z M279,304.8c0,0.1,0.1,0.3,0.3,0.2
			c0.1,0,0.1,0,0.2-0.1c0,0,0.1-0.1,0.1-0.2c0-0.1-0.1-0.3-0.3-0.2c-0.1,0-0.2,0.1-0.2,0.1C279,304.7,279,304.8,279,304.8L279,304.8
			z M285.1,304.6c0,0.1,0.1,0.2,0.3,0.2c0.1,0,0.2-0.1,0.2-0.3l0,0c0-0.1-0.1-0.3-0.3-0.3C285.2,304.4,285.1,304.5,285.1,304.6
			L285.1,304.6z M283.7,329.1c0.1,0.1,0.3,0.1,0.4,0s0.1-0.3,0-0.4c-0.1-0.1-0.3-0.1-0.4,0C283.6,328.8,283.6,329,283.7,329.1
			L283.7,329.1z M287.9,324.5c0.1,0.1,0.3,0.1,0.4,0c0.1-0.1,0.1-0.3,0-0.4c-0.1-0.1-0.3-0.1-0.4,0
			C287.8,324.3,287.8,324.4,287.9,324.5L287.9,324.5z M292.1,320c0.1,0.1,0.3,0.1,0.3,0l0,0c0.1-0.1,0.1-0.2,0-0.3l0,0
			c-0.1-0.1-0.3-0.1-0.4,0C292,319.7,292,319.9,292.1,320L292.1,320L292.1,320z M296.3,315.5c0.1,0.1,0.3,0.1,0.3,0l0,0
			c0.1-0.1,0.1-0.3,0-0.4l0,0c-0.1-0.1-0.3-0.1-0.4,0C296.2,315.2,296.2,315.4,296.3,315.5L296.3,315.5z M300.5,310.9
			c0.1,0.1,0.3,0.1,0.4,0s0.1-0.3,0-0.4c-0.1-0.1-0.3-0.1-0.4,0S300.4,310.8,300.5,310.9L300.5,310.9z M307.9,338.1
			c0,0.1,0.1,0.2,0.3,0.2c0.1,0,0.2-0.1,0.2-0.3c0-0.1-0.1-0.2-0.3-0.2C308,337.9,307.9,338,307.9,338.1L307.9,338.1z M307.7,331.9
			c0,0.1,0.1,0.2,0.3,0.2c0.1,0,0.2-0.1,0.2-0.3l0,0c0-0.1-0.1-0.2-0.2-0.2l0,0C307.8,331.6,307.7,331.7,307.7,331.9L307.7,331.9
			L307.7,331.9z M307.5,325.7c0,0.1,0.1,0.2,0.3,0.2c0.1,0,0.2-0.1,0.2-0.3l0,0c0-0.1-0.1-0.2-0.2-0.2l0,0
			C307.6,325.4,307.4,325.5,307.5,325.7L307.5,325.7L307.5,325.7z M307.2,319.5L307.2,319.5c0.1,0.2,0.1,0.2,0.3,0.2
			c0.1,0,0.2-0.1,0.2-0.3l0,0c0-0.1-0.1-0.2-0.2-0.2l0,0c0,0,0,0-0.1,0S307.2,319.3,307.2,319.5
			C307.2,319.4,307.2,319.5,307.2,319.5L307.2,319.5z M307,313.2c0,0.1,0.1,0.3,0.3,0.2c0.1,0,0.2-0.1,0.2-0.3
			c0-0.1-0.1-0.2-0.3-0.2C307.1,313,307,313.1,307,313.2L307,313.2L307,313.2z M318,314.7c0.1,0.1,0.3,0.1,0.4,0
			c0.1-0.1,0.1-0.3,0-0.4c-0.1-0.1-0.3-0.1-0.3,0l0,0C317.9,314.4,317.9,314.6,318,314.7L318,314.7L318,314.7z M313.5,310.5
			c0.1,0.1,0.3,0.1,0.4,0s0.1-0.3,0-0.4s-0.3-0.1-0.4,0S313.4,310.4,313.5,310.5L313.5,310.5z M278.7,316.4c0.1,0.1,0.2,0.2,0.3,0.1
			c0.1-0.1,0.2-0.2,0.1-0.4c-0.1-0.1-0.2-0.2-0.3-0.1l0,0C278.7,316.1,278.6,316.3,278.7,316.4L278.7,316.4z M284.3,313.8
			c0.1,0.1,0.2,0.2,0.3,0.1c0.1-0.1,0.2-0.2,0.1-0.3l0,0c0-0.1-0.2-0.2-0.3-0.1l0,0C284.3,313.5,284.2,313.7,284.3,313.8
			L284.3,313.8L284.3,313.8z M289.9,311.2c0,0.1,0.2,0.2,0.3,0.1l0,0c0.1,0,0.2-0.2,0.1-0.3l0,0c-0.1-0.1-0.2-0.2-0.3-0.1l0,0
			C289.9,311,289.8,311.1,289.9,311.2L289.9,311.2z M295.5,308.7c0.1,0.1,0.2,0.2,0.3,0.1c0.1-0.1,0.2-0.2,0.1-0.4
			c-0.1-0.1-0.2-0.2-0.3-0.1C295.5,308.4,295.4,308.5,295.5,308.7L295.5,308.7z M295.9,332.9c0.1,0,0.3,0,0.3-0.2
			c0.1-0.1,0-0.3-0.1-0.3l0,0c-0.1-0.1-0.3,0-0.3,0.1l0,0C295.7,332.7,295.8,332.9,295.9,332.9L295.9,332.9z M298.1,327.1
			c0.1,0,0.3,0,0.3-0.2c0-0.1,0-0.3-0.2-0.3c-0.1-0.1-0.3,0-0.3,0.1l0,0C297.9,326.9,298,327.1,298.1,327.1L298.1,327.1L298.1,327.1
			z M300.2,321.3c0.1,0.1,0.3,0,0.3-0.1l0,0c0-0.1,0-0.3-0.2-0.3c-0.1,0-0.3,0-0.3,0.2C300,321.1,300.1,321.2,300.2,321.3
			L300.2,321.3L300.2,321.3z M302.4,315.5c0.1,0.1,0.3,0,0.3-0.1l0,0c0-0.1,0-0.3-0.2-0.3c-0.1,0-0.3,0-0.3,0.2
			C302.2,315.3,302.3,315.4,302.4,315.5L302.4,315.5z M304.5,309.6c0.1,0,0.3,0,0.3-0.2c0-0.1,0-0.3-0.2-0.3c-0.1,0-0.3,0-0.3,0.2
			C304.3,309.4,304.4,309.6,304.5,309.6L304.5,309.6z M319.3,332.2c0.1,0.1,0.2,0.2,0.3,0.1l0,0c0.1-0.1,0.2-0.2,0.1-0.3l0,0
			c0-0.1-0.2-0.2-0.3-0.1l0,0C319.4,331.9,319.3,332.1,319.3,332.2L319.3,332.2z M316.8,326.5c0.1,0.1,0.2,0.2,0.3,0.1
			s0.2-0.2,0.1-0.3c0-0.1-0.2-0.2-0.3-0.1l0,0C316.8,326.3,316.7,326.4,316.8,326.5L316.8,326.5L316.8,326.5z M314.2,320.9
			c0.1,0.1,0.2,0.2,0.3,0.1c0.1-0.1,0.2-0.2,0.1-0.4c-0.1-0.1-0.2-0.2-0.4-0.1C314.2,320.6,314.2,320.8,314.2,320.9L314.2,320.9z
			 M311.7,315.2c0.1,0.1,0.2,0.2,0.3,0.1l0,0c0.1,0,0.1-0.1,0.1-0.2V315c-0.1-0.1-0.2-0.2-0.3-0.1c-0.1,0-0.1,0.1-0.1,0.1l0,0
			C311.6,315.1,311.6,315.1,311.7,315.2L311.7,315.2z M309.1,309.5c0.1,0.1,0.2,0.2,0.3,0.1s0.2-0.2,0.1-0.3l0,0
			c-0.1-0.1-0.2-0.2-0.3-0.1l0,0C309.1,309.3,309.1,309.4,309.1,309.5L309.1,309.5z M314.9,312c0.1,0.1,0.3,0,0.4-0.1
			c0.1-0.1,0-0.3-0.1-0.4c-0.1-0.1-0.3,0-0.4,0.1C314.7,311.7,314.8,311.9,314.9,312L314.9,312z M269.1,309c0,0.2,0.2,0.3,0.3,0.2
			c0.2,0,0.3-0.2,0.2-0.3c0-0.2-0.2-0.3-0.4-0.2l0,0C269.1,308.7,269,308.8,269.1,309L269.1,309z M275.9,307.5
			c0,0.2,0.2,0.3,0.3,0.2c0.2,0,0.3-0.2,0.2-0.3c0-0.2-0.2-0.3-0.4-0.2l0,0C276,307.2,275.9,307.3,275.9,307.5L275.9,307.5
			L275.9,307.5z M282.8,306c0,0.2,0.2,0.3,0.3,0.2c0.2,0,0.3-0.2,0.2-0.3c0-0.2-0.2-0.3-0.4-0.2l0,0
			C282.9,305.6,282.8,305.8,282.8,306C282.8,305.9,282.8,306,282.8,306L282.8,306z M279.3,335.2c0.1,0.1,0.3,0,0.4-0.1l0,0
			c0.1-0.1,0.1-0.3-0.1-0.4l0,0c-0.1-0.1-0.3,0-0.4,0.1l0,0C279.1,335,279.2,335.2,279.3,335.2L279.3,335.2z M283.1,329.3
			c0.1,0.1,0.3,0,0.4-0.1c0.1-0.1,0-0.3-0.1-0.4c-0.1-0.1-0.3,0-0.4,0.1l0,0C282.9,329,282.9,329.2,283.1,329.3L283.1,329.3
			L283.1,329.3z M286.9,323.3c0.1,0.1,0.3,0.1,0.4-0.1l0,0c0.1-0.1,0-0.3-0.1-0.4c-0.1-0.1-0.3,0-0.4,0.1
			C286.7,323,286.7,323.2,286.9,323.3L286.9,323.3z M290.6,317.3c0.1,0.1,0.3,0,0.4-0.1c0.1-0.1,0-0.3-0.1-0.4
			c-0.1-0.1-0.2-0.1-0.3,0c0,0,0,0-0.1,0l-0.1,0.1C290.5,317,290.5,317.2,290.6,317.3L290.6,317.3z M294.4,311.3
			c0.1,0.1,0.3,0.1,0.4-0.1l0,0c0.1-0.1,0.1-0.3-0.1-0.4l0,0c-0.1-0.1-0.3,0-0.4,0.1C294.2,311.1,294.3,311.2,294.4,311.3
			L294.4,311.3z M308.3,340.4c0,0.1,0.2,0.2,0.3,0.2l0,0c0.2,0,0.2-0.2,0.2-0.3c0-0.2-0.2-0.3-0.3-0.2
			C308.4,340,308.3,340.2,308.3,340.4L308.3,340.4L308.3,340.4z M306.8,333.4c0,0.2,0.2,0.3,0.4,0.2l0,0c0.2,0,0.2-0.2,0.2-0.3
			c0-0.2-0.2-0.3-0.3-0.2C306.8,333.1,306.7,333.3,306.8,333.4L306.8,333.4z M305.3,326.5c0,0.2,0.2,0.3,0.3,0.2l0,0
			c0.2,0,0.2-0.2,0.2-0.3c0-0.2-0.2-0.3-0.3-0.2C305.3,326.1,305.2,326.3,305.3,326.5L305.3,326.5z M303.8,319.5
			c0,0.2,0.2,0.3,0.3,0.2l0,0c0.2,0,0.2-0.2,0.2-0.3c0-0.2-0.2-0.3-0.3-0.2C303.8,319.2,303.7,319.4,303.8,319.5L303.8,319.5z
			 M302.2,312.6c0,0.2,0.2,0.3,0.3,0.2l0,0c0.2,0,0.3-0.2,0.2-0.3c0-0.2-0.2-0.3-0.3-0.2C302.3,312.3,302.2,312.4,302.2,312.6
			L302.2,312.6z M271.3,322.1c0.1,0.1,0.3,0.2,0.4,0.1l0,0c0.1-0.1,0.2-0.3,0.1-0.4c-0.1-0.1-0.3-0.2-0.4-0.1
			C271.2,321.8,271.2,322,271.3,322.1L271.3,322.1z M277,318.1c0.1,0.1,0.3,0.2,0.4,0.1l0,0c0.1-0.1,0.2-0.3,0.1-0.4
			s-0.3-0.2-0.4-0.1l0,0C277,317.8,276.9,318,277,318.1L277,318.1z M282.8,314c0.1,0.1,0.2,0.2,0.4,0.1l0,0c0.1-0.1,0.2-0.3,0.1-0.4
			l0,0c-0.1-0.1-0.3-0.2-0.4-0.1C282.7,313.7,282.7,313.9,282.8,314L282.8,314z M288.6,310c0.1,0.1,0.3,0.2,0.4,0.1l0,0
			c0.1-0.1,0.2-0.3,0.1-0.4l0,0c-0.1-0.1-0.3-0.2-0.4-0.1C288.5,309.7,288.5,309.9,288.6,310L288.6,310L288.6,310z M294.3,305.9
			c0.1,0.1,0.2,0.2,0.4,0.1l0,0c0.1-0.1,0.2-0.3,0.1-0.4l0,0c-0.1-0.1-0.3-0.2-0.4-0.1C294.3,305.6,294.2,305.8,294.3,305.9
			L294.3,305.9z M293.9,337.1c0,0,0.1,0,0.1,0.1c0.2,0,0.3-0.1,0.3-0.2l0,0c0-0.2-0.1-0.3-0.2-0.3l0,0c-0.2,0-0.3,0.1-0.3,0.2l0,0
			C293.8,336.9,293.8,337,293.9,337.1L293.9,337.1z M295,329.8c0,0.2,0.1,0.3,0.2,0.3l0,0c0.2,0,0.3-0.1,0.4-0.2
			c0-0.2-0.1-0.3-0.2-0.4C295.2,329.5,295,329.6,295,329.8L295,329.8z M296.2,322.8c0,0.2,0.1,0.3,0.2,0.3l0,0
			c0.2,0,0.3-0.1,0.3-0.2l0,0c0-0.2-0.1-0.3-0.2-0.3l0,0C296.4,322.6,296.3,322.7,296.2,322.8L296.2,322.8L296.2,322.8z
			 M297.4,315.8c0,0.2,0.1,0.3,0.2,0.3s0.3,0,0.3-0.2l0,0c0-0.2-0.1-0.3-0.2-0.3l0,0C297.6,315.6,297.5,315.7,297.4,315.8
			L297.4,315.8L297.4,315.8z M298.7,308.9c0.1,0.1,0.1,0.1,0.1,0.2c0,0,0.1,0,0.1,0.1c0.2,0,0.3-0.1,0.3-0.2l0,0
			c0-0.2-0.1-0.3-0.2-0.3l0,0C298.8,308.7,298.7,308.8,298.7,308.9C298.7,308.8,298.7,308.8,298.7,308.9L298.7,308.9L298.7,308.9z
			 M320.1,331.4c0.1,0.1,0.3,0.2,0.4,0.1c0.1-0.1,0.2-0.3,0.1-0.4l0,0c-0.1-0.1-0.2-0.2-0.4-0.1l0,0
			C320.1,331.1,320,331.3,320.1,331.4L320.1,331.4z M316.1,325.6c0.1,0.1,0.2,0.2,0.4,0.1l0,0c0.1-0.1,0.2-0.3,0.1-0.4l0,0
			c-0.1-0.1-0.3-0.2-0.4-0.1C316.1,325.3,316,325.5,316.1,325.6L316.1,325.6L316.1,325.6z M312.1,319.8c0.1,0.1,0.3,0.2,0.4,0.1l0,0
			c0.1-0.1,0.2-0.3,0.1-0.4c-0.1-0.1-0.3-0.2-0.4-0.1C312,319.5,312,319.6,312.1,319.8L312.1,319.8z M308,313.9
			c0.1,0.1,0.3,0.2,0.4,0.1l0,0c0.1-0.1,0.2-0.3,0.1-0.4s-0.3-0.2-0.4-0.1C308,313.6,308,313.8,308,313.9L308,313.9z M304,308.1
			c0.1,0.1,0.3,0.2,0.4,0.1l0,0c0.1-0.1,0.2-0.3,0.1-0.4s-0.3-0.2-0.4-0.1S303.9,308,304,308.1L304,308.1z M268.8,318.5
			c0.2,0.2,0.5,0.3,0.7,0.1l0,0c0.2-0.2,0.3-0.5,0.1-0.7c-0.2-0.2-0.5-0.3-0.7-0.1C268.7,318,268.7,318.3,268.8,318.5L268.8,318.5z
			 M278.5,311.4c0.2,0.2,0.5,0.3,0.7,0.1l0,0c0.2-0.2,0.3-0.5,0.1-0.7c-0.2-0.2-0.5-0.3-0.7-0.1
			C278.4,310.8,278.4,311.1,278.5,311.4L278.5,311.4z M288.2,304c0,0.1,0,0.1,0.1,0.2c0.1,0.1,0.1,0.1,0.2,0.2
			c0.2,0.1,0.3,0.1,0.5,0c0.2-0.2,0.3-0.5,0.1-0.7l0,0c-0.2-0.2-0.5-0.3-0.7-0.1l0,0C288.2,303.6,288.1,303.8,288.2,304L288.2,304z
			 M282.9,366.4c0,0.3,0.2,0.5,0.4,0.6c0.3,0,0.5-0.1,0.6-0.4l0,0c0-0.3-0.2-0.5-0.4-0.6C283.2,366,282.9,366.1,282.9,366.4
			L282.9,366.4L282.9,366.4z M284.7,354.4c0,0.3,0.1,0.5,0.4,0.6l0,0c0.3,0,0.5-0.1,0.6-0.4l0,0c0-0.3-0.1-0.5-0.4-0.6
			C285,353.9,284.8,354.1,284.7,354.4L284.7,354.4L284.7,354.4z M286.6,342.4c0,0.3,0.2,0.5,0.4,0.6c0.3,0,0.5-0.2,0.6-0.4
			c0-0.3-0.2-0.5-0.4-0.6C286.8,341.9,286.6,342.1,286.6,342.4z M288.4,330.3c0,0.3,0.1,0.5,0.4,0.6c0.3,0,0.5-0.1,0.6-0.4
			c0-0.3-0.1-0.5-0.4-0.6C288.7,329.9,288.5,330,288.4,330.3L288.4,330.3L288.4,330.3z M290.3,318.3c0,0.3,0.2,0.5,0.4,0.6
			c0.3,0,0.5-0.1,0.6-0.4l0,0c0.1-0.3-0.1-0.5-0.4-0.6l0,0C290.6,317.8,290.3,318,290.3,318.3L290.3,318.3L290.3,318.3z
			 M292.1,306.3c0,0.3,0.1,0.5,0.4,0.6c0.3,0,0.5-0.1,0.6-0.4l0,0c0.1-0.3-0.1-0.5-0.4-0.6l0,0C292.4,305.8,292.2,306,292.1,306.3
			C292.1,306.2,292.1,306.3,292.1,306.3L292.1,306.3z M332.2,354.8c0.2,0.2,0.5,0.3,0.7,0.1c0.2-0.2,0.3-0.5,0.1-0.7l0,0
			c-0.2-0.2-0.5-0.3-0.7-0.1l0,0C332.1,354.3,332.1,354.6,332.2,354.8L332.2,354.8z M325.1,345c0.2,0.2,0.5,0.3,0.7,0.1
			c0.2-0.2,0.3-0.5,0.1-0.7l0,0c-0.2-0.2-0.5-0.3-0.7-0.1l0,0C325,344.4,325,344.8,325.1,345L325.1,345z M318,335.1
			c0.2,0.2,0.5,0.3,0.7,0.1c0.2-0.2,0.3-0.5,0.1-0.7c-0.2-0.2-0.5-0.3-0.7-0.1l0,0C317.9,334.6,317.9,334.9,318,335.1L318,335.1
			L318,335.1z M310.9,325.3c0.2,0.2,0.5,0.3,0.7,0.1c0.2-0.2,0.3-0.5,0.1-0.7c-0.2-0.2-0.5-0.3-0.7-0.1
			C310.8,324.7,310.8,325,310.9,325.3L310.9,325.3z M303.8,315.4c0.2,0.2,0.5,0.3,0.7,0.1l0,0c0.2-0.2,0.3-0.5,0.1-0.7
			c-0.2-0.2-0.5-0.3-0.7-0.1C303.7,314.9,303.6,315.2,303.8,315.4L303.8,315.4z M269.3,306.1c0.1,0.3,0.3,0.4,0.6,0.4l0,0
			c0.3-0.1,0.4-0.3,0.4-0.6l0,0c-0.1-0.3-0.3-0.4-0.6-0.4C269.4,305.5,269.2,305.8,269.3,306.1L269.3,306.1L269.3,306.1z M281,303.2
			c0.1,0.3,0.3,0.4,0.6,0.4l0,0c0.3-0.1,0.4-0.3,0.4-0.6l0,0c-0.1-0.3-0.3-0.4-0.6-0.4C281.1,302.7,280.9,302.9,281,303.2L281,303.2
			L281,303.2z M273.8,332.1c0.2,0.1,0.5,0.1,0.7-0.2c0.1-0.2,0.1-0.5-0.2-0.7c-0.2-0.1-0.5-0.1-0.7,0.2
			C273.5,331.6,273.6,331.9,273.8,332.1L273.8,332.1z M280.1,321.7c0.2,0.2,0.5,0.1,0.7-0.1l0,0c0.1-0.2,0.1-0.5-0.2-0.7
			c-0.2-0.1-0.5-0.1-0.7,0.2l0,0C279.7,321.2,279.8,321.5,280.1,321.7L280.1,321.7z M286.3,311.3c0.2,0.1,0.5,0.1,0.7-0.2l0,0
			c0.1-0.2,0.1-0.5-0.2-0.6l0,0c-0.2-0.1-0.5-0.1-0.6,0.1l0,0C286,310.8,286.1,311.1,286.3,311.3L286.3,311.3z M306.5,360.2
			c0.1,0.3,0.3,0.4,0.6,0.4c0.3-0.1,0.4-0.3,0.4-0.6c-0.1-0.3-0.3-0.4-0.6-0.4l0,0C306.6,359.7,306.5,360,306.5,360.2L306.5,360.2z
			 M303.7,348.4c0.1,0.3,0.3,0.4,0.6,0.4l0,0c0.3-0.1,0.4-0.3,0.4-0.6c-0.1-0.3-0.3-0.4-0.6-0.4
			C303.8,347.8,303.6,348.1,303.7,348.4L303.7,348.4L303.7,348.4z M300.9,336.5c0.1,0.3,0.3,0.4,0.6,0.4l0,0
			c0.3-0.1,0.4-0.3,0.4-0.6c-0.1-0.3-0.3-0.4-0.6-0.4C300.9,336,300.8,336.3,300.9,336.5L300.9,336.5z M298,324.7
			c0.1,0.3,0.3,0.4,0.6,0.4c0.3-0.1,0.4-0.3,0.4-0.6c-0.1-0.3-0.3-0.4-0.6-0.4C298.1,324.1,297.9,324.4,298,324.7L298,324.7z
			 M295.1,312.8c0.1,0.3,0.3,0.4,0.6,0.4l0,0c0.3-0.1,0.4-0.3,0.4-0.6c-0.1-0.3-0.3-0.4-0.6-0.4l0,0
			C295.3,312.3,295.1,312.6,295.1,312.8L295.1,312.8z M313.4,314.4c0.2,0.1,0.5,0.1,0.7-0.2l0,0c0.1-0.2,0.1-0.5-0.2-0.7
			c-0.2-0.1-0.5-0.1-0.7,0.2C313,313.9,313.1,314.2,313.4,314.4C313.3,314.4,313.4,314.4,313.4,314.4L313.4,314.4z M303,308
			c0.2,0.1,0.5,0.1,0.7-0.2c0.1-0.2,0.1-0.5-0.2-0.7c-0.2-0.1-0.5-0.1-0.7,0.2l0,0C302.7,307.5,302.8,307.8,303,308L303,308z
			 M268.7,302.1c0,0.3,0.3,0.4,0.6,0.4l0,0c0.3,0,0.4-0.3,0.4-0.6l0,0c0-0.3-0.3-0.4-0.6-0.4l0,0
			C268.8,301.6,268.7,301.9,268.7,302.1L268.7,302.1z M269.9,324.1c0.2,0.2,0.5,0.1,0.7-0.1c0.2-0.2,0.1-0.5-0.1-0.7l0,0
			c-0.2-0.2-0.5-0.1-0.7,0.1l0,0C269.6,323.7,269.7,324,269.9,324.1L269.9,324.1L269.9,324.1z M276.6,314.1c0.2,0.1,0.5,0.1,0.7-0.1
			c0.1-0.2,0.1-0.5-0.1-0.7c-0.2-0.2-0.5-0.1-0.7,0.1l0,0C276.3,313.6,276.3,313.9,276.6,314.1L276.6,314.1L276.6,314.1z M283.2,304
			c0.2,0.1,0.5,0.1,0.7-0.2c0.1-0.2,0.1-0.5-0.1-0.7c-0.2-0.2-0.5-0.1-0.7,0.1l0,0C283,303.5,283,303.8,283.2,304L283.2,304z
			 M299.2,364.1c0.1,0.3,0.3,0.4,0.6,0.4s0.4-0.3,0.4-0.6c-0.1-0.3-0.3-0.4-0.6-0.4C299.4,363.6,299.2,363.9,299.2,364.1
			L299.2,364.1z M296.9,352.2c0.1,0.3,0.3,0.5,0.6,0.4c0.3-0.1,0.4-0.3,0.4-0.6c-0.1-0.3-0.3-0.5-0.6-0.4
			C297,351.7,296.8,352,296.9,352.2L296.9,352.2z M294.5,340.3c0.1,0.3,0.3,0.4,0.6,0.4c0.3-0.1,0.4-0.3,0.4-0.6
			c-0.1-0.3-0.3-0.4-0.6-0.4C294.7,339.8,294.5,340,294.5,340.3L294.5,340.3z M292.2,328.4c0,0.3,0.3,0.4,0.5,0.4l0,0
			c0.3-0.1,0.4-0.3,0.4-0.6s-0.3-0.4-0.6-0.4C292.3,327.9,292.2,328.1,292.2,328.4L292.2,328.4L292.2,328.4z M289.9,316.5
			c0,0.3,0.3,0.4,0.6,0.4l0,0c0.1,0,0.1,0,0.1-0.1c0,0,0,0,0.1,0c0.1-0.1,0.2-0.3,0.2-0.5c0-0.3-0.3-0.4-0.6-0.4
			C290,316,289.8,316.2,289.9,316.5L289.9,316.5L289.9,316.5z M287.5,304.6c0,0.1,0.1,0.2,0.2,0.3c0,0,0,0,0.1,0.1
			c0.1,0.1,0.2,0.1,0.3,0.1c0.3-0.1,0.4-0.3,0.4-0.6l0,0l0,0c0-0.2-0.1-0.3-0.3-0.3c-0.1,0-0.2,0-0.3,0
			C287.7,304.1,287.5,304.3,287.5,304.6L287.5,304.6z M321.5,322.7c0.2,0.1,0.5,0.1,0.7-0.1c0.1-0.2,0.1-0.5-0.1-0.7
			c-0.2-0.2-0.5-0.1-0.7,0.1l0,0C321.2,322.2,321.3,322.5,321.5,322.7L321.5,322.7L321.5,322.7z M311.3,315.6c0,0.1,0.1,0.2,0.2,0.2
			l0,0c0.2,0.2,0.5,0.1,0.7-0.1l0,0c0.1-0.2,0.1-0.5-0.1-0.6c0,0,0-0.1-0.1-0.1c-0.1-0.1-0.3-0.1-0.4-0.1l0,0
			c-0.1,0-0.2,0.1-0.3,0.2C311.3,315.3,311.3,315.5,311.3,315.6L311.3,315.6z M301.5,309.1c0.2,0.2,0.5,0.1,0.7-0.1l0,0
			c0,0,0.1-0.1,0.1-0.2c0-0.1,0-0.2,0-0.2c0-0.1-0.1-0.2-0.2-0.3c-0.2-0.1-0.5-0.1-0.7,0.1C301.3,308.7,301.3,309,301.5,309.1
			L301.5,309.1z M276.3,304.6c0.2,0.2,0.5,0.3,0.7,0.1s0.3-0.5,0.1-0.7c-0.1-0.2-0.4-0.3-0.7-0.2l0,0
			C276.2,304.1,276.1,304.4,276.3,304.6L276.3,304.6z M276.6,345.4c0,0.3,0.1,0.5,0.4,0.6c0.3,0,0.5-0.1,0.6-0.4
			c0.1-0.3-0.1-0.5-0.4-0.6C276.9,345,276.7,345.2,276.6,345.4L276.6,345.4z M278.9,333.5c-0.1,0.3,0.1,0.5,0.4,0.6l0,0
			c0.3,0,0.5-0.1,0.6-0.4c0-0.3-0.1-0.5-0.4-0.6C279.3,333.1,279,333.3,278.9,333.5L278.9,333.5L278.9,333.5z M281.3,321.6
			c-0.1,0.3,0.1,0.5,0.4,0.6c0.3,0.1,0.5-0.1,0.6-0.4l0,0c0.1-0.3-0.1-0.5-0.4-0.6C281.6,321.2,281.3,321.4,281.3,321.6L281.3,321.6
			z M283.6,309.7c-0.1,0.3,0.1,0.5,0.4,0.6c0.3,0.1,0.5-0.1,0.6-0.4c0.1-0.3-0.1-0.5-0.4-0.6C283.9,309.3,283.7,309.5,283.6,309.7
			L283.6,309.7z M319.5,349.2c0.2,0.2,0.5,0.3,0.7,0.1c0.2-0.2,0.3-0.5,0.1-0.7c-0.1-0.2-0.4-0.3-0.7-0.2l0,0
			C319.4,348.6,319.3,348.9,319.5,349.2C319.5,349.1,319.5,349.2,319.5,349.2L319.5,349.2z M312.8,339c0.2,0.2,0.5,0.3,0.7,0.1
			s0.3-0.5,0.1-0.7c-0.1-0.2-0.4-0.3-0.7-0.2l0,0C312.7,338.5,312.6,338.8,312.8,339L312.8,339L312.8,339z M306.1,328.9
			c0.2,0.2,0.5,0.3,0.7,0.1c0.2-0.2,0.3-0.5,0.1-0.7c-0.1-0.2-0.5-0.3-0.7-0.2C306,328.4,306,328.7,306.1,328.9L306.1,328.9
			L306.1,328.9z M299.5,318.8c0.2,0.2,0.5,0.3,0.7,0.1c0.2-0.2,0.3-0.5,0.1-0.7c-0.1-0.2-0.5-0.3-0.7-0.1
			C299.4,318.3,299.3,318.6,299.5,318.8C299.4,318.8,299.4,318.8,299.5,318.8L299.5,318.8z M292.8,308.7c0.2,0.2,0.5,0.3,0.7,0.1
			c0.2-0.2,0.3-0.5,0.1-0.7c-0.1-0.2-0.5-0.3-0.7-0.1l0,0C292.7,308.2,292.6,308.5,292.8,308.7L292.8,308.7z M317.8,312.5
			c0.2,0.1,0.4,0,0.5-0.2c0.1-0.2,0-0.4-0.2-0.5c-0.2-0.1-0.4,0-0.5,0.2C317.6,312.2,317.7,312.4,317.8,312.5L317.8,312.5z
			 M309.4,309.1c0.2,0.1,0.4,0,0.5-0.2c0.1-0.2,0-0.4-0.2-0.5l0,0c-0.2-0.1-0.4,0-0.5,0.2l0,0C309.2,308.8,309.2,309,309.4,309.1
			L309.4,309.1L309.4,309.1z M267.7,302.5L267.7,302.5c0.3-0.1,0.4-0.3,0.3-0.5l0,0c0-0.1-0.2-0.2-0.3-0.2
			C267.7,302,267.7,302.3,267.7,302.5L267.7,302.5z M271.6,318.3c0.2,0.1,0.4,0,0.5-0.2s0-0.4-0.2-0.5c-0.2-0.1-0.4,0-0.5,0.2l0,0
			C271.4,318,271.4,318.2,271.6,318.3L271.6,318.3z M275,309.8c0.2,0.1,0.4,0,0.5-0.2l0,0c0.1-0.2,0-0.4-0.2-0.5l0,0
			c-0.2-0.1-0.4,0-0.5,0.2C274.7,309.6,274.8,309.8,275,309.8z M299.5,343.2c0.1,0.2,0.3,0.3,0.5,0.2l0,0c0.2-0.1,0.3-0.3,0.2-0.5
			c-0.1-0.2-0.3-0.3-0.5-0.2l0,0C299.5,342.8,299.4,343,299.5,343.2L299.5,343.2z M295.9,334.8c0.1,0.2,0.3,0.3,0.5,0.2
			c0.2-0.1,0.3-0.3,0.2-0.5s-0.3-0.3-0.5-0.2l0,0C295.9,334.4,295.8,334.6,295.9,334.8L295.9,334.8z M292.3,326.4
			c0.1,0.2,0.3,0.3,0.5,0.2c0.2-0.1,0.3-0.3,0.2-0.5c-0.1-0.2-0.3-0.3-0.5-0.2C292.3,325.9,292.2,326.2,292.3,326.4L292.3,326.4z
			 M288.8,317.9c0.1,0.2,0.3,0.3,0.5,0.2l0,0c0.2-0.1,0.3-0.3,0.2-0.5l0,0c-0.1-0.2-0.3-0.3-0.5-0.2S288.7,317.7,288.8,317.9
			C288.7,317.9,288.7,317.9,288.8,317.9L288.8,317.9z M285.2,309.5c0.1,0.2,0.3,0.3,0.4,0.2l0,0c0.2-0.1,0.3-0.3,0.2-0.5l0,0
			c-0.1-0.2-0.3-0.3-0.4-0.2l0,0C285.2,309.1,285.1,309.3,285.2,309.5L285.2,309.5L285.2,309.5z M267.8,309.5c0.1-0.1,0.1-0.3,0-0.4
			C267.8,309.2,267.8,309.3,267.8,309.5L267.8,309.5z M273.6,303c0.1,0.1,0.4,0.1,0.5,0l0,0c0.1-0.1,0.1-0.4,0-0.5l0,0
			c-0.1-0.1-0.3-0.2-0.5,0l0,0C273.4,302.6,273.4,302.9,273.6,303L273.6,303L273.6,303z M280.3,342.2c0,0.2,0.2,0.4,0.4,0.4
			c0.2,0,0.4-0.2,0.4-0.4c0-0.2-0.2-0.4-0.4-0.4l0,0C280.4,341.9,280.3,342,280.3,342.2L280.3,342.2L280.3,342.2z M280.1,333.1
			c0,0.2,0.2,0.4,0.4,0.4s0.4-0.2,0.4-0.4l0,0c0-0.2-0.2-0.4-0.4-0.4l0,0C280.3,332.7,280.2,332.9,280.1,333.1L280.1,333.1
			L280.1,333.1z M280,323.9c0,0.2,0.2,0.4,0.4,0.4l0,0c0.2,0,0.4-0.2,0.4-0.3l0,0c0-0.2-0.2-0.4-0.4-0.4
			C280.2,323.6,280,323.7,280,323.9L280,323.9L280,323.9z M279.9,314.8c0,0.2,0.2,0.4,0.4,0.4l0,0c0.2,0,0.4-0.2,0.4-0.4l0,0
			c0-0.2-0.2-0.4-0.4-0.4C280.1,314.4,279.9,314.6,279.9,314.8L279.9,314.8z M279.8,305.6c0,0.2,0.1,0.3,0.2,0.4l0,0h0.1
			c0.2,0,0.4-0.2,0.4-0.4l0,0c0-0.2-0.2-0.4-0.4-0.4l0,0c-0.1,0-0.2,0.1-0.3,0.1C279.8,305.5,279.8,305.6,279.8,305.6L279.8,305.6z
			 M312.3,329c0.1,0.1,0.4,0.1,0.5,0l0,0c0.1-0.1,0.2-0.4,0-0.5l0,0c-0.1-0.1-0.4-0.1-0.5,0l0,0C312.2,328.6,312.2,328.9,312.3,329
			L312.3,329L312.3,329z M305.8,322.6c0.2,0.1,0.4,0.1,0.5,0l0,0c0.1-0.1,0.1-0.4,0-0.5c-0.2-0.1-0.4-0.1-0.5,0
			C305.7,322.2,305.7,322.5,305.8,322.6L305.8,322.6z M299.4,316.2c0.1,0.1,0.4,0.1,0.5,0l0,0c0.1-0.1,0.1-0.4,0-0.5
			c-0.1-0.1-0.4-0.2-0.5,0C299.2,315.8,299.2,316.1,299.4,316.2C299.3,316.2,299.3,316.2,299.4,316.2z M292.9,309.8
			c0.1,0.1,0.4,0.1,0.5,0c0.1-0.2,0.1-0.4,0-0.5c-0.2-0.1-0.4-0.1-0.5,0C292.7,309.4,292.7,309.7,292.9,309.8L292.9,309.8
			L292.9,309.8z M269.1,301.3c0.1,0.1,0.2,0,0.3-0.1c0.1-0.1,0-0.2-0.1-0.3c-0.1-0.1-0.2,0-0.3,0.1C269,301.1,269,301.2,269.1,301.3
			z M278,322.1c0,0.1,0.1,0.2,0.2,0.2c0.1,0,0.2-0.1,0.2-0.2s-0.1-0.2-0.2-0.2l0,0C278,321.9,278,322,278,322.1z M277.1,317.2
			c0,0.1,0.1,0.2,0.2,0.2l0,0c0.1,0,0.2-0.1,0.2-0.2l0,0c0-0.1-0.1-0.2-0.2-0.2l0,0C277.2,316.9,277.1,317,277.1,317.2z
			 M276.3,312.2c0,0.1,0.1,0.2,0.2,0.2l0,0c0.1,0,0.2-0.1,0.2-0.3c0-0.1-0.1-0.2-0.2-0.2C276.3,312,276.2,312.1,276.3,312.2
			L276.3,312.2L276.3,312.2z M275.4,307.3c0,0.1,0.1,0.2,0.2,0.2l0,0c0.1,0,0.2-0.1,0.2-0.2c0-0.1-0.1-0.2-0.2-0.2
			S275.4,307.2,275.4,307.3L275.4,307.3L275.4,307.3z M274.5,302.4c0,0.1,0.1,0.2,0.3,0.2c0.1,0,0.2-0.1,0.2-0.2s-0.1-0.2-0.2-0.2
			C274.7,302.2,274.5,302.3,274.5,302.4L274.5,302.4L274.5,302.4z M295.6,311c0.1,0.1,0.2,0.1,0.3,0l0,0c0.1-0.1,0-0.2,0-0.3
			c-0.1-0.1-0.2,0-0.3,0.1C295.5,310.8,295.5,310.9,295.6,311L295.6,311L295.6,311z M291.6,308.1c0.1,0.1,0.2,0,0.3-0.1l0,0
			c0.1-0.1,0-0.2,0-0.3c-0.1-0.1-0.2,0-0.3,0.1C291.4,307.9,291.5,308,291.6,308.1L291.6,308.1L291.6,308.1z M287.5,305.2
			c0.1,0.1,0.2,0,0.3-0.1l0,0c0.1-0.1,0-0.2,0-0.2l0,0c0,0,0,0-0.1,0c-0.1,0-0.2,0-0.2,0.1C287.4,305,287.4,305.1,287.5,305.2
			L287.5,305.2L287.5,305.2z M268.8,314.2c0,0.1,0,0.2,0.2,0.2c0.1,0,0.2,0,0.3-0.2c0-0.1,0-0.2-0.2-0.2
			C269,314,268.9,314.1,268.8,314.2z M269.9,309.3c0,0.1,0,0.2,0.2,0.2c0.1,0,0.2,0,0.3-0.1l0,0c0-0.1,0-0.2-0.2-0.2
			C270,309.1,269.9,309.2,269.9,309.3L269.9,309.3z M271,304.4c0,0.1,0,0.2,0.2,0.2c0.1,0,0.2-0.1,0.3-0.2c0-0.1,0-0.2-0.2-0.2
			C271.1,304.2,271,304.3,271,304.4L271,304.4z M286.4,316.1c0.1,0.1,0.2,0.1,0.3,0.1l0,0c0.1-0.1,0.1-0.2,0.1-0.3
			c-0.1-0.1-0.2-0.1-0.3-0.1l0,0C286.4,315.9,286.4,316,286.4,316.1z M283.8,311.9c0.1,0.1,0.2,0.1,0.3,0.1l0,0
			c0.1-0.1,0.1-0.2,0.1-0.3c-0.1-0.1-0.2-0.1-0.3-0.1C283.7,311.6,283.7,311.8,283.8,311.9L283.8,311.9z M281.1,307.6
			c0.1,0.1,0.2,0.1,0.3,0.1l0,0c0.1-0.1,0.1-0.2,0.1-0.3c-0.1-0.1-0.2-0.1-0.3-0.1C281.1,307.4,281.1,307.6,281.1,307.6L281.1,307.6
			z M278.5,303.4c0.1,0.1,0.2,0.1,0.3,0.1l0,0c0.1-0.1,0.1-0.2,0.1-0.3l0,0c0-0.1-0.2-0.1-0.2-0.1l0,0
			C278.4,303.2,278.4,303.3,278.5,303.4L278.5,303.4L278.5,303.4z M283.8,330.1c0.1,0.2,0.3,0.2,0.5,0.1l0,0
			c0.2-0.1,0.2-0.3,0.1-0.5c-0.1-0.1-0.3-0.2-0.4-0.1C283.7,329.8,283.7,330,283.8,330.1L283.8,330.1z M279.4,323.1
			c0.1,0.2,0.3,0.2,0.4,0.1l0,0c0.2-0.1,0.2-0.3,0.1-0.5l0,0c-0.1-0.2-0.3-0.2-0.5-0.1C279.3,322.7,279.3,323,279.4,323.1
			L279.4,323.1L279.4,323.1z M275,316.1c0.1,0.2,0.3,0.2,0.5,0.1c0.2-0.1,0.2-0.3,0.1-0.5s-0.3-0.2-0.5-0.1
			C275,315.7,274.9,316,275,316.1L275,316.1z M270.7,309.1c0.1,0.2,0.3,0.2,0.5,0.1c0.2-0.1,0.2-0.3,0.1-0.5
			c-0.1-0.2-0.3-0.2-0.5-0.1l0,0C270.6,308.7,270.6,309,270.7,309.1L270.7,309.1z M293,315.6c0.2,0.1,0.4,0.1,0.5-0.1
			s0.1-0.4-0.1-0.5c-0.1-0.1-0.3-0.1-0.5,0.1l0,0C292.8,315.3,292.9,315.5,293,315.6L293,315.6z M286.2,310.6c0,0.2,0.2,0.3,0.4,0.3
			c0.1,0,0.2-0.1,0.2-0.1c0-0.1,0.1-0.2,0.1-0.2l0,0c0-0.1,0-0.2-0.1-0.2c-0.2-0.1-0.4-0.1-0.5,0.1
			C286.2,310.4,286.2,310.5,286.2,310.6L286.2,310.6z M279.6,306c0.1,0.1,0.3,0.1,0.4,0l0,0c0,0,0.1,0,0.1-0.1
			c0.1-0.2,0.1-0.4-0.1-0.5l0,0c-0.2-0.1-0.3-0.1-0.5,0.1C279.5,305.7,279.5,305.9,279.6,306L279.6,306z M273,301.2
			c0.2,0.1,0.4,0.1,0.5-0.1c0.1-0.2,0.1-0.4-0.1-0.5c-0.2-0.1-0.4-0.1-0.5,0.1C272.8,300.9,272.8,301.1,273,301.2L273,301.2z"/>
		
			<linearGradient id="neck-2_1_" gradientUnits="userSpaceOnUse" x1="346.95" y1="265.9182" x2="346.95" y2="318.0921" gradientTransform="matrix(1 0 0 -1 0 470)">
			<stop  offset="0" style="stop-color:#FFBEB6"/>
			<stop  offset="1" style="stop-color:#F2A19C"/>
		</linearGradient>
		<path id="neck-2" class="st23" d="M339.5,158.8c0,0-0.5,10.2-3.5,15c0,0,14.3,2.8,20.6,5.3l1.3-13.1L339.5,158.8z"/>
		<path id="face-2" class="st4" d="M366,166.5c7.9-3.2,11.9-11.1,13.6-10.9c1.7,0.2,5.5-0.2,5.9-2c0.4-1.8-1.8-8.4-2.3-14.7
			c0-0.6-0.1-1.2,0-1.8c0,0,0,0,0-0.1v-0.3c0-0.4,0-1.1,0-2c-4.6,2.2-8.8,2.9-10.8,1.8c-5.7-3-6.4,0.8-12,5.3
			c-5.7,4.5-10.6,1.9-18.1,0.1c-7.5-1.8-7.8,5.7-4.9,8.3c2.8,2.6,6.4,4.1,4.6,7.1c-0.6,0.8-1.5,1.3-2.5,1.4l0.8,0.6
			c0.2,0.2,0.5,0.4,0.7,0.6l3.6,2.4C351,166.8,358.5,169.5,366,166.5z"/>
		<path id="hair-2_1_" class="st12" d="M320.6,141.8c-12.3-35.9,7.3-35,21.5-35c15.8,0,23-0.3,23-0.3l35.1-0.5c0.6,9.1-3.1,18-10,24
			c7.5-5.3,12-13.9,12.1-23.1c0-0.6,1-0.7,1,0c-0.3,12.7-7.6,23.1-19,27.3c-5,2.7-9.7,3.5-11.9,2.4c-5.7-3-6.4,0.8-12,5.3
			c-5.6,4.5-10.6,1.9-18.1,0.1s-7.8,5.7-4.9,8.3c2.9,2.6,6.4,4.1,4.7,7.1S327.8,162.7,320.6,141.8z"/>
		
			<linearGradient id="sweater-2_1_" gradientUnits="userSpaceOnUse" x1="302.6387" y1="226.4013" x2="466.7488" y2="26.5576" gradientTransform="matrix(1 0 0 -1 0 470)">
			<stop  offset="0" style="stop-color:#A1C3FC"/>
			<stop  offset="0.6955" style="stop-color:#81AEF2"/>
			<stop  offset="1" style="stop-color:#78A9EF"/>
		</linearGradient>
		<path id="sweater-2" class="st24" d="M336.2,173.5c0,0-19,9.4-38.3,34.3s-15.9,35.2-26.5,50c-10.6,14.8-28.5,29.7-19.6,54.1
			c0,0,51.9,35.8,117.4,11.2l-12.6-144C350,176.6,343.2,174.8,336.2,173.5z"/>
		<path id="R_sleeve-2" class="st8" d="M356.6,179.1c0,0,8.9,38.3,22.4,61.3s20.4,29.7,43.2,31.9c17.8,1.7,34,2.3,34,2.3l16.5,75.5
			c0,0-25.3,8.2-44.4-3.4c-21.5-13.1-32-9-44.4-7s-41.2-0.8-53.7-39.6S319.6,228,336,173.8l0,0"/>
		<path id="eye-2" class="st19" d="M387.1,141.4c-1.6,2.5-4.9,3.1-7.4,1.5c-0.9-0.6-1.6-1.4-2-2.4c-0.3-0.7,0.8-1.4,1.1-0.6
			c0.8,2.1,3.1,3.2,5.2,2.4c0.8-0.3,1.5-0.8,2-1.5S387.6,140.7,387.1,141.4z"/>
	</g>
</g>
</svg>
