<?xml version="1.0" encoding="utf-8"?>
<!-- Generator: Adobe Illustrator 23.0.0, SVG Export Plug-In . SVG Version: 6.00 Build 0)  -->
<svg version="1.1" id="레이어_1" xmlns="http://www.w3.org/2000/svg" xmlns:xlink="http://www.w3.org/1999/xlink" x="0px"
	 y="0px" width="992px" height="696px" viewBox="0 0 992 696" style="enable-background:new 0 0 992 696;" xml:space="preserve">
<style type="text/css">
	.st0{fill:#E2D7DA;}
	.st1{fill:url(#R_hand_1_);}
	.st2{fill:url(#SVGID_1_);}
	.st3{fill:url(#SVGID_2_);}
	.st4{fill:url(#SVGID_3_);}
	.st5{fill:url(#SVGID_4_);}
	.st6{fill:url(#SVGID_5_);}
	.st7{fill:url(#SVGID_6_);}
	.st8{fill:url(#SVGID_7_);}
	.st9{fill:url(#SVGID_8_);}
	.st10{fill:url(#SVGID_9_);}
	.st11{fill:url(#R_sleeve_1_);}
	.st12{fill:#E94A47;}
	.st13{fill:#428DFC;}
	.st14{fill:url(#circle_2_);}
	.st15{fill:url(#square_1_);}
	.st16{fill:url(#R_shoe_1_);}
	.st17{fill:url(#R_trousers_1_);}
	.st18{fill:url(#L_trousers_1_);}
	.st19{opacity:0.86;fill:#FFFFFF;enable-background:new    ;}
	.st20{fill:url(#neck_1_);}
	.st21{fill:#FFCFCA;}
	.st22{fill:url(#sweater_1_);}
	.st23{fill:#A1C3FC;}
	.st24{fill:url(#hair_1_);}
	.st25{fill:#1C2868;}
	.st26{fill:#23286B;}
</style>
<g>
	<ellipse class="st0" cx="890.8" cy="675.2" rx="101.3" ry="20.8"/>
	<g>
		
			<linearGradient id="R_hand_1_" gradientUnits="userSpaceOnUse" x1="1584.6912" y1="282.3824" x2="1606.8805" y2="255.5291" gradientTransform="matrix(1 0 0 -1 -770.087 470)">
			<stop  offset="0" style="stop-color:#FFBEB6"/>
			<stop  offset="1" style="stop-color:#F2A19C"/>
		</linearGradient>
		<path id="R_hand_3_" class="st1" d="M812.1,185c-4-6.1-3.6-6.8-1.5-10.1c2-3,4.3-5.9,6.9-8.5c1.2-1.1,0.6-3.4-2.9-1.9
			c-3.5,1.5-4.2,7.1-6.7,5.5c-2.4-1.6-4.8-8.6-6-14.1c-1.2-5.4-2-8.4-7.3-1.9c-5.3,6.5-7.7,13.2,2.7,26.6
			c6.8,8.4,11.3,18.4,13.1,29.1l11.1-11.8C818.2,193.9,815,189.6,812.1,185z"/>
		<g id="geometry_2_">
			<g id="ladder_1_">
				
					<linearGradient id="SVGID_1_" gradientUnits="userSpaceOnUse" x1="1522.7826" y1="-39.705" x2="1567.9821" y2="-39.705" gradientTransform="matrix(1 0 0 -1 -770.087 470)">
					<stop  offset="8.979999e-02" style="stop-color:#EEEEEE"/>
					<stop  offset="0.8178" style="stop-color:#D6D7D8"/>
				</linearGradient>
				<polygon class="st2" points="753.2,675.4 785,344 797.9,344 797.9,348.3 788.9,348.3 757.5,675.4 				"/>
				
					<linearGradient id="SVGID_2_" gradientUnits="userSpaceOnUse" x1="1562.967" y1="-39.705" x2="1724.3093" y2="-39.705" gradientTransform="matrix(1 0 0 -1 -770.087 470)">
					<stop  offset="8.979999e-02" style="stop-color:#EEEEEE"/>
					<stop  offset="0.8178" style="stop-color:#D6D7D8"/>
				</linearGradient>
				<polygon class="st3" points="836.1,675.4 792.9,344 895.9,344 896.2,345.8 953.9,675.4 949.5,675.4 892.3,348.3 797.8,348.3 
					840.4,675.4 				"/>
				<g>
					
						<linearGradient id="SVGID_3_" gradientUnits="userSpaceOnUse" x1="1577.027" y1="49.25" x2="1675.397" y2="49.25" gradientTransform="matrix(1 0 0 -1 -770.087 470)">
						<stop  offset="8.979999e-02" style="stop-color:#EEEEEE"/>
						<stop  offset="0.8178" style="stop-color:#D6D7D8"/>
					</linearGradient>
					<polygon class="st4" points="904.5,418.6 806.9,418.6 807.5,422.9 905.3,422.9 					"/>
					
						<linearGradient id="SVGID_4_" gradientUnits="userSpaceOnUse" x1="1582.447" y1="7.51" x2="1682.697" y2="7.51" gradientTransform="matrix(1 0 0 -1 -770.087 470)">
						<stop  offset="8.979999e-02" style="stop-color:#EEEEEE"/>
						<stop  offset="0.8178" style="stop-color:#D6D7D8"/>
					</linearGradient>
					<polygon class="st5" points="911.8,460.3 812.4,460.3 812.9,464.6 912.6,464.6 					"/>
					
						<linearGradient id="SVGID_5_" gradientUnits="userSpaceOnUse" x1="1587.907" y1="-34.38" x2="1690.027" y2="-34.38" gradientTransform="matrix(1 0 0 -1 -770.087 470)">
						<stop  offset="8.979999e-02" style="stop-color:#EEEEEE"/>
						<stop  offset="0.8178" style="stop-color:#D6D7D8"/>
					</linearGradient>
					<polygon class="st6" points="919.2,502.2 817.8,502.2 818.4,506.5 919.9,506.5 					"/>
					
						<linearGradient id="SVGID_6_" gradientUnits="userSpaceOnUse" x1="1593.3469" y1="-76.12" x2="1697.3369" y2="-76.12" gradientTransform="matrix(1 0 0 -1 -770.087 470)">
						<stop  offset="8.979999e-02" style="stop-color:#EEEEEE"/>
						<stop  offset="0.8178" style="stop-color:#D6D7D8"/>
					</linearGradient>
					<polygon class="st7" points="926.5,544 823.3,544 823.8,548.3 927.3,548.3 					"/>
					
						<linearGradient id="SVGID_7_" gradientUnits="userSpaceOnUse" x1="1571.3269" y1="91.105" x2="1668.0669" y2="91.105" gradientTransform="matrix(1 0 0 -1 -770.087 470)">
						<stop  offset="8.979999e-02" style="stop-color:#EEEEEE"/>
						<stop  offset="0.8178" style="stop-color:#D6D7D8"/>
					</linearGradient>
					<polygon class="st8" points="897.2,376.8 801.2,376.8 801.8,381 898,381 					"/>
					
						<linearGradient id="SVGID_8_" gradientUnits="userSpaceOnUse" x1="1598.8069" y1="-118.03" x2="1704.667" y2="-118.03" gradientTransform="matrix(1 0 0 -1 -770.087 470)">
						<stop  offset="8.979999e-02" style="stop-color:#EEEEEE"/>
						<stop  offset="0.8178" style="stop-color:#D6D7D8"/>
					</linearGradient>
					<polygon class="st9" points="933.8,585.9 828.7,585.9 829.3,590.2 934.6,590.2 					"/>
					
						<linearGradient id="SVGID_9_" gradientUnits="userSpaceOnUse" x1="1604.2469" y1="-159.77" x2="1711.967" y2="-159.77" gradientTransform="matrix(1 0 0 -1 -770.087 470)">
						<stop  offset="8.979999e-02" style="stop-color:#EEEEEE"/>
						<stop  offset="0.8178" style="stop-color:#D6D7D8"/>
					</linearGradient>
					<polygon class="st10" points="941.1,627.6 834.2,627.6 834.7,631.9 941.9,631.9 					"/>
				</g>
			</g>
			
				<linearGradient id="R_sleeve_1_" gradientUnits="userSpaceOnUse" x1="1611.1096" y1="272.0347" x2="1606.2168" y2="220.9297" gradientTransform="matrix(1 0 0 -1 -770.087 470)">
				<stop  offset="0" style="stop-color:#A1C3FC"/>
				<stop  offset="0.6955" style="stop-color:#81AEF2"/>
				<stop  offset="1" style="stop-color:#78A9EF"/>
			</linearGradient>
			<path id="R_sleeve_3_" class="st11" d="M887,172.4l-22,12.8c18.2,18.9,19.1,64.5-7.1,69.5c-17.2,3.3-27.2-4.8-31.3-8.9
				s-7.2-5.8-17.7-8.9c-10.5-3-13.8-14.1-13.8-14.1l27.1-28.8c0,0,1.1,2.1,8.5,9.6c7.3,7.6,10.1,8.7,20.2,2.9s5.4-11.8,5.4-11.8"/>
			<polygon id="triangle_1_" class="st12" points="825.9,272.9 569.5,126.4 811.1,0 			"/>
			<path id="half_a_circle_1_" class="st13" d="M443.6,442.9c35.9,66.9,19.1,150-40.1,197.5c-67.8,54.6-167,43.8-221.5-24.1
				L443.6,442.9z"/>
			
				<linearGradient id="circle_2_" gradientUnits="userSpaceOnUse" x1="1434.7039" y1="204.5189" x2="1366.2892" y2="-129.1343" gradientTransform="matrix(1 0 0 -1 -770.087 470)">
				<stop  offset="8.979999e-02" style="stop-color:#EEEEEE"/>
				<stop  offset="0.8178" style="stop-color:#D6D7D8"/>
			</linearGradient>
			<ellipse id="circle_1_" class="st14" cx="652.6" cy="323.9" rx="122.1" ry="122.1"/>
			
				<linearGradient id="square_1_" gradientUnits="userSpaceOnUse" x1="1391.1976" y1="-5.8079" x2="1510.9523" y2="-328.1383" gradientTransform="matrix(1 0 0 -1 -770.087 470)">
				<stop  offset="0" style="stop-color:#23286B"/>
				<stop  offset="1" style="stop-color:#151A4F"/>
			</linearGradient>
			<rect id="square_2_" x="538.2" y="446.1" class="st15" width="229" height="229.1"/>
		</g>
		<g id="woman_2_">
			
				<linearGradient id="R_shoe_1_" gradientUnits="userSpaceOnUse" x1="1591.0969" y1="80.5149" x2="1629.1375" y2="57.188" gradientTransform="matrix(1 0 0 -1 -770.087 470)">
				<stop  offset="0.1291" style="stop-color:#428DFC"/>
				<stop  offset="0.9987" style="stop-color:#1D72D8"/>
			</linearGradient>
			<path id="R_shoe_3_" class="st16" d="M876,390.6h-21.6c0,0-11.3,10.6-23.4,15.8c-12.1,5.2-15.7,12.2-15.7,12.2H886L876,390.6"/>
			<path id="L_shoe_3_" class="st13" d="M899.4,430.7h-22.9c0,0-12,11.2-24.8,16.7s-16.6,12.9-16.6,12.9H910L899.4,430.7"/>
			
				<linearGradient id="R_trousers_1_" gradientUnits="userSpaceOnUse" x1="1543.8374" y1="147.1559" x2="1614.4799" y2="152.1719" gradientTransform="matrix(1 0 0 -1 -770.087 470)">
				<stop  offset="0" style="stop-color:#23286B"/>
				<stop  offset="1" style="stop-color:#151A4F"/>
			</linearGradient>
			<path id="R_trousers_3_" class="st17" d="M890.6,241.8c-12.4,47.8-24.9,45.1-32.5,62.4s4.2,24.5,5.3,35.1s4.5,8.7,9,23
				c2.7,9.2,3.2,18.9,1.5,28.3h-19.6c0,0-16.1-40.2-23.6-56.8c-9.4-21-7.8-29.3-2.1-44.7c5.6-15,16.1-46.3,16.1-46.3L890.6,241.8z"
				/>
			
				<linearGradient id="L_trousers_1_" gradientUnits="userSpaceOnUse" x1="1608.77" y1="127.29" x2="1669.5071" y2="127.29" gradientTransform="matrix(1 0 0 -1 -770.087 470)">
				<stop  offset="0" style="stop-color:#23286B"/>
				<stop  offset="1" style="stop-color:#151A4F"/>
			</linearGradient>
			<path id="L_trousers_3_" class="st18" d="M896,391c-2.7-13.7-7.6-10.9-6.6-21.5s-1.3-17.5-5.6-28.7c-4.3-11.2-14.2-16.5-1-53.6
				c4.9-13.8,6.5-24.5,6.6-32.6c-2.9,0.3-6.1,0.5-9.4,0.5c-3.3,0.3-15.5,0.4-16.7,0.4c-6.6-0.3-13.1-0.2-19.7,0.2
				c-0.3,1.8-1.9,25.8-2.1,27.8c-2.3,15.9-3.6,35.2-2,51.4c1.7,16.2,37.1,95.9,37.1,95.9h22.9C899.4,430.7,898.7,404.7,896,391z"/>
			<path id="texture_3_" class="st19" d="M863.8,277.3c0-0.1,0-0.2-0.1-0.2c-0.1,0-0.2,0-0.2,0.1c0,0.1,0,0.2,0.1,0.2l0,0
				C863.7,277.4,863.8,277.4,863.8,277.3L863.8,277.3z M864.6,273.5c0-0.1,0-0.2-0.1-0.2c0,0,0,0,0,0c-0.1,0-0.2,0-0.2,0.1
				c0,0.1,0,0.2,0.1,0.2C864.5,273.7,864.6,273.6,864.6,273.5L864.6,273.5z M850.4,268.1c0-0.1-0.2-0.1-0.2,0
				c-0.1,0-0.1,0.1-0.1,0.2c0,0,0,0,0,0c0,0.1,0.2,0.1,0.2,0C850.4,268.2,850.4,268.1,850.4,268.1L850.4,268.1L850.4,268.1z
				 M871.8,275.2c0-0.1-0.1-0.1-0.2-0.1c-0.1,0-0.1,0.1-0.1,0.2s0.1,0.1,0.2,0.1l0,0C871.8,275.4,871.8,275.3,871.8,275.2
				C871.8,275.2,871.8,275.2,871.8,275.2z M857.3,272.3c-0.1,0-0.2,0-0.2,0s0,0.2,0,0.2s0.2,0,0.2,0
				C857.4,272.4,857.4,272.3,857.3,272.3z M880.6,289.7c0-0.2-0.2-0.3-0.4-0.2h0c-0.2,0-0.3,0.2-0.2,0.4l0,0c0,0.2,0.2,0.3,0.4,0.2
				h0C880.5,290,880.7,289.8,880.6,289.7L880.6,289.7z M878.8,282.6c0-0.2-0.2-0.3-0.4-0.2l0,0c-0.2,0-0.3,0.2-0.2,0.4
				c0,0.2,0.2,0.3,0.4,0.2l0,0C878.7,282.9,878.8,282.8,878.8,282.6L878.8,282.6z M851.9,292.4c-0.1-0.1-0.3,0-0.4,0.1
				c-0.1,0.1,0,0.3,0.1,0.4l0,0c0.1,0.1,0.3,0,0.4-0.1C852.1,292.6,852,292.5,851.9,292.4L851.9,292.4L851.9,292.4z M855.6,286.1
				c-0.1-0.1-0.3,0-0.4,0.1l0,0c-0.1,0.1,0,0.3,0.1,0.4c0.1,0.1,0.3,0,0.4-0.1C855.8,286.3,855.7,286.1,855.6,286.1L855.6,286.1z
				 M859.3,279.8c-0.2-0.1-0.3,0-0.4,0.1c-0.1,0.1,0,0.3,0.1,0.4l0,0c0.1,0.1,0.3,0,0.4-0.1c0,0,0,0,0,0
				C859.5,280,859.4,279.9,859.3,279.8L859.3,279.8z M862.9,273.5c-0.1-0.1-0.3,0-0.4,0.1l0,0c-0.1,0.1,0,0.3,0.1,0.4
				c0.1,0.1,0.3,0,0.4-0.1C863.1,273.7,863.1,273.5,862.9,273.5L862.9,273.5z M867.8,294.5c0-0.2-0.1-0.3-0.3-0.4
				c-0.2,0-0.3,0.1-0.3,0.3c0,0.2,0.1,0.3,0.3,0.4c0,0,0,0,0,0C867.6,294.7,867.8,294.6,867.8,294.5L867.8,294.5z M868.8,287.2
				c0-0.2-0.1-0.3-0.3-0.4c-0.2,0-0.3,0.1-0.3,0.3c0,0.2,0.1,0.3,0.3,0.4c0,0,0,0,0,0C868.6,287.5,868.8,287.4,868.8,287.2
				L868.8,287.2z M869.8,280c0-0.2-0.1-0.3-0.3-0.4c-0.2,0-0.3,0.1-0.3,0.3c0,0.2,0.1,0.3,0.3,0.3
				C869.6,280.3,869.8,280.2,869.8,280L869.8,280z M843.5,280.3c-0.1-0.1-0.3-0.2-0.4-0.1c0,0,0,0,0,0c-0.1,0.1-0.2,0.3-0.1,0.4l0,0
				c0.1,0.1,0.3,0.2,0.4,0.1C843.6,280.6,843.6,280.5,843.5,280.3L843.5,280.3z M849.3,275.9c-0.1-0.1-0.3-0.2-0.4-0.1l0,0
				c-0.1,0.1-0.2,0.3-0.1,0.4c0.1,0.1,0.3,0.1,0.4,0.1C849.4,276.2,849.5,276.1,849.3,275.9C849.4,275.9,849.4,275.9,849.3,275.9
				L849.3,275.9z M855.2,271.5c-0.1-0.1-0.3-0.2-0.4-0.1s-0.2,0.3-0.1,0.4l0,0c0.1,0.1,0.3,0.2,0.4,0.1l0,0
				C855.2,271.8,855.3,271.6,855.2,271.5L855.2,271.5z M874.9,295.2c0-0.1-0.1-0.3-0.3-0.3s-0.3,0.1-0.3,0.3l0,0
				c0,0.1,0.1,0.3,0.3,0.3C874.7,295.5,874.9,295.4,874.9,295.2z M875.1,288.7c0-0.1-0.1-0.3-0.3-0.3s-0.3,0.1-0.3,0.3
				c0,0.1,0.1,0.3,0.3,0.3C875,289,875.1,288.9,875.1,288.7C875.1,288.7,875.1,288.7,875.1,288.7L875.1,288.7z M875.4,282.2
				c0,0,0-0.1,0-0.1l0,0c0-0.1-0.1-0.1-0.2-0.1c-0.2,0-0.3,0.1-0.3,0.3l0,0c0,0.1,0.1,0.3,0.3,0.3c0.1,0,0.1,0,0.2-0.1
				C875.4,282.4,875.4,282.3,875.4,282.2L875.4,282.2z M849.9,283.5c-0.1-0.1-0.3-0.1-0.4,0l0,0c-0.1,0.1-0.1,0.3,0,0.4l0,0
				c0.1,0.1,0.3,0.1,0.4,0C850,283.8,850,283.6,849.9,283.5L849.9,283.5z M854.7,279.1c-0.1-0.1-0.3-0.1-0.4,0l0,0
				c-0.1,0.1-0.1,0.3,0,0.4l0,0c0.1,0.1,0.3,0.1,0.4,0C854.8,279.4,854.8,279.2,854.7,279.1L854.7,279.1z M859.5,274.7
				c-0.1-0.1-0.3-0.1-0.4,0l0,0c-0.1,0.1-0.1,0.3,0,0.4c0,0,0,0,0,0c0.1,0.1,0.3,0.1,0.4,0l0,0C859.6,275,859.6,274.8,859.5,274.7
				L859.5,274.7z M883.5,277.7c-0.1-0.1-0.2-0.2-0.3-0.2c-0.1,0-0.2,0.2-0.2,0.4c0.1,0.1,0.2,0.2,0.4,0.1
				C883.5,278,883.6,277.8,883.5,277.7z M863,289c-0.1,0-0.3,0-0.4,0.1c-0.1,0.1,0,0.3,0.1,0.4s0.3,0,0.4-0.1
				C863.2,289.2,863.1,289,863,289L863,289z M865.7,283c-0.1-0.1-0.3,0-0.4,0.1c-0.1,0.1,0,0.3,0.1,0.4s0.3,0,0.3-0.1c0,0,0,0,0,0
				C865.9,283.3,865.9,283.1,865.7,283L865.7,283z M868.5,277.1c-0.1-0.1-0.3,0-0.3,0.1c0,0,0,0,0,0c-0.1,0.1,0,0.3,0.1,0.4
				s0.3,0,0.3-0.1l0,0C868.6,277.4,868.6,277.2,868.5,277.1C868.5,277.1,868.5,277.1,868.5,277.1L868.5,277.1z M846.1,270.9
				c0-0.1-0.2-0.2-0.3-0.2c-0.1,0-0.2,0.2-0.2,0.3v0c0,0.1,0.2,0.2,0.3,0.2c0,0,0,0,0,0C846.1,271.2,846.2,271.1,846.1,270.9
				C846.1,270.9,846.1,270.9,846.1,270.9L846.1,270.9z M852.2,268.7c-0.1-0.1-0.2-0.2-0.4-0.1c-0.1,0.1-0.2,0.2-0.2,0.3
				c0.1,0.1,0.2,0.2,0.3,0.2C852.2,269,852.3,268.8,852.2,268.7C852.2,268.7,852.2,268.7,852.2,268.7L852.2,268.7z M883.5,281.7
				c0-0.1-0.1-0.1-0.2-0.1c-0.1,0-0.2,0.1-0.1,0.2s0.1,0.1,0.2,0.1l0,0C883.4,281.9,883.5,281.8,883.5,281.7L883.5,281.7z
				 M882.9,278c0-0.1-0.1-0.1-0.2-0.1c-0.1,0-0.2,0.1-0.1,0.2s0.1,0.1,0.2,0.1C882.8,278.1,882.9,278,882.9,278L882.9,278z
				 M867.7,277.8c-0.1,0-0.2,0-0.2,0s0,0.2,0,0.2s0.2,0,0.2,0C867.8,277.9,867.8,277.8,867.7,277.8L867.7,277.8L867.7,277.8z
				 M870,274.7c-0.1,0-0.2,0-0.2,0c0,0,0,0,0,0c0,0.1,0,0.2,0,0.2l0,0c0.1,0,0.2,0,0.2,0C870.1,274.8,870,274.7,870,274.7L870,274.7
				L870,274.7z M875.9,279.5c0-0.1,0-0.2-0.1-0.2h0c-0.1,0-0.2,0-0.2,0.1v0c0,0.1,0,0.2,0.1,0.2
				C875.8,279.6,875.9,279.5,875.9,279.5L875.9,279.5z M883.6,286.4c0-0.1-0.1-0.2-0.2-0.2c0,0,0,0,0,0c-0.1,0-0.2,0.1-0.2,0.2v0
				c0,0.1,0.1,0.2,0.2,0.2c0,0,0,0,0,0C883.6,286.6,883.6,286.5,883.6,286.4L883.6,286.4z M883.8,282c0-0.1-0.1-0.2-0.2-0.2
				c0,0,0,0,0,0c-0.1,0-0.2,0.1-0.2,0.2s0.1,0.2,0.2,0.2C883.7,282.2,883.8,282.2,883.8,282C883.8,282.1,883.8,282.1,883.8,282
				L883.8,282z M883.9,277.7c0-0.1-0.1-0.2-0.2-0.2s-0.2,0.1-0.2,0.2c0,0,0,0,0,0c0,0.1,0.1,0.1,0.2,0.2
				C883.8,277.9,883.9,277.8,883.9,277.7L883.9,277.7z M866.8,278.7c-0.1-0.1-0.2-0.1-0.3,0c-0.1,0.1-0.1,0.2,0,0.3
				c0.1,0.1,0.2,0.1,0.2,0c0,0,0,0,0,0C866.8,278.9,866.8,278.8,866.8,278.7L866.8,278.7L866.8,278.7z M870,275.7
				c-0.1-0.1-0.2-0.1-0.3,0c-0.1,0.1-0.1,0.2,0,0.3c0.1,0.1,0.2,0.1,0.3,0l0,0C870,275.9,870,275.8,870,275.7L870,275.7z
				 M875.5,282.3c0-0.1,0-0.2-0.1-0.2c0,0,0,0,0,0l0,0c-0.1,0-0.2,0-0.2,0.1s0,0.2,0.1,0.2c0,0,0,0,0,0c0,0,0,0,0.1,0
				C875.4,282.4,875.4,282.4,875.5,282.3L875.5,282.3z M877.2,278.1c-0.1,0-0.2,0-0.3,0.1c0,0.1,0,0.2,0.1,0.2c0.1,0,0.2,0,0.2-0.1
				l0,0C877.3,278.2,877.3,278.1,877.2,278.1L877.2,278.1z M870.7,300.9c-0.2-0.1-0.3,0-0.4,0.1c-0.1,0.2,0,0.3,0.2,0.4
				c0.2,0.1,0.3,0,0.4-0.1C870.9,301.1,870.8,300.9,870.7,300.9L870.7,300.9z M873.9,294.1c-0.2-0.1-0.3,0-0.4,0.1
				c-0.1,0.2,0,0.3,0.2,0.4c0.2,0.1,0.3,0,0.4-0.1C874.1,294.3,874,294.1,873.9,294.1L873.9,294.1z M877.1,287.3
				c-0.2-0.1-0.3,0-0.4,0.1c-0.1,0.1,0,0.3,0.1,0.4c0,0,0,0,0,0c0.2,0.1,0.3,0,0.4-0.1C877.3,287.5,877.3,287.4,877.1,287.3
				L877.1,287.3z M880.3,280.5c-0.2-0.1-0.3,0-0.4,0.1c0,0,0,0,0,0c-0.1,0.2,0,0.3,0.2,0.4c0.2,0.1,0.3,0,0.4-0.1
				C880.5,280.7,880.5,280.5,880.3,280.5C880.3,280.5,880.3,280.5,880.3,280.5L880.3,280.5z M849.6,277.5c-0.1-0.2-0.2-0.2-0.4-0.2
				c-0.2,0.1-0.2,0.2-0.2,0.4c0.1,0.2,0.2,0.3,0.4,0.2C849.6,277.9,849.7,277.7,849.6,277.5L849.6,277.5z M856.7,275
				c-0.1-0.2-0.2-0.3-0.4-0.2c-0.2,0.1-0.3,0.2-0.2,0.4l0,0c0.1,0.2,0.2,0.3,0.4,0.2S856.7,275.2,856.7,275
				C856.7,275,856.7,275,856.7,275z M863.8,272.5c0-0.2-0.2-0.3-0.4-0.2h0c-0.2,0.1-0.3,0.2-0.2,0.4c0.1,0.2,0.2,0.2,0.4,0.2
				C863.7,272.8,863.8,272.7,863.8,272.5C863.8,272.5,863.8,272.5,863.8,272.5z M860.8,289.3c-0.1-0.1-0.3-0.1-0.4,0l0,0
				c-0.1,0.1-0.1,0.3,0,0.4c0.1,0.1,0.3,0.1,0.4,0S860.9,289.5,860.8,289.3L860.8,289.3L860.8,289.3z M866.4,284.3
				c-0.1-0.1-0.3-0.1-0.4,0c0,0,0,0,0,0c-0.1,0.1-0.1,0.3,0,0.4l0,0c0.1,0.1,0.3,0.1,0.4,0l0,0C866.5,284.6,866.5,284.4,866.4,284.3
				C866.4,284.3,866.4,284.3,866.4,284.3L866.4,284.3z M871.9,279.2c-0.1-0.1-0.3-0.1-0.4,0s-0.1,0.3,0,0.4c0.1,0.1,0.3,0.1,0.4,0
				l0,0C872,279.6,872.1,279.4,871.9,279.2L871.9,279.2L871.9,279.2z M863.2,293.9c-0.1-0.1-0.3-0.1-0.4,0s-0.1,0.3,0,0.4
				s0.3,0.1,0.4,0C863.3,294.2,863.3,294,863.2,293.9L863.2,293.9L863.2,293.9z M868.5,288.6c-0.1-0.1-0.3-0.1-0.5,0
				c-0.1,0.1-0.1,0.3,0,0.4c0.1,0.1,0.3,0.1,0.4,0C868.6,289,868.6,288.8,868.5,288.6L868.5,288.6z M873.8,283.4
				c-0.1-0.1-0.3-0.1-0.4,0s-0.1,0.3,0,0.4s0.3,0.1,0.4,0C874,283.7,874,283.5,873.8,283.4L873.8,283.4z M879.2,278.1
				c-0.1-0.1-0.3-0.1-0.4,0c0,0,0,0,0,0c-0.1,0.1-0.1,0.3,0,0.4c0.1,0.1,0.3,0.1,0.4,0l0,0C879.3,278.5,879.3,278.3,879.2,278.1
				C879.2,278.1,879.2,278.1,879.2,278.1L879.2,278.1z M881.1,292.4c-0.2-0.1-0.3,0-0.4,0.2c-0.1,0.2,0,0.3,0.2,0.4
				c0.2,0.1,0.3,0,0.4-0.1l0,0C881.4,292.6,881.3,292.4,881.1,292.4L881.1,292.4z M858.1,279.1c-0.1-0.1-0.2-0.2-0.4-0.2
				c0,0,0,0,0,0c-0.2,0.1-0.2,0.2-0.2,0.4s0.2,0.2,0.4,0.2C858.1,279.5,858.2,279.3,858.1,279.1
				C858.1,279.1,858.1,279.1,858.1,279.1L858.1,279.1z M865.1,276.3c-0.1-0.1-0.2-0.2-0.4-0.2c0,0,0,0,0,0c-0.2,0.1-0.2,0.2-0.2,0.4
				s0.2,0.2,0.4,0.2C865.1,276.7,865.1,276.5,865.1,276.3C865.1,276.3,865.1,276.3,865.1,276.3L865.1,276.3z M870.4,283.2
				c-0.1-0.1-0.2-0.1-0.3-0.1c0,0,0,0,0,0c-0.1,0.1-0.1,0.2-0.1,0.3c0.1,0.1,0.2,0.1,0.3,0.1C870.4,283.5,870.5,283.4,870.4,283.2z
				 M875.2,280.2c-0.1-0.1-0.2-0.1-0.3-0.1c0,0,0,0,0,0c-0.1,0.1-0.1,0.2-0.1,0.3s0.2,0.1,0.3,0.1
				C875.2,280.5,875.2,280.3,875.2,280.2L875.2,280.2z M879.9,277.2c-0.1-0.1-0.2-0.1-0.3-0.1c-0.1,0.1-0.1,0.2-0.1,0.3
				c0.1,0.1,0.2,0.1,0.3,0.1C880,277.4,880,277.3,879.9,277.2L879.9,277.2z M880.5,289.5c-0.1-0.1-0.3,0-0.3,0l0,0
				c-0.1,0.1,0,0.3,0,0.3c0.1,0.1,0.3,0,0.3,0C880.6,289.7,880.6,289.6,880.5,289.5C880.5,289.5,880.5,289.5,880.5,289.5
				L880.5,289.5z M883.7,284.9c-0.1-0.1-0.2,0-0.3,0c0,0,0,0,0,0c-0.1,0.1,0,0.3,0,0.3l0,0c0.1,0.1,0.3,0,0.3-0.1
				C883.8,285.1,883.8,285,883.7,284.9L883.7,284.9L883.7,284.9z M883,282.2c0-0.1-0.2-0.1-0.3-0.1c0,0,0,0,0,0
				c-0.1,0-0.2,0.1-0.1,0.3c0,0,0,0,0,0c0,0.1,0.2,0.2,0.3,0.1l0,0C883,282.4,883.1,282.3,883,282.2C883,282.2,883,282.2,883,282.2
				L883,282.2z"/>
			
				<linearGradient id="neck_1_" gradientUnits="userSpaceOnUse" x1="1625.637" y1="272.8541" x2="1628.7906" y2="298.0845" gradientTransform="matrix(1 0 0 -1 -770.087 470)">
				<stop  offset="0" style="stop-color:#FFCFCA"/>
				<stop  offset="1" style="stop-color:#F1ACA7"/>
			</linearGradient>
			<path id="neck_3_" class="st20" d="M852.9,176.4l10.6-0.2l-2,8.9c-3.3,1.8-10.3,9.9-10.3,9.9c1.7-5.9,2.3-12,1.9-18L852.9,176.4z
				"/>
			<path id="face_3_" class="st21" d="M867.3,166.8c-2.6,0.1-4.2-0.6-7.2-7.8c-1.5-3.9-2.4-8.1-2.5-12.3c-0.2,0.1-0.3,0.2-0.5,0.3
				c0,0-6.3,5.2-10.1,5.2c-5.1,0.1-5.2,1.2-3.4,5.6c0,0-4.6,18.6,15.8,20.6c0,0,1,0,2.3,0c1.2-3,3.4-5.1,5.3-5.5
				C871.7,172.1,870,166.7,867.3,166.8z"/>
			
				<linearGradient id="sweater_1_" gradientUnits="userSpaceOnUse" x1="1652.2562" y1="241.5331" x2="1585.5181" y2="222.875" gradientTransform="matrix(1 0 0 -1 -770.087 470)">
				<stop  offset="0" style="stop-color:#A1C3FC"/>
				<stop  offset="0.6955" style="stop-color:#81AEF2"/>
				<stop  offset="1" style="stop-color:#78A9EF"/>
			</linearGradient>
			<path id="sweater_3_" class="st22" d="M896.6,241.2c-4.8-10.1-1.6-15.9-10.5-33c-5.2-10.2-12.5-19.1-21.4-26.4
				c-1.1,1-2.1,1.9-3,2.8l-0.1,0.5c-3.2,1.8-9.8,9.4-10.3,9.8l-14.4,55.7c34,37.4,60.1,25.1,60.1,25.1
				C908.1,263.7,901.4,251.3,896.6,241.2z"/>
			<path id="L_hand_3_" class="st21" d="M795.8,189c-4-6.1-3.6-6.8-1.5-10.1c2-3,4.3-5.9,6.9-8.5c1.2-1.1,0.6-3.4-2.9-1.9
				c-3.5,1.5-4.2,7.1-6.7,5.5c-2.4-1.6-4.8-8.6-6-14.1c-1.2-5.4-2-8.4-7.3-1.9c-5.3,6.5-7.7,13.2,2.7,26.6
				c6.8,8.4,11.3,18.4,13.1,29.1l11.1-11.8C801.9,197.9,798.7,193.5,795.8,189z"/>
			<path id="L_sleeve_3_" class="st23" d="M870.6,174.7v-0.4l-9.3,9.9l0.2,0.9c-1.5,1-3,2.2-4.3,3.5c0,0,0,0-0.1,0l-5.9,6.3
				l-0.1,0.1c0,0,0,0,0,0c0,0-4.8,11.2-15,17c-10.1,5.8-12.9,4.7-20.2-2.9c-7.3-7.6-8.5-9.6-8.5-9.6l-27.1,28.8
				c0,0,3.3,11.1,13.8,14.1c10.5,3,13.6,4.8,17.7,8.9s14.1,12.1,31.3,8.9C869.5,255.1,888.7,193.5,870.6,174.7z"/>
			
				<linearGradient id="hair_1_" gradientUnits="userSpaceOnUse" x1="1669.3136" y1="328.5911" x2="1642.4248" y2="298.5388" gradientTransform="matrix(1 0 0 -1 -770.0869 470)">
				<stop  offset="0" style="stop-color:#23286B"/>
				<stop  offset="1" style="stop-color:#151A4F"/>
			</linearGradient>
			<ellipse id="hair_3_" class="st24" cx="890" cy="151.7" rx="9.6" ry="9.6"/>
			<path id="nouth_1_" class="st25" d="M847.2,163.6c0.5-0.3,0-1-0.5-0.7c-0.5,0.3-1.1,0.4-1.7,0.4c-1.5-0.1-2.7-1.4-2.6-3
				c0-0.6-0.9-0.5-0.9,0.1c0,0.7,0.2,1.5,0.6,2.1C843.2,164.2,845.5,164.7,847.2,163.6L847.2,163.6z"/>
			<path id="hair-2_3_" class="st26" d="M910.3,206.6c0,0.5-0.7,0.5-0.7,0c0.5-7-3-13.8-9-17.4c-1.4-0.9-2.8-1.6-4.1-2.3
				c0.8,0.7,1.7,1.4,2.8,2.2c11.6,8.9,7.2,18.6,7.2,18.6c-15.1,10.1-37.5,3.7-37.5,3.7c2.6-6.4,1.2-13.8-3.7-18.7
				c-0.2-0.2-0.4-0.4-0.6-0.7c1.5,2.9,2.7,5.9,3.5,9.1c0.9,3.5-0.3,7.3-3.1,9.6c-0.3,0.3-0.9-0.2-0.5-0.5c8.9-7.7-3.4-17.5-3.5-26.1
				c0-0.3,0-0.5,0-0.8c-0.2-5.4,3.2-9.8,6.2-10.3c4.5-0.9,2.8-6.3,0.2-6.1s-4.2-0.6-7.2-7.8c-1.8-4.5-2.6-9.4-2.5-14.2
				c12.4-2.3,24.7,4.5,29.3,16.3c3.8,1.6,8.3,0.9,11.4-1.9c0.3-0.3,0.9,0.2,0.5,0.5c-3.2,2.8-7.6,3.6-11.6,2.3
				c0.6,1.7,0.9,3.6,1,5.4c0.1,6.5-0.1,9.8,2.2,13.4c0,0,0,0,0,0c0.1,0.2,0.2,0.4,0.3,0.5c0.7,1,1.5,1.9,2.4,2.7
				c3.9,3.3,9.4,4.7,12.7,8.9C909.1,196.8,910.6,201.7,910.3,206.6z"/>
		</g>
	</g>
</g>
</svg>
